<svg width="513" height="512" viewBox="0 0 513 512" fill="none" xmlns="http://www.w3.org/2000/svg">
<rect width="512" height="512" transform="translate(0.74707)" fill="#1D2140"/>
<g clip-path="url(#clip0_47_22)">
<path d="M133.962 380.753C125.552 372.224 118.344 362.854 112.337 352.883H94.0767C105.73 375.107 122.309 394.808 142.852 409.704C174.328 432.529 209.408 443.581 247.13 442.74C248.212 442.74 249.173 442.62 250.254 442.62L240.763 426.642C200.277 425.922 162.434 409.704 133.962 380.753Z" fill="#FFD987"/>
<path d="M435.023 214.133C426.253 171.247 401.265 133.526 364.623 108.179C336.872 88.838 303.474 78.5068 269.235 78.5068C264.43 78.5068 259.744 78.7471 254.939 79.1075C215.774 82.351 179.133 99.049 151.622 125.958C148.738 128.841 145.735 131.844 142.972 134.727C138.887 138.932 134.682 143.257 130.358 147.341C105.249 170.526 88.1897 198.636 79.5398 231.071C71.6108 260.743 72.6921 291.857 81.1016 320.928L94.7972 310.957C82.1828 259.902 95.9985 203.442 136.244 163.799C165.077 135.448 202.92 119.831 243.166 119.831C243.886 119.831 244.487 119.831 245.208 119.831C286.174 120.312 324.858 136.89 354.051 166.562C382.163 195.032 397.421 233.474 397.06 274.558C396.7 315.642 380.722 353.844 352.129 382.074C332.787 401.175 309.361 414.509 283.892 421.477L281.849 438.655C308.76 432.649 333.028 420.155 354.412 401.295C362.701 394.087 370.39 386.038 377.958 378.23C380.962 375.107 383.965 371.983 387.089 368.86C387.089 368.86 407.152 346.396 411.597 339.308C435.504 301.467 443.793 257.019 435.023 214.133ZM223.463 104.695C223.343 104.815 222.983 105.055 221.781 105.416C215.654 106.857 209.407 108.179 203.28 109.5C211.089 105.656 219.018 102.773 227.428 100.851C226.106 102.172 224.785 103.494 223.463 104.695ZM275.242 95.2048C271.998 98.4483 268.755 101.692 265.511 104.935C265.391 105.055 265.03 105.176 264.79 105.176C259.264 104.815 253.738 104.455 247.851 103.974L247.01 103.854C249.893 100.971 252.656 98.2081 255.419 95.5652C255.66 95.325 256.02 95.0847 256.02 95.0847C262.267 94.8444 268.634 94.7243 274.882 94.6042H276.203L275.242 95.2048ZM317.29 103.974C313.205 108.179 309.601 111.663 305.877 115.266C305.757 115.387 305.276 115.507 305.276 115.507C299.149 113.585 293.022 111.663 286.655 109.5L284.372 108.779L285.093 108.059C288.817 104.335 292.301 100.731 295.905 97.247L296.146 97.1269C302.873 98.6886 309.481 100.37 316.689 102.172L318.611 102.653L317.29 103.974ZM321.254 122.594L322.816 121.033C326.66 117.189 330.505 113.224 334.469 109.5C334.709 109.5 335.19 109.5 335.31 109.62C340.236 112.263 345.041 114.906 350.207 117.669L352.73 118.99L338.914 132.805L321.254 122.594ZM352.369 142.536L366.065 128.841L379.881 142.656L366.065 156.351L352.369 142.536ZM391.534 190.107C390.693 188.786 389.852 187.584 389.011 186.263C386.128 181.938 383.245 177.494 380.241 173.049L380.121 172.808C378.679 170.646 377.478 168.964 377.598 168.364C377.718 167.643 379.16 166.201 381.082 164.279C384.446 160.916 387.81 157.552 391.173 154.309L405.35 176.412L391.534 190.107ZM406.551 226.146C406.311 225.425 406.07 224.704 405.95 223.984C404.749 220.019 403.668 216.295 401.746 212.812C398.622 207.045 399.343 203.562 404.509 199.718C406.911 197.916 408.954 195.873 411.236 193.351C411.597 192.99 411.957 192.51 412.317 192.149L413.038 194.552C414.961 201.159 416.763 207.406 418.565 213.532C418.565 213.773 418.324 214.133 418.204 214.253C414.84 217.737 411.356 221.221 407.752 224.825L406.551 226.146ZM407.993 313.12C409.194 307.233 410.395 301.227 411.717 295.22C411.837 294.74 412.197 294.019 413.279 292.818C414.36 291.617 415.441 290.535 416.522 289.574C414.48 297.383 411.717 305.191 407.993 313.12ZM421.928 259.782C421.928 260.743 421.208 262.065 420.367 263.026C418.084 265.428 415.801 267.831 413.279 270.234L413.038 268.432C412.197 260.383 411.356 252.815 410.636 245.126C410.636 245.006 410.756 244.526 410.876 244.406C414.12 241.042 417.483 237.678 421.087 234.075L421.688 233.474C421.808 234.795 421.928 235.876 421.928 237.078C422.049 244.286 422.169 252.094 421.928 259.782Z" fill="#FFD987"/>
<path d="M160.512 190.227C183.458 167.282 213.612 155.75 243.766 155.75C260.826 155.75 277.885 159.474 293.623 166.802L293.743 166.681L308.039 156.23C288.577 145.539 266.712 139.772 243.887 139.772C243.766 139.772 243.766 139.772 243.646 139.772C207.966 139.772 174.448 153.707 149.099 178.935C123.991 203.922 110.175 237.318 110.055 272.876C110.055 281.405 110.776 289.934 112.337 298.103L126.994 287.412C122.909 252.934 134.082 216.775 160.512 190.227Z" fill="white"/>
<path d="M160.752 356.727C159.551 355.526 158.349 354.204 157.148 352.883H136.365C140.089 357.928 144.173 362.613 148.618 367.178C170.243 389.042 198.235 402.496 228.269 405.98L217.577 388.081C196.192 383.155 176.49 372.464 160.752 356.727Z" fill="white"/>
<path d="M312.724 178.095C317.53 181.578 322.095 185.543 326.54 189.867C372.552 235.757 372.672 310.597 326.78 356.727C315.728 367.779 302.753 376.428 288.577 382.195L286.415 400.094C305.396 393.727 322.816 383.156 337.352 368.62C362.941 343.153 377.117 309.396 377.238 273.477C377.358 237.919 363.542 204.403 338.554 179.296C331.346 171.968 323.417 165.721 314.887 160.315L312.845 177.854L312.724 178.095Z" fill="white"/>
<path d="M129.397 300.746L115.461 310.957L98.5215 323.21L85.1863 332.941L74.1338 340.869H88.3099H105.73H128.315H147.417H203.4L232.954 390.363L242.805 406.82L254.458 426.281L263.589 441.538L268.394 449.707L269.475 440.817L271.518 424.119L273.921 403.577L275.963 386.519L300.831 176.412L129.397 300.746Z" fill="white"/>
</g>
<defs>
<clipPath id="clip0_47_22">
<rect width="364.373" height="371.2" fill="white" transform="translate(74.1338 78.5068)"/>
</clipPath>
</defs>
</svg>
