<?xml version="1.0" encoding="utf-8"?>
<!-- Generator: Adobe Illustrator 28.0.0, SVG Export Plug-In . SVG Version: 6.00 Build 0)  -->
<svg version="1.1" id="Layer_1" xmlns="http://www.w3.org/2000/svg" xmlns:xlink="http://www.w3.org/1999/xlink" x="0px" y="0px"
	 viewBox="0 0 144 144" style="enable-background:new 0 0 144 144;" xml:space="preserve">
<style type="text/css">
	.st0{fill:#090438;}
	.st1{fill:#FFFFFF;}
	.st2{fill:none;stroke:#FFFFFF;stroke-width:0.2667;stroke-linecap:round;stroke-linejoin:round;stroke-miterlimit:10;}
</style>
<g>
	<rect class="st0" width="144" height="144"/>
	<path class="st1" d="M58.3,86.1c-1.6,0-3.2-0.3-4.7-1l-12.3-5.3c-0.4-0.2-0.7-0.6-0.7-1.1c0-0.4,0.3-0.9,0.7-1l41.1-15.8
		c0.5-0.2,1,0,1.3,0.4c0.3,0.4,0.2,1-0.1,1.4L67.3,82.2C64.9,84.7,61.7,86.1,58.3,86.1z M44.8,78.9l9.7,4.2c3.8,1.6,8.3,0.7,11-2.4
		l13.4-14.9L44.8,78.9z"/>
	<path class="st1" d="M61.2,137.6c-0.4,0-0.7-0.1-1-0.5c-0.3-0.4-0.2-1,0.1-1.4l17-19.1c3.1-3.5,8-4.6,12.3-2.7l13.1,5.8
		c0.4,0.1,0.7,0.6,0.7,1c0,0.4-0.3,0.9-0.7,1l-41.1,15.8C61.5,137.6,61.4,137.6,61.2,137.6z M85.4,115.3c-2.4,0-4.7,1-6.4,2.9
		l-13.9,15.5l34.1-13.1l-10.5-4.5C87.7,115.5,86.5,115.3,85.4,115.3z"/>
	<path class="st1" d="M54.9,84.7c-1.6,0-3.2-0.3-4.7-1l-8.9-3.8c-0.4-0.2-0.7-0.6-0.7-1.1c0-0.4,0.3-0.9,0.7-1l26.1-10
		c0.4-0.1,0.9-0.1,1.2,0.2c0.3,0.3,0.4,0.8,0.3,1.2l-2.7,7.7c-1.1,3.1-3.4,5.5-6.5,6.9C58.2,84.4,56.6,84.7,54.9,84.7z M44.8,78.9
		l6.4,2.7c2.4,1,5.2,1,7.7,0c2.4-1,4.4-3,5.2-5.6l1.9-5.3L44.8,78.9z"/>
	<path class="st1" d="M76.2,131.8c-0.3,0-0.6-0.1-0.8-0.3c-0.3-0.3-0.4-0.8-0.3-1.2l3.8-10.6c0.9-2.4,2.6-4.2,4.9-5.2
		c2.3-1,4.9-1,7.2,0l11.7,5.1c0.4,0.1,0.7,0.6,0.7,1c0,0.4-0.3,0.9-0.7,1l-26.1,10C76.5,131.8,76.4,131.8,76.2,131.8z M87.4,116.1
		c-0.9,0-1.8,0.1-2.7,0.6c-1.7,0.7-3,2.1-3.7,3.9l-3,8.2l21.1-8.1l-9.2-4C89.3,116.2,88.3,116.1,87.4,116.1z"/>
	<path class="st1" d="M61.9,124.7c-0.4,0-0.9-0.3-1-0.7L40.8,79.3c-0.2-0.4-0.1-1,0.2-1.3c0.4-0.3,0.8-0.4,1.3-0.2l13.2,6.3
		c4.1,1.9,6.6,5.9,6.8,10.4l0.7,29c0,0.5-0.4,1-0.9,1.1C62.1,124.6,62,124.7,61.9,124.7z M44.2,81.1l16.5,36.8L60,94.6
		c-0.1-3.6-2.2-6.9-5.5-8.5L44.2,81.1z"/>
	<path class="st1" d="M102.5,121.5c-0.1,0-0.3-0.1-0.5-0.1l-14.8-7c-3.1-1.5-5-4.5-5.2-7.9l-0.8-30.8c0-0.5,0.4-1,0.9-1.1
		c0.5-0.1,1,0.1,1.3,0.7l20.1,44.8c0.2,0.4,0.1,1-0.2,1.3C103.1,121.4,102.8,121.5,102.5,121.5z M88.2,112.3l12,5.7L83.7,81.2
		l0.7,25.2C84.4,109,85.9,111.2,88.2,112.3z"/>
	<path class="st1" d="M61.9,124.6c-0.4,0-0.9-0.3-1-0.7L46.4,91.8c-0.2-0.5-0.1-1,0.4-1.4c0.4-0.3,1-0.3,1.4,0.1l10.8,9.4
		c2.3,2,3.6,4.8,3.7,7.8l0.4,16c0,0.5-0.4,1-0.9,1.1C62.1,124.6,62,124.6,61.9,124.6z M50.6,95.5l10,22.4l-0.3-10.3
		c-0.1-2.4-1.1-4.6-2.9-6.1L50.6,95.5z"/>
	<path class="st1" d="M96.9,109c-0.3,0-0.5-0.1-0.7-0.3l-9.9-8.6c-2.8-2.4-4.5-6-4.6-9.7l-0.4-14.7c0-0.5,0.4-1,0.9-1.1
		c0.5-0.1,1,0.1,1.3,0.7l14.5,32.3c0.2,0.5,0.1,1-0.4,1.4C97.4,108.9,97.1,109,96.9,109z M83.7,81.2l0.2,9.1
		c0.1,3.1,1.5,6.1,3.8,8.1l6,5.2L83.7,81.2z"/>
	<path class="st1" d="M61.9,124.7c-0.1,0-0.1,0-0.2,0c-0.5-0.1-1-0.6-1-1.1V91.7c0-2.8,1-5.5,2.8-7.7L82,62.3c0.4-0.4,1-0.5,1.4-0.2
		c0.4,0.3,0.7,0.8,0.5,1.3L63,124C62.8,124.3,62.4,124.7,61.9,124.7z M79.8,68.3L65.3,85.4c-1.5,1.8-2.3,4-2.3,6.2v25.2L79.8,68.3z"
		/>
	<path class="st1" d="M61.2,137.6c-0.2,0-0.4-0.1-0.6-0.1c-0.4-0.3-0.7-0.8-0.5-1.3l21-60.6c0.1-0.5,0.7-0.8,1.3-0.7
		c0.5,0.1,1,0.6,1,1.1v33c0,2.1-0.7,4.2-2.1,5.8l-19.1,22.5C61.9,137.4,61.5,137.6,61.2,137.6z M81.1,82.7l-16.8,48.4l15.2-17.9
		c1-1.2,1.6-2.7,1.6-4.4L81.1,82.7z"/>
	<path class="st2" d="M48.9,45.2c0,0-0.5,0.4-0.5,0.7v3.7h1v-3.7C49.4,45.6,48.9,45.2,48.9,45.2z"/>
	<path class="st2" d="M69.7,63c0,0,0-20.8,0-21.9c0-0.3-0.6-2.4-0.6-2.4s-0.6,2.1-0.6,2.4c0,1,0,21.9,0,21.9"/>
	<path class="st2" d="M46.4,50.8h5"/>
	<path class="st2" d="M46.4,61.2h5"/>
	<path class="st2" d="M93.4,61.2h4.9"/>
	<path class="st2" d="M47.1,43.8h3.5"/>
	<path class="st2" d="M47.9,42.4v-0.1"/>
	<path class="st2" d="M47.9,40.5v-0.1"/>
	<path class="st2" d="M47.9,38.6v-0.1"/>
	<path class="st2" d="M48.9,42.4v-0.1"/>
	<path class="st2" d="M48.9,40.5v-0.1"/>
	<path class="st2" d="M48.9,38.6v-0.1"/>
	<path class="st2" d="M48.9,36.7v-0.1"/>
	<path class="st2" d="M49.8,42.4v-0.1"/>
	<path class="st2" d="M49.8,40.5v-0.1"/>
	<path class="st2" d="M49.8,38.6v-0.1"/>
	<path class="st2" d="M48.9,34.8v-0.2"/>
	<path class="st2" d="M48.9,32.9v-0.2"/>
	<path class="st2" d="M73.8,50.3c0,0.8-0.7,1.5-1.5,1.5s-1.5-0.7-1.5-1.5c0-0.8,0.7-1.5,1.5-1.5S73.8,49.5,73.8,50.3z"/>
	<path class="st2" d="M70.6,43.3c0,0.2-0.2,0.4-0.4,0.4c-0.2,0-0.4-0.2-0.4-0.4"/>
	<path class="st2" d="M71.5,43.3c0,0.2-0.2,0.4-0.4,0.4c-0.2,0-0.4-0.2-0.4-0.4"/>
	<path class="st2" d="M72.4,43.3c0,0.2-0.2,0.4-0.4,0.4c-0.2,0-0.4-0.2-0.4-0.4"/>
	<path class="st2" d="M70.6,47.4h1.8"/>
	<path class="st2" d="M70.6,44.9v1.7"/>
	<path class="st2" d="M71.5,44.9v1.7"/>
	<path class="st2" d="M72.4,44.9v1.7"/>
	<path class="st2" d="M73.2,50.3c0-0.2-0.1-0.4-0.4-0.4c-0.1-0.2-0.2-0.4-0.4-0.4s-0.4,0.1-0.4,0.4c-0.2,0.1-0.4,0.2-0.4,0.4
		c0,0.2,0.1,0.4,0.4,0.4c0.1,0.2,0.2,0.4,0.4,0.4s0.4-0.1,0.4-0.4C73,50.8,73.2,50.6,73.2,50.3z"/>
	<path class="st2" d="M75.1,63c0,0,0-20.8,0-21.9c0-0.3,0.6-2.4,0.6-2.4s0.6,2.1,0.6,2.4c0,1,0,21.9,0,21.9"/>
	<path class="st2" d="M74.2,43.3c0,0.2,0.2,0.4,0.4,0.4s0.4-0.2,0.4-0.4"/>
	<path class="st2" d="M73.3,43.3c0,0.2,0.2,0.4,0.4,0.4s0.4-0.2,0.4-0.4"/>
	<path class="st2" d="M72.4,43.3c0,0.2,0.2,0.4,0.4,0.4c0.2,0,0.4-0.2,0.4-0.4"/>
	<path class="st2" d="M74.2,47.4h-1.8"/>
	<path class="st2" d="M74.2,44.9v1.7"/>
	<path class="st2" d="M73.3,44.9v1.7"/>
	<path class="st2" d="M72.4,44.9v1.7"/>
	<path class="st2" d="M63.1,69.9c0,0,0-27.7,0-28.9c0-0.3-0.6-2.4-0.6-2.4s-0.6,2.1-0.6,2.4c0,1,0,21.3,0,21.3"/>
	<path class="st2" d="M67.3,50.3c0,0.8-0.7,1.5-1.5,1.5s-1.5-0.7-1.5-1.5c0-0.8,0.7-1.5,1.5-1.5S67.3,49.5,67.3,50.3z"/>
	<path class="st2" d="M63.9,43.3c0,0.2-0.2,0.4-0.4,0.4c-0.2,0-0.4-0.2-0.4-0.4"/>
	<path class="st2" d="M64.9,43.3c0,0.2-0.2,0.4-0.4,0.4c-0.2,0-0.4-0.2-0.4-0.4"/>
	<path class="st2" d="M65.8,43.3c0,0.2-0.2,0.4-0.4,0.4s-0.4-0.2-0.4-0.4"/>
	<path class="st2" d="M63.9,47.4h1.8"/>
	<path class="st2" d="M63.9,44.9v1.7"/>
	<path class="st2" d="M64.9,44.9v1.7"/>
	<path class="st2" d="M65.8,44.9v1.7"/>
	<path class="st2" d="M66.6,50.3c0-0.2-0.1-0.4-0.4-0.4c0-0.2-0.2-0.4-0.4-0.4c-0.2,0-0.4,0.1-0.4,0.4C65.1,50,65,50.1,65,50.3
		c0,0.2,0.1,0.4,0.4,0.4c0,0.2,0.2,0.4,0.4,0.4c0.2,0,0.4-0.1,0.4-0.4C66.4,50.8,66.6,50.6,66.6,50.3z"/>
	<path class="st2" d="M68.5,67.7c0,0,0-25.5,0-26.7c0-0.3,0.6-2.4,0.6-2.4s0.6,2.1,0.6,2.4c0,1,0,28,0,28"/>
	<path class="st2" d="M67.6,43.3c0,0.2,0.2,0.4,0.4,0.4c0.2,0,0.4-0.2,0.4-0.4"/>
	<path class="st2" d="M66.7,43.3c0,0.2,0.2,0.4,0.4,0.4c0.2,0,0.4-0.2,0.4-0.4"/>
	<path class="st2" d="M65.8,43.3c0,0.2,0.2,0.4,0.4,0.4c0.2,0,0.4-0.2,0.4-0.4"/>
	<path class="st2" d="M67.6,47.4h-1.8"/>
	<path class="st2" d="M67.6,44.9v1.7"/>
	<path class="st2" d="M66.7,44.9v1.7"/>
	<path class="st2" d="M65.8,44.9v1.7"/>
	<path class="st2" d="M56.4,72.6c0,0,0-23.6,0-29.2"/>
	<path class="st2" d="M60.6,50.3c0,0.8-0.7,1.5-1.5,1.5c-0.8,0-1.5-0.7-1.5-1.5c0-0.8,0.7-1.5,1.5-1.5C60,48.9,60.6,49.5,60.6,50.3z
		"/>
	<path class="st2" d="M57.4,47.4h1.8"/>
	<path class="st2" d="M57.4,44.9v1.7"/>
	<path class="st2" d="M58.3,44.9v1.7"/>
	<path class="st2" d="M59.1,44.9v1.7"/>
	<path class="st2" d="M60,50.3c0-0.2-0.1-0.4-0.4-0.4c0-0.2-0.2-0.4-0.4-0.4s-0.4,0.1-0.4,0.4c-0.2,0.1-0.4,0.2-0.4,0.4
		c0,0.2,0.1,0.4,0.4,0.4c0,0.2,0.2,0.4,0.4,0.4s0.4-0.1,0.4-0.4C59.8,50.8,60,50.6,60,50.3z"/>
	<path class="st2" d="M61.9,70.5c0,0,0-28.4,0-29.5c0-0.3,0.6-2.4,0.6-2.4s0.6,2.1,0.6,2.4c0,1,0,21.9,0,21.9"/>
	<path class="st2" d="M61,43.3c0,0.2,0.2,0.4,0.4,0.4c0.2,0,0.4-0.2,0.4-0.4"/>
	<path class="st2" d="M60.5,43.8c0.2,0,0.4-0.2,0.4-0.4"/>
	<path class="st2" d="M61,47.4h-1.8"/>
	<path class="st2" d="M61,44.9v1.7"/>
	<path class="st2" d="M60.1,44.9v1.7"/>
	<path class="st2" d="M59.1,44.9v1.7"/>
	<path class="st2" d="M65.3,43.8c0-4.1,0.1-11.6,5.9-18.2"/>
	<path class="st2" d="M69.7,41c0-3.7,0.4-10.6,2.1-15.4"/>
	<path class="st2" d="M72.4,30.6L71.8,32h0.5"/>
	<path class="st2" d="M72.4,30.6L73,32h-0.6"/>
	<path class="st2" d="M69,30.6L68.4,32H69"/>
	<path class="st2" d="M69,30.6l0.6,1.4H69"/>
	<path class="st2" d="M66.1,30.6L65.5,32h0.6"/>
	<path class="st2" d="M66.1,30.6l0.6,1.4h-0.6"/>
	<path class="st2" d="M95.9,45.2c0,0,0.5,0.4,0.5,0.7v3.7h-1v-3.7C95.4,45.6,95.9,45.2,95.9,45.2z"/>
	<path class="st2" d="M75.1,63c0,0,0-20.8,0-21.9c0-0.3,0.6-2.4,0.6-2.4s0.6,2.1,0.6,2.4c0,1,0,21.9,0,21.9"/>
	<path class="st2" d="M98.4,50.8h-4.9"/>
	<path class="st2" d="M97.7,43.8h-3.5"/>
	<path class="st2" d="M96.8,42.4v-0.1"/>
	<path class="st2" d="M96.8,40.5v-0.1"/>
	<path class="st2" d="M96.8,38.6v-0.1"/>
	<path class="st2" d="M95.9,42.4v-0.1"/>
	<path class="st2" d="M95.9,40.5v-0.1"/>
	<path class="st2" d="M95.9,38.6v-0.1"/>
	<path class="st2" d="M95.9,36.7v-0.1"/>
	<path class="st2" d="M95,42.4v-0.1"/>
	<path class="st2" d="M95,40.5v-0.1"/>
	<path class="st2" d="M95,38.6v-0.1"/>
	<path class="st2" d="M95.9,34.8v-0.2"/>
	<path class="st2" d="M95.9,32.9v-0.2"/>
	<path class="st2" d="M74.2,43.3c0,0.2,0.2,0.4,0.4,0.4s0.4-0.2,0.4-0.4"/>
	<path class="st2" d="M73.3,43.3c0,0.2,0.2,0.4,0.4,0.4s0.4-0.2,0.4-0.4"/>
	<path class="st2" d="M72.4,43.3c0,0.2,0.2,0.4,0.4,0.4c0.2,0,0.4-0.2,0.4-0.4"/>
	<path class="st2" d="M74.2,44.9v1.7"/>
	<path class="st2" d="M73.3,44.9v1.7"/>
	<path class="st2" d="M72.4,44.9v1.7"/>
	<path class="st2" d="M72.4,44.9v1.7"/>
	<path class="st2" d="M81.7,64.1c0,0,0-21.9,0-23.1c0-0.3,0.6-2.4,0.6-2.4s0.6,2.1,0.6,2.4c0,1,0,24.2,0,24.2"/>
	<path class="st2" d="M77.5,50.3c0,0.8,0.7,1.5,1.5,1.5c0.8,0,1.5-0.7,1.5-1.5c0-0.8-0.7-1.5-1.5-1.5C78.2,48.9,77.5,49.5,77.5,50.3
		z"/>
	<path class="st2" d="M80.8,43.3c0,0.2,0.2,0.4,0.4,0.4c0.2,0,0.4-0.2,0.4-0.4"/>
	<path class="st2" d="M79.9,43.3c0,0.2,0.2,0.4,0.4,0.4c0.2,0,0.4-0.2,0.4-0.4"/>
	<path class="st2" d="M79,43.3c0,0.2,0.2,0.4,0.4,0.4c0.2,0,0.4-0.2,0.4-0.4"/>
	<path class="st2" d="M80.8,47.4H79"/>
	<path class="st2" d="M80.8,44.9v1.7"/>
	<path class="st2" d="M79.9,44.9v1.7"/>
	<path class="st2" d="M79,44.9v1.7"/>
	<path class="st2" d="M78.2,50.3c0-0.2,0.1-0.4,0.4-0.4c0.1-0.2,0.2-0.4,0.4-0.4c0.2,0,0.4,0.1,0.4,0.4c0.2,0.1,0.4,0.2,0.4,0.4
		c0,0.2-0.1,0.4-0.4,0.4c-0.1,0.2-0.2,0.4-0.4,0.4c-0.2,0-0.4-0.1-0.4-0.4C78.3,50.8,78.2,50.6,78.2,50.3z"/>
	<path class="st2" d="M76.3,64.7c0,0,0-22.6,0-23.8c0-0.3-0.6-2.4-0.6-2.4s-0.6,2.1-0.6,2.4c0,1,0,25.8,0,25.8"/>
	<path class="st2" d="M77.2,43.3c0,0.2-0.2,0.4-0.4,0.4c-0.2,0-0.4-0.2-0.4-0.4"/>
	<path class="st2" d="M78.1,43.3c0,0.2-0.2,0.4-0.4,0.4c-0.2,0-0.4-0.2-0.4-0.4"/>
	<path class="st2" d="M79,43.3c0,0.2-0.2,0.4-0.4,0.4c-0.2,0-0.4-0.2-0.4-0.4"/>
	<path class="st2" d="M77.2,47.4H79"/>
	<path class="st2" d="M77.2,44.9v1.7"/>
	<path class="st2" d="M78.1,44.9v1.7"/>
	<path class="st2" d="M79,44.9v1.7"/>
	<path class="st2" d="M88.3,87.8c0,0,0-38.8,0-44.5"/>
	<path class="st2" d="M84.1,50.3c0,0.8,0.7,1.5,1.5,1.5c0.8,0,1.5-0.7,1.5-1.5c0-0.8-0.7-1.5-1.5-1.5C84.8,48.9,84.1,49.5,84.1,50.3
		z"/>
	<path class="st2" d="M87.4,47.4h-1.8"/>
	<path class="st2" d="M87.4,44.9v1.7"/>
	<path class="st2" d="M86.5,44.9v1.7"/>
	<path class="st2" d="M85.6,44.9v1.7"/>
	<path class="st2" d="M84.8,50.3c0-0.2,0.1-0.4,0.4-0.4c0.1-0.2,0.2-0.4,0.4-0.4c0.2,0,0.4,0.1,0.4,0.4c0.2,0.1,0.4,0.2,0.4,0.4
		c0,0.2-0.1,0.4-0.4,0.4c-0.1,0.2-0.2,0.4-0.4,0.4c-0.2,0-0.4-0.1-0.4-0.4C85,50.8,84.8,50.6,84.8,50.3z"/>
	<path class="st2" d="M82.9,62.4c0,0,0-20.2,0-21.3c0-0.3-0.6-2.4-0.6-2.4s-0.6,2.1-0.6,2.4c0,1,0,21.9,0,21.9"/>
	<path class="st2" d="M83.8,43.3c0,0.2-0.2,0.4-0.4,0.4s-0.4-0.2-0.4-0.4"/>
	<path class="st2" d="M84.3,43.8c-0.2,0-0.4-0.2-0.4-0.4"/>
	<path class="st2" d="M83.8,47.4h1.8"/>
	<path class="st2" d="M83.8,44.9v1.7"/>
	<path class="st2" d="M84.7,44.9v1.7"/>
	<path class="st2" d="M85.6,44.9v1.7"/>
	<path class="st2" d="M79.5,43.8c0-4.1-0.1-11.6-5.9-18.2"/>
	<path class="st2" d="M75.1,41c0-3.7-0.4-10.6-2.1-15.4"/>
	<path class="st2" d="M75.8,30.6l0.6,1.4h-0.6"/>
	<path class="st2" d="M75.8,30.6L75.2,32h0.6"/>
	<path class="st2" d="M78.7,30.6l0.6,1.4h-0.6"/>
	<path class="st2" d="M78.7,30.6L78.1,32h0.6"/>
	<path class="st2" d="M101.1,115.7V62.8l-5.2-36.2l-5.2,36.2v28.3L89.5,65c0,0,0-23,0-23.9c0-0.3-0.6-2.4-0.6-2.4s-0.6,2.1-0.6,2.4
		c0,0.2,0,1,0,2.3c0,0.2-0.2,0.4-0.4,0.4c-0.2,0-0.4-0.2-0.4-0.4c0,0.2-0.2,0.4-0.4,0.4c-0.2,0-0.4-0.2-0.4-0.4
		c0,0.2-0.2,0.4-0.4,0.4c-0.2,0-0.4-0.2-0.4-0.4c0,0.2-0.2,0.4-0.4,0.4c-0.2,0-0.4-0.2-0.4-0.4c0,0.2-0.2,0.4-0.4,0.4
		c0-8.3-4.7-14.3-10-18.2v-1.4l0.5-0.7c0,0,0-1.2,0-1.9c0-1.3-1-1.9-1-1.9v-2.7l-0.4,0.4L72.4,6.2l-0.8,11.2l-0.5-0.4v2.7
		c0,0-1,0.6-1,1.9c0,0.7,0,1.9,0,1.9l0.5,0.7v1.4c-5.3,3.9-10,9.9-10,18.2c-0.2,0-0.4-0.2-0.4-0.4c0,0.2-0.2,0.4-0.4,0.4
		c-0.2,0-0.4-0.2-0.4-0.4c0,0.2-0.2,0.4-0.4,0.4c-0.2,0-0.4-0.2-0.4-0.4c0,0.2-0.2,0.4-0.4,0.4c-0.2,0-0.4-0.2-0.4-0.4
		c0,0.2-0.2,0.4-0.4,0.4c-0.2,0-0.4-0.2-0.4-0.4c0-1.3,0-2.1,0-2.3c0-0.3-0.6-2.4-0.6-2.4s-0.6,2.1-0.6,2.4c0,1,0,23.9,0,23.9
		L54.2,74V62.8l-5.2-36.2l-5.2,36.2V78"/>
	<path class="st2" d="M95.9,53.8c0,0-0.7,0.4-0.7,0.8V59h1.3v-4.4C96.5,54.2,95.9,53.8,95.9,53.8z"/>
	<path class="st2" d="M94.7,53.8c0,0-0.7,0.4-0.7,0.8V59h1.3v-4.4C95.3,54.2,94.7,53.8,94.7,53.8z"/>
	<path class="st2" d="M97.2,53.8c0,0-0.7,0.4-0.7,0.8V59h1.3v-4.4C97.8,54.2,97.2,53.8,97.2,53.8z"/>
	<path class="st2" d="M48.9,53.8c0,0-0.7,0.4-0.7,0.8V59h1.3v-4.4C49.5,54.2,48.9,53.8,48.9,53.8z"/>
	<path class="st2" d="M47.6,53.8c0,0-0.7,0.4-0.7,0.8V59h1.3v-4.4C48.2,54.2,47.6,53.8,47.6,53.8z"/>
	<path class="st2" d="M50.1,53.8c0,0-0.7,0.4-0.7,0.8V59h1.3v-4.4C50.8,54.2,50.1,53.8,50.1,53.8z"/>
	<path class="st2" d="M99,68.4h-3.1"/>
	<path class="st2" d="M99,63.9v3"/>
	<path class="st2" d="M97.5,63.9v3"/>
	<path class="st2" d="M95.9,63.9v3"/>
	<path class="st2" d="M92.7,68.4h3.2"/>
	<path class="st2" d="M92.7,63.9v3"/>
	<path class="st2" d="M94.4,63.9v3"/>
	<path class="st2" d="M95.9,63.9v3"/>
	<path class="st2" d="M52.1,68.4h-3.2"/>
	<path class="st2" d="M52.1,63.9v3"/>
	<path class="st2" d="M50.4,63.9v3"/>
	<path class="st2" d="M48.9,63.9v3"/>
	<path class="st2" d="M45.7,68.4h3.2"/>
	<path class="st2" d="M45.7,63.9v3"/>
	<path class="st2" d="M47.3,63.9v3"/>
	<path class="st2" d="M48.9,63.9v3"/>
</g>
</svg>
