<svg width="512" height="512" viewBox="0 0 512 512" fill="none" xmlns="http://www.w3.org/2000/svg">
<rect width="512" height="512" fill="white"/>
<path d="M282.615 110.147C277.196 99.1335 269.329 89.4315 259.889 81.5649C259.889 81.8272 259.889 82.0894 259.889 82.3516C260.064 82.7012 260.239 83.0508 260.326 83.1382C267.144 95.7247 271.077 110.234 271.077 125.617C271.077 138.466 268.368 150.616 263.473 161.629C258.141 173.691 251.761 180.683 248.09 194.406C246.254 201.311 245.205 208.653 245.205 216.257C245.205 218.442 245.38 221.676 245.467 223.25C242.059 222.638 240.136 222.026 238.912 221.327C238.825 219.579 238.737 218.005 238.737 216.257C238.737 203.933 241.272 192.133 245.73 181.47C249.663 172.117 255.432 164.863 259.103 155.335C262.686 146.158 264.609 136.106 264.609 125.705C264.609 114.867 262.512 104.553 258.753 95.0254C258.753 95.0254 258.666 94.7632 258.491 94.501C257.704 98.5217 256.655 102.542 255.344 106.301C206.222 106.65 166.453 146.682 166.453 195.892C166.453 209.702 169.599 222.725 175.106 234.438C176.067 236.448 177.116 238.458 178.252 240.381C179.214 242.042 180.263 243.703 181.312 245.276C183.147 248.073 185.245 250.783 187.43 253.405C189.965 256.464 192.762 259.348 195.646 261.971C200.453 266.341 205.785 270.187 211.379 273.508H227.637C219.945 270.711 212.865 266.778 206.397 261.971C202.901 259.348 199.667 256.464 196.695 253.405C194.248 250.87 191.888 248.16 189.703 245.276C188.479 243.703 187.43 242.042 186.294 240.381C185.07 238.458 183.934 236.448 182.798 234.438C176.767 222.9 173.27 209.789 173.27 195.892C173.27 151.402 208.495 115.041 252.547 113.293C248.527 122.471 246.167 124.394 239.611 131.648C236.202 135.407 232.968 139.952 229.997 144.847C220.819 160.055 213.827 179.634 219.508 197.29C222.829 207.517 229.734 216.082 238.825 221.502C239.174 225.872 239.786 230.155 240.66 234.35C241.097 236.361 241.622 238.371 242.146 240.294C242.583 241.955 243.195 243.615 243.719 245.189C244.681 247.986 245.73 250.695 246.953 253.317C248.264 256.289 249.838 259.174 251.411 261.883C253.771 265.991 256.481 269.837 259.452 273.421H267.057C263.823 269.837 260.851 265.991 258.141 261.883C256.306 259.086 254.733 256.289 253.247 253.317C251.936 250.695 250.712 247.986 249.75 245.189C249.139 243.528 248.614 241.955 248.177 240.294C247.565 238.371 247.128 236.361 246.691 234.35C245.992 230.767 245.467 227.096 245.38 223.425C266.882 219.754 280.255 200.786 287.247 181.295C290.656 171.855 292.492 161.629 292.492 150.878C292.492 139.69 290.481 128.939 286.636 119.062C317.053 131.299 338.555 161.017 338.555 195.804C338.555 209.702 335.146 222.813 329.027 234.35C327.979 236.361 326.755 238.371 325.531 240.294C324.482 241.955 323.259 243.615 322.122 245.189C320.025 248.073 317.665 250.783 315.217 253.317C312.158 256.464 308.924 259.348 305.515 261.883C299.135 266.69 291.967 270.624 284.363 273.421H300.621C306.302 270.187 311.546 266.253 316.354 261.883C319.325 259.174 322.035 256.289 324.57 253.317C326.755 250.695 328.765 247.986 330.688 245.189C331.737 243.615 332.786 241.955 333.747 240.294C334.884 238.371 335.932 236.361 336.894 234.35C342.488 222.638 345.635 209.614 345.635 195.804C345.635 155.51 318.976 121.335 282.615 110.147Z" fill="#385F2D"/>
<path d="M245.38 223.424C245.555 223.337 245.468 223.424 245.38 223.424Z" fill="#385F2D"/>
<path d="M339.604 261.971H316.441C311.634 266.341 306.39 270.187 300.708 273.508H353.152L339.604 261.971Z" fill="#385F2D"/>
<path d="M158.936 273.508H211.38C205.698 270.274 200.366 266.341 195.646 261.971H172.484L158.936 273.508Z" fill="#385F2D"/>
<path d="M455.591 291.164L373.43 241.343C372.293 240.644 370.982 240.294 369.671 240.294H341.876L339.254 245.189H368.36C369.671 245.189 370.982 245.538 372.119 246.238L448.249 292.65H63.1391L127.382 246.587C128.606 245.713 130.092 245.189 131.578 245.189H172.746L170.124 240.294H130.179C128.693 240.294 127.208 240.731 125.984 241.605L55.9718 291.164C54.0489 292.475 53 294.66 53 297.02V329.448C53 332.682 55.6222 335.217 58.7688 335.217H69.4323H442.568H453.231C456.465 335.217 459 332.594 459 329.448V297.283C459 294.748 457.689 292.388 455.591 291.164Z" fill="#385F2D"/>
<path d="M69.4321 424.808H69.3447V429.615H442.568V426.993V424.808V340.461H69.4321V424.808Z" fill="#385F2D"/>
</svg>
