<svg width="472" height="472" viewBox="0 0 472 472" fill="none" xmlns="http://www.w3.org/2000/svg">
<rect width="472" height="472" fill="#142E62"/>
<path d="M112.782 192.369L108.713 184.856C105.722 179.327 99.9177 175.841 93.6352 175.841H56L64.975 192.369H112.782Z" fill="white"/>
<path d="M117.688 201.383H69.8213L77.9586 216.408H125.825L117.688 201.383Z" fill="white"/>
<path d="M139.707 241.95L130.732 225.423H82.8652L86.9339 232.935C89.9256 238.464 95.7294 241.95 102.012 241.95H139.707Z" fill="white"/>
<path d="M258.655 242.791H246.689C222.636 242.791 207.737 229.81 207.737 208.896C207.737 187.981 222.696 175 246.689 175H258.655C282.708 175 297.607 187.981 297.607 208.896C297.607 229.81 282.649 242.791 258.655 242.791ZM246.689 187.2C229.397 187.2 219.824 194.893 219.824 208.896C219.824 222.899 229.337 230.591 246.689 230.591H258.655C275.947 230.591 285.521 222.899 285.521 208.896C285.521 194.893 276.007 187.2 258.655 187.2H246.689Z" fill="white"/>
<path d="M374.553 242.791H346.132C322.019 242.791 306.402 229.509 306.402 208.896C306.402 188.282 322.019 175 346.132 175H374.553C398.665 175 414.282 188.282 414.282 208.896C414.282 229.509 398.665 242.791 374.553 242.791ZM346.132 187.2C328.601 187.2 318.549 195.133 318.549 208.896C318.549 222.658 328.601 230.591 346.132 230.591H374.553C392.084 230.591 402.136 222.658 402.136 208.896C402.136 195.133 392.084 187.2 374.553 187.2H346.132Z" fill="white"/>
<path d="M156.64 235.94L123.971 175.841H137.613L165.076 226.504C165.375 227.105 166.273 227.105 166.572 226.504L194.036 175.841H207.678L175.009 235.94C170.222 244.955 161.546 244.955 156.64 235.94Z" fill="white"/>
<path d="M406.473 270.046C406.324 268.649 405.698 267.56 404.593 266.781C403.498 266.002 402.075 265.613 400.322 265.613C399.09 265.613 398.033 265.8 397.151 266.173C396.269 266.546 395.594 267.054 395.127 267.694C394.659 268.334 394.42 269.065 394.41 269.887C394.41 270.569 394.564 271.162 394.872 271.663C395.191 272.165 395.621 272.592 396.163 272.944C396.704 273.285 397.305 273.574 397.963 273.808C398.622 274.043 399.286 274.24 399.956 274.401L403.015 275.169C404.248 275.456 405.432 275.847 406.569 276.337C407.716 276.828 408.742 277.447 409.644 278.194C410.558 278.941 411.28 279.842 411.812 280.899C412.343 281.956 412.609 283.193 412.609 284.613C412.609 286.533 412.12 288.224 411.142 289.687C410.165 291.137 408.752 292.274 406.904 293.096C405.065 293.907 402.84 294.312 400.226 294.312C397.687 294.312 395.483 293.918 393.613 293.128C391.754 292.338 390.299 291.185 389.247 289.67C388.206 288.155 387.643 286.309 387.558 284.132H393.374C393.459 285.274 393.81 286.224 394.426 286.982C395.042 287.739 395.844 288.304 396.832 288.678C397.831 289.051 398.946 289.238 400.179 289.238C401.464 289.238 402.59 289.046 403.557 288.662C404.534 288.267 405.299 287.723 405.852 287.029C406.404 286.325 406.686 285.503 406.697 284.564C406.686 283.71 406.436 283.007 405.947 282.451C405.459 281.886 404.773 281.416 403.892 281.043C403.02 280.659 402.001 280.317 400.832 280.019L397.119 279.058C394.431 278.365 392.307 277.314 390.744 275.905C389.193 274.486 388.418 272.602 388.418 270.255C388.418 268.323 388.939 266.632 389.98 265.181C391.032 263.729 392.46 262.604 394.266 261.803C396.072 260.993 398.118 260.587 400.401 260.587C402.718 260.587 404.747 260.993 406.489 261.803C408.242 262.604 409.618 263.719 410.616 265.148C411.615 266.568 412.131 268.201 412.162 270.046H406.473Z" fill="white"/>
<path d="M361.479 293.816V261.035H382.705V266.013H367.391V274.913H381.605V279.891H367.391V288.838H382.832V293.816H361.479Z" fill="white"/>
<path d="M336.061 293.816V261.035H341.973V288.838H356.347V293.816H336.061Z" fill="white"/>
<path d="M329.658 261.035V293.816H323.746V261.035H329.658Z" fill="white"/>
<path d="M283.079 261.035H290.314L300.002 284.789H300.385L310.074 261.035H317.309V293.816H311.636V271.295H311.333L302.313 293.72H298.075L289.055 271.247H288.752V293.816H283.079V261.035Z" fill="white"/>
</svg>
