<svg width="536" height="536" viewBox="0 0 536 536" fill="none" xmlns="http://www.w3.org/2000/svg">
	<rect width="536" height="536" fill="#142E62"/>
	<path d="M214.744 320.95C212.707 320.95 211.051 319.418 210.733 317.503H197.618V335.568H192.015V317.503H179.027C178.709 319.482 177.054 320.95 175.017 320.95C175.017 321.141 174.953 321.397 174.953 321.588V340.036C174.953 342.525 176.99 344.568 179.473 344.568H210.224C212.707 344.568 214.744 342.525 214.744 340.036V321.588C214.807 321.333 214.744 321.141 214.744 320.95Z" fill="white"/>
	<path d="M257.527 289.033H226.777C224.294 289.033 222.256 291.076 222.256 293.565V312.013C222.256 312.205 222.256 312.46 222.32 312.652C224.357 312.652 226.013 314.184 226.331 316.099H229.196V298.353H242.375C250.969 298.353 255.171 303.14 255.171 309.971C255.171 312.332 254.662 314.375 253.707 316.099H258.036C258.355 314.12 260.01 312.652 262.047 312.652C262.047 312.46 262.111 312.205 262.111 312.013V293.565C262.047 291.076 260.01 289.033 257.527 289.033Z" fill="white"/>
	<path d="M241.738 303.204H234.735V316.162H245.494C248.296 315.269 249.569 313.098 249.569 310.034C249.569 305.821 247.277 303.204 241.738 303.204Z" fill="white"/>
	<path d="M261.984 320.95C259.946 320.95 258.291 319.418 257.973 317.503H252.752C251.67 318.843 250.205 319.865 248.359 320.567L256.572 335.631H250.205L242.693 321.588C242.566 321.588 242.438 321.588 242.311 321.588H234.735V335.631H229.132V317.567H226.267C225.949 319.545 224.294 321.014 222.256 321.014C222.256 321.205 222.193 321.46 222.193 321.652V340.1C222.193 342.589 224.23 344.632 226.713 344.632H257.463C259.946 344.632 261.984 342.589 261.984 340.1V321.652C262.047 321.333 262.047 321.141 261.984 320.95Z" fill="white"/>
	<path d="M304.767 289.033H274.016C271.533 289.033 269.496 291.076 269.496 293.565V312.013C269.496 312.205 269.496 312.46 269.56 312.652C271.597 312.652 273.252 314.184 273.571 316.099H279.683L286.049 298.353H292.479L298.846 316.099H305.212C305.531 314.12 307.186 312.652 309.223 312.652C309.223 312.46 309.287 312.205 309.287 312.013V293.565C309.287 291.076 307.25 289.033 304.767 289.033Z" fill="white"/>
	<path d="M289.105 305.183L285.349 316.162H293.243L289.423 305.183H289.105Z" fill="white"/>
	<path d="M352.007 289.033H321.256C318.773 289.033 316.736 291.076 316.736 293.565V312.013C316.736 312.205 316.736 312.46 316.8 312.652C318.837 312.652 320.492 314.184 320.81 316.099H326.413L320.046 298.353H326.095L332.143 316.099H341.056L347.104 298.353H353.153L346.786 316.099H352.516C352.834 314.12 354.489 312.652 356.527 312.652C356.527 312.46 356.59 312.205 356.59 312.013V293.565C356.527 291.076 354.553 289.033 352.007 289.033Z" fill="white"/>
	<path d="M336.791 328.674L340.61 317.439H332.589L336.409 328.674H336.791Z" fill="white"/>
	<path d="M356.527 320.95C354.49 320.95 352.834 319.418 352.516 317.503H346.34L339.846 335.568H333.416L326.922 317.503H320.874C320.556 319.482 318.901 320.95 316.863 320.95C316.863 321.141 316.8 321.397 316.8 321.588V340.036C316.8 342.525 318.837 344.568 321.32 344.568H352.07C354.553 344.568 356.59 342.525 356.59 340.036V321.588C356.527 321.333 356.527 321.141 356.527 320.95Z" fill="white"/>
	<path d="M399.31 289.033H368.56C366.077 289.033 364.04 291.076 364.04 293.565V312.013C364.04 312.205 364.04 312.46 364.103 312.652C366.141 312.652 367.796 314.184 368.114 316.099H372.061V298.353H395.299V303.204H377.664V314.503H394.09V316.099H399.82C400.138 314.12 401.793 312.652 403.83 312.652C403.83 312.46 403.894 312.205 403.894 312.013V293.565C403.831 291.076 401.793 289.033 399.31 289.033Z" fill="white"/>
	<path d="M446.55 289.033H415.8C413.317 289.033 411.279 291.076 411.279 293.565V312.013C411.279 312.205 411.279 312.46 411.343 312.652C413.38 312.652 415.036 314.184 415.354 316.099H420.638V298.353H426.241V316.099H447.059C447.378 314.12 449.033 312.652 451.07 312.652C451.07 312.46 451.134 312.205 451.134 312.013V293.565C451.07 291.076 449.033 289.033 446.55 289.033Z" fill="white"/>
	<path d="M137.836 220.923L133.507 212.944C130.323 207.071 124.148 203.369 117.463 203.369H77.4172L86.9671 220.923H137.836Z" fill="white"/>
	<path d="M143.056 230.498H92.124L100.783 246.456H151.715L143.056 230.498Z" fill="white"/>
	<path d="M166.485 273.585L156.936 256.031H106.003L110.332 264.01C113.516 269.883 119.691 273.585 126.376 273.585H166.485Z" fill="white"/>
	<path d="M293.052 274.479H280.319C254.726 274.479 238.873 260.691 238.873 238.477C238.873 216.263 254.789 202.475 280.319 202.475H293.052C318.646 202.475 334.499 216.263 334.499 238.477C334.499 260.691 318.582 274.479 293.052 274.479ZM280.319 215.433C261.92 215.433 251.733 223.604 251.733 238.477C251.733 253.35 261.856 261.521 280.319 261.521H293.052C311.452 261.521 321.638 253.35 321.638 238.477C321.638 223.604 311.515 215.433 293.052 215.433H280.319Z" fill="white"/>
	<path d="M416.372 274.479H386.131C360.474 274.479 343.857 260.372 343.857 238.477C343.857 216.582 360.474 202.475 386.131 202.475H416.372C442.03 202.475 458.646 216.582 458.646 238.477C458.646 260.372 442.03 274.479 416.372 274.479ZM386.131 215.433C367.477 215.433 356.782 223.859 356.782 238.477C356.782 253.095 367.477 261.521 386.131 261.521H416.372C435.026 261.521 445.722 253.095 445.722 238.477C445.722 223.859 435.026 215.433 416.372 215.433H386.131Z" fill="white"/>
	<path d="M184.503 267.202L149.741 203.369H164.257L193.479 257.18C193.798 257.819 194.753 257.819 195.071 257.18L224.294 203.369H238.809L204.048 267.202C198.955 276.777 189.723 276.777 184.503 267.202Z" fill="white"/>
	<path d="M210.287 289.033H179.537C177.054 289.033 175.017 291.076 175.017 293.565V312.013C175.017 312.205 175.017 312.46 175.08 312.652C177.118 312.652 178.773 314.184 179.091 316.099H192.079V303.14H180.556V298.289H209.205V303.14H197.618V316.099H210.733C211.051 314.12 212.707 312.652 214.744 312.652C214.744 312.46 214.808 312.205 214.808 312.013V293.565C214.808 291.076 212.77 289.033 210.287 289.033Z" fill="white"/>
	<path d="M283.694 321.014H294.899L293.689 317.439H284.903L283.694 321.014Z" fill="white"/>
	<path d="M309.223 320.95C307.186 320.95 305.531 319.418 305.212 317.503H299.292L305.785 335.568H299.865L296.49 325.737H282.038L278.664 335.568H272.743L279.237 317.503H273.571C273.252 319.482 271.597 320.95 269.56 320.95C269.56 321.141 269.496 321.397 269.496 321.588V340.036C269.496 342.525 271.533 344.568 274.016 344.568H304.767C307.25 344.568 309.287 342.525 309.287 340.036V321.588C309.287 321.333 309.287 321.141 309.223 320.95Z" fill="white"/>
	<path d="M403.767 320.95C401.729 320.95 400.074 319.418 399.756 317.503H394.026V319.418H377.6V330.78H395.427V335.631H371.998V317.567H368.05C367.732 319.545 366.077 321.014 364.039 321.014C364.039 321.205 363.976 321.46 363.976 321.652V340.1C363.976 342.589 366.013 344.632 368.496 344.632H399.247C401.729 344.632 403.767 342.589 403.767 340.1V321.652C403.83 321.333 403.767 321.141 403.767 320.95Z" fill="white"/>
	<path d="M451.007 320.95C448.969 320.95 447.314 319.418 446.996 317.503H426.177V330.78H442.985V335.631H420.638V317.567H415.354C415.036 319.545 413.38 321.014 411.343 321.014C411.343 321.205 411.279 321.46 411.279 321.652V340.1C411.279 342.589 413.317 344.632 415.8 344.632H446.55C449.033 344.632 451.07 342.589 451.07 340.1V321.652C451.07 321.333 451.07 321.141 451.007 320.95Z" fill="white"/>
</svg>
