<svg width="513" height="512" viewBox="0 0 513 512" fill="none" xmlns="http://www.w3.org/2000/svg">
<rect width="512" height="512" transform="translate(0.373535)" fill="#1D2140"/>
<g clip-path="url(#clip0_66_3154)">
<rect x="104" y="149" width="306" height="46" rx="10" fill="#38486A"/>
<path d="M256.2 376.5C218.3 376.5 180.4 376.4 142.5 376.5C125 376.5 110.4 370.4 99.2999 356.7C92.0999 347.8 88.0999 337.6 88.0999 326.1C88.0999 279.2 87.7999 232.3 88.1999 185.5C88.3999 157.4 111.7 135 139.8 135C217.7 135 295.6 135 373.5 135C401.5 135 424.8 157.4 425 185.5C425.4 232.2 425.4 279 425 325.7C424.8 354.5 401.6 376.2 371.8 376.4C351.4 376.5 330.9 376.4 310.5 376.4C292.4 376.5 274.3 376.5 256.2 376.5ZM407 198.7C407 194.3 407.2 190 407.1 185.6C406.5 167.5 391.8 153 373.8 153C295.7 152.9 217.6 152.9 139.4 153C123.8 153 110.3 164.1 106.9 179.3C105.5 185.7 106 192.2 106.2 198.6C106.2 204.6 106.2 210.6 106.2 216.6C106.1 217.3 106 218.1 106 218.8C106 253.7 106 288.6 106 323.5C106 325.9 106.1 328.3 106.6 330.6C110 347.8 123.8 358.4 142.5 358.4C218.5 358.4 294.6 358.4 370.6 358.4C373.8 358.4 377.1 358.2 380.3 357.5C396.7 353.9 407.1 340.5 407.1 323.1C407.2 288.6 407.1 254 407.1 219.5C407.1 218.5 407 217.5 406.9 216.5C407 210.7 407 204.7 407 198.7Z" fill="#87FF4F"/>
<path d="M101 186C204.701 186 308.299 186 412 186C412 192 412 198 412 204C308.402 204 204.701 204 101.103 204C101 198 101 192 101 186Z" fill="#87FF4F"/>
<path d="M142.659 312.953C139.164 312.953 135.669 313.058 132.174 312.953C128.473 312.848 126.143 309.378 126.006 304.121C125.869 298.548 128.062 294.342 131.831 294.237C139.233 293.921 146.703 293.921 154.104 294.237C157.737 294.342 160.067 298.758 159.998 304.121C159.861 309.273 157.394 312.848 153.762 312.953C153.625 312.953 153.419 312.953 153.282 312.953C149.65 312.953 146.155 312.953 142.659 312.953Z" fill="#87FF4F"/>
<g clip-path="url(#clip1_66_3154)">
<path d="M284.051 231.67C284.22 231.67 284.388 231.67 284.557 231.727H310.013V216H248.03V232.352C248.367 231.954 248.873 231.727 249.435 231.727H284.051V231.67Z" fill="#87FF4F"/>
<path d="M332.828 238.54L360.364 272.72H385.82V236.723H367.275V249.612L356.823 236.723H351.934C350.867 236.723 350.024 235.872 350.024 234.793V233.601C350.024 232.522 350.867 231.67 351.934 231.67H352.777L340.19 216H314.171V272.72H332.828V238.54ZM343.898 233.658C343.898 232.579 344.741 231.727 345.809 231.727C346.877 231.727 347.72 232.579 347.72 233.658V234.85C347.72 235.929 346.877 236.78 345.809 236.78C344.741 236.78 343.898 235.929 343.898 234.85V233.658ZM333.109 233.658C333.109 232.579 333.952 231.727 335.02 231.727H338.504C339.571 231.727 340.414 232.579 340.414 233.658V234.85C340.414 235.929 339.571 236.78 338.504 236.78H335.02C333.952 236.78 333.109 235.929 333.109 234.85V233.658Z" fill="#87FF4F"/>
<path d="M385.764 216H367.219V231.67H385.764V216Z" fill="#87FF4F"/>
<path d="M317.768 303.777C316.813 303.777 316.026 302.925 316.026 301.846V300.654C316.026 299.973 316.363 299.405 316.813 299.007C315.745 295.885 314.284 293.216 312.43 291.115C310.519 288.958 308.046 287.198 305.012 285.835C301.977 284.473 298.718 283.507 295.178 282.94C291.638 282.372 287.535 282.088 282.927 282.088C271.464 282.088 262.922 284.359 257.302 288.901C251.683 293.443 248.929 300.483 248.929 309.965C248.929 320.185 251.683 327.736 257.134 332.619C262.585 337.502 271.351 339.943 283.433 339.943C288.266 339.943 292.537 339.659 296.189 339.035C299.842 338.41 303.101 337.445 306.023 336.082C308.889 334.72 311.249 332.903 313.048 330.689C314.846 328.474 316.195 325.692 317.15 322.513C318.105 319.277 318.555 315.473 318.555 311.044C318.555 308.375 318.33 305.991 317.993 303.72H317.768V303.777ZM295.627 321.604C292.818 323.932 288.828 325.068 283.658 325.068C278.488 325.068 274.442 323.762 271.801 321.207C269.103 318.652 267.811 315.245 267.811 310.987C267.811 308.773 268.148 306.786 268.766 305.082C269.384 303.379 270.34 301.846 271.632 300.654C272.925 299.405 274.554 298.496 276.577 297.872C278.544 297.247 280.904 296.963 283.489 296.963C288.491 296.963 292.48 298.156 295.459 300.54C298.437 302.925 299.898 306.445 299.898 310.987C299.842 315.643 298.437 319.333 295.627 321.604ZM307.26 301.846C307.26 302.925 306.473 303.777 305.518 303.777H302.371C301.415 303.777 300.629 302.925 300.629 301.846V300.654C300.629 299.575 301.415 298.723 302.371 298.723H305.518C306.473 298.723 307.26 299.575 307.26 300.654V301.846ZM313.947 301.846C313.947 302.925 313.16 303.777 312.205 303.777C311.249 303.777 310.463 302.925 310.463 301.846V300.654C310.463 299.575 311.249 298.723 312.205 298.723C313.16 298.723 313.947 299.575 313.947 300.654V301.846Z" fill="#87FF4F"/>
<path d="M310.013 256.993H266.687V251.883H307.316V236.78H266.687H249.491C248.929 236.78 248.424 236.553 248.086 236.156V272.777H310.069V256.993H310.013Z" fill="#87FF4F"/>
<path d="M370.085 282.996V316.608L360.645 303.72H329.4C328.445 303.72 327.658 302.868 327.658 301.789V300.597C327.658 299.518 328.445 298.666 329.4 298.666H356.936L345.416 282.996H321.702V298.666H322.713C323.668 298.666 324.455 299.518 324.455 300.597V301.789C324.455 302.868 323.668 303.72 322.713 303.72H321.702V339.773H338.673V305.593L363.792 339.773H387V282.996H370.085Z" fill="#87FF4F"/>
<path d="M242.973 272.72V257.049H206.671L239.039 236.723H236.735C235.668 236.723 234.825 235.872 234.825 234.793V233.601C234.825 232.522 235.668 231.67 236.735 231.67H242.13C242.411 231.67 242.748 231.727 242.973 231.897V216H179.417V231.784H216.336L179.417 254.608V272.72H180.484H242.973ZM228.699 233.658C228.699 232.579 229.542 231.727 230.61 231.727C231.678 231.727 232.521 232.579 232.521 233.658V234.85C232.521 235.929 231.678 236.78 230.61 236.78C229.542 236.78 228.699 235.929 228.699 234.85V233.658ZM217.91 233.658C217.91 232.579 218.753 231.727 219.821 231.727H223.305C224.372 231.727 225.215 232.579 225.215 233.658V234.85C225.215 235.929 224.372 236.78 223.305 236.78H219.821C218.753 236.78 217.91 235.929 217.91 234.85V233.658Z" fill="#87FF4F"/>
<path d="M196.387 304.174C197.118 303.038 198.073 302.073 199.253 301.278C200.433 300.54 202.063 299.916 204.142 299.405C206.221 298.894 208.638 298.667 211.391 298.667C214.482 298.667 217.235 299.007 219.596 299.689C221.956 300.37 223.698 301.108 224.878 301.96C226.058 302.811 227.013 303.72 227.744 304.798C228.474 305.877 228.924 306.615 229.036 307.013C229.149 307.467 229.261 307.808 229.317 308.091H246.738C246.738 304.117 246.12 300.597 244.94 297.588C243.703 294.579 241.793 291.91 239.095 289.639C236.398 287.368 232.801 285.608 228.137 284.359C223.529 283.167 218.022 282.542 211.56 282.542C205.828 282.542 200.883 283.053 196.668 284.075C192.51 285.097 188.913 286.743 185.935 289.071C182.957 291.342 180.765 294.408 179.248 298.212C177.787 302.016 177 306.558 177 311.895C177 316.835 177.562 321.037 178.742 324.443C179.922 327.85 181.833 330.745 184.53 333.13C187.227 335.515 190.824 337.275 195.263 338.41C199.759 339.489 205.266 340.057 211.897 340.057C217.292 340.057 222.012 339.659 226.114 338.808C230.216 337.956 233.532 336.877 236.061 335.458C238.59 334.038 240.669 332.278 242.298 330.178C243.928 328.077 244.996 325.919 245.67 323.648C246.344 321.377 246.625 318.936 246.625 316.154H229.205L229.036 316.949C228.924 317.516 228.587 318.141 227.912 318.936C227.238 319.731 226.395 320.469 225.271 321.264C224.147 322.002 222.349 322.683 219.933 323.194C217.516 323.762 214.651 323.989 211.335 323.989C208.02 323.989 205.378 323.648 203.187 323.024C200.939 322.399 199.253 321.434 198.017 320.242C196.781 319.049 195.938 317.687 195.376 316.267C194.814 314.791 194.589 313.145 194.589 311.271C194.589 309.908 194.701 308.716 194.926 307.58C195.207 306.445 195.657 305.309 196.387 304.174Z" fill="#87FF4F"/>
</g>
</g>
<defs>
<clipPath id="clip0_66_3154">
<rect width="337.3" height="241.5" fill="white" transform="translate(88 135)"/>
</clipPath>
<clipPath id="clip1_66_3154">
<rect width="210" height="124" fill="white" transform="translate(177 216)"/>
</clipPath>
</defs>
</svg>
