<svg width="512" height="512" viewBox="0 0 512 512" fill="none" xmlns="http://www.w3.org/2000/svg">
<rect width="512" height="512" fill="white"/>
<g clip-path="url(#clip0_47_12)">
<path d="M314.766 105.074C309.063 95.1962 296.084 92.4005 286.82 99.0599L270.98 110.394L379.091 297.648C383.391 305.095 381.346 314.599 374.364 319.619L237.434 418.054C214.015 436.695 218.461 447.695 219.385 449.424L219.53 449.675L219.98 450.454C223.739 456.965 232.103 459.135 238.555 455.274L427.427 342.321C438.474 335.708 442.173 321.465 435.736 310.317L314.761 105.065L314.766 105.074Z" fill="#4F4F4F"/>
<path d="M121.425 217.441L270.98 110.394L254.674 82.1513C250.867 75.5568 242.077 73.8916 236.119 78.63L99.027 187.794C86.9375 197.42 83.7175 214.441 91.4394 227.816L113.362 265.788C98.2348 239.586 105.565 228.849 121.425 217.441Z" fill="#FFD987"/>
<path d="M211.877 436.421L219.39 449.434C218.461 447.695 214.015 436.696 237.434 418.055L374.364 319.62C381.346 314.599 383.396 305.105 379.091 297.648L270.98 110.394L121.425 217.442C105.565 228.849 98.235 239.586 113.363 265.788L211.877 436.421Z" fill="#CFB06E"/>
</g>
<defs>
<clipPath id="clip0_47_12">
<rect width="256.919" height="327.54" fill="white" transform="translate(62.9404 178.454) rotate(-30)"/>
</clipPath>
</defs>
</svg>
