<svg width="512" height="512" viewBox="0 0 512 512" fill="none" xmlns="http://www.w3.org/2000/svg">
<rect width="512" height="512" fill="white"/>
<circle cx="255.703" cy="255.996" r="163.452" fill="url(#paint0_radial_361_2)"/>
<path d="M119.23 255.078C118.075 237.207 120.687 219.293 126.896 202.495C133.106 185.698 142.774 170.392 155.276 157.569C167.777 144.747 182.833 134.693 199.467 128.06C216.101 121.426 233.944 118.361 251.838 119.062L251.087 138.227C235.877 137.631 220.711 140.237 206.571 145.875C192.432 151.514 179.635 160.059 169.009 170.959C158.383 181.858 150.164 194.868 144.886 209.145C139.608 223.423 137.389 238.65 138.37 253.841L119.23 255.078Z" fill="#FFEFC6"/>
<path d="M256.922 392.77C274.793 393.925 292.707 391.313 309.504 385.104C326.302 378.894 341.607 369.226 354.43 356.724C367.253 344.223 377.306 329.167 383.94 312.533C390.573 295.899 393.639 278.056 392.937 260.162L373.772 260.913C374.368 276.123 371.763 291.289 366.124 305.429C360.486 319.568 351.94 332.365 341.041 342.991C330.142 353.617 317.132 361.836 302.854 367.114C288.576 372.392 273.349 374.611 258.159 373.63L256.922 392.77Z" fill="#FFEFC6"/>
<path d="M295.997 291.962H263.057L357.366 197.653L306.119 197.589L348.427 155.271H313.454L271.189 197.536L205.518 197.472L167.675 235.315H200.48L215.755 220.039H248.695L154.375 314.349L205.622 314.413L163.304 356.721H198.277L240.542 314.455L306.212 314.519L344.055 276.676H311.251L295.976 291.952L295.997 291.962Z" fill="#333333"/>
<defs>
<radialGradient id="paint0_radial_361_2" cx="0" cy="0" r="1" gradientUnits="userSpaceOnUse" gradientTransform="translate(255.703 255.996) rotate(90) scale(163.452)">
<stop stop-color="#FFD987"/>
<stop offset="1" stop-color="#CFB06E"/>
</radialGradient>
</defs>
</svg>
