<svg width="320" height="196" viewBox="0 0 320 196" fill="none" xmlns="http://www.w3.org/2000/svg">
<g clip-path="url(#clip0_141_177)">
<rect width="320" height="196" rx="10" fill="url(#paint0_linear_141_177)"/>
<path d="M204.435 -2.79669L211.104 -14.4455L211.71 -15.5185L214.211 -19.8868L215.651 -22.4924L222.092 -33.6814L228.912 -45.6368H351.828L358.951 -33.145L378.351 -33.0684H389.111L374.334 -58.8184L366.832 -72H351.828H228.912H213.832L206.33 -58.8184L144.872 48.7801L137.37 61.9617L144.872 75.1432L167.758 115.301L180.337 106.105L189.052 99.8204L167.455 61.9617L204.435 -2.79669Z" fill="white" fill-opacity="0.05"/>
<path d="M435.792 48.7802L412.906 8.69897L400.403 17.8188L391.688 24.1797L413.285 61.9618L376.229 126.797L369.636 138.369L369.03 139.519L366.529 143.887L365.013 146.493L358.648 157.605L351.828 169.637H228.912L221.789 157.145L202.389 157.068H191.628L206.33 182.818L213.832 196H228.912H351.828H366.832L374.334 182.818L435.792 75.1433L443.37 61.9618L435.792 48.7802Z" fill="white" fill-opacity="0.05"/>
<path d="M392.9 -14.0624H374.258L364.104 -14.1391L349.175 -14.2157L238.764 -14.5989L357.132 115.991L350.236 34.6788L369.181 20.8841L379.715 13.2204L386.838 8.00907L400.024 -1.57057L416.998 -13.9858L392.9 -14.0624Z" fill="white" fill-opacity="0.05"/>
<path d="M230.504 89.321L211.559 103.116L200.949 110.779L193.826 115.991L180.716 125.57L163.741 137.909L187.84 137.986L206.481 138.062L216.56 138.139H231.565L341.976 138.522L223.608 7.93237L230.504 89.321Z" fill="white" fill-opacity="0.05"/>
<path d="M28.5256 47H24.571L30.5966 29.5455H35.3523L41.3693 47H37.4148L33.0426 33.5341H32.9062L28.5256 47ZM28.2784 40.1392H37.6193V43.0199H28.2784V40.1392ZM44.4439 29.5455L48.6626 42.8068H48.8246L53.0518 29.5455H57.1428L51.1257 47H46.37L40.3445 29.5455H44.4439ZM62.9339 29.5455V47H59.2436V29.5455H62.9339ZM80.5696 29.5455V47H77.3821L69.7884 36.0142H69.6605V47H65.9702V29.5455H69.2088L76.7429 40.5227H76.8963V29.5455H80.5696ZM99.6584 38.2727C99.6584 40.1761 99.2976 41.7955 98.576 43.1307C97.8601 44.4659 96.8828 45.4858 95.6442 46.1903C94.4112 46.8892 93.0249 47.2386 91.4851 47.2386C89.9339 47.2386 88.5419 46.8864 87.3089 46.1818C86.076 45.4773 85.1016 44.4574 84.3857 43.1222C83.6697 41.7869 83.3118 40.1705 83.3118 38.2727C83.3118 36.3693 83.6697 34.75 84.3857 33.4148C85.1016 32.0795 86.076 31.0625 87.3089 30.3636C88.5419 29.6591 89.9339 29.3068 91.4851 29.3068C93.0249 29.3068 94.4112 29.6591 95.6442 30.3636C96.8828 31.0625 97.8601 32.0795 98.576 33.4148C99.2976 34.75 99.6584 36.3693 99.6584 38.2727ZM95.9169 38.2727C95.9169 37.0398 95.7322 36 95.3629 35.1534C94.9993 34.3068 94.4851 33.6648 93.8203 33.2273C93.1555 32.7898 92.3771 32.571 91.4851 32.571C90.593 32.571 89.8146 32.7898 89.1499 33.2273C88.4851 33.6648 87.968 34.3068 87.5987 35.1534C87.2351 36 87.0533 37.0398 87.0533 38.2727C87.0533 39.5057 87.2351 40.5455 87.5987 41.392C87.968 42.2386 88.4851 42.8807 89.1499 43.3182C89.8146 43.7557 90.593 43.9744 91.4851 43.9744C92.3771 43.9744 93.1555 43.7557 93.8203 43.3182C94.4851 42.8807 94.9993 42.2386 95.3629 41.392C95.7322 40.5455 95.9169 39.5057 95.9169 38.2727ZM117.793 35.6562H114.06C113.991 35.1733 113.852 34.7443 113.642 34.3693C113.432 33.9886 113.162 33.6648 112.832 33.3977C112.503 33.1307 112.122 32.9261 111.69 32.7841C111.264 32.642 110.801 32.571 110.301 32.571C109.398 32.571 108.611 32.7955 107.94 33.2443C107.27 33.6875 106.75 34.3352 106.381 35.1875C106.011 36.0341 105.827 37.0625 105.827 38.2727C105.827 39.517 106.011 40.5625 106.381 41.4091C106.756 42.2557 107.278 42.8949 107.949 43.3267C108.619 43.7585 109.395 43.9744 110.276 43.9744C110.77 43.9744 111.227 43.9091 111.648 43.7784C112.074 43.6477 112.452 43.4574 112.781 43.2074C113.111 42.9517 113.384 42.642 113.599 42.2784C113.821 41.9148 113.974 41.5 114.06 41.0341L117.793 41.0511C117.696 41.8523 117.455 42.625 117.068 43.3693C116.688 44.108 116.173 44.7699 115.526 45.3551C114.884 45.9347 114.116 46.3949 113.224 46.7358C112.338 47.071 111.335 47.2386 110.216 47.2386C108.659 47.2386 107.267 46.8864 106.04 46.1818C104.818 45.4773 103.852 44.4574 103.142 43.1222C102.438 41.7869 102.085 40.1705 102.085 38.2727C102.085 36.3693 102.443 34.75 103.159 33.4148C103.875 32.0795 104.847 31.0625 106.074 30.3636C107.301 29.6591 108.682 29.3068 110.216 29.3068C111.227 29.3068 112.165 29.4489 113.028 29.733C113.898 30.017 114.668 30.4318 115.338 30.9773C116.009 31.517 116.554 32.179 116.974 32.9631C117.401 33.7472 117.673 34.6449 117.793 35.6562ZM135.462 34.5653C135.394 33.8778 135.102 33.3437 134.585 32.9631C134.067 32.5824 133.366 32.392 132.479 32.392C131.877 32.392 131.369 32.4773 130.954 32.6477C130.539 32.8125 130.221 33.0426 129.999 33.3381C129.783 33.6335 129.675 33.9688 129.675 34.3438C129.664 34.6562 129.729 34.929 129.871 35.1619C130.019 35.3949 130.221 35.5966 130.477 35.767C130.732 35.9318 131.028 36.0767 131.363 36.2017C131.698 36.321 132.056 36.4233 132.437 36.5085L134.005 36.8835C134.766 37.054 135.465 37.2812 136.102 37.5653C136.738 37.8494 137.289 38.1989 137.755 38.6136C138.221 39.0284 138.582 39.517 138.837 40.0795C139.099 40.642 139.232 41.2869 139.238 42.0142C139.232 43.0824 138.96 44.0085 138.42 44.7926C137.886 45.571 137.113 46.1761 136.102 46.608C135.096 47.0341 133.883 47.2472 132.462 47.2472C131.053 47.2472 129.826 47.0312 128.781 46.5994C127.741 46.1676 126.928 45.5284 126.343 44.6818C125.763 43.8295 125.46 42.7756 125.431 41.5199H129.002C129.042 42.1051 129.21 42.5937 129.505 42.9858C129.806 43.3722 130.207 43.6648 130.707 43.8636C131.212 44.0568 131.783 44.1534 132.42 44.1534C133.045 44.1534 133.587 44.0625 134.048 43.8807C134.513 43.6989 134.874 43.446 135.13 43.1222C135.386 42.7983 135.513 42.4261 135.513 42.0057C135.513 41.6136 135.397 41.2841 135.164 41.017C134.937 40.75 134.602 40.5227 134.158 40.3352C133.721 40.1477 133.184 39.9773 132.548 39.8239L130.647 39.3466C129.175 38.9886 128.013 38.429 127.161 37.6676C126.309 36.9062 125.886 35.8807 125.891 34.5909C125.886 33.5341 126.167 32.6108 126.735 31.821C127.309 31.0312 128.096 30.4148 129.096 29.9716C130.096 29.5284 131.232 29.3068 132.505 29.3068C133.8 29.3068 134.931 29.5284 135.897 29.9716C136.869 30.4148 137.624 31.0312 138.164 31.821C138.704 32.6108 138.982 33.5256 138.999 34.5653H135.462ZM145.649 47L140.655 29.5455H144.686L147.575 41.6733H147.72L150.908 29.5455H154.359L157.538 41.6989H157.692L160.581 29.5455H164.612L159.618 47H156.021L152.697 35.5881H152.561L149.246 47H145.649ZM167.838 47H163.884L169.909 29.5455H174.665L180.682 47H176.727L172.355 33.5341H172.219L167.838 47ZM167.591 40.1392H176.932V43.0199H167.591V40.1392ZM182.783 47V29.5455H189.669C190.993 29.5455 192.121 29.7983 193.053 30.304C193.984 30.804 194.695 31.5 195.183 32.392C195.678 33.2784 195.925 34.3011 195.925 35.4602C195.925 36.6193 195.675 37.642 195.175 38.5284C194.675 39.4148 193.95 40.1051 193.001 40.5994C192.058 41.0937 190.916 41.3409 189.575 41.3409H185.186V38.3835H188.979C189.689 38.3835 190.274 38.2614 190.734 38.017C191.2 37.767 191.547 37.4233 191.774 36.9858C192.007 36.5426 192.124 36.0341 192.124 35.4602C192.124 34.8807 192.007 34.375 191.774 33.9432C191.547 33.5057 191.2 33.1676 190.734 32.929C190.268 32.6847 189.678 32.5625 188.962 32.5625H186.473V47H182.783Z" fill="white"/>
<g clip-path="url(#clip1_141_177)">
<path d="M39.3418 126.752L40.8673 124.1L41.0059 123.856L41.578 122.862L41.9074 122.269L43.3809 119.722L44.9411 117.001H73.0589L74.6885 119.844L79.1263 119.861H81.5879L78.2075 114L76.4913 111H73.0589H44.9411H41.4913L39.7751 114L25.7162 138.491L24 141.491L25.7162 144.492L30.9515 153.632L33.8291 151.539L35.8227 150.108L30.8821 141.491L39.3418 126.752Z" fill="#FFD987"/>
<path d="M92.2665 138.491L87.0312 129.368L84.1709 131.444L82.1773 132.892L87.1179 141.491L78.6409 156.248L77.1328 158.882L76.9941 159.144L76.422 160.138L76.0753 160.731L74.6191 163.261L73.059 165.999H44.9411L43.3116 163.156L38.8737 163.139H36.4121L39.7752 169L41.4914 172H44.9411H73.059H76.4914L78.2076 169L92.2665 144.491L94 141.491L92.2665 138.491Z" fill="#FFD987"/>
<path d="M82.4546 124.187H78.1901L75.8672 124.17L72.4521 124.152L47.1946 124.065L74.2723 153.789L72.6948 135.281L77.0287 132.142L79.4383 130.397L81.0678 129.211L84.0841 127.031L87.9672 124.205L82.4546 124.187Z" fill="white"/>
<path d="M45.3051 147.719L40.9713 150.858L38.5444 152.603L36.9148 153.789L33.9158 155.969L30.0327 158.778L35.5453 158.795L39.8098 158.813L42.1154 158.83H45.5478L70.8054 158.917L43.7276 129.194L45.3051 147.719Z" fill="white"/>
</g>
<path d="M216.822 145.022L216.485 146.706H222.546L221.83 150.199H215.812L215.433 152.093H222.63L221.915 155.712H209.962L212.824 141.403H224.44L223.724 145.022H216.822Z" fill="#99A5FF"/>
<path d="M237.95 149.399C237.276 150.367 236.308 151.04 235.088 151.503L237.487 155.67H232.478L230.458 152.05H229.28L228.564 155.67H223.724L226.586 141.36H233.026C234.919 141.36 236.35 141.781 237.403 142.581C238.455 143.423 238.96 144.559 238.96 146.032C238.96 147.379 238.623 148.473 237.95 149.399ZM232.268 145.106H230.669L229.995 148.473H231.973C232.647 148.473 233.152 148.305 233.531 147.968C233.909 147.631 234.078 147.168 234.078 146.579C234.078 145.611 233.488 145.106 232.268 145.106Z" fill="#99A5FF"/>
<path d="M243.252 155.207C242.158 154.66 241.274 153.902 240.685 152.934C240.054 152.008 239.759 150.872 239.759 149.651C239.759 147.968 240.138 146.495 240.895 145.232C241.653 143.927 242.747 142.917 244.094 142.202C245.483 141.486 247.04 141.108 248.766 141.108C250.154 141.108 251.375 141.36 252.427 141.865C253.479 142.37 254.279 143.086 254.784 143.97L251.291 146.705C250.659 145.569 249.691 145.022 248.429 145.022C247.671 145.022 246.998 145.19 246.409 145.569C245.82 145.948 245.357 146.453 245.02 147.126C244.683 147.799 244.515 148.557 244.515 149.399C244.515 150.24 244.767 150.914 245.314 151.419C245.862 151.924 246.577 152.176 247.461 152.176C248.681 152.176 249.734 151.629 250.659 150.535L253.521 153.271C252.68 154.281 251.754 155.038 250.702 155.459C249.649 155.88 248.429 156.133 247.04 156.133C245.651 156.048 244.346 155.754 243.252 155.207Z" fill="#99A5FF"/>
<path d="M261.182 151.966H265.811L265.054 155.712H253.564L254.153 152.766L260.129 148.178C260.761 147.673 261.182 147.294 261.434 146.958C261.687 146.621 261.813 146.284 261.813 145.948C261.813 145.653 261.687 145.401 261.434 145.19C261.182 144.98 260.887 144.895 260.466 144.895C260.045 144.895 259.624 145.022 259.246 145.274C258.867 145.527 258.488 145.863 258.193 146.284L254.995 144.306C255.542 143.338 256.384 142.581 257.478 141.991C258.572 141.402 259.835 141.108 261.182 141.108C262.234 141.108 263.16 141.276 264.044 141.655C264.885 141.991 265.559 142.497 266.022 143.128C266.485 143.759 266.737 144.433 266.737 145.232C266.737 146.158 266.485 147 265.98 147.757C265.474 148.515 264.591 149.399 263.328 150.367L261.182 151.966Z" fill="#99A5FF"/>
<path d="M269.936 155.375C269.094 154.912 268.463 154.281 268 153.439C267.537 152.598 267.326 151.587 267.326 150.409C267.326 148.641 267.663 147.042 268.336 145.611C269.01 144.18 269.936 143.086 271.114 142.244C272.293 141.445 273.639 141.024 275.112 141.024C276.249 141.024 277.217 141.234 278.016 141.697C278.816 142.16 279.489 142.791 279.952 143.633C280.415 144.475 280.626 145.485 280.626 146.663C280.626 148.431 280.289 150.03 279.616 151.461C278.942 152.892 278.016 153.986 276.838 154.828C275.66 155.628 274.313 156.049 272.84 156.049C271.746 156.049 270.735 155.796 269.936 155.375ZM274.649 151.251C275.028 150.662 275.281 149.946 275.491 149.104C275.702 148.263 275.786 147.505 275.786 146.79C275.786 145.569 275.365 144.938 274.565 144.938C274.06 144.938 273.597 145.232 273.219 145.822C272.84 146.411 272.587 147.126 272.377 147.968C272.208 148.81 272.082 149.567 272.082 150.283C272.082 151.503 272.503 152.135 273.303 152.135C273.85 152.177 274.313 151.882 274.649 151.251Z" fill="#99A5FF"/>
<path d="M239.655 162.912L231.7 170.53H238.434L237.676 174.276H224.545L225.135 171.33L233.089 163.712H226.86L227.618 159.966H240.244L239.655 162.912Z" fill="#99A5FF"/>
<path d="M245.968 163.586L245.631 165.269H251.691L250.976 168.762H244.915L244.537 170.656H251.733L251.018 174.276H239.107L241.969 159.966H253.585L252.87 163.586H245.968Z" fill="#99A5FF"/>
<path d="M269.831 159.966L266.969 174.276H263.013L258.888 167.626L257.541 174.276H252.87L255.732 159.966H259.688L263.812 166.616L265.159 159.966H269.831Z" fill="#99A5FF"/>
<path d="M276.312 170.53H280.941L280.184 174.276H268.694L269.283 171.33L275.26 166.742C275.891 166.237 276.312 165.859 276.564 165.522C276.817 165.185 276.943 164.849 276.943 164.512C276.943 164.217 276.817 163.965 276.564 163.754C276.312 163.544 276.017 163.46 275.596 163.46C275.175 163.46 274.755 163.586 274.376 163.838C273.997 164.091 273.618 164.428 273.324 164.849L270.125 162.87C270.672 161.902 271.514 161.145 272.608 160.556C273.702 159.966 274.965 159.672 276.312 159.672C277.364 159.672 278.29 159.84 279.174 160.219C280.015 160.556 280.689 161.061 281.152 161.692C281.615 162.323 281.867 162.997 281.867 163.796C281.867 164.722 281.615 165.564 281.11 166.322C280.605 167.079 279.721 167.963 278.458 168.931L276.312 170.53Z" fill="#99A5FF"/>
<path d="M285.066 173.939C284.224 173.476 283.593 172.845 283.13 172.003C282.667 171.161 282.457 170.151 282.457 168.973C282.457 167.205 282.793 165.606 283.467 164.175C284.14 162.744 285.066 161.65 286.244 160.808C287.423 160.008 288.77 159.587 290.243 159.587C291.379 159.587 292.347 159.798 293.147 160.261C293.946 160.724 294.62 161.355 295.083 162.197C295.546 163.039 295.756 164.049 295.756 165.227C295.756 166.995 295.419 168.594 294.746 170.025C294.072 171.456 293.147 172.55 291.968 173.392C290.79 174.191 289.443 174.612 287.97 174.612C286.876 174.612 285.866 174.36 285.066 173.939ZM289.78 169.814C290.158 169.225 290.411 168.51 290.621 167.668C290.832 166.826 290.916 166.069 290.916 165.353C290.916 164.133 290.495 163.501 289.695 163.501C289.19 163.501 288.727 163.796 288.349 164.385C287.97 164.974 287.717 165.69 287.507 166.532C287.339 167.373 287.212 168.131 287.212 168.846C287.212 170.067 287.633 170.698 288.433 170.698C288.98 170.74 289.443 170.446 289.78 169.814Z" fill="#99A5FF"/>
<path d="M290.398 153.978L287.873 156.504C287.834 156.543 287.788 156.574 287.736 156.595C287.685 156.616 287.631 156.627 287.575 156.627C287.52 156.627 287.465 156.616 287.414 156.595C287.363 156.574 287.317 156.543 287.278 156.504L284.752 153.978C284.693 153.919 284.653 153.844 284.637 153.763C284.621 153.681 284.629 153.596 284.661 153.519C284.693 153.443 284.747 153.377 284.816 153.331C284.885 153.284 284.967 153.26 285.05 153.26H287.154V151.155C287.153 149.928 286.665 148.751 285.797 147.883C284.929 147.015 283.752 146.527 282.525 146.526C282.413 146.526 282.306 146.481 282.227 146.403C282.148 146.324 282.104 146.217 282.104 146.105C282.104 145.993 282.148 145.886 282.227 145.807C282.306 145.728 282.413 145.684 282.525 145.684C283.975 145.686 285.366 146.263 286.392 147.288C287.418 148.314 287.995 149.705 287.996 151.155V153.26H290.1C290.184 153.26 290.265 153.284 290.334 153.331C290.404 153.377 290.458 153.443 290.49 153.519C290.521 153.596 290.53 153.681 290.514 153.763C290.497 153.844 290.457 153.919 290.398 153.978Z" fill="#99A5FF"/>
</g>
<defs>
<linearGradient id="paint0_linear_141_177" x1="67.5" y1="150.5" x2="393" y2="-38.5" gradientUnits="userSpaceOnUse">
<stop stop-color="#1D2140"/>
<stop offset="1" stop-color="#5863B7"/>
</linearGradient>
<clipPath id="clip0_141_177">
<rect width="320" height="196" rx="10" fill="white"/>
</clipPath>
<clipPath id="clip1_141_177">
<rect width="70" height="61" fill="white" transform="translate(24 111)"/>
</clipPath>
</defs>
</svg>
