<svg width="320" height="196" viewBox="0 0 320 196" fill="none" xmlns="http://www.w3.org/2000/svg">
<g clip-path="url(#clip0_72_3655)">
<rect width="320" height="196" rx="10" fill="#4F4F4F"/>
<path d="M31.7045 47H25.517V29.5455H31.7557C33.5114 29.5455 35.0227 29.8949 36.2898 30.5938C37.5568 31.2869 38.5313 32.2841 39.2131 33.5852C39.9006 34.8864 40.2443 36.4432 40.2443 38.2557C40.2443 40.0739 39.9006 41.6364 39.2131 42.9432C38.5313 44.25 37.5511 45.2528 36.2727 45.9517C35 46.6506 33.4773 47 31.7045 47ZM29.2074 43.8381H31.5511C32.642 43.8381 33.5597 43.6449 34.304 43.2585C35.054 42.8665 35.6165 42.2614 35.9915 41.4432C36.3722 40.6193 36.5625 39.5568 36.5625 38.2557C36.5625 36.9659 36.3722 35.9119 35.9915 35.0938C35.6165 34.2756 35.0568 33.6733 34.3125 33.2869C33.5682 32.9006 32.6506 32.7074 31.5597 32.7074H29.2074V43.8381ZM48.8757 47.2557C47.5291 47.2557 46.37 46.983 45.3984 46.4375C44.4325 45.8864 43.6882 45.108 43.1655 44.1023C42.6428 43.0909 42.3814 41.8949 42.3814 40.5142C42.3814 39.1676 42.6428 37.9858 43.1655 36.9688C43.6882 35.9517 44.424 35.1591 45.3729 34.5909C46.3274 34.0227 47.4467 33.7386 48.7308 33.7386C49.5945 33.7386 50.3984 33.8778 51.1428 34.1562C51.8928 34.429 52.5462 34.8409 53.103 35.392C53.6655 35.9432 54.103 36.6364 54.4155 37.4716C54.728 38.3011 54.8842 39.2727 54.8842 40.3864V41.3835H43.8303V39.1335H51.4666C51.4666 38.6108 51.353 38.1477 51.1257 37.7443C50.8984 37.3409 50.5831 37.0256 50.1797 36.7983C49.782 36.5653 49.3189 36.4489 48.7905 36.4489C48.2393 36.4489 47.7507 36.5767 47.3246 36.8324C46.9041 37.0824 46.5746 37.4205 46.3359 37.8466C46.0973 38.267 45.9751 38.7358 45.9695 39.2528V41.392C45.9695 42.0398 46.0888 42.5994 46.3274 43.071C46.5717 43.5426 46.9155 43.9062 47.3587 44.1619C47.8018 44.4176 48.3274 44.5455 48.9354 44.5455C49.3388 44.5455 49.7081 44.4886 50.0433 44.375C50.3786 44.2614 50.6655 44.0909 50.9041 43.8636C51.1428 43.6364 51.3246 43.358 51.4496 43.0284L54.8075 43.25C54.6371 44.0568 54.2876 44.7614 53.7592 45.3636C53.2365 45.9602 52.5604 46.4261 51.7308 46.7614C50.907 47.0909 49.9553 47.2557 48.8757 47.2557ZM57.2536 47V33.9091H60.7138V36.2188H60.8672C61.1399 35.4517 61.5945 34.8466 62.2308 34.4034C62.8672 33.9602 63.6286 33.7386 64.5149 33.7386C65.4126 33.7386 66.1768 33.9631 66.8075 34.4119C67.4382 34.8551 67.8587 35.4574 68.0689 36.2188H68.2053C68.4723 35.4688 68.9553 34.8693 69.6541 34.4205C70.3587 33.9659 71.1911 33.7386 72.1513 33.7386C73.3729 33.7386 74.3643 34.1278 75.1257 34.9062C75.8928 35.679 76.2763 36.7756 76.2763 38.196V47H72.6541V38.9119C72.6541 38.1847 72.4609 37.6392 72.0746 37.2756C71.6882 36.9119 71.2053 36.7301 70.6257 36.7301C69.9666 36.7301 69.4524 36.9403 69.0831 37.3608C68.7138 37.7756 68.5291 38.3239 68.5291 39.0057V47H65.0092V38.8352C65.0092 38.1932 64.8246 37.6818 64.4553 37.3011C64.0916 36.9205 63.6115 36.7301 63.0149 36.7301C62.6115 36.7301 62.2479 36.8324 61.924 37.0369C61.6058 37.2358 61.353 37.517 61.1655 37.8807C60.978 38.2386 60.8842 38.6591 60.8842 39.142V47H57.2536ZM85.0589 47.2557C83.7351 47.2557 82.5902 46.9744 81.6243 46.4119C80.6641 45.8437 79.9226 45.054 79.3999 44.0426C78.8771 43.0256 78.6158 41.8466 78.6158 40.5057C78.6158 39.1534 78.8771 37.9716 79.3999 36.9602C79.9226 35.9432 80.6641 35.1534 81.6243 34.5909C82.5902 34.0227 83.7351 33.7386 85.0589 33.7386C86.3828 33.7386 87.5249 34.0227 88.4851 34.5909C89.451 35.1534 90.1953 35.9432 90.718 36.9602C91.2408 37.9716 91.5021 39.1534 91.5021 40.5057C91.5021 41.8466 91.2408 43.0256 90.718 44.0426C90.1953 45.054 89.451 45.8437 88.4851 46.4119C87.5249 46.9744 86.3828 47.2557 85.0589 47.2557ZM85.076 44.4432C85.6783 44.4432 86.1811 44.2727 86.5845 43.9318C86.9879 43.5852 87.2919 43.1136 87.4964 42.517C87.7067 41.9205 87.8118 41.2415 87.8118 40.4801C87.8118 39.7188 87.7067 39.0398 87.4964 38.4432C87.2919 37.8466 86.9879 37.375 86.5845 37.0284C86.1811 36.6818 85.6783 36.5085 85.076 36.5085C84.468 36.5085 83.9567 36.6818 83.5419 37.0284C83.1328 37.375 82.8232 37.8466 82.6129 38.4432C82.4084 39.0398 82.3061 39.7188 82.3061 40.4801C82.3061 41.2415 82.4084 41.9205 82.6129 42.517C82.8232 43.1136 83.1328 43.5852 83.5419 43.9318C83.9567 44.2727 84.468 44.4432 85.076 44.4432ZM99.4858 47V29.5455H106.372C107.696 29.5455 108.824 29.7983 109.756 30.304C110.688 30.804 111.398 31.5 111.886 32.392C112.381 33.2784 112.628 34.3011 112.628 35.4602C112.628 36.6193 112.378 37.642 111.878 38.5284C111.378 39.4148 110.653 40.1051 109.705 40.5994C108.761 41.0937 107.619 41.3409 106.278 41.3409H101.889V38.3835H105.682C106.392 38.3835 106.977 38.2614 107.438 38.017C107.903 37.767 108.25 37.4233 108.477 36.9858C108.71 36.5426 108.827 36.0341 108.827 35.4602C108.827 34.8807 108.71 34.375 108.477 33.9432C108.25 33.5057 107.903 33.1676 107.438 32.929C106.972 32.6847 106.381 32.5625 105.665 32.5625H103.176V47H99.4858ZM118.587 29.5455V47H114.957V29.5455H118.587ZM129.891 41.4261V33.9091H133.521V47H130.036V44.6222H129.899C129.604 45.3892 129.112 46.0057 128.425 46.4716C127.743 46.9375 126.911 47.1705 125.928 47.1705C125.053 47.1705 124.283 46.9716 123.618 46.5739C122.953 46.1761 122.433 45.6108 122.058 44.8778C121.689 44.1449 121.501 43.267 121.496 42.2443V33.9091H125.126V41.5966C125.132 42.3693 125.339 42.9801 125.749 43.429C126.158 43.8778 126.706 44.1023 127.393 44.1023C127.831 44.1023 128.24 44.0028 128.621 43.804C129.001 43.5994 129.308 43.2983 129.541 42.9006C129.78 42.5028 129.896 42.0114 129.891 41.4261ZM142.323 52.1818C141.147 52.1818 140.138 52.0199 139.298 51.696C138.462 51.3778 137.798 50.9432 137.303 50.392C136.809 49.8409 136.488 49.2216 136.34 48.5341L139.698 48.0824C139.8 48.3438 139.962 48.5881 140.184 48.8153C140.406 49.0426 140.698 49.2244 141.062 49.3608C141.431 49.5028 141.88 49.5739 142.408 49.5739C143.198 49.5739 143.849 49.3807 144.36 48.9943C144.877 48.6136 145.136 47.9744 145.136 47.0767V44.6818H144.982C144.823 45.0455 144.585 45.3892 144.266 45.7131C143.948 46.0369 143.539 46.3011 143.039 46.5057C142.539 46.7102 141.942 46.8125 141.249 46.8125C140.266 46.8125 139.371 46.5852 138.565 46.1307C137.763 45.6705 137.124 44.9687 136.647 44.0256C136.175 43.0767 135.94 41.8778 135.94 40.429C135.94 38.946 136.181 37.7074 136.664 36.7131C137.147 35.7187 137.789 34.9744 138.59 34.4801C139.397 33.9858 140.281 33.7386 141.241 33.7386C141.974 33.7386 142.587 33.8636 143.082 34.1136C143.576 34.358 143.974 34.6648 144.275 35.0341C144.582 35.3977 144.817 35.7557 144.982 36.108H145.119V33.9091H148.724V47.1278C148.724 48.2415 148.451 49.1733 147.906 49.9233C147.36 50.6733 146.604 51.2358 145.638 51.6108C144.678 51.9915 143.573 52.1818 142.323 52.1818ZM142.4 44.0852C142.985 44.0852 143.479 43.9403 143.883 43.6506C144.292 43.3551 144.604 42.9347 144.82 42.3892C145.042 41.8381 145.153 41.179 145.153 40.4119C145.153 39.6449 145.045 38.9801 144.829 38.4176C144.613 37.8494 144.3 37.4091 143.891 37.0966C143.482 36.7841 142.985 36.6278 142.4 36.6278C141.803 36.6278 141.3 36.7898 140.891 37.1136C140.482 37.4318 140.173 37.875 139.962 38.4432C139.752 39.0114 139.647 39.6676 139.647 40.4119C139.647 41.1676 139.752 41.821 139.962 42.3722C140.178 42.9176 140.488 43.3409 140.891 43.642C141.3 43.9375 141.803 44.0852 142.4 44.0852ZM151.613 47V33.9091H155.244V47H151.613ZM153.437 32.2216C152.897 32.2216 152.434 32.0426 152.048 31.6847C151.667 31.321 151.477 30.8864 151.477 30.3807C151.477 29.8807 151.667 29.4517 152.048 29.0938C152.434 28.7301 152.897 28.5483 153.437 28.5483C153.977 28.5483 154.437 28.7301 154.817 29.0938C155.204 29.4517 155.397 29.8807 155.397 30.3807C155.397 30.8864 155.204 31.321 154.817 31.6847C154.437 32.0426 153.977 32.2216 153.437 32.2216ZM161.783 39.4318V47H158.152V33.9091H161.612V36.2188H161.766C162.055 35.4574 162.541 34.8551 163.223 34.4119C163.905 33.9631 164.732 33.7386 165.703 33.7386C166.612 33.7386 167.405 33.9375 168.081 34.3352C168.757 34.733 169.283 35.3011 169.658 36.0398C170.033 36.7727 170.22 37.6477 170.22 38.6648V47H166.589V39.3125C166.595 38.5114 166.391 37.8864 165.976 37.4375C165.561 36.983 164.99 36.7557 164.263 36.7557C163.774 36.7557 163.342 36.8608 162.967 37.071C162.598 37.2812 162.308 37.5881 162.098 37.9915C161.893 38.3892 161.788 38.8693 161.783 39.4318Z" fill="white"/>
<g clip-path="url(#clip1_72_3655)">
<path d="M79.4776 119.282C79.4776 117.836 78.8827 116.93 77.7313 116.621C77.4435 116.544 77.1364 116.544 76.8294 116.544C70.3625 116.544 63.8955 116.544 57.4094 116.544C56.4691 116.544 56.4499 116.525 56.4499 115.561C56.4307 114.23 56.8912 113.131 57.7164 112.071C60.5949 108.407 59.5202 103.181 55.452 100.925C50.9808 98.438 45.2622 101.292 44.533 106.344C44.226 108.503 44.6674 110.47 46.049 112.148C46.9126 113.208 47.2772 114.365 47.2388 115.734C47.2196 116.409 46.9893 116.563 46.3753 116.563C39.9083 116.544 33.4414 116.544 26.9552 116.563C26.5522 116.563 26.1492 116.544 25.7654 116.64C24.6141 116.93 24 117.855 24 119.282C24 122.657 24 126.031 24 129.405L79.4584 129.405C79.4776 126.012 79.4776 122.657 79.4776 119.282Z" fill="#FFD987"/>
<path d="M24 138.642C24 139.278 24.1343 139.49 24.806 139.509C26.0533 139.548 27.0704 139.162 28.0299 138.372C32.4435 134.805 38.9488 137.041 40.4648 142.286C41.3476 145.371 40.4648 148.109 38.0469 150.25C36.435 151.657 34.5352 152.197 32.3859 151.946C30.7356 151.754 29.3156 151.117 28.0682 150.095C27.1663 149.343 26.1301 149.112 24.9979 149.131C24.4414 149.151 24.2878 149.343 24.2878 149.883C24.307 153.373 24.2878 156.863 24.2878 160.354C24.2878 163.4 24.2878 166.427 24.2878 169.474C24.2878 171.113 25.1706 172 26.8209 172C33.2303 172 39.6205 172 46.0299 172.019C46.7015 172.019 46.9126 171.846 46.9318 171.152C46.951 169.937 46.5864 168.934 45.838 167.97C42.4222 163.497 44.5522 157.249 49.9446 155.726C54.3582 154.472 59.1557 157.905 59.5011 162.494C59.6546 164.499 59.1173 166.273 57.9083 167.816C57.0832 168.876 56.565 170.014 56.661 171.383C56.6802 171.827 56.7953 172 57.2751 172C63.9147 171.981 70.5544 172 77.1748 171.981C78.5757 171.981 79.4776 170.901 79.4776 169.262C79.4776 164.384 79.4776 159.505 79.4776 154.627C79.4776 152.911 79.4968 151.194 79.4776 149.459C79.4776 148.977 79.6311 148.823 80.1109 148.784C81.5501 148.688 82.7399 149.151 83.8721 150.038C88.2665 153.508 94.5608 151.214 95.7505 145.699C95.8465 145.236 95.9232 144.793 96 144.33C96 144.195 96 144.041 96 143.906C95.8849 143.424 95.7889 142.961 95.6738 142.479C94.8102 138.989 91.5672 136.636 87.9787 136.848C86.4051 136.945 84.9851 137.427 83.7953 138.449C82.7015 139.394 81.4733 139.683 80.0917 139.606C79.5928 139.567 79.4584 139.413 79.4776 138.931C79.4968 136.926 79.4776 134.92 79.4776 132.915C79.4776 131.739 79.4776 130.562 79.4776 129.386L24.0192 129.386C24.0192 129.406 24.0192 129.425 24.0192 129.444C24.0192 132.51 24.0384 135.576 24 138.642Z" fill="#CFB06E"/>
</g>
<path d="M215 175.893C215 173.551 215.495 172.77 217.968 172.699C222.56 172.557 226.305 173.976 229.838 176.887C246.088 190.021 270.04 181.786 275.622 162.475C278.872 151.116 275.622 141.035 266.719 133.154C260.784 127.971 253.79 125.984 245.876 126.906C239.8 127.616 234.571 129.959 229.979 133.722C226.658 136.491 222.843 137.343 218.674 137.272C216.625 137.201 216.06 136.491 216.06 134.503C216.13 121.653 216.06 108.803 216.06 95.9524C216.06 84.7351 216.06 73.5888 216.06 62.3715C216.06 56.3369 219.31 53.0711 225.386 53.0711C248.985 53.0711 234.534 53.0711 258.132 53.0001C260.605 53.0001 261.382 53.6391 261.453 56.1949C261.524 60.6676 260.181 64.3594 257.426 67.9092C244.849 84.3801 252.692 107.383 272.546 112.991C288.797 117.606 306.46 104.969 307.732 88.0719C308.297 80.6884 306.319 74.1568 301.868 68.4771C298.83 64.5724 296.922 60.3836 297.275 55.343C297.346 53.7101 297.77 53.0711 299.536 53.0711C323.983 53.1421 348.429 53.0711 372.805 53.1421C377.963 53.1421 381.284 57.1178 381.284 63.1525C381.284 81.1143 381.284 99.0762 381.284 117.038C381.284 123.357 381.354 129.675 381.284 136.065C381.284 137.84 381.849 138.408 383.615 138.55C388.915 138.905 393.295 137.201 397.464 133.935C413.644 121.156 436.819 129.604 441.199 149.909C441.552 151.613 441.835 153.246 442.118 154.95C442.118 155.447 442.118 156.015 442.118 156.512C441.694 158.286 441.34 159.99 440.917 161.765C437.737 174.615 425.796 183.277 412.584 182.496C406.79 182.141 401.562 180.366 397.181 176.603C393.154 173.125 388.632 172.06 383.545 172.344C381.708 172.486 381.213 173.054 381.284 174.828C381.354 182.212 381.284 189.595 381.284 196.979C381.284 201.31 381.284 205.64 381.284 209.971L215.071 209.971C215.071 209.9 215.071 209.829 215.071 209.758C215.071 198.47 215.141 187.182 215 175.893Z" fill="#FFD987"/>
</g>
<defs>
<clipPath id="clip0_72_3655">
<rect width="320" height="196" rx="10" fill="white"/>
</clipPath>
<clipPath id="clip1_72_3655">
<rect width="72" height="72" fill="white" transform="translate(96 100) rotate(90)"/>
</clipPath>
</defs>
</svg>
