<svg width="320" height="196" viewBox="0 0 320 196" fill="none" xmlns="http://www.w3.org/2000/svg">
<g clip-path="url(#clip0_328_9182)">
<mask id="path-1-inside-1_328_9182" fill="white">
<path d="M0 10C0 4.47715 4.47715 0 10 0H310C315.523 0 320 4.47715 320 10V186C320 191.523 315.523 196 310 196H10C4.47715 196 0 191.523 0 186V10Z"/>
</mask>
<path d="M0 10C0 4.47715 4.47715 0 10 0H310C315.523 0 320 4.47715 320 10V186C320 191.523 315.523 196 310 196H10C4.47715 196 0 191.523 0 186V10Z" fill="#070A0B"/>
<ellipse cx="288.731" cy="26" rx="93" ry="91" fill="url(#paint0_radial_328_9182)"/>
<ellipse cx="-0.5" cy="196" rx="163.5" ry="160" fill="url(#paint1_radial_328_9182)"/>
<path d="M36.2285 145.293C36.2286 144.917 36.1546 144.545 36.0108 144.197C35.8669 143.85 35.656 143.534 35.3901 143.268C35.1242 143.002 34.8085 142.791 34.4611 142.647C34.1137 142.504 33.7413 142.43 33.3653 142.43H33.1192V156.027H36.2285V145.293Z" fill="white" fill-opacity="0.1"/>
<path d="M30.1699 151.75V142.451H27.057V151.75H30.1699Z" fill="white" fill-opacity="0.1"/>
<path d="M24.1133 156.023V142.43H23.8672C23.4909 142.43 23.1182 142.503 22.7703 142.647C22.4225 142.791 22.1064 143.001 21.8401 143.267C21.5738 143.533 21.3626 143.849 21.2185 144.197C21.0744 144.544 21.0003 144.917 21.0004 145.293V156.023H24.1133Z" fill="white" fill-opacity="0.1"/>
<path d="M36.2285 161.401C36.2286 161.025 36.1546 160.652 36.0108 160.305C35.8669 159.958 35.656 159.642 35.3901 159.376C35.1242 159.11 34.8085 158.899 34.4611 158.755C34.1137 158.611 33.7413 158.538 33.3653 158.538H33.1192V172.134H36.2285V161.401Z" fill="white" fill-opacity="0.1"/>
<path d="M30.1709 167.856V158.558H27.058V167.856H30.1709Z" fill="white" fill-opacity="0.1"/>
<path d="M24.1133 172.131V158.538H23.8672C23.4909 158.538 23.1182 158.611 22.7703 158.755C22.4225 158.898 22.1064 159.109 21.8401 159.375C21.5738 159.641 21.3626 159.957 21.2185 160.305C21.0744 160.652 21.0003 161.025 21.0004 161.401V172.131H24.1133Z" fill="white" fill-opacity="0.1"/>
<path d="M36.2295 177.509C36.2296 177.133 36.1556 176.76 36.0117 176.413C35.8679 176.066 35.657 175.75 35.3911 175.484C35.1252 175.218 34.8095 175.007 34.4621 174.863C34.1146 174.719 33.7423 174.645 33.3662 174.646H33.1202V188.242H36.2295V177.509Z" fill="white" fill-opacity="0.1"/>
<path d="M30.1719 183.964V174.666H27.059V183.964H30.1719Z" fill="white" fill-opacity="0.1"/>
<path d="M24.1143 188.239V174.646H23.8682C23.4919 174.645 23.1191 174.719 22.7713 174.863C22.4234 175.006 22.1073 175.217 21.8411 175.483C21.5748 175.749 21.3636 176.065 21.2195 176.413C21.0754 176.76 21.0013 177.133 21.0014 177.509V188.239H24.1143Z" fill="white" fill-opacity="0.1"/>
<path d="M36.2295 193.616C36.2296 193.24 36.1556 192.868 36.0117 192.52C35.8679 192.173 35.657 191.857 35.3911 191.591C35.1252 191.325 34.8095 191.115 34.4621 190.971C34.1146 190.827 33.7423 190.753 33.3662 190.753H33.1202V204.35H36.2295V193.616Z" fill="white" fill-opacity="0.1"/>
<path d="M30.1709 200.073V190.774H27.058V200.073H30.1709Z" fill="white" fill-opacity="0.1"/>
<path d="M24.1133 204.347V190.753H23.8672C23.4909 190.753 23.1182 190.827 22.7703 190.97C22.4225 191.114 22.1064 191.325 21.8401 191.591C21.5738 191.857 21.3626 192.172 21.2185 192.52C21.0744 192.868 21.0003 193.24 21.0004 193.617V204.347H24.1133Z" fill="white" fill-opacity="0.1"/>
<path d="M176.815 129.186C176.816 128.809 176.742 128.437 176.598 128.09C176.454 127.742 176.243 127.427 175.977 127.161C175.711 126.895 175.395 126.684 175.048 126.54C174.701 126.396 174.328 126.322 173.952 126.322H173.706V139.919H176.815V129.186Z" fill="white" fill-opacity="0.1"/>
<path d="M170.758 135.641V126.343H167.645V135.641H170.758Z" fill="white" fill-opacity="0.1"/>
<path d="M164.7 139.916V126.323H164.454C164.078 126.322 163.705 126.396 163.357 126.539C163.009 126.683 162.693 126.894 162.427 127.16C162.161 127.426 161.949 127.742 161.805 128.089C161.661 128.437 161.587 128.81 161.587 129.186V139.916H164.7Z" fill="white" fill-opacity="0.1"/>
<path d="M176.815 145.292C176.816 144.916 176.742 144.544 176.598 144.197C176.454 143.849 176.243 143.534 175.977 143.268C175.711 143.002 175.395 142.791 175.048 142.647C174.701 142.503 174.328 142.429 173.952 142.429H173.706V156.026H176.815V145.292Z" fill="white" fill-opacity="0.1"/>
<path d="M170.757 151.749V142.451H167.644V151.749H170.757Z" fill="white" fill-opacity="0.1"/>
<path d="M164.7 156.023V142.43H164.454C164.078 142.429 163.705 142.503 163.357 142.646C163.009 142.79 162.693 143.001 162.427 143.267C162.161 143.533 161.949 143.849 161.805 144.196C161.661 144.544 161.587 144.917 161.587 145.293V156.023H164.7Z" fill="white" fill-opacity="0.1"/>
<path d="M176.815 161.4C176.816 161.024 176.742 160.651 176.598 160.304C176.454 159.957 176.243 159.641 175.977 159.375C175.711 159.109 175.395 158.898 175.048 158.754C174.701 158.611 174.328 158.537 173.952 158.537H173.706V172.133H176.815V161.4Z" fill="white" fill-opacity="0.1"/>
<path d="M170.757 167.856V158.557H167.644V167.856H170.757Z" fill="white" fill-opacity="0.1"/>
<path d="M164.699 172.13V158.537H164.453C164.077 158.537 163.704 158.61 163.356 158.754C163.008 158.897 162.692 159.108 162.426 159.374C162.16 159.64 161.949 159.956 161.804 160.304C161.66 160.651 161.586 161.024 161.586 161.4V172.13H164.699Z" fill="white" fill-opacity="0.1"/>
<path d="M176.815 177.509C176.816 177.133 176.742 176.76 176.598 176.413C176.454 176.066 176.243 175.75 175.977 175.484C175.711 175.218 175.395 175.007 175.048 174.863C174.701 174.719 174.328 174.645 173.952 174.646H173.706V188.242H176.815V177.509Z" fill="white" fill-opacity="0.1"/>
<path d="M170.757 183.964V174.666H167.644V183.964H170.757Z" fill="white" fill-opacity="0.1"/>
<path d="M164.699 188.239V174.646H164.453C164.077 174.645 163.704 174.719 163.356 174.863C163.008 175.006 162.692 175.217 162.426 175.483C162.16 175.749 161.949 176.065 161.804 176.413C161.66 176.76 161.586 177.133 161.586 177.509V188.239H164.699Z" fill="white" fill-opacity="0.1"/>
<path d="M176.816 193.617C176.817 193.241 176.743 192.868 176.599 192.521C176.455 192.173 176.244 191.858 175.978 191.592C175.712 191.326 175.396 191.115 175.049 190.971C174.702 190.827 174.329 190.753 173.953 190.753H173.707V204.35H176.816V193.617Z" fill="white" fill-opacity="0.1"/>
<path d="M170.758 200.073V190.775H167.645V200.073H170.758Z" fill="white" fill-opacity="0.1"/>
<path d="M164.701 204.347V190.754H164.455C164.079 190.753 163.706 190.827 163.358 190.971C163.01 191.114 162.694 191.325 162.428 191.591C162.162 191.857 161.95 192.173 161.806 192.52C161.662 192.868 161.588 193.241 161.588 193.617V204.347H164.701Z" fill="white" fill-opacity="0.1"/>
<path d="M106.522 113.079C106.523 112.703 106.449 112.33 106.305 111.983C106.161 111.635 105.95 111.32 105.684 111.054C105.418 110.788 105.102 110.577 104.755 110.433C104.408 110.289 104.035 110.215 103.659 110.215H103.413V123.812H106.522V113.079Z" fill="white" fill-opacity="0.1"/>
<path d="M100.464 119.535V110.237H97.351V119.535H100.464Z" fill="white" fill-opacity="0.1"/>
<path d="M94.4072 123.809V110.216H94.1612C93.7849 110.215 93.4121 110.289 93.0643 110.433C92.7164 110.576 92.4003 110.787 92.134 111.053C91.8677 111.319 91.6565 111.635 91.5124 111.982C91.3684 112.33 91.2942 112.703 91.2943 113.079V123.809H94.4072Z" fill="white" fill-opacity="0.1"/>
<path d="M106.521 129.185C106.522 128.809 106.448 128.437 106.304 128.089C106.16 127.742 105.949 127.426 105.683 127.16C105.417 126.894 105.101 126.683 104.754 126.54C104.407 126.396 104.034 126.322 103.658 126.322H103.412V139.919H106.521V129.185Z" fill="white" fill-opacity="0.1"/>
<path d="M100.464 135.641V126.342H97.351V135.641H100.464Z" fill="white" fill-opacity="0.1"/>
<path d="M94.4062 139.916V126.322H94.1602C93.7839 126.322 93.4111 126.395 93.0633 126.539C92.7154 126.683 92.3993 126.893 92.133 127.159C91.8668 127.425 91.6555 127.741 91.5115 128.089C91.3674 128.437 91.2933 128.809 91.2934 129.186V139.916H94.4062Z" fill="white" fill-opacity="0.1"/>
<path d="M106.521 145.292C106.522 144.916 106.448 144.544 106.304 144.197C106.16 143.849 105.949 143.534 105.683 143.268C105.417 143.002 105.101 142.791 104.754 142.647C104.407 142.503 104.034 142.429 103.658 142.429H103.412V156.026H106.521V145.292Z" fill="white" fill-opacity="0.1"/>
<path d="M100.463 151.749V142.45H97.35V151.749H100.463Z" fill="white" fill-opacity="0.1"/>
<path d="M94.4062 156.023V142.43H94.1602C93.7839 142.429 93.4111 142.503 93.0633 142.646C92.7154 142.79 92.3993 143.001 92.133 143.267C91.8668 143.533 91.6555 143.849 91.5115 144.196C91.3674 144.544 91.2933 144.917 91.2934 145.293V156.023H94.4062Z" fill="white" fill-opacity="0.1"/>
<path d="M106.522 161.401C106.523 161.025 106.449 160.652 106.305 160.305C106.161 159.958 105.95 159.642 105.684 159.376C105.418 159.11 105.102 158.899 104.755 158.755C104.408 158.611 104.035 158.538 103.659 158.538H103.413V172.134H106.522V161.401Z" fill="white" fill-opacity="0.1"/>
<path d="M100.465 167.856V158.558H97.352V167.856H100.465Z" fill="white" fill-opacity="0.1"/>
<path d="M94.4072 172.131V158.538H94.1612C93.7849 158.538 93.4121 158.611 93.0643 158.755C92.7164 158.898 92.4003 159.109 92.134 159.375C91.8677 159.641 91.6565 159.957 91.5124 160.305C91.3684 160.652 91.2942 161.025 91.2943 161.401V172.131H94.4072Z" fill="white" fill-opacity="0.1"/>
<path d="M106.521 177.508C106.522 177.132 106.448 176.76 106.304 176.412C106.16 176.065 105.949 175.749 105.683 175.483C105.417 175.218 105.101 175.007 104.754 174.863C104.407 174.719 104.034 174.645 103.658 174.645H103.412V188.242H106.521V177.508Z" fill="white" fill-opacity="0.1"/>
<path d="M100.463 183.964V174.666H97.35V183.964H100.463Z" fill="white" fill-opacity="0.1"/>
<path d="M94.4053 188.239V174.646H94.1592C93.7829 174.645 93.4101 174.719 93.0623 174.862C92.7145 175.006 92.3984 175.217 92.1321 175.483C91.8658 175.749 91.6546 176.064 91.5105 176.412C91.3664 176.76 91.2923 177.132 91.2924 177.509V188.239H94.4053Z" fill="white" fill-opacity="0.1"/>
<path d="M106.523 193.616C106.524 193.24 106.45 192.868 106.306 192.52C106.162 192.173 105.951 191.857 105.685 191.591C105.419 191.325 105.103 191.115 104.756 190.971C104.409 190.827 104.036 190.753 103.66 190.753H103.414V204.35H106.523V193.616Z" fill="white" fill-opacity="0.1"/>
<path d="M100.465 200.073V190.774H97.352V200.073H100.465Z" fill="white" fill-opacity="0.1"/>
<path d="M94.4082 204.347V190.753H94.1622C93.7858 190.753 93.4131 190.827 93.0652 190.97C92.7174 191.114 92.4013 191.325 92.135 191.591C91.8687 191.857 91.6575 192.172 91.5134 192.52C91.3693 192.868 91.2952 193.24 91.2953 193.617V204.347H94.4082Z" fill="white" fill-opacity="0.1"/>
<path d="M247.108 96.9717C247.108 96.5956 247.034 96.2232 246.891 95.8758C246.747 95.5284 246.536 95.2127 246.27 94.9468C246.004 94.6809 245.688 94.47 245.341 94.3262C244.994 94.1823 244.621 94.1083 244.245 94.1084H243.999V107.705H247.108V96.9717Z" fill="white" fill-opacity="0.1"/>
<path d="M241.05 103.428V94.1299H237.937V103.428H241.05Z" fill="white" fill-opacity="0.1"/>
<path d="M234.993 107.702V94.1089H234.747C234.371 94.1083 233.998 94.182 233.65 94.3256C233.302 94.4693 232.986 94.6801 232.72 94.946C232.454 95.212 232.242 95.5278 232.098 95.8755C231.954 96.2231 231.88 96.5958 231.88 96.9721V107.702H234.993Z" fill="white" fill-opacity="0.1"/>
<path d="M247.108 113.079C247.108 112.703 247.034 112.33 246.891 111.983C246.747 111.635 246.536 111.32 246.27 111.054C246.004 110.788 245.688 110.577 245.341 110.433C244.994 110.289 244.621 110.215 244.245 110.215H243.999V123.812H247.108V113.079Z" fill="white" fill-opacity="0.1"/>
<path d="M241.051 119.536V110.237H237.938V119.536H241.051Z" fill="white" fill-opacity="0.1"/>
<path d="M234.993 123.809V110.216H234.747C234.371 110.215 233.998 110.289 233.65 110.433C233.302 110.576 232.986 110.787 232.72 111.053C232.454 111.319 232.242 111.635 232.098 111.982C231.954 112.33 231.88 112.703 231.88 113.079V123.809H234.993Z" fill="white" fill-opacity="0.1"/>
<path d="M247.109 129.186C247.109 128.81 247.035 128.438 246.892 128.09C246.748 127.743 246.537 127.427 246.271 127.161C246.005 126.895 245.689 126.684 245.342 126.541C244.995 126.397 244.622 126.323 244.246 126.323H244V139.92H247.109V129.186Z" fill="white" fill-opacity="0.1"/>
<path d="M241.052 135.642V126.343H237.939V135.642H241.052Z" fill="white" fill-opacity="0.1"/>
<path d="M234.994 139.916V126.323H234.748C234.372 126.323 233.999 126.396 233.651 126.54C233.303 126.684 232.987 126.894 232.721 127.16C232.455 127.426 232.243 127.742 232.099 128.09C231.955 128.437 231.881 128.81 231.881 129.186V139.916H234.994Z" fill="white" fill-opacity="0.1"/>
<path d="M247.108 145.293C247.108 144.917 247.034 144.545 246.891 144.198C246.747 143.85 246.536 143.534 246.27 143.269C246.004 143.003 245.688 142.792 245.341 142.648C244.994 142.504 244.621 142.43 244.245 142.43H243.999V156.027H247.108V145.293Z" fill="white" fill-opacity="0.1"/>
<path d="M241.05 151.75V142.452H237.937V151.75H241.05Z" fill="white" fill-opacity="0.1"/>
<path d="M234.993 156.024V142.431H234.747C234.371 142.43 233.998 142.504 233.65 142.647C233.302 142.791 232.986 143.002 232.72 143.268C232.454 143.534 232.242 143.85 232.098 144.197C231.954 144.545 231.88 144.918 231.88 145.294V156.024H234.993Z" fill="white" fill-opacity="0.1"/>
<path d="M247.108 161.401C247.108 161.025 247.034 160.652 246.891 160.305C246.747 159.958 246.536 159.642 246.27 159.376C246.004 159.11 245.688 158.899 245.341 158.755C244.994 158.611 244.621 158.538 244.245 158.538H243.999V172.134H247.108V161.401Z" fill="white" fill-opacity="0.1"/>
<path d="M241.051 167.856V158.558H237.938V167.856H241.051Z" fill="white" fill-opacity="0.1"/>
<path d="M234.993 172.131V158.538H234.747C234.371 158.538 233.998 158.611 233.65 158.755C233.302 158.898 232.986 159.109 232.72 159.375C232.454 159.641 232.242 159.957 232.098 160.305C231.954 160.652 231.88 161.025 231.88 161.401V172.131H234.993Z" fill="white" fill-opacity="0.1"/>
<path d="M247.109 177.509C247.109 177.133 247.035 176.76 246.892 176.413C246.748 176.066 246.537 175.75 246.271 175.484C246.005 175.218 245.689 175.007 245.342 174.863C244.995 174.719 244.622 174.645 244.246 174.646H244V188.242H247.109V177.509Z" fill="white" fill-opacity="0.1"/>
<path d="M241.052 183.964V174.666H237.939V183.964H241.052Z" fill="white" fill-opacity="0.1"/>
<path d="M234.994 188.239V174.646H234.748C234.372 174.645 233.999 174.719 233.651 174.863C233.303 175.006 232.987 175.217 232.721 175.483C232.455 175.749 232.243 176.065 232.099 176.413C231.955 176.76 231.881 177.133 231.881 177.509V188.239H234.994Z" fill="white" fill-opacity="0.1"/>
<path d="M247.109 193.616C247.109 193.24 247.035 192.867 246.892 192.52C246.748 192.172 246.537 191.857 246.271 191.591C246.005 191.325 245.689 191.114 245.342 190.97C244.995 190.826 244.622 190.752 244.246 190.752H244V204.349H247.109V193.616Z" fill="white" fill-opacity="0.1"/>
<path d="M241.051 200.072V190.774H237.938V200.072H241.051Z" fill="white" fill-opacity="0.1"/>
<path d="M234.994 204.346V190.753H234.748C234.372 190.752 233.999 190.826 233.651 190.97C233.303 191.113 232.987 191.324 232.721 191.59C232.455 191.856 232.243 192.172 232.099 192.52C231.955 192.867 231.881 193.24 231.881 193.616V204.346H234.994Z" fill="white" fill-opacity="0.1"/>
<path d="M53.8027 121.447C53.8028 121.071 53.7288 120.698 53.585 120.351C53.4411 120.003 53.2302 119.688 52.9643 119.422C52.6984 119.156 52.3827 118.945 52.0353 118.801C51.6879 118.657 51.3155 118.583 50.9395 118.583H50.6934V132.18H53.8027V121.447Z" fill="white" fill-opacity="0.1"/>
<path d="M47.7441 127.903V118.605H44.6313V127.903H47.7441Z" fill="white" fill-opacity="0.1"/>
<path d="M41.6875 132.177V118.584H41.4415C41.0651 118.583 40.6924 118.657 40.3445 118.801C39.9967 118.944 39.6806 119.155 39.4143 119.421C39.148 119.687 38.9368 120.003 38.7927 120.351C38.6486 120.698 38.5745 121.071 38.5746 121.447V132.177H41.6875Z" fill="white" fill-opacity="0.1"/>
<path d="M53.8027 137.556C53.8028 137.18 53.7288 136.807 53.585 136.46C53.4411 136.112 53.2302 135.797 52.9643 135.531C52.6984 135.265 52.3827 135.054 52.0353 134.91C51.6879 134.766 51.3155 134.692 50.9395 134.692H50.6934V148.289H53.8027V137.556Z" fill="white" fill-opacity="0.1"/>
<path d="M47.7451 144.011V134.713H44.6322V144.011H47.7451Z" fill="white" fill-opacity="0.1"/>
<path d="M41.6875 148.286V134.693H41.4415C41.0651 134.692 40.6924 134.766 40.3445 134.91C39.9967 135.053 39.6806 135.264 39.4143 135.53C39.148 135.796 38.9368 136.112 38.7927 136.459C38.6486 136.807 38.5745 137.18 38.5746 137.556V148.286H41.6875Z" fill="white" fill-opacity="0.1"/>
<path d="M53.8027 153.663C53.8028 153.287 53.7288 152.914 53.585 152.567C53.4411 152.219 53.2302 151.904 52.9643 151.638C52.6984 151.372 52.3827 151.161 52.0353 151.017C51.6879 150.873 51.3155 150.799 50.9395 150.799H50.6934V164.396H53.8027V153.663Z" fill="white" fill-opacity="0.1"/>
<path d="M47.7441 160.119V150.821H44.6313V160.119H47.7441Z" fill="white" fill-opacity="0.1"/>
<path d="M41.6865 164.393V150.8H41.4405C41.0641 150.799 40.6914 150.873 40.3435 151.017C39.9957 151.16 39.6796 151.371 39.4133 151.637C39.147 151.903 38.9358 152.219 38.7917 152.566C38.6477 152.914 38.5735 153.287 38.5736 153.663V164.393H41.6865Z" fill="white" fill-opacity="0.1"/>
<path d="M53.8027 169.77C53.8028 169.393 53.7288 169.021 53.585 168.674C53.4411 168.326 53.2302 168.011 52.9643 167.745C52.6984 167.479 52.3827 167.268 52.0353 167.124C51.6879 166.98 51.3155 166.906 50.9395 166.906H50.6934V180.503H53.8027V169.77Z" fill="white" fill-opacity="0.1"/>
<path d="M47.7441 176.225V166.927H44.6313V176.225H47.7441Z" fill="white" fill-opacity="0.1"/>
<path d="M41.6865 180.5V166.907H41.4405C41.0641 166.906 40.6914 166.98 40.3435 167.123C39.9957 167.267 39.6796 167.478 39.4133 167.744C39.147 168.01 38.9358 168.326 38.7917 168.673C38.6477 169.021 38.5735 169.394 38.5736 169.77V180.5H41.6865Z" fill="white" fill-opacity="0.1"/>
<path d="M53.8027 185.875C53.8028 185.499 53.7288 185.127 53.585 184.779C53.4411 184.432 53.2302 184.116 52.9643 183.85C52.6984 183.584 52.3827 183.373 52.0353 183.229C51.6879 183.086 51.3155 183.012 50.9395 183.012H50.6934V196.609H53.8027V185.875Z" fill="white" fill-opacity="0.1"/>
<path d="M47.7451 192.331V183.032H44.6322V192.331H47.7451Z" fill="white" fill-opacity="0.1"/>
<path d="M41.6875 196.605V183.012H41.4415C41.0651 183.012 40.6924 183.085 40.3445 183.229C39.9967 183.373 39.6806 183.583 39.4143 183.849C39.148 184.115 38.9368 184.431 38.7927 184.779C38.6486 185.126 38.5745 185.499 38.5746 185.875V196.605H41.6875Z" fill="white" fill-opacity="0.1"/>
<path d="M194.389 121.447C194.389 121.071 194.315 120.698 194.171 120.351C194.027 120.003 193.816 119.688 193.55 119.422C193.284 119.156 192.969 118.945 192.621 118.801C192.274 118.657 191.901 118.583 191.525 118.583H191.279V132.18H194.389V121.447Z" fill="white" fill-opacity="0.1"/>
<path d="M188.33 127.903V118.605H185.217V127.903H188.33Z" fill="white" fill-opacity="0.1"/>
<path d="M182.273 132.177V118.584H182.027C181.651 118.583 181.278 118.657 180.93 118.801C180.583 118.944 180.267 119.155 180 119.421C179.734 119.687 179.523 120.003 179.379 120.351C179.235 120.698 179.16 121.071 179.161 121.447V132.177H182.273Z" fill="white" fill-opacity="0.1"/>
<path d="M194.388 137.555C194.388 137.179 194.314 136.806 194.17 136.459C194.026 136.111 193.815 135.796 193.549 135.53C193.283 135.264 192.968 135.053 192.62 134.909C192.273 134.765 191.9 134.691 191.524 134.691H191.278V148.288H194.388V137.555Z" fill="white" fill-opacity="0.1"/>
<path d="M188.33 144.01V134.712H185.217V144.01H188.33Z" fill="white" fill-opacity="0.1"/>
<path d="M182.272 148.285V134.692H182.026C181.65 134.691 181.277 134.765 180.929 134.909C180.582 135.052 180.266 135.263 179.999 135.529C179.733 135.795 179.522 136.111 179.378 136.458C179.234 136.806 179.159 137.179 179.16 137.555V148.285H182.272Z" fill="white" fill-opacity="0.1"/>
<path d="M194.389 153.663C194.389 153.287 194.315 152.915 194.171 152.567C194.027 152.22 193.816 151.904 193.55 151.638C193.284 151.372 192.969 151.161 192.621 151.018C192.274 150.874 191.901 150.8 191.525 150.8H191.279V164.397H194.389V153.663Z" fill="white" fill-opacity="0.1"/>
<path d="M188.33 160.12V150.821H185.217V160.12H188.33Z" fill="white" fill-opacity="0.1"/>
<path d="M182.273 164.394V150.8H182.027C181.651 150.8 181.278 150.873 180.93 151.017C180.583 151.161 180.267 151.371 180 151.637C179.734 151.903 179.523 152.219 179.379 152.567C179.235 152.915 179.16 153.287 179.161 153.664V164.394H182.273Z" fill="white" fill-opacity="0.1"/>
<path d="M194.389 169.77C194.389 169.394 194.315 169.022 194.171 168.674C194.027 168.327 193.816 168.011 193.55 167.745C193.284 167.479 192.969 167.268 192.621 167.124C192.274 166.981 191.901 166.907 191.525 166.907H191.279V180.504H194.389V169.77Z" fill="white" fill-opacity="0.1"/>
<path d="M188.33 176.226V166.927H185.217V176.226H188.33Z" fill="white" fill-opacity="0.1"/>
<path d="M182.272 180.5V166.907H182.026C181.65 166.907 181.277 166.98 180.929 167.124C180.582 167.268 180.266 167.478 179.999 167.744C179.733 168.01 179.522 168.326 179.378 168.674C179.234 169.021 179.159 169.394 179.16 169.77V180.5H182.272Z" fill="white" fill-opacity="0.1"/>
<path d="M194.389 185.875C194.389 185.499 194.315 185.127 194.171 184.779C194.027 184.432 193.816 184.116 193.55 183.85C193.284 183.584 192.969 183.373 192.621 183.229C192.274 183.086 191.901 183.012 191.525 183.012H191.279V196.609H194.389V185.875Z" fill="white" fill-opacity="0.1"/>
<path d="M188.331 192.331V183.032H185.218V192.331H188.331Z" fill="white" fill-opacity="0.1"/>
<path d="M182.273 196.605V183.012H182.027C181.651 183.012 181.278 183.085 180.93 183.229C180.583 183.373 180.267 183.583 180 183.849C179.734 184.115 179.523 184.431 179.379 184.779C179.235 185.126 179.16 185.499 179.161 185.875V196.605H182.273Z" fill="white" fill-opacity="0.1"/>
<path d="M124.097 121.447C124.097 121.071 124.023 120.698 123.879 120.351C123.735 120.003 123.524 119.688 123.258 119.422C122.992 119.156 122.677 118.945 122.329 118.801C121.982 118.657 121.609 118.583 121.233 118.583H120.987V132.18H124.097V121.447Z" fill="white" fill-opacity="0.1"/>
<path d="M118.038 127.903V118.605H114.925V127.903H118.038Z" fill="white" fill-opacity="0.1"/>
<path d="M111.981 132.177V118.584H111.735C111.359 118.583 110.986 118.657 110.638 118.801C110.291 118.944 109.975 119.155 109.708 119.421C109.442 119.687 109.231 120.003 109.087 120.351C108.943 120.698 108.868 121.071 108.869 121.447V132.177H111.981Z" fill="white" fill-opacity="0.1"/>
<path d="M124.096 137.555C124.096 137.179 124.022 136.807 123.878 136.459C123.734 136.112 123.523 135.796 123.257 135.53C122.991 135.264 122.676 135.054 122.328 134.91C121.981 134.766 121.608 134.692 121.232 134.692H120.986V148.289H124.096V137.555Z" fill="white" fill-opacity="0.1"/>
<path d="M118.038 144.011V134.712H114.925V144.011H118.038Z" fill="white" fill-opacity="0.1"/>
<path d="M111.98 148.286V134.692H111.734C111.358 134.692 110.985 134.765 110.637 134.909C110.29 135.053 109.974 135.264 109.707 135.53C109.441 135.795 109.23 136.111 109.086 136.459C108.942 136.807 108.867 137.179 108.868 137.556V148.286H111.98Z" fill="white" fill-opacity="0.1"/>
<path d="M124.096 153.662C124.096 153.286 124.022 152.914 123.878 152.566C123.734 152.219 123.523 151.903 123.257 151.637C122.991 151.371 122.676 151.16 122.328 151.017C121.981 150.873 121.608 150.799 121.232 150.799H120.986V164.396H124.096V153.662Z" fill="white" fill-opacity="0.1"/>
<path d="M118.037 160.119V150.82H114.924V160.119H118.037Z" fill="white" fill-opacity="0.1"/>
<path d="M111.979 164.393V150.799H111.733C111.357 150.799 110.984 150.872 110.637 151.016C110.289 151.16 109.973 151.371 109.706 151.636C109.44 151.902 109.229 152.218 109.085 152.566C108.941 152.914 108.867 153.286 108.867 153.663V164.393H111.979Z" fill="white" fill-opacity="0.1"/>
<path d="M124.096 169.77C124.096 169.393 124.022 169.021 123.878 168.674C123.734 168.326 123.523 168.011 123.257 167.745C122.991 167.479 122.676 167.268 122.328 167.124C121.981 166.98 121.608 166.906 121.232 166.906H120.986V180.503H124.096V169.77Z" fill="white" fill-opacity="0.1"/>
<path d="M118.037 176.225V166.927H114.924V176.225H118.037Z" fill="white" fill-opacity="0.1"/>
<path d="M111.979 180.5V166.907H111.733C111.357 166.906 110.984 166.98 110.637 167.123C110.289 167.267 109.973 167.478 109.706 167.744C109.44 168.01 109.229 168.326 109.085 168.673C108.941 169.021 108.867 169.394 108.867 169.77V180.5H111.979Z" fill="white" fill-opacity="0.1"/>
<path d="M124.095 185.875C124.095 185.499 124.021 185.127 123.877 184.78C123.733 184.432 123.522 184.117 123.256 183.851C122.99 183.585 122.675 183.374 122.327 183.23C121.98 183.086 121.608 183.012 121.231 183.012H120.985V196.609H124.095V185.875Z" fill="white" fill-opacity="0.1"/>
<path d="M118.037 192.331V183.033H114.924V192.331H118.037Z" fill="white" fill-opacity="0.1"/>
<path d="M111.979 196.606V183.013H111.733C111.357 183.012 110.984 183.086 110.637 183.229C110.289 183.373 109.973 183.584 109.706 183.85C109.44 184.116 109.229 184.432 109.085 184.779C108.941 185.127 108.867 185.5 108.867 185.876V196.606H111.979Z" fill="white" fill-opacity="0.1"/>
<path d="M264.682 105.339C264.682 104.963 264.608 104.59 264.464 104.243C264.32 103.896 264.109 103.58 263.843 103.314C263.577 103.048 263.262 102.837 262.914 102.693C262.567 102.549 262.194 102.475 261.818 102.476H261.572V116.072H264.682V105.339Z" fill="white" fill-opacity="0.1"/>
<path d="M258.624 111.796V102.498H255.511V111.796H258.624Z" fill="white" fill-opacity="0.1"/>
<path d="M252.566 116.069V102.476H252.32C251.944 102.476 251.571 102.549 251.223 102.693C250.876 102.836 250.559 103.047 250.293 103.313C250.027 103.579 249.816 103.895 249.672 104.243C249.528 104.59 249.453 104.963 249.454 105.339V116.069H252.566Z" fill="white" fill-opacity="0.1"/>
<path d="M264.683 121.447C264.683 121.071 264.609 120.698 264.465 120.351C264.321 120.003 264.11 119.688 263.844 119.422C263.578 119.156 263.263 118.945 262.915 118.801C262.568 118.657 262.195 118.583 261.819 118.583H261.573V132.18H264.683V121.447Z" fill="white" fill-opacity="0.1"/>
<path d="M258.624 127.903V118.605H255.511V127.903H258.624Z" fill="white" fill-opacity="0.1"/>
<path d="M252.567 132.177V118.584H252.321C251.945 118.583 251.572 118.657 251.224 118.801C250.877 118.944 250.56 119.155 250.294 119.421C250.028 119.687 249.817 120.003 249.673 120.351C249.529 120.698 249.454 121.071 249.454 121.447V132.177H252.567Z" fill="white" fill-opacity="0.1"/>
<path d="M264.682 137.555C264.682 137.179 264.608 136.807 264.464 136.459C264.32 136.112 264.109 135.796 263.843 135.53C263.577 135.264 263.262 135.054 262.914 134.91C262.567 134.766 262.194 134.692 261.818 134.692H261.572V148.289H264.682V137.555Z" fill="white" fill-opacity="0.1"/>
<path d="M258.624 144.011V134.712H255.511V144.011H258.624Z" fill="white" fill-opacity="0.1"/>
<path d="M252.566 148.286V134.692H252.32C251.944 134.692 251.571 134.765 251.223 134.909C250.876 135.053 250.559 135.264 250.293 135.53C250.027 135.795 249.816 136.111 249.672 136.459C249.528 136.807 249.453 137.179 249.454 137.556V148.286H252.566Z" fill="white" fill-opacity="0.1"/>
<path d="M264.682 153.662C264.682 153.286 264.608 152.914 264.464 152.566C264.32 152.219 264.109 151.903 263.843 151.637C263.577 151.371 263.262 151.16 262.914 151.017C262.567 150.873 262.194 150.799 261.818 150.799H261.572V164.396H264.682V153.662Z" fill="white" fill-opacity="0.1"/>
<path d="M258.623 160.119V150.82H255.51V160.119H258.623Z" fill="white" fill-opacity="0.1"/>
<path d="M252.565 164.393V150.799H252.319C251.943 150.799 251.57 150.872 251.222 151.016C250.875 151.16 250.559 151.371 250.292 151.636C250.026 151.902 249.815 152.218 249.671 152.566C249.527 152.914 249.452 153.286 249.453 153.663V164.393H252.565Z" fill="white" fill-opacity="0.1"/>
<path d="M264.682 169.77C264.682 169.393 264.608 169.021 264.464 168.674C264.32 168.326 264.109 168.011 263.843 167.745C263.577 167.479 263.262 167.268 262.914 167.124C262.567 166.98 262.194 166.906 261.818 166.906H261.572V180.503H264.682V169.77Z" fill="white" fill-opacity="0.1"/>
<path d="M258.623 176.225V166.927H255.51V176.225H258.623Z" fill="white" fill-opacity="0.1"/>
<path d="M252.565 180.5V166.907H252.319C251.943 166.906 251.57 166.98 251.222 167.123C250.875 167.267 250.559 167.478 250.292 167.744C250.026 168.01 249.815 168.326 249.671 168.673C249.527 169.021 249.452 169.394 249.453 169.77V180.5H252.565Z" fill="white" fill-opacity="0.1"/>
<path d="M264.682 185.875C264.682 185.499 264.608 185.127 264.464 184.779C264.32 184.432 264.109 184.116 263.843 183.85C263.577 183.584 263.262 183.373 262.914 183.229C262.567 183.086 262.194 183.012 261.818 183.012H261.572V196.609H264.682V185.875Z" fill="white" fill-opacity="0.1"/>
<path d="M258.624 192.331V183.032H255.511V192.331H258.624Z" fill="white" fill-opacity="0.1"/>
<path d="M252.566 196.605V183.012H252.32C251.944 183.012 251.571 183.085 251.223 183.229C250.876 183.373 250.559 183.583 250.293 183.849C250.027 184.115 249.816 184.431 249.672 184.779C249.528 185.126 249.453 185.499 249.454 185.875V196.605H252.566Z" fill="white" fill-opacity="0.1"/>
<path d="M71.375 129.185C71.3751 128.809 71.3011 128.437 71.1572 128.089C71.0134 127.742 70.8025 127.426 70.5366 127.16C70.2707 126.894 69.955 126.683 69.6076 126.54C69.2601 126.396 68.8878 126.322 68.5117 126.322H68.2657V139.919H71.375V129.185Z" fill="white" fill-opacity="0.1"/>
<path d="M65.3174 135.641V126.342H62.2045V135.641H65.3174Z" fill="white" fill-opacity="0.1"/>
<path d="M59.2598 139.916V126.322H59.0137C58.6374 126.322 58.2646 126.395 57.9168 126.539C57.5689 126.683 57.2528 126.893 56.9866 127.159C56.7203 127.425 56.5091 127.741 56.365 128.089C56.2209 128.437 56.1468 128.809 56.1469 129.186V139.916H59.2598Z" fill="white" fill-opacity="0.1"/>
<path d="M71.375 145.292C71.3751 144.916 71.3011 144.544 71.1572 144.197C71.0134 143.849 70.8025 143.534 70.5366 143.268C70.2707 143.002 69.955 142.791 69.6076 142.647C69.2601 142.503 68.8878 142.429 68.5117 142.429H68.2657V156.026H71.375V145.292Z" fill="white" fill-opacity="0.1"/>
<path d="M65.3164 151.749V142.45H62.2035V151.749H65.3164Z" fill="white" fill-opacity="0.1"/>
<path d="M59.2598 156.023V142.43H59.0137C58.6374 142.429 58.2646 142.503 57.9168 142.646C57.5689 142.79 57.2528 143.001 56.9866 143.267C56.7203 143.533 56.5091 143.849 56.365 144.196C56.2209 144.544 56.1468 144.917 56.1469 145.293V156.023H59.2598Z" fill="white" fill-opacity="0.1"/>
<path d="M71.375 161.401C71.3751 161.025 71.3011 160.653 71.1572 160.306C71.0134 159.958 70.8025 159.642 70.5366 159.377C70.2707 159.111 69.955 158.9 69.6076 158.756C69.2601 158.612 68.8878 158.538 68.5117 158.538H68.2657V172.135H71.375V161.401Z" fill="white" fill-opacity="0.1"/>
<path d="M65.3174 167.857V158.559H62.2045V167.857H65.3174Z" fill="white" fill-opacity="0.1"/>
<path d="M59.2598 172.132V158.539H59.0137C58.6374 158.538 58.2646 158.612 57.9168 158.755C57.5689 158.899 57.2528 159.11 56.9866 159.376C56.7203 159.642 56.5091 159.958 56.365 160.305C56.2209 160.653 56.1468 161.025 56.1469 161.402V172.132H59.2598Z" fill="white" fill-opacity="0.1"/>
<path d="M71.375 177.508C71.3751 177.132 71.3011 176.76 71.1572 176.412C71.0134 176.065 70.8025 175.749 70.5366 175.483C70.2707 175.218 69.955 175.007 69.6076 174.863C69.2601 174.719 68.8878 174.645 68.5117 174.645H68.2657V188.242H71.375V177.508Z" fill="white" fill-opacity="0.1"/>
<path d="M65.3174 183.964V174.666H62.2045V183.964H65.3174Z" fill="white" fill-opacity="0.1"/>
<path d="M59.2598 188.238V174.645H59.0137C58.6374 174.644 58.2646 174.718 57.9168 174.862C57.5689 175.005 57.2528 175.216 56.9866 175.482C56.7203 175.748 56.5091 176.064 56.365 176.412C56.2209 176.759 56.1468 177.132 56.1469 177.508V188.238H59.2598Z" fill="white" fill-opacity="0.1"/>
<path d="M71.376 193.616C71.3761 193.24 71.3021 192.868 71.1582 192.52C71.0144 192.173 70.8035 191.857 70.5376 191.591C70.2717 191.325 69.956 191.115 69.6086 190.971C69.2611 190.827 68.8888 190.753 68.5127 190.753H68.2667V204.35H71.376V193.616Z" fill="white" fill-opacity="0.1"/>
<path d="M65.3174 200.073V190.774H62.2045V200.073H65.3174Z" fill="white" fill-opacity="0.1"/>
<path d="M59.2607 204.347V190.753H59.0147C58.6384 190.753 58.2656 190.827 57.9178 190.97C57.5699 191.114 57.2538 191.325 56.9875 191.591C56.7213 191.857 56.51 192.172 56.366 192.52C56.2219 192.868 56.1478 193.24 56.1479 193.617V204.347H59.2607Z" fill="white" fill-opacity="0.1"/>
<path d="M211.961 96.9717C211.961 96.5956 211.887 96.2232 211.743 95.8758C211.599 95.5284 211.388 95.2127 211.123 94.9468C210.857 94.6809 210.541 94.47 210.194 94.3262C209.846 94.1823 209.474 94.1083 209.098 94.1084H208.852V107.705H211.961V96.9717Z" fill="white" fill-opacity="0.1"/>
<path d="M205.903 103.429V94.1304H202.79V103.429H205.903Z" fill="white" fill-opacity="0.1"/>
<path d="M199.846 107.702V94.1089H199.6C199.223 94.1083 198.851 94.182 198.503 94.3256C198.155 94.4693 197.839 94.6801 197.573 94.946C197.306 95.212 197.095 95.5278 196.951 95.8755C196.807 96.2231 196.733 96.5958 196.733 96.9721V107.702H199.846Z" fill="white" fill-opacity="0.1"/>
<path d="M211.963 113.079C211.963 112.703 211.889 112.331 211.745 111.983C211.601 111.636 211.39 111.32 211.124 111.054C210.859 110.788 210.543 110.577 210.195 110.434C209.848 110.29 209.476 110.216 209.1 110.216H208.854V123.813H211.963V113.079Z" fill="white" fill-opacity="0.1"/>
<path d="M205.904 119.535V110.237H202.791V119.535H205.904Z" fill="white" fill-opacity="0.1"/>
<path d="M199.847 123.81V110.216H199.601C199.224 110.216 198.852 110.289 198.504 110.433C198.156 110.577 197.84 110.788 197.573 111.053C197.307 111.319 197.096 111.635 196.952 111.983C196.808 112.331 196.734 112.703 196.734 113.08V123.81H199.847Z" fill="white" fill-opacity="0.1"/>
<path d="M211.963 129.186C211.963 128.809 211.889 128.437 211.745 128.09C211.601 127.742 211.39 127.427 211.124 127.161C210.859 126.895 210.543 126.684 210.195 126.54C209.848 126.396 209.476 126.322 209.1 126.322H208.854V139.919H211.963V129.186Z" fill="white" fill-opacity="0.1"/>
<path d="M205.905 135.641V126.343H202.792V135.641H205.905Z" fill="white" fill-opacity="0.1"/>
<path d="M199.848 139.916V126.323H199.602C199.225 126.322 198.853 126.396 198.505 126.539C198.157 126.683 197.841 126.894 197.574 127.16C197.308 127.426 197.097 127.742 196.953 128.089C196.809 128.437 196.735 128.81 196.735 129.186V139.916H199.848Z" fill="white" fill-opacity="0.1"/>
<path d="M211.962 145.293C211.962 144.917 211.888 144.545 211.744 144.197C211.6 143.85 211.389 143.534 211.123 143.268C210.858 143.002 210.542 142.791 210.194 142.647C209.847 142.504 209.475 142.43 209.099 142.43H208.853V156.027H211.962V145.293Z" fill="white" fill-opacity="0.1"/>
<path d="M205.903 151.75V142.451H202.79V151.75H205.903Z" fill="white" fill-opacity="0.1"/>
<path d="M199.847 156.023V142.43H199.601C199.224 142.43 198.852 142.503 198.504 142.647C198.156 142.791 197.84 143.001 197.573 143.267C197.307 143.533 197.096 143.849 196.952 144.197C196.808 144.544 196.734 144.917 196.734 145.293V156.023H199.847Z" fill="white" fill-opacity="0.1"/>
<path d="M211.962 161.4C211.962 161.024 211.888 160.651 211.744 160.304C211.6 159.957 211.389 159.641 211.123 159.375C210.858 159.109 210.542 158.898 210.194 158.754C209.847 158.611 209.475 158.537 209.099 158.537H208.853V172.133H211.962V161.4Z" fill="white" fill-opacity="0.1"/>
<path d="M205.904 167.856V158.557H202.791V167.856H205.904Z" fill="white" fill-opacity="0.1"/>
<path d="M199.847 172.13V158.537H199.601C199.224 158.537 198.852 158.61 198.504 158.754C198.156 158.897 197.84 159.108 197.573 159.374C197.307 159.64 197.096 159.956 196.952 160.304C196.808 160.651 196.734 161.024 196.734 161.4V172.13H199.847Z" fill="white" fill-opacity="0.1"/>
<path d="M211.962 177.509C211.962 177.133 211.888 176.76 211.744 176.413C211.6 176.066 211.389 175.75 211.123 175.484C210.858 175.218 210.542 175.007 210.194 174.863C209.847 174.719 209.475 174.645 209.099 174.646H208.853V188.242H211.962V177.509Z" fill="white" fill-opacity="0.1"/>
<path d="M205.904 183.964V174.666H202.791V183.964H205.904Z" fill="white" fill-opacity="0.1"/>
<path d="M199.847 188.239V174.646H199.601C199.224 174.645 198.852 174.719 198.504 174.863C198.156 175.006 197.84 175.217 197.573 175.483C197.307 175.749 197.096 176.065 196.952 176.413C196.808 176.76 196.734 177.133 196.734 177.509V188.239H199.847Z" fill="white" fill-opacity="0.1"/>
<path d="M211.963 193.616C211.963 193.24 211.889 192.867 211.745 192.52C211.601 192.172 211.39 191.857 211.124 191.591C210.859 191.325 210.543 191.114 210.195 190.97C209.848 190.826 209.476 190.752 209.1 190.752H208.854V204.349H211.963V193.616Z" fill="white" fill-opacity="0.1"/>
<path d="M205.904 200.072V190.774H202.791V200.072H205.904Z" fill="white" fill-opacity="0.1"/>
<path d="M199.848 204.346V190.753H199.602C199.225 190.752 198.853 190.826 198.505 190.97C198.157 191.113 197.841 191.324 197.574 191.59C197.308 191.856 197.097 192.172 196.953 192.52C196.809 192.867 196.735 193.24 196.735 193.616V204.346H199.848Z" fill="white" fill-opacity="0.1"/>
<path d="M141.669 129.185C141.669 128.809 141.595 128.437 141.451 128.089C141.307 127.742 141.096 127.426 140.831 127.16C140.565 126.894 140.249 126.683 139.902 126.54C139.554 126.396 139.182 126.322 138.806 126.322H138.56V139.919H141.669V129.185Z" fill="white" fill-opacity="0.1"/>
<path d="M135.611 135.641V126.342H132.498V135.641H135.611Z" fill="white" fill-opacity="0.1"/>
<path d="M129.554 139.916V126.322H129.308C128.931 126.322 128.559 126.395 128.211 126.539C127.863 126.683 127.547 126.893 127.281 127.159C127.014 127.425 126.803 127.741 126.659 128.089C126.515 128.437 126.441 128.809 126.441 129.186V139.916H129.554Z" fill="white" fill-opacity="0.1"/>
<path d="M141.668 145.293C141.668 144.917 141.594 144.545 141.45 144.197C141.306 143.85 141.095 143.534 140.83 143.268C140.564 143.002 140.248 142.791 139.901 142.647C139.553 142.504 139.181 142.43 138.805 142.43H138.559V156.027H141.668V145.293Z" fill="white" fill-opacity="0.1"/>
<path d="M135.609 151.75V142.451H132.496V151.75H135.609Z" fill="white" fill-opacity="0.1"/>
<path d="M129.553 156.023V142.43H129.307C128.93 142.43 128.558 142.503 128.21 142.647C127.862 142.791 127.546 143.001 127.28 143.267C127.013 143.533 126.802 143.849 126.658 144.197C126.514 144.544 126.44 144.917 126.44 145.293V156.023H129.553Z" fill="white" fill-opacity="0.1"/>
<path d="M141.668 161.4C141.668 161.024 141.594 160.651 141.45 160.304C141.306 159.957 141.095 159.641 140.83 159.375C140.564 159.109 140.248 158.898 139.901 158.754C139.553 158.611 139.181 158.537 138.805 158.537H138.559V172.133H141.668V161.4Z" fill="white" fill-opacity="0.1"/>
<path d="M135.609 167.856V158.557H132.496V167.856H135.609Z" fill="white" fill-opacity="0.1"/>
<path d="M129.552 172.13V158.537H129.306C128.929 158.537 128.557 158.61 128.209 158.754C127.861 158.897 127.545 159.108 127.279 159.374C127.012 159.64 126.801 159.956 126.657 160.304C126.513 160.651 126.439 161.024 126.439 161.4V172.13H129.552Z" fill="white" fill-opacity="0.1"/>
<path d="M141.669 177.508C141.669 177.132 141.595 176.76 141.451 176.412C141.307 176.065 141.096 175.749 140.831 175.483C140.565 175.218 140.249 175.007 139.902 174.863C139.554 174.719 139.182 174.645 138.806 174.645H138.56V188.242H141.669V177.508Z" fill="white" fill-opacity="0.1"/>
<path d="M135.61 183.964V174.666H132.497V183.964H135.61Z" fill="white" fill-opacity="0.1"/>
<path d="M129.553 188.239V174.646H129.307C128.93 174.645 128.558 174.719 128.21 174.862C127.862 175.006 127.546 175.217 127.28 175.483C127.013 175.749 126.802 176.064 126.658 176.412C126.514 176.76 126.44 177.132 126.44 177.509V188.239H129.553Z" fill="white" fill-opacity="0.1"/>
<path d="M141.67 193.617C141.67 193.241 141.596 192.868 141.452 192.521C141.308 192.173 141.097 191.858 140.832 191.592C140.566 191.326 140.25 191.115 139.903 190.971C139.555 190.827 139.183 190.753 138.807 190.753H138.561V204.35H141.67V193.617Z" fill="white" fill-opacity="0.1"/>
<path d="M135.611 200.073V190.775H132.498V200.073H135.611Z" fill="white" fill-opacity="0.1"/>
<path d="M129.555 204.347V190.754H129.309C128.932 190.753 128.56 190.827 128.212 190.971C127.864 191.114 127.548 191.325 127.281 191.591C127.015 191.857 126.804 192.173 126.66 192.52C126.516 192.868 126.442 193.241 126.442 193.617V204.347H129.555Z" fill="white" fill-opacity="0.1"/>
<path d="M282.254 96.9712C282.254 96.5951 282.18 96.2228 282.036 95.8753C281.892 95.5279 281.681 95.2122 281.415 94.9463C281.15 94.6804 280.834 94.4695 280.486 94.3257C280.139 94.1818 279.767 94.1078 279.391 94.1079H279.145V107.705H282.254V96.9712Z" fill="white" fill-opacity="0.1"/>
<path d="M276.195 103.428V94.1294H273.082V103.428H276.195Z" fill="white" fill-opacity="0.1"/>
<path d="M270.139 107.702V94.1084H269.893C269.516 94.1078 269.144 94.1815 268.796 94.3251C268.448 94.4688 268.132 94.6796 267.865 94.9455C267.599 95.2115 267.388 95.5273 267.244 95.875C267.1 96.2227 267.026 96.5953 267.026 96.9717V107.702H270.139Z" fill="white" fill-opacity="0.1"/>
<path d="M282.256 113.079C282.256 112.703 282.182 112.33 282.038 111.983C281.894 111.635 281.683 111.32 281.417 111.054C281.152 110.788 280.836 110.577 280.488 110.433C280.141 110.289 279.769 110.215 279.393 110.215H279.147V123.812H282.256V113.079Z" fill="white" fill-opacity="0.1"/>
<path d="M276.196 119.535V110.236H273.083V119.535H276.196Z" fill="white" fill-opacity="0.1"/>
<path d="M270.14 123.809V110.215H269.894C269.517 110.215 269.145 110.288 268.797 110.432C268.449 110.576 268.133 110.787 267.866 111.052C267.6 111.318 267.389 111.634 267.245 111.982C267.101 112.33 267.027 112.702 267.027 113.079V123.809H270.14Z" fill="white" fill-opacity="0.1"/>
<path d="M282.255 129.185C282.255 128.809 282.181 128.437 282.037 128.089C281.893 127.742 281.682 127.426 281.416 127.16C281.151 126.894 280.835 126.683 280.487 126.54C280.14 126.396 279.768 126.322 279.392 126.322H279.146V139.919H282.255V129.185Z" fill="white" fill-opacity="0.1"/>
<path d="M276.197 135.641V126.342H273.084V135.641H276.197Z" fill="white" fill-opacity="0.1"/>
<path d="M270.14 139.916V126.322H269.894C269.517 126.322 269.145 126.395 268.797 126.539C268.449 126.683 268.133 126.893 267.866 127.159C267.6 127.425 267.389 127.741 267.245 128.089C267.101 128.437 267.027 128.809 267.027 129.186V139.916H270.14Z" fill="white" fill-opacity="0.1"/>
<path d="M282.255 145.293C282.255 144.917 282.181 144.545 282.037 144.197C281.893 143.85 281.682 143.534 281.416 143.268C281.151 143.002 280.835 142.791 280.487 142.647C280.14 142.504 279.768 142.43 279.392 142.43H279.146V156.027H282.255V145.293Z" fill="white" fill-opacity="0.1"/>
<path d="M276.196 151.75V142.451H273.083V151.75H276.196Z" fill="white" fill-opacity="0.1"/>
<path d="M270.14 156.023V142.43H269.894C269.517 142.43 269.145 142.503 268.797 142.647C268.449 142.791 268.133 143.001 267.866 143.267C267.6 143.533 267.389 143.849 267.245 144.197C267.101 144.544 267.027 144.917 267.027 145.293V156.023H270.14Z" fill="white" fill-opacity="0.1"/>
<path d="M282.254 161.4C282.254 161.024 282.18 160.651 282.036 160.304C281.892 159.957 281.681 159.641 281.415 159.375C281.15 159.109 280.834 158.898 280.486 158.754C280.139 158.611 279.767 158.537 279.391 158.537H279.145V172.133H282.254V161.4Z" fill="white" fill-opacity="0.1"/>
<path d="M276.195 167.856V158.557H273.082V167.856H276.195Z" fill="white" fill-opacity="0.1"/>
<path d="M270.138 172.13V158.537H269.892C269.515 158.537 269.143 158.61 268.795 158.754C268.447 158.897 268.131 159.108 267.864 159.374C267.598 159.64 267.387 159.956 267.243 160.304C267.099 160.651 267.025 161.024 267.025 161.4V172.13H270.138Z" fill="white" fill-opacity="0.1"/>
<path d="M282.255 177.508C282.255 177.132 282.181 176.76 282.037 176.412C281.893 176.065 281.682 175.749 281.416 175.483C281.151 175.218 280.835 175.007 280.487 174.863C280.14 174.719 279.768 174.645 279.392 174.645H279.146V188.242H282.255V177.508Z" fill="white" fill-opacity="0.1"/>
<path d="M276.197 183.964V174.666H273.084V183.964H276.197Z" fill="white" fill-opacity="0.1"/>
<path d="M270.14 188.239V174.646H269.894C269.517 174.645 269.145 174.719 268.797 174.862C268.449 175.006 268.133 175.217 267.866 175.483C267.6 175.749 267.389 176.064 267.245 176.412C267.101 176.76 267.027 177.132 267.027 177.509V188.239H270.14Z" fill="white" fill-opacity="0.1"/>
<path d="M282.255 193.616C282.255 193.24 282.181 192.867 282.037 192.52C281.893 192.172 281.682 191.857 281.416 191.591C281.151 191.325 280.835 191.114 280.487 190.97C280.14 190.826 279.768 190.752 279.392 190.752H279.146V204.349H282.255V193.616Z" fill="white" fill-opacity="0.1"/>
<path d="M276.196 200.072V190.774H273.083V200.072H276.196Z" fill="white" fill-opacity="0.1"/>
<path d="M270.14 204.346V190.753H269.894C269.517 190.752 269.145 190.826 268.797 190.97C268.449 191.113 268.133 191.324 267.866 191.59C267.6 191.856 267.389 192.172 267.245 192.52C267.101 192.867 267.027 193.24 267.027 193.616V204.346H270.14Z" fill="white" fill-opacity="0.1"/>
<path d="M88.9502 117.262C88.9503 116.886 88.8763 116.514 88.7324 116.166C88.5886 115.819 88.3777 115.503 88.1118 115.237C87.8459 114.971 87.5302 114.761 87.1828 114.617C86.8353 114.473 86.463 114.399 86.0869 114.399H85.8409V127.996H88.9502V117.262Z" fill="white" fill-opacity="0.1"/>
<path d="M82.8926 123.719V114.421H79.7797V123.719H82.8926Z" fill="white" fill-opacity="0.1"/>
<path d="M76.835 127.992V114.399H76.5889C76.2126 114.398 75.8398 114.472 75.492 114.616C75.1441 114.759 74.828 114.97 74.5618 115.236C74.2955 115.502 74.0843 115.818 73.9402 116.166C73.7961 116.513 73.722 116.886 73.7221 117.262V127.992H76.835Z" fill="white" fill-opacity="0.1"/>
<path d="M88.9492 133.37C88.9493 132.994 88.8753 132.622 88.7315 132.274C88.5876 131.927 88.3767 131.611 88.1108 131.345C87.8449 131.079 87.5292 130.868 87.1818 130.725C86.8344 130.581 86.462 130.507 86.086 130.507H85.8399V144.104H88.9492V133.37Z" fill="white" fill-opacity="0.1"/>
<path d="M82.8916 139.826V130.527H79.7787V139.826H82.8916Z" fill="white" fill-opacity="0.1"/>
<path d="M76.834 144.101V130.507H76.5879C76.2116 130.507 75.8389 130.58 75.491 130.724C75.1432 130.868 74.8271 131.079 74.5608 131.344C74.2945 131.61 74.0833 131.926 73.9392 132.274C73.7951 132.622 73.721 132.994 73.7211 133.371V144.101H76.834Z" fill="white" fill-opacity="0.1"/>
<path d="M88.9492 149.478C88.9493 149.101 88.8753 148.729 88.7315 148.382C88.5876 148.034 88.3767 147.719 88.1108 147.453C87.8449 147.187 87.5292 146.976 87.1818 146.832C86.8344 146.688 86.462 146.614 86.086 146.614H85.8399V160.211H88.9492V149.478Z" fill="white" fill-opacity="0.1"/>
<path d="M82.8906 155.934V146.636H79.7777V155.934H82.8906Z" fill="white" fill-opacity="0.1"/>
<path d="M76.834 160.208V146.615H76.5879C76.2116 146.614 75.8389 146.688 75.491 146.831C75.1432 146.975 74.8271 147.186 74.5608 147.452C74.2945 147.718 74.0833 148.034 73.9392 148.381C73.7951 148.729 73.721 149.102 73.7211 149.478V160.208H76.834Z" fill="white" fill-opacity="0.1"/>
<path d="M88.9492 165.586C88.9493 165.21 88.8753 164.838 88.7315 164.49C88.5876 164.143 88.3767 163.827 88.1108 163.561C87.8449 163.295 87.5292 163.084 87.1818 162.94C86.8344 162.797 86.462 162.723 86.086 162.723H85.8399V176.32H88.9492V165.586Z" fill="white" fill-opacity="0.1"/>
<path d="M82.8916 172.042V162.743H79.7787V172.042H82.8916Z" fill="white" fill-opacity="0.1"/>
<path d="M76.834 176.316V162.723H76.5879C76.2116 162.723 75.8389 162.796 75.491 162.94C75.1432 163.084 74.8271 163.294 74.5608 163.56C74.2945 163.826 74.0833 164.142 73.9392 164.49C73.7951 164.837 73.721 165.21 73.7211 165.586V176.316H76.834Z" fill="white" fill-opacity="0.1"/>
<path d="M88.9492 181.693C88.9493 181.317 88.8753 180.944 88.7315 180.597C88.5876 180.25 88.3767 179.934 88.1108 179.668C87.8449 179.402 87.5292 179.191 87.1818 179.047C86.8344 178.903 86.462 178.829 86.086 178.83H85.8399V192.426H88.9492V181.693Z" fill="white" fill-opacity="0.1"/>
<path d="M82.8916 188.148V178.85H79.7787V188.148H82.8916Z" fill="white" fill-opacity="0.1"/>
<path d="M76.834 192.423V178.83H76.5879C76.2116 178.83 75.8389 178.903 75.491 179.047C75.1432 179.19 74.8271 179.401 74.5608 179.667C74.2945 179.933 74.0833 180.249 73.9392 180.597C73.7951 180.944 73.721 181.317 73.7211 181.693V192.423H76.834Z" fill="white" fill-opacity="0.1"/>
<path d="M88.9502 197.798C88.9503 197.422 88.8763 197.05 88.7324 196.702C88.5886 196.355 88.3777 196.039 88.1118 195.773C87.8459 195.508 87.5302 195.297 87.1828 195.153C86.8353 195.009 86.463 194.935 86.0869 194.935H85.8409V208.532H88.9502V197.798Z" fill="white" fill-opacity="0.1"/>
<path d="M82.8916 204.255V194.957H79.7787V204.255H82.8916Z" fill="white" fill-opacity="0.1"/>
<path d="M76.835 208.529V194.936H76.5889C76.2126 194.935 75.8398 195.009 75.492 195.152C75.1441 195.296 74.828 195.507 74.5618 195.773C74.2955 196.039 74.0843 196.354 73.9402 196.702C73.7961 197.05 73.722 197.422 73.7221 197.799V208.529H76.835Z" fill="white" fill-opacity="0.1"/>
<path d="M229.535 101.157C229.535 100.781 229.461 100.408 229.317 100.061C229.174 99.7134 228.963 99.3978 228.697 99.1319C228.431 98.866 228.115 98.6551 227.768 98.5112C227.42 98.3674 227.048 98.2934 226.672 98.2935H226.426V111.89H229.535V101.157Z" fill="white" fill-opacity="0.1"/>
<path d="M223.477 107.613V98.3149H220.364V107.613H223.477Z" fill="white" fill-opacity="0.1"/>
<path d="M217.42 111.887V98.2939H217.174C216.798 98.2934 216.425 98.367 216.077 98.5107C215.729 98.6543 215.413 98.8651 215.147 99.1311C214.88 99.397 214.669 99.7129 214.525 100.061C214.381 100.408 214.307 100.781 214.307 101.157V111.887H217.42Z" fill="white" fill-opacity="0.1"/>
<path d="M229.536 117.262C229.536 116.886 229.462 116.514 229.318 116.166C229.175 115.819 228.964 115.503 228.698 115.237C228.432 114.971 228.116 114.761 227.769 114.617C227.421 114.473 227.049 114.399 226.673 114.399H226.427V127.996H229.536V117.262Z" fill="white" fill-opacity="0.1"/>
<path d="M223.478 123.719V114.42H220.365V123.719H223.478Z" fill="white" fill-opacity="0.1"/>
<path d="M217.42 127.993V114.399H217.174C216.798 114.399 216.425 114.472 216.077 114.616C215.729 114.76 215.413 114.971 215.147 115.237C214.88 115.503 214.669 115.818 214.525 116.166C214.381 116.514 214.307 116.886 214.307 117.263V127.993H217.42Z" fill="white" fill-opacity="0.1"/>
<path d="M229.534 133.369C229.534 132.993 229.46 132.621 229.316 132.273C229.173 131.926 228.962 131.61 228.696 131.344C228.43 131.078 228.114 130.867 227.767 130.724C227.419 130.58 227.047 130.506 226.671 130.506H226.425V144.103H229.534V133.369Z" fill="white" fill-opacity="0.1"/>
<path d="M223.477 139.825V130.526H220.364V139.825H223.477Z" fill="white" fill-opacity="0.1"/>
<path d="M217.419 144.1V130.506H217.173C216.797 130.506 216.424 130.579 216.076 130.723C215.728 130.867 215.412 131.078 215.146 131.343C214.879 131.609 214.668 131.925 214.524 132.273C214.38 132.621 214.306 132.993 214.306 133.37V144.1H217.419Z" fill="white" fill-opacity="0.1"/>
<path d="M229.535 149.478C229.535 149.101 229.461 148.729 229.317 148.382C229.174 148.034 228.963 147.719 228.697 147.453C228.431 147.187 228.115 146.976 227.768 146.832C227.42 146.688 227.048 146.614 226.672 146.614H226.426V160.211H229.535V149.478Z" fill="white" fill-opacity="0.1"/>
<path d="M223.477 155.934V146.636H220.364V155.934H223.477Z" fill="white" fill-opacity="0.1"/>
<path d="M217.42 160.208V146.615H217.174C216.798 146.614 216.425 146.688 216.077 146.831C215.729 146.975 215.413 147.186 215.147 147.452C214.88 147.718 214.669 148.034 214.525 148.381C214.381 148.729 214.307 149.102 214.307 149.478V160.208H217.42Z" fill="white" fill-opacity="0.1"/>
<path d="M229.534 165.585C229.534 165.209 229.46 164.837 229.316 164.49C229.173 164.142 228.962 163.826 228.696 163.561C228.43 163.295 228.114 163.084 227.767 162.94C227.419 162.796 227.047 162.722 226.671 162.722H226.425V176.319H229.534V165.585Z" fill="white" fill-opacity="0.1"/>
<path d="M223.477 172.041V162.743H220.364V172.041H223.477Z" fill="white" fill-opacity="0.1"/>
<path d="M217.419 176.316V162.723H217.173C216.797 162.722 216.424 162.796 216.076 162.939C215.728 163.083 215.412 163.294 215.146 163.56C214.879 163.826 214.668 164.142 214.524 164.489C214.38 164.837 214.306 165.21 214.306 165.586V176.316H217.419Z" fill="white" fill-opacity="0.1"/>
<path d="M229.534 181.693C229.534 181.317 229.46 180.945 229.316 180.597C229.173 180.25 228.962 179.934 228.696 179.668C228.43 179.403 228.114 179.192 227.767 179.048C227.419 178.904 227.047 178.83 226.671 178.83H226.425V192.427H229.534V181.693Z" fill="white" fill-opacity="0.1"/>
<path d="M223.477 188.149V178.851H220.364V188.149H223.477Z" fill="white" fill-opacity="0.1"/>
<path d="M217.419 192.424V178.831H217.173C216.797 178.83 216.424 178.904 216.076 179.047C215.728 179.191 215.412 179.402 215.146 179.668C214.879 179.934 214.668 180.249 214.524 180.597C214.38 180.945 214.306 181.317 214.306 181.694V192.424H217.419Z" fill="white" fill-opacity="0.1"/>
<path d="M229.536 197.798C229.536 197.422 229.462 197.05 229.318 196.702C229.175 196.355 228.964 196.039 228.698 195.773C228.432 195.508 228.116 195.297 227.769 195.153C227.421 195.009 227.049 194.935 226.673 194.935H226.427V208.532H229.536V197.798Z" fill="white" fill-opacity="0.1"/>
<path d="M223.478 204.255V194.957H220.365V204.255H223.478Z" fill="white" fill-opacity="0.1"/>
<path d="M217.421 208.529V194.936H217.175C216.799 194.935 216.426 195.009 216.078 195.152C215.73 195.296 215.414 195.507 215.148 195.773C214.881 196.039 214.67 196.354 214.526 196.702C214.382 197.05 214.308 197.422 214.308 197.799V208.529H217.421Z" fill="white" fill-opacity="0.1"/>
<path d="M159.242 117.262C159.242 116.886 159.168 116.514 159.024 116.166C158.881 115.819 158.67 115.503 158.404 115.237C158.138 114.971 157.822 114.761 157.475 114.617C157.127 114.473 156.755 114.399 156.379 114.399H156.133V127.996H159.242V117.262Z" fill="white" fill-opacity="0.1"/>
<path d="M153.184 123.719V114.42H150.071V123.719H153.184Z" fill="white" fill-opacity="0.1"/>
<path d="M147.127 127.993V114.399H146.881C146.505 114.399 146.132 114.472 145.784 114.616C145.436 114.76 145.12 114.971 144.854 115.237C144.587 115.503 144.376 115.818 144.232 116.166C144.088 116.514 144.014 116.886 144.014 117.263V127.993H147.127Z" fill="white" fill-opacity="0.1"/>
<path d="M159.242 133.37C159.242 132.994 159.168 132.621 159.024 132.274C158.881 131.926 158.67 131.611 158.404 131.345C158.138 131.079 157.822 130.868 157.475 130.724C157.127 130.58 156.755 130.506 156.379 130.506H156.133V144.103H159.242V133.37Z" fill="white" fill-opacity="0.1"/>
<path d="M153.185 139.825V130.527H150.072V139.825H153.185Z" fill="white" fill-opacity="0.1"/>
<path d="M147.127 144.1V130.507H146.881C146.505 130.506 146.132 130.58 145.784 130.724C145.436 130.867 145.12 131.078 144.854 131.344C144.587 131.61 144.376 131.926 144.232 132.273C144.088 132.621 144.014 132.994 144.014 133.37V144.1H147.127Z" fill="white" fill-opacity="0.1"/>
<path d="M159.24 149.478C159.24 149.101 159.166 148.729 159.022 148.382C158.879 148.034 158.668 147.719 158.402 147.453C158.136 147.187 157.82 146.976 157.473 146.832C157.125 146.688 156.753 146.614 156.377 146.614H156.131V160.211H159.24V149.478Z" fill="white" fill-opacity="0.1"/>
<path d="M153.182 155.934V146.636H150.069V155.934H153.182Z" fill="white" fill-opacity="0.1"/>
<path d="M147.125 160.208V146.615H146.879C146.503 146.614 146.13 146.688 145.782 146.831C145.434 146.975 145.118 147.186 144.852 147.452C144.586 147.718 144.374 148.034 144.23 148.381C144.086 148.729 144.012 149.102 144.012 149.478V160.208H147.125Z" fill="white" fill-opacity="0.1"/>
<path d="M159.241 165.585C159.241 165.209 159.167 164.837 159.023 164.49C158.88 164.142 158.669 163.826 158.403 163.561C158.137 163.295 157.821 163.084 157.474 162.94C157.126 162.796 156.754 162.722 156.378 162.722H156.132V176.319H159.241V165.585Z" fill="white" fill-opacity="0.1"/>
<path d="M153.184 172.041V162.743H150.071V172.041H153.184Z" fill="white" fill-opacity="0.1"/>
<path d="M147.126 176.316V162.723H146.88C146.504 162.722 146.131 162.796 145.783 162.939C145.435 163.083 145.119 163.294 144.853 163.56C144.586 163.826 144.375 164.142 144.231 164.489C144.087 164.837 144.013 165.21 144.013 165.586V176.316H147.126Z" fill="white" fill-opacity="0.1"/>
<path d="M159.241 181.693C159.241 181.317 159.167 180.944 159.023 180.597C158.88 180.25 158.669 179.934 158.403 179.668C158.137 179.402 157.821 179.191 157.474 179.047C157.126 178.903 156.754 178.829 156.378 178.83H156.132V192.426H159.241V181.693Z" fill="white" fill-opacity="0.1"/>
<path d="M153.184 188.148V178.85H150.071V188.148H153.184Z" fill="white" fill-opacity="0.1"/>
<path d="M147.126 192.423V178.83H146.88C146.504 178.83 146.131 178.903 145.783 179.047C145.435 179.19 145.119 179.401 144.853 179.667C144.586 179.933 144.375 180.249 144.231 180.597C144.087 180.944 144.013 181.317 144.013 181.693V192.423H147.126Z" fill="white" fill-opacity="0.1"/>
<path d="M159.242 197.798C159.242 197.422 159.168 197.05 159.024 196.702C158.881 196.355 158.67 196.039 158.404 195.773C158.138 195.508 157.822 195.297 157.475 195.153C157.127 195.009 156.755 194.935 156.379 194.935H156.133V208.532H159.242V197.798Z" fill="white" fill-opacity="0.1"/>
<path d="M153.184 204.255V194.957H150.071V204.255H153.184Z" fill="white" fill-opacity="0.1"/>
<path d="M147.127 208.529V194.936H146.881C146.505 194.935 146.132 195.009 145.784 195.152C145.436 195.296 145.12 195.507 144.854 195.773C144.587 196.039 144.376 196.354 144.232 196.702C144.088 197.05 144.014 197.422 144.014 197.799V208.529H147.127Z" fill="white" fill-opacity="0.1"/>
<path d="M299.828 85.0488C299.828 84.6728 299.754 84.3004 299.61 83.953C299.467 83.6055 299.256 83.2899 298.99 83.024C298.724 82.7581 298.408 82.5472 298.061 82.4033C297.713 82.2594 297.341 82.1855 296.965 82.1855H296.719V95.7824H299.828V85.0488Z" fill="white" fill-opacity="0.1"/>
<path d="M293.771 91.5044V82.2061H290.658V91.5044H293.771Z" fill="white" fill-opacity="0.1"/>
<path d="M287.713 95.7793V82.186H287.467C287.091 82.1855 286.718 82.2591 286.37 82.4028C286.022 82.5464 285.706 82.7572 285.44 83.0232C285.173 83.2891 284.962 83.605 284.818 83.9526C284.674 84.3003 284.6 84.673 284.6 85.0493V95.7793H287.713Z" fill="white" fill-opacity="0.1"/>
<path d="M299.828 101.156C299.828 100.78 299.754 100.407 299.61 100.06C299.467 99.7125 299.256 99.3968 298.99 99.1309C298.724 98.865 298.408 98.6541 298.061 98.5102C297.713 98.3664 297.341 98.2924 296.965 98.2925H296.719V111.889H299.828V101.156Z" fill="white" fill-opacity="0.1"/>
<path d="M293.77 107.612V98.314H290.657V107.612H293.77Z" fill="white" fill-opacity="0.1"/>
<path d="M287.713 111.886V98.293H287.467C287.091 98.2924 286.718 98.3661 286.37 98.5097C286.022 98.6533 285.706 98.8642 285.44 99.1301C285.173 99.3961 284.962 99.7119 284.818 100.06C284.674 100.407 284.6 100.78 284.6 101.156V111.886H287.713Z" fill="white" fill-opacity="0.1"/>
<path d="M299.828 117.262C299.828 116.886 299.754 116.514 299.61 116.166C299.467 115.819 299.256 115.503 298.99 115.237C298.724 114.971 298.408 114.761 298.061 114.617C297.713 114.473 297.341 114.399 296.965 114.399H296.719V127.996H299.828V117.262Z" fill="white" fill-opacity="0.1"/>
<path d="M293.77 123.72V114.421H290.657V123.72H293.77Z" fill="white" fill-opacity="0.1"/>
<path d="M287.712 127.993V114.399H287.466C287.09 114.399 286.717 114.472 286.369 114.616C286.021 114.76 285.705 114.971 285.439 115.237C285.172 115.503 284.961 115.818 284.817 116.166C284.673 116.514 284.599 116.886 284.599 117.263V127.993H287.712Z" fill="white" fill-opacity="0.1"/>
<path d="M299.828 133.37C299.828 132.994 299.754 132.621 299.61 132.274C299.467 131.926 299.256 131.611 298.99 131.345C298.724 131.079 298.408 130.868 298.061 130.724C297.713 130.58 297.341 130.506 296.965 130.506H296.719V144.103H299.828V133.37Z" fill="white" fill-opacity="0.1"/>
<path d="M293.771 139.825V130.527H290.658V139.825H293.771Z" fill="white" fill-opacity="0.1"/>
<path d="M287.713 144.1V130.507H287.467C287.091 130.506 286.718 130.58 286.37 130.724C286.022 130.867 285.706 131.078 285.44 131.344C285.173 131.61 284.962 131.926 284.818 132.273C284.674 132.621 284.6 132.994 284.6 133.37V144.1H287.713Z" fill="white" fill-opacity="0.1"/>
<path d="M299.828 149.478C299.828 149.102 299.754 148.73 299.61 148.382C299.467 148.035 299.256 147.719 298.99 147.453C298.724 147.187 298.408 146.976 298.061 146.833C297.713 146.689 297.341 146.615 296.965 146.615H296.719V160.212H299.828V149.478Z" fill="white" fill-opacity="0.1"/>
<path d="M293.769 155.935V146.636H290.656V155.935H293.769Z" fill="white" fill-opacity="0.1"/>
<path d="M287.712 160.208V146.615H287.466C287.09 146.615 286.717 146.688 286.369 146.832C286.021 146.976 285.705 147.186 285.439 147.452C285.172 147.718 284.961 148.034 284.817 148.382C284.673 148.729 284.599 149.102 284.599 149.478V160.208H287.712Z" fill="white" fill-opacity="0.1"/>
<path d="M299.828 165.585C299.828 165.209 299.754 164.837 299.61 164.49C299.467 164.142 299.256 163.826 298.99 163.561C298.724 163.295 298.408 163.084 298.061 162.94C297.713 162.796 297.341 162.722 296.965 162.722H296.719V176.319H299.828V165.585Z" fill="white" fill-opacity="0.1"/>
<path d="M293.771 172.041V162.743H290.658V172.041H293.771Z" fill="white" fill-opacity="0.1"/>
<path d="M287.713 176.316V162.723H287.467C287.091 162.722 286.718 162.796 286.37 162.939C286.022 163.083 285.706 163.294 285.44 163.56C285.173 163.826 284.962 164.142 284.818 164.489C284.674 164.837 284.6 165.21 284.6 165.586V176.316H287.713Z" fill="white" fill-opacity="0.1"/>
<path d="M299.828 181.692C299.828 181.316 299.754 180.944 299.61 180.597C299.467 180.249 299.256 179.933 298.99 179.668C298.724 179.402 298.408 179.191 298.061 179.047C297.713 178.903 297.341 178.829 296.965 178.829H296.719V192.426H299.828V181.692Z" fill="white" fill-opacity="0.1"/>
<path d="M293.771 188.148V178.85H290.658V188.148H293.771Z" fill="white" fill-opacity="0.1"/>
<path d="M287.713 192.423V178.83H287.467C287.091 178.829 286.718 178.903 286.37 179.046C286.022 179.19 285.706 179.401 285.44 179.667C285.173 179.933 284.962 180.249 284.818 180.596C284.674 180.944 284.6 181.317 284.6 181.693V192.423H287.713Z" fill="white" fill-opacity="0.1"/>
<path d="M299.828 197.798C299.828 197.422 299.754 197.049 299.61 196.702C299.467 196.355 299.256 196.039 298.99 195.773C298.724 195.507 298.408 195.296 298.061 195.152C297.713 195.008 297.341 194.934 296.965 194.935H296.719V208.531H299.828V197.798Z" fill="white" fill-opacity="0.1"/>
<path d="M293.77 204.254V194.956H290.657V204.254H293.77Z" fill="white" fill-opacity="0.1"/>
<path d="M287.713 208.528V194.935H287.467C287.091 194.934 286.718 195.008 286.37 195.152C286.022 195.295 285.706 195.506 285.44 195.772C285.173 196.038 284.962 196.354 284.818 196.702C284.674 197.049 284.6 197.422 284.6 197.798V208.528H287.713Z" fill="white" fill-opacity="0.1"/>
<path d="M42.6554 46.5113V49.7062H24V24H42.1413V27.1949H27.6723V35.0904H40.5622V38.2119H27.6723V46.5113H42.6554Z" fill="white"/>
<path d="M56.9922 50C53.5647 50 50.8961 49.0207 48.9865 47.0621C47.0769 45.1036 46.1221 42.2881 46.1221 38.6158V24H49.7944V38.4689C49.7944 43.9774 52.2059 46.7316 57.0289 46.7316C59.3792 46.7316 61.1786 46.0584 62.4272 44.7119C63.6758 43.3409 64.3001 41.2599 64.3001 38.4689V24H67.8623V38.6158C67.8623 42.3126 66.9075 45.1403 64.9979 47.0989C63.0882 49.033 60.4197 50 56.9922 50Z" fill="white"/>
<path d="M88.5156 49.7062L82.9704 41.8107C82.2849 41.8597 81.7463 41.8842 81.3546 41.8842H75.0014V49.7062H71.3291V24H81.3546C84.6841 24 87.3037 24.7957 89.2134 26.387C91.123 27.9783 92.0778 30.1695 92.0778 32.9605C92.0778 34.9435 91.5881 36.6328 90.6088 38.0282C89.6295 39.4237 88.2341 40.4397 86.4224 41.0763L92.5184 49.7062H88.5156ZM81.2444 38.7627C83.5702 38.7627 85.3452 38.2608 86.5693 37.2571C87.7934 36.2533 88.4054 34.8211 88.4054 32.9605C88.4054 31.0998 87.7934 29.6799 86.5693 28.7006C85.3452 27.6968 83.5702 27.1949 81.2444 27.1949H75.0014V38.7627H81.2444Z" fill="white"/>
<path d="M122.332 24H108.452V29.7264H111.573L102.476 33.79V24.2134H95.9854V50H102.476V40.4234L111.093 44.2736H108.452V50H122.332V44.487V44.2736V43.4555L108.123 37.1067L122.332 30.7579V29.7264H122.323H122.332V24Z" fill="url(#paint2_linear_328_9182)"/>
<path d="M122.332 29.7266H111.233V30.758H122.332V29.7266Z" fill="url(#paint3_linear_328_9182)"/>
<path d="M122.332 43.562H111.233V44.5935H122.332V43.562Z" fill="url(#paint4_linear_328_9182)"/>
</g>
<path d="M0 10C0 1.71573 6.71573 -5 15 -5H305C313.284 -5 320 1.71573 320 10C320 7.23858 315.523 5 310 5H10C4.47715 5 0 7.23858 0 10ZM320 196H0H320ZM0 196V0V196ZM320 0V196V0Z" fill="url(#paint5_linear_328_9182)" mask="url(#path-1-inside-1_328_9182)"/>
<defs>
<radialGradient id="paint0_radial_328_9182" cx="0" cy="0" r="1" gradientUnits="userSpaceOnUse" gradientTransform="translate(288.731 26) rotate(90) scale(91 93)">
<stop stop-color="#0A3744"/>
<stop offset="1" stop-color="#175263" stop-opacity="0"/>
</radialGradient>
<radialGradient id="paint1_radial_328_9182" cx="0" cy="0" r="1" gradientUnits="userSpaceOnUse" gradientTransform="translate(-0.5 196) rotate(90) scale(160 163.5)">
<stop stop-color="#0A3744"/>
<stop offset="1" stop-color="#175263" stop-opacity="0"/>
</radialGradient>
<linearGradient id="paint2_linear_328_9182" x1="95.9854" y1="37" x2="122.332" y2="37" gradientUnits="userSpaceOnUse">
<stop stop-color="#CD03D0"/>
<stop offset="1" stop-color="#00C5FF"/>
</linearGradient>
<linearGradient id="paint3_linear_328_9182" x1="111.233" y1="30.2423" x2="122.332" y2="30.2423" gradientUnits="userSpaceOnUse">
<stop stop-color="#5475EC"/>
<stop offset="1" stop-color="#2077BA"/>
</linearGradient>
<linearGradient id="paint4_linear_328_9182" x1="111.233" y1="44.0777" x2="122.332" y2="44.0777" gradientUnits="userSpaceOnUse">
<stop stop-color="#5475EC"/>
<stop offset="1" stop-color="#2077BA"/>
</linearGradient>
<linearGradient id="paint5_linear_328_9182" x1="3.58422e-06" y1="107" x2="320" y2="107" gradientUnits="userSpaceOnUse">
<stop stop-color="#CB05D0"/>
<stop offset="1" stop-color="#0EB6FB"/>
</linearGradient>
<clipPath id="clip0_328_9182">
<path d="M0 10C0 4.47715 4.47715 0 10 0H310C315.523 0 320 4.47715 320 10V186C320 191.523 315.523 196 310 196H10C4.47715 196 0 191.523 0 186V10Z" fill="white"/>
</clipPath>
</defs>
</svg>
