<svg width="320" height="196" viewBox="0 0 320 196" fill="none" xmlns="http://www.w3.org/2000/svg">
<g clip-path="url(#clip0_58_602)">
<rect width="320" height="196" rx="10" fill="#0D8BD1"/>
<path d="M25.517 47V29.5455H37.0739V32.5881H29.2074V36.7472H36.3068V39.7898H29.2074V47H25.517ZM43.0568 47.2472C42.2216 47.2472 41.4773 47.1023 40.8239 46.8125C40.1705 46.517 39.6534 46.0824 39.2727 45.5085C38.8977 44.929 38.7102 44.2074 38.7102 43.3438C38.7102 42.6165 38.8438 42.0057 39.1108 41.5114C39.3778 41.017 39.7415 40.6193 40.2017 40.3182C40.6619 40.017 41.1847 39.7898 41.7699 39.6364C42.3608 39.483 42.9801 39.375 43.6278 39.3125C44.3892 39.233 45.0028 39.1591 45.4688 39.0909C45.9347 39.017 46.2727 38.9091 46.483 38.767C46.6932 38.625 46.7983 38.4148 46.7983 38.1364V38.0852C46.7983 37.5455 46.6278 37.1278 46.2869 36.8324C45.9517 36.5369 45.4744 36.3892 44.8551 36.3892C44.2017 36.3892 43.6818 36.5341 43.2955 36.8239C42.9091 37.108 42.6534 37.4659 42.5284 37.8977L39.1705 37.625C39.3409 36.8295 39.6761 36.142 40.1761 35.5625C40.6761 34.9773 41.321 34.5284 42.1108 34.2159C42.9063 33.8977 43.8267 33.7386 44.8722 33.7386C45.5994 33.7386 46.2955 33.8239 46.9602 33.9943C47.6307 34.1648 48.2244 34.429 48.7415 34.7869C49.2642 35.1449 49.6761 35.6051 49.9773 36.1676C50.2784 36.7244 50.429 37.392 50.429 38.1705V47H46.9858V45.1847H46.8835C46.6733 45.5938 46.392 45.9545 46.0398 46.267C45.6875 46.5739 45.2642 46.8153 44.7699 46.9915C44.2756 47.1619 43.7045 47.2472 43.0568 47.2472ZM44.0966 44.7415C44.6307 44.7415 45.1023 44.6364 45.5114 44.4261C45.9205 44.2102 46.2415 43.9205 46.4744 43.5568C46.7074 43.1932 46.8239 42.7812 46.8239 42.321V40.9318C46.7102 41.0057 46.554 41.0739 46.3551 41.1364C46.1619 41.1932 45.9432 41.2472 45.6989 41.2983C45.4545 41.3437 45.2102 41.3864 44.9659 41.4261C44.7216 41.4602 44.5 41.4915 44.3011 41.5199C43.875 41.5824 43.5028 41.6818 43.1847 41.8182C42.8665 41.9545 42.6193 42.1392 42.4432 42.3722C42.267 42.5994 42.179 42.8835 42.179 43.2244C42.179 43.7188 42.358 44.0966 42.7159 44.358C43.0795 44.6136 43.5398 44.7415 44.0966 44.7415ZM61.6406 41.4261V33.9091H65.2713V47H61.7855V44.6222H61.6491C61.3537 45.3892 60.8622 46.0057 60.1747 46.4716C59.4929 46.9375 58.6605 47.1705 57.6776 47.1705C56.8026 47.1705 56.0327 46.9716 55.3679 46.5739C54.7031 46.1761 54.1832 45.6108 53.8082 44.8778C53.4389 44.1449 53.2514 43.267 53.2457 42.2443V33.9091H56.8764V41.5966C56.8821 42.3693 57.0895 42.9801 57.4986 43.429C57.9077 43.8778 58.456 44.1023 59.1435 44.1023C59.581 44.1023 59.9901 44.0028 60.3707 43.804C60.7514 43.5994 61.0582 43.2983 61.2912 42.9006C61.5298 42.5028 61.6463 42.0114 61.6406 41.4261ZM74.0902 47.2557C72.7493 47.2557 71.5959 46.9716 70.63 46.4034C69.6697 45.8295 68.9311 45.0341 68.4141 44.017C67.9027 43 67.647 41.8295 67.647 40.5057C67.647 39.1648 67.9055 37.9886 68.4226 36.9773C68.9453 35.9602 69.6868 35.1676 70.647 34.5994C71.6072 34.0256 72.7493 33.7386 74.0732 33.7386C75.2152 33.7386 76.2152 33.946 77.0732 34.3608C77.9311 34.7756 78.6101 35.358 79.1101 36.108C79.6101 36.858 79.8857 37.7386 79.9368 38.75H76.5107C76.4141 38.0966 76.1584 37.571 75.7436 37.1733C75.3345 36.7699 74.7976 36.5682 74.1328 36.5682C73.5703 36.5682 73.0788 36.7216 72.6584 37.0284C72.2436 37.3295 71.9197 37.7699 71.6868 38.3494C71.4538 38.929 71.3374 39.6307 71.3374 40.4545C71.3374 41.2898 71.451 42 71.6783 42.5852C71.9112 43.1705 72.2379 43.6165 72.6584 43.9233C73.0788 44.2301 73.5703 44.3835 74.1328 44.3835C74.5476 44.3835 74.9197 44.2983 75.2493 44.1278C75.5845 43.9574 75.8601 43.7102 76.076 43.3864C76.2976 43.0568 76.4425 42.6619 76.5107 42.2017H79.9368C79.88 43.2017 79.6072 44.0824 79.1186 44.8438C78.6357 45.5994 77.968 46.1903 77.1158 46.6165C76.2635 47.0426 75.255 47.2557 74.0902 47.2557ZM88.2273 47.2557C86.8807 47.2557 85.7216 46.983 84.75 46.4375C83.7841 45.8864 83.0398 45.108 82.517 44.1023C81.9943 43.0909 81.733 41.8949 81.733 40.5142C81.733 39.1676 81.9943 37.9858 82.517 36.9688C83.0398 35.9517 83.7756 35.1591 84.7244 34.5909C85.679 34.0227 86.7983 33.7386 88.0824 33.7386C88.946 33.7386 89.75 33.8778 90.4943 34.1562C91.2443 34.429 91.8977 34.8409 92.4545 35.392C93.017 35.9432 93.4545 36.6364 93.767 37.4716C94.0795 38.3011 94.2358 39.2727 94.2358 40.3864V41.3835H83.1818V39.1335H90.8182C90.8182 38.6108 90.7045 38.1477 90.4773 37.7443C90.25 37.3409 89.9347 37.0256 89.5312 36.7983C89.1335 36.5653 88.6705 36.4489 88.142 36.4489C87.5909 36.4489 87.1023 36.5767 86.6761 36.8324C86.2557 37.0824 85.9261 37.4205 85.6875 37.8466C85.4489 38.267 85.3267 38.7358 85.321 39.2528V41.392C85.321 42.0398 85.4403 42.5994 85.679 43.071C85.9233 43.5426 86.267 43.9062 86.7102 44.1619C87.1534 44.4176 87.679 44.5455 88.2869 44.5455C88.6903 44.5455 89.0597 44.4886 89.3949 44.375C89.7301 44.2614 90.017 44.0909 90.2557 43.8636C90.4943 43.6364 90.6761 43.358 90.8011 43.0284L94.1591 43.25C93.9886 44.0568 93.6392 44.7614 93.1108 45.3636C92.5881 45.9602 91.9119 46.4261 91.0824 46.7614C90.2585 47.0909 89.3068 47.2557 88.2273 47.2557ZM103.568 33.9091V36.6364H95.6847V33.9091H103.568ZM97.4744 30.7727H101.105V42.9773C101.105 43.3125 101.156 43.5739 101.259 43.7614C101.361 43.9432 101.503 44.071 101.685 44.1449C101.872 44.2187 102.088 44.2557 102.332 44.2557C102.503 44.2557 102.673 44.2415 102.844 44.2131C103.014 44.179 103.145 44.1534 103.236 44.1364L103.807 46.8381C103.625 46.8949 103.369 46.9602 103.04 47.0341C102.71 47.1136 102.31 47.1619 101.838 47.179C100.963 47.2131 100.196 47.0966 99.5369 46.8295C98.8835 46.5625 98.375 46.1477 98.0114 45.5852C97.6477 45.0227 97.4688 44.3125 97.4744 43.4545V30.7727Z" fill="white"/>
<path opacity="0.2" d="M315.604 17.8853C294.782 2.78495 271.575 -4.52682 246.619 -3.97049C219.518 -3.33469 195.596 5.8845 175.648 23.5281C170.164 28.2967 165.077 33.6215 160.07 38.7875C158.083 40.8538 156.097 42.9202 154.03 44.9866L153.156 44.2713L152.282 45.384C150.772 47.3709 149.182 49.3577 147.593 51.3446C144.175 55.5569 140.758 59.928 137.817 64.6171C122.001 89.493 116.438 118.899 122.24 147.351C128.042 175.724 144.573 200.68 168.813 217.449C187.251 230.245 209.345 237 231.996 237C235.175 237 238.275 236.841 241.454 236.603C267.363 234.457 291.603 223.41 309.803 205.607C311.71 203.7 313.697 201.713 315.525 199.805C318.227 197.024 321.009 194.163 323.87 191.46C340.401 176.122 351.686 157.524 357.409 136.066C369.012 92.7515 351.845 44.1123 315.604 17.8853ZM140.201 81.8633C139.407 85.7576 138.612 89.7314 137.738 93.7052C137.658 94.0231 137.42 94.5 136.704 95.2947C135.989 96.0895 135.274 96.8048 134.559 97.4406C135.91 92.1952 137.738 87.0293 140.201 81.8633ZM131.062 134.476C130.982 133.602 130.903 132.887 130.903 132.092C130.823 127.323 130.823 122.158 130.982 117.071C130.982 116.435 131.459 115.561 132.015 114.925C133.525 113.336 135.036 111.746 136.704 110.157L136.863 111.349C137.42 116.674 137.976 121.681 138.453 126.767C138.453 126.847 138.373 127.165 138.294 127.244C136.148 129.469 133.923 131.695 131.539 134.079L131.062 134.476ZM138.056 161.021C137.817 161.26 137.579 161.578 137.34 161.816L136.863 160.226C135.592 155.855 134.4 151.723 133.208 147.669C133.208 147.51 133.367 147.272 133.446 147.192C135.671 144.888 137.976 142.583 140.36 140.199L141.076 139.483C141.235 139.96 141.394 140.437 141.473 140.914C142.268 143.537 142.983 146 144.255 148.305C146.321 152.12 145.844 154.425 142.427 156.968C140.917 157.922 139.566 159.352 138.056 161.021ZM158.083 180.254C155.858 182.48 153.633 184.705 151.408 186.851L142.029 172.227L151.01 163.167C151.566 164.041 152.123 164.836 152.679 165.71C154.587 168.571 156.494 171.512 158.481 174.453L158.56 174.612C159.514 176.042 160.309 177.155 160.229 177.552C160.309 178.029 159.276 178.983 158.083 180.254ZM167.938 203.7L158.799 194.56L167.859 185.5L176.999 194.639L167.938 203.7ZM196.47 208.945C193.927 211.488 191.384 214.111 188.761 216.575C188.602 216.575 188.284 216.575 188.205 216.495C184.946 214.747 181.767 212.998 178.35 211.17L176.681 210.296L185.821 201.077L197.424 207.912L196.47 208.945ZM221.426 217.528C218.962 219.992 216.657 222.376 214.273 224.681L214.114 224.761C209.663 223.728 205.292 222.615 200.524 221.423L199.252 221.105L200.206 220.151C202.908 217.37 205.292 215.065 207.756 212.68C207.835 212.601 208.153 212.521 208.153 212.521C212.206 213.793 216.26 215.065 220.472 216.495L221.982 216.972L221.426 217.528ZM241.295 225.714C241.136 225.873 240.897 226.032 240.897 226.032C236.764 226.191 232.552 226.271 228.42 226.35H227.545L227.943 225.953C230.089 223.807 232.234 221.661 234.38 219.515C234.46 219.436 234.698 219.356 234.857 219.356C238.513 219.595 242.169 219.833 246.063 220.151L246.619 220.231C244.871 222.059 243.043 223.887 241.295 225.714ZM259.653 222.218C260.528 221.343 261.402 220.469 262.276 219.674C262.356 219.595 262.594 219.436 263.389 219.197C267.442 218.244 271.575 217.37 275.628 216.495C270.462 219.038 265.137 220.946 259.653 222.218ZM319.896 180.572C300.822 199.328 275.787 209.66 249.163 209.66C248.686 209.66 248.288 209.66 247.812 209.66C220.71 209.342 195.119 198.375 175.807 178.744C157.209 159.909 147.116 134.476 147.354 107.296C147.593 80.1149 158.163 54.8416 177.078 36.1648C196.47 17.0906 221.903 6.59978 248.924 6.59978C249.163 6.59978 249.322 6.59978 249.56 6.59978C276.741 6.75874 302.253 17.5674 321.406 37.039C360.508 76.8564 359.872 141.232 319.896 180.572Z" fill="white"/>
<path opacity="0.2" d="M249.323 19.79C249.084 19.79 248.846 19.79 248.608 19.79C225.242 19.79 203.306 28.7708 186.855 45.1428C169.927 61.9122 160.548 84.3244 160.548 108.088C160.469 131.612 169.609 153.786 186.14 170.397C202.829 187.166 225.083 196.465 248.687 196.465C248.766 196.465 248.766 196.465 248.846 196.465C272.45 196.465 294.624 187.245 311.393 170.556C328.004 154.025 337.143 131.93 337.223 108.406C337.302 84.8012 328.242 62.7069 311.791 46.0965C295.101 29.3271 272.927 19.949 249.323 19.79ZM303.843 163.085C288.663 178.265 268.715 185.894 248.766 185.894C228.977 185.894 209.188 178.424 194.087 163.323C163.568 133.043 163.568 83.5296 193.928 53.0109C208.472 38.4668 227.864 30.3603 248.687 30.3603H248.766C269.589 30.3603 289.14 38.3874 303.684 53.0109C334.123 83.2912 334.203 132.725 303.843 163.085Z" fill="white"/>
<path d="M211.911 154.254C208.659 151.091 207 147.136 207 142.258C207 137.315 208.593 133.294 211.844 130.262C215.096 127.23 219.144 125.648 223.988 125.648C228.965 125.648 233.013 127.164 236.198 130.262C239.383 133.294 240.976 137.315 240.976 142.258C240.976 147.07 239.383 151.091 236.132 154.254C232.88 157.418 228.832 159 223.988 159C219.21 159 215.229 157.418 211.911 154.254Z" fill="#FFD987"/>
<path d="M279 54V157.682H249.47V76.6742H236.729L243.365 54H279Z" fill="#FFD987"/>
<path d="M69.9176 164.11H65.2804C64.3807 164.11 63.6609 164.83 63.6609 165.729V170.367C63.6609 171.266 64.3807 171.986 65.2804 171.986H69.9176C70.8174 171.986 71.5372 171.266 71.5372 170.367V165.729C71.5372 164.844 70.8035 164.11 69.9176 164.11Z" fill="white"/>
<path d="M94.0864 170.643C94.0172 170.2 93.685 169.91 93.2144 169.854C92.979 169.827 92.7299 169.827 92.4946 169.827C92.3008 169.827 92.107 169.827 91.9132 169.827V124.009C91.9132 119.053 88.591 114.72 83.8154 113.433L78.7353 112.063C77.6279 111.758 76.5343 112.603 76.5343 113.751V118.043C68.4642 115.869 74.0566 117.544 66.0695 115.426C61.8614 114.305 57.8472 116.548 56.5598 120.714C56.2276 121.794 55.9508 122.901 55.6462 124.064C67.1215 127.137 64.9344 126.348 76.5343 129.49V169.813C74.4026 169.744 74.1811 170.27 74.3196 172H94.1141C94.1003 171.529 94.1556 171.073 94.0864 170.643Z" fill="#1D2140"/>
<path d="M65.9172 129.988C66.0003 130.002 66.0695 130.03 66.1525 130.058C67.5229 130.542 68.1874 130.085 68.3258 128.355C64.8237 127.414 61.3216 126.473 57.7641 125.531C57.6949 125.767 57.6257 125.974 57.5703 126.182C57.2658 127.289 57.5288 127.76 58.6223 128.051C61.0447 128.687 63.481 129.338 65.9172 129.988Z" fill="white"/>
<path d="M58.0686 133.823C54.4419 131.193 50.3999 129.919 46.0534 130.016C41.3332 130.127 37.1666 131.733 33.6922 134.806C32.7371 135.636 31.8512 136.564 30.9791 137.464C30.6331 137.823 30.287 138.183 29.9271 138.543L29.7748 138.419L29.6226 138.612C29.3596 138.959 29.0827 139.305 28.8059 139.651C28.2107 140.384 27.6154 141.146 27.1033 141.962C24.3486 146.295 23.3797 151.417 24.3902 156.372C25.4007 161.314 28.2799 165.66 32.5018 168.581C35.7132 170.81 39.5614 171.986 43.5064 171.986C44.0601 171.986 44.6 171.959 45.1537 171.917C49.6663 171.543 53.8882 169.619 57.0581 166.519C57.3903 166.186 57.7364 165.84 58.0547 165.508C58.5254 165.024 59.0099 164.525 59.5082 164.055C62.3874 161.383 64.353 158.144 65.3497 154.407C67.3706 146.862 64.3807 138.391 58.0686 133.823ZM27.5185 144.966C27.3801 145.644 27.2417 146.336 27.0894 147.029C27.0756 147.084 27.0341 147.167 26.9095 147.305C26.7849 147.444 26.6603 147.568 26.5357 147.679C26.7711 146.766 27.0894 145.866 27.5185 144.966ZM25.9267 154.13C25.9128 153.977 25.899 153.853 25.899 153.714C25.8851 152.884 25.8851 151.984 25.9128 151.098C25.9128 150.988 25.9959 150.835 26.0928 150.725C26.3558 150.448 26.6188 150.171 26.9095 149.894L26.9372 150.102C27.0341 151.029 27.131 151.901 27.214 152.787C27.214 152.801 27.2002 152.856 27.1863 152.87C26.8126 153.258 26.425 153.645 26.0097 154.061L25.9267 154.13ZM27.1448 158.753C27.1033 158.795 27.0617 158.85 27.0202 158.891L26.9372 158.615C26.7157 157.853 26.508 157.134 26.3004 156.428C26.3004 156.4 26.3281 156.358 26.3419 156.344C26.7295 155.943 27.131 155.542 27.5462 155.126L27.6708 155.002C27.6985 155.085 27.7262 155.168 27.74 155.251C27.8784 155.708 28.003 156.137 28.2245 156.538C28.5844 157.203 28.5013 157.604 27.9061 158.047C27.6431 158.213 27.4078 158.462 27.1448 158.753ZM30.6331 162.103C30.2455 162.49 29.8579 162.878 29.4703 163.252L27.8369 160.705L29.4011 159.127C29.498 159.279 29.5949 159.418 29.6918 159.57C30.024 160.068 30.3562 160.58 30.7023 161.092L30.7161 161.12C30.8822 161.369 31.0206 161.563 31.0068 161.632C31.0206 161.715 30.8407 161.881 30.6331 162.103ZM32.3495 166.186L30.7576 164.595L32.3357 163.017L33.9275 164.608L32.3495 166.186ZM37.3189 167.1C36.876 167.543 36.433 168 35.9762 168.429C35.9485 168.429 35.8932 168.429 35.8793 168.415C35.3118 168.11 34.7581 167.806 34.1629 167.488L33.8722 167.335L35.464 165.73L37.485 166.92L37.3189 167.1ZM41.6654 168.595C41.2363 169.024 40.8349 169.439 40.4196 169.841L40.3919 169.855C39.6167 169.675 38.8554 169.481 38.0249 169.273L37.8034 169.218L37.9695 169.052C38.4401 168.567 38.8554 168.166 39.2845 167.751C39.2984 167.737 39.3537 167.723 39.3537 167.723C40.0597 167.944 40.7657 168.166 41.4993 168.415L41.7623 168.498L41.6654 168.595ZM45.126 170.021C45.0983 170.048 45.0568 170.076 45.0568 170.076C44.337 170.104 43.6033 170.118 42.8835 170.131H42.7313L42.8005 170.062C43.1742 169.689 43.548 169.315 43.9217 168.941C43.9356 168.927 43.9771 168.913 44.0048 168.913C44.6415 168.955 45.2783 168.996 45.9565 169.052L46.0534 169.066C45.7489 169.384 45.4305 169.702 45.126 170.021ZM48.3236 169.412C48.4758 169.259 48.6281 169.107 48.7804 168.969C48.7942 168.955 48.8357 168.927 48.9742 168.886C49.6801 168.72 50.3999 168.567 51.1059 168.415C50.2061 168.858 49.2787 169.19 48.3236 169.412ZM58.8161 162.158C55.4939 165.425 51.1336 167.225 46.4964 167.225C46.4133 167.225 46.3441 167.225 46.2611 167.225C41.5408 167.169 37.0836 165.259 33.7199 161.84C30.4808 158.559 28.7228 154.13 28.7643 149.396C28.8059 144.662 30.6469 140.26 33.9414 137.007C37.3189 133.685 41.7485 131.857 46.4549 131.857C46.4964 131.857 46.5241 131.857 46.5656 131.857C51.2997 131.885 55.7431 133.768 59.0791 137.159C65.8895 144.094 65.7788 155.306 58.8161 162.158Z" fill="#FFD987"/>
<path d="M46.524 134.155C46.4825 134.155 46.4409 134.155 46.3994 134.155C42.3298 134.155 38.5093 135.719 35.6439 138.571C32.6955 141.492 31.0621 145.395 31.0621 149.534C31.0483 153.631 32.6401 157.493 35.5193 160.387C38.4262 163.307 42.3021 164.927 46.4133 164.927C46.4271 164.927 46.4271 164.927 46.4409 164.927C50.5521 164.927 54.4141 163.321 57.3349 160.414C60.2279 157.535 61.8198 153.687 61.8336 149.589C61.8475 145.478 60.2694 141.63 57.4041 138.737C54.4972 135.816 50.6352 134.183 46.524 134.155ZM56.0198 159.113C53.376 161.757 49.9015 163.086 46.4271 163.086C42.9804 163.086 39.5336 161.785 36.9036 159.155C31.5881 153.881 31.5881 145.257 36.8759 139.941C39.409 137.408 42.7866 135.996 46.4133 135.996H46.4271C50.0538 135.996 53.459 137.394 55.9922 139.941C61.2938 145.215 61.3076 153.825 56.0198 159.113Z" fill="white"/>
<path d="M37.679 149.548L46.8841 158.753L56.0893 149.548L46.8841 140.343L37.679 149.548ZM46.8841 155.735L40.6966 149.548L46.8841 143.36L53.0716 149.548L46.8841 155.735Z" fill="white"/>
<path d="M51.1196 149.548L46.8839 145.312L42.6343 149.548H51.1196Z" fill="white"/>
</g>
<defs>
<clipPath id="clip0_58_602">
<rect width="320" height="196" rx="10" fill="white"/>
</clipPath>
</defs>
</svg>
