<svg width="320" height="197" viewBox="0 0 320 197" fill="none" xmlns="http://www.w3.org/2000/svg">
    <g clip-path="url(#clip0_256_1716)">
        <rect y="0.274414" width="320" height="196" rx="10" fill="#13111A"/>
        <path fill-rule="evenodd" clip-rule="evenodd"
              d="M251.022 -7.16309L271.859 13.9101L271.851 13.9185L273.608 15.6951V5.90564C273.608 2.20433 278.027 0.35714 280.613 2.97227L298.359 20.9184V7.00565L287.256 -4.22971L290.157 -7.16309L310.994 13.9101L310.887 14.0185L312.545 15.6951V5.90564C312.545 2.20433 316.964 0.35714 319.55 2.97227L337.296 20.9184V7.00565L326.193 -4.22971L329.094 -7.16309L349.931 13.9101L349.825 14.018L351.483 15.6951V5.90564C351.483 2.20433 355.903 0.35714 358.488 2.97227L376.234 20.9184V7.00565L365.131 -4.22971L368.032 -7.16309L388.87 13.9101L385.969 16.8435L380.346 11.1567V20.9184C380.346 24.6197 375.926 26.4669 373.34 23.8518L355.595 5.90564V19.8461L366.376 30.7494L363.476 33.6827L343.424 13.412L343.531 13.3042L341.407 11.1567V20.9184C341.407 24.6197 336.988 26.4669 334.402 23.8518L316.657 5.90564V19.8461L327.438 30.7494L324.537 33.6827L304.486 13.412L304.593 13.3036L302.47 11.1567V20.9184C302.47 24.6197 298.051 26.4669 295.465 23.8518L277.719 5.90564V19.8461L288.501 30.7494L285.6 33.6827L265.549 13.412L265.557 13.4037L263.335 11.1567V20.9184C263.335 24.6197 258.916 26.4669 256.33 23.8518L238.584 5.90564V19.8461L249.366 30.7494L246.465 33.6827L226.414 13.412L229.315 10.4787L234.473 15.6951V5.90564C234.473 2.20433 238.892 0.35714 241.478 2.97227L259.224 20.9184V7.00565L248.121 -4.22971L251.022 -7.16309ZM302.639 35.2617L281.802 14.1885L278.901 17.1218L290.004 28.3572V42.27L272.258 24.3238C269.672 21.7087 265.253 23.5559 265.253 27.2572V37.0466L263.496 35.2701L263.505 35.2617L242.667 14.1885L239.766 17.1218L250.869 28.3572V42.27L233.123 24.3238C230.538 21.7087 226.118 23.5559 226.118 27.2572V37.0466L220.96 31.8302L218.059 34.7636L238.111 55.0343L241.011 52.1009L230.23 41.1976V27.2572L247.975 45.2033C250.561 47.8185 254.981 45.9713 254.981 42.27V32.5082L257.203 34.7552L257.194 34.7636L277.245 55.0343L280.146 52.1009L269.365 41.1976V27.2572L287.11 45.2033C289.696 47.8185 294.115 45.9713 294.115 42.27V32.5082L296.239 34.6555L296.132 34.7636L316.183 55.0343L319.084 52.1009L308.302 41.1976V27.2572L326.048 45.2033C328.634 47.8185 333.053 45.9713 333.053 42.27V32.5082L335.176 34.6554L335.069 34.7636L355.121 55.0343L358.021 52.1009L347.24 41.1976V27.2572L364.985 45.2033C367.571 47.8185 371.991 45.9713 371.991 42.27V32.5082L377.614 38.1951L380.515 35.2617L359.677 14.1885L356.776 17.1218L367.879 28.3572V42.27L350.133 24.3238C347.548 21.7087 343.128 23.5559 343.128 27.2572V37.0466L341.47 35.3699L341.577 35.2617L320.739 14.1885L317.839 17.1218L328.942 28.3572V42.27L311.196 24.3238C308.61 21.7087 304.191 23.5559 304.191 27.2572V37.0466L302.533 35.3697L302.639 35.2617ZM234.312 35.5393L255.15 56.6125L255.142 56.6212L256.898 58.3976V48.6082C256.898 44.9069 261.318 43.0597 263.904 45.6748L281.649 63.621V49.7082L270.546 38.4728L273.447 35.5395L294.285 56.6127L294.178 56.7207L295.836 58.3976V48.6082C295.836 44.9069 300.255 43.0597 302.841 45.6748L320.587 63.621V49.7082L309.484 38.4728L312.385 35.5395L333.223 56.6127L333.116 56.7207L334.774 58.3976V48.6082C334.774 44.9069 339.193 43.0597 341.779 45.6748L359.525 63.621V49.7082L348.422 38.4728L351.322 35.5395L372.16 56.6127L369.26 59.5461L363.636 53.8592V63.621C363.636 67.3223 359.217 69.1695 356.631 66.5543L338.885 48.6082V62.5486L349.667 73.4519L346.766 76.3853L326.715 56.1146L326.822 56.0066L324.699 53.8592V63.621C324.699 67.3223 320.279 69.1695 317.693 66.5543L299.948 48.6082V62.5486L310.729 73.4519L307.828 76.3853L287.777 56.1146L287.884 56.0066L285.761 53.8592V63.621C285.761 67.3223 281.341 69.1695 278.756 66.5543L261.01 48.6082V62.5486L271.791 73.4519L268.891 76.3853L248.84 56.1146L248.848 56.1059L246.626 53.859V63.6208C246.626 67.3221 242.207 69.1693 239.621 66.5541L221.875 48.608V62.5484L232.657 73.4517L229.756 76.3851L209.705 56.1144L212.606 53.181L217.764 58.3974V48.608C217.764 44.9067 222.183 43.0595 224.769 45.6746L242.515 63.6208V49.708L231.412 38.4726L234.312 35.5393ZM287.048 77.5869L266.21 56.5136L263.309 59.447L274.412 70.6824V84.5951L256.667 66.649C254.081 64.0339 249.661 65.8811 249.661 69.5824V79.3718L247.905 77.5954L247.913 77.587L227.075 56.5138L224.175 59.4472L235.278 70.6825V84.5953L217.532 66.6492C214.946 64.034 210.527 65.8812 210.527 69.5825V79.372L205.369 74.1555L202.468 77.0889L222.519 97.3596L225.42 94.4263L214.638 83.523V69.5825L232.384 87.5287C234.97 90.1438 239.389 88.2966 239.389 84.5953V74.8335L241.611 77.0804L241.603 77.0887L261.654 97.3595L264.554 94.4261L253.773 83.5228V69.5824L271.519 87.5285C274.105 90.1436 278.524 88.2964 278.524 84.5951V74.8334L280.647 76.9805L280.54 77.0887L300.591 97.3595L303.492 94.4261L292.71 83.5228V69.5824L310.456 87.5285C313.042 90.1436 317.461 88.2964 317.461 84.5951V74.8334L319.585 76.9809L319.478 77.0887L339.529 97.3595L342.43 94.4261L331.648 83.5228V69.5824L349.394 87.5285C351.98 90.1436 356.399 88.2964 356.399 84.5951V74.8334L362.023 80.5202L364.923 77.5869L344.086 56.5136L341.185 59.447L352.288 70.6824V84.5951L334.542 66.649C331.956 64.0339 327.537 65.8811 327.537 69.5824V79.3718L325.879 77.6947L325.985 77.5869L305.147 56.5136L302.247 59.447L313.35 70.6824V84.5951L295.604 66.649C293.018 64.0339 288.599 65.8811 288.599 69.5824V79.3718L286.941 77.6951L287.048 77.5869ZM278.692 98.9381L257.855 77.8649L254.954 80.7983L266.057 92.0336V105.946L248.311 88.0003C245.725 85.3851 241.306 87.2323 241.306 90.9336V100.723L239.55 98.9467L239.558 98.9382L218.72 77.865L215.82 80.7984L226.923 92.0337V105.946L209.177 88.0003C206.591 85.3852 202.172 87.2324 202.172 90.9337V100.723L197.013 95.5067L194.113 98.4401L214.164 118.711L217.065 115.777L206.283 104.874V90.9337L224.029 108.88C226.615 111.495 231.034 109.648 231.034 105.946V96.1847L233.256 98.4315L233.247 98.44L253.298 118.711L256.199 115.777L245.418 104.874V90.9336L263.163 108.88C265.749 111.495 270.169 109.648 270.169 105.946V96.1846L272.292 98.3318L272.185 98.44L292.236 118.711L295.136 115.777L284.355 104.874V90.9336L302.101 108.88C304.687 111.495 309.106 109.648 309.106 105.946V96.1846L311.229 98.332L311.122 98.44L331.174 118.711L334.074 115.777L323.293 104.874V90.9336L341.038 108.88C343.624 111.495 348.044 109.648 348.044 105.946V96.1846L353.667 101.872L356.568 98.9381L335.73 77.8649L332.829 80.7983L343.932 92.0336V105.946L326.187 88.0003C323.601 85.3851 319.181 87.2323 319.181 90.9336V100.723L317.523 99.0462L317.63 98.9381L296.792 77.8649L293.891 80.7983L304.994 92.0336V105.946L287.249 88.0003C284.663 85.3851 280.243 87.2323 280.243 90.9336V100.723L278.585 99.0464L278.692 98.9381ZM210.365 99.2158L231.203 120.289L231.195 120.297L232.952 122.074V112.285C232.952 108.583 237.371 106.736 239.957 109.351L257.703 127.297V113.385L246.6 102.149L249.5 99.2159L270.338 120.289L270.231 120.397L271.889 122.074V112.285C271.889 108.583 276.309 106.736 278.895 109.351L296.64 127.297V113.385L285.537 102.149L288.438 99.2159L309.276 120.289L309.169 120.397L310.827 122.074V112.285C310.827 108.583 315.246 106.736 317.832 109.351L335.578 127.297V113.385L324.475 102.149L327.376 99.2159L348.213 120.289L345.313 123.223L339.689 117.536V127.297C339.689 130.999 335.27 132.846 332.684 130.231L314.939 112.285V126.225L325.72 137.128L322.819 140.062L302.768 119.791L302.875 119.683L300.752 117.536V127.297C300.752 130.999 296.332 132.846 293.746 130.231L276.001 112.285V126.225L286.782 137.128L283.882 140.062L263.83 119.791L263.937 119.683L261.814 117.536V127.297C261.814 130.999 257.395 132.846 254.809 130.231L237.063 112.285V126.225L247.845 137.128L244.944 140.062L224.893 119.791L224.901 119.783L222.679 117.536V127.297C222.679 130.999 218.26 132.846 215.674 130.231L197.928 112.285V126.225L208.71 137.128L205.809 140.062L185.758 119.791L188.659 116.858L193.817 122.074V112.285C193.817 108.583 198.236 106.736 200.822 109.351L218.568 127.297V113.385L207.465 102.149L210.365 99.2158ZM223.155 140.712L202.317 119.639L199.416 122.572L210.519 133.807V147.72L192.774 129.774C190.188 127.159 185.768 129.006 185.768 132.707V142.497L180.61 137.28L177.71 140.214L197.761 160.485L200.661 157.551L189.88 146.648V132.707L207.626 150.654C210.211 153.269 214.631 151.422 214.631 147.72V137.958L216.853 140.205L216.844 140.214L236.895 160.485L239.796 157.551L229.014 146.648V132.708L246.76 150.654C249.346 153.269 253.765 151.422 253.765 147.72V137.959L255.889 140.106L255.782 140.214L275.833 160.485L278.733 157.551L267.952 146.648V132.708L285.698 150.654C288.283 153.269 292.703 151.422 292.703 147.72V137.959L294.826 140.106L294.719 140.214L314.77 160.485L317.671 157.551L306.889 146.648V132.708L324.635 150.654C327.221 153.269 331.64 151.422 331.64 147.72V137.959L337.264 143.645L340.164 140.712L319.326 119.639L316.426 122.572L327.529 133.808V147.72L309.783 129.774C307.197 127.159 302.778 129.006 302.778 132.708V142.497L301.12 140.82L301.227 140.712L280.389 119.639L277.488 122.572L288.591 133.808V147.72L270.846 129.774C268.26 127.159 263.84 129.006 263.84 132.708V142.497L262.182 140.82L262.289 140.712L241.451 119.639L238.551 122.572L249.654 133.808V147.72L231.908 129.774C229.322 127.159 224.903 129.006 224.903 132.708V142.497L223.146 140.721L223.155 140.712ZM193.961 140.99L214.799 162.064L214.791 162.072L216.548 163.849V154.059C216.548 150.358 220.967 148.511 223.553 151.126L241.299 169.072V155.159L230.196 143.924L233.097 140.99L253.934 162.064L253.827 162.172L255.485 163.849V154.059C255.485 150.358 259.905 148.511 262.491 151.126L280.236 169.072V155.159L269.133 143.924L272.034 140.99L292.872 162.064L292.765 162.172L294.423 163.849V154.059C294.423 150.358 298.843 148.511 301.428 151.126L319.174 169.072V155.159L308.071 143.924L310.972 140.99L331.81 162.064L328.909 164.997L323.286 159.31V169.072C323.286 172.773 318.866 174.62 316.28 172.005L298.535 154.059V168L309.316 178.903L306.416 181.836L286.364 161.565L286.471 161.457L284.348 159.31V169.072C284.348 172.773 279.929 174.62 277.343 172.005L259.597 154.059V168L270.378 178.903L267.478 181.836L247.427 161.565L247.534 161.457L245.41 159.31V169.072C245.41 172.773 240.991 174.62 238.405 172.005L220.66 154.059V168L231.441 178.903L228.54 181.836L208.489 161.565L208.497 161.557L206.275 159.31V169.072C206.275 172.773 201.856 174.62 199.27 172.005L181.524 154.059V167.999L192.306 178.903L189.405 181.836L169.354 161.565L172.255 158.632L177.413 163.848V154.059C177.413 150.358 181.832 148.511 184.418 151.126L202.164 169.072V155.159L191.061 143.924L193.961 140.99ZM206.445 183.415L185.607 162.342L182.707 165.275L193.81 176.511V190.423L176.064 172.477C173.478 169.862 169.059 171.709 169.059 175.411V185.2L163.901 179.984L161 182.917L181.051 203.188L183.952 200.254L173.17 189.351V175.411L190.916 193.357C193.502 195.972 197.921 194.125 197.921 190.423V180.662L200.143 182.908L200.134 182.917L220.185 203.188L223.086 200.254L212.304 189.351V175.411L230.05 193.357C232.636 195.972 237.055 194.125 237.055 190.423V180.662L239.178 182.809L239.071 182.917L259.123 203.188L262.023 200.254L251.242 189.351V175.411L268.987 193.357C271.573 195.972 275.993 194.125 275.993 190.423V180.662L278.116 182.809L278.01 182.917L298.061 203.188L300.961 200.254L290.18 189.351V175.411L307.926 193.357C310.512 195.972 314.931 194.125 314.931 190.423V180.662L320.554 186.348L323.455 183.415L302.617 162.342L299.716 165.275L310.819 176.511V190.423L293.074 172.477C290.488 169.862 286.068 171.709 286.068 175.411V185.2L284.41 183.523L284.517 183.415L263.679 162.342L260.778 165.275L271.881 176.511V190.423L254.135 172.477C251.55 169.862 247.13 171.709 247.13 175.411V185.2L245.472 183.523L245.579 183.415L224.741 162.342L221.841 165.275L232.944 176.511V190.423L215.198 172.477C212.612 169.862 208.193 171.709 208.193 175.411V185.2L206.436 183.424L206.445 183.415Z"
              fill="white" fill-opacity="0.05"/>
        <circle cx="123" cy="74.2744" r="257" fill="url(#paint0_radial_256_1716)"/>
        <circle cx="192" cy="209.562" r="209.288" fill="url(#paint1_radial_256_1716)"/>
        <circle cx="359" cy="108.274" r="148" fill="url(#paint2_radial_256_1716)"/>
        <path d="M38.7734 30.2744V46.2744H35.8516L28.8906 36.2041H28.7734V46.2744H25.3906V30.2744H28.3594L35.2656 40.3369H35.4063V30.2744H38.7734ZM46.9746 46.5088C45.7402 46.5088 44.6777 46.2588 43.7871 45.7588C42.9017 45.2536 42.2194 44.54 41.7402 43.6182C41.2611 42.6911 41.0215 41.5947 41.0215 40.3291C41.0215 39.0947 41.2611 38.0114 41.7402 37.0791C42.2194 36.1468 42.8939 35.4202 43.7637 34.8994C44.6387 34.3786 45.6647 34.1182 46.8418 34.1182C47.6335 34.1182 48.3704 34.2458 49.0527 34.501C49.7402 34.751 50.3392 35.1286 50.8496 35.6338C51.3652 36.139 51.7663 36.7744 52.0527 37.54C52.3392 38.3005 52.4824 39.1911 52.4824 40.2119V41.126H42.3496V39.0635H49.3496C49.3496 38.5843 49.2454 38.1598 49.0371 37.79C48.8288 37.4202 48.5397 37.1312 48.1699 36.9229C47.8053 36.7093 47.3809 36.6025 46.8965 36.6025C46.3913 36.6025 45.9434 36.7197 45.5527 36.9541C45.1673 37.1833 44.8652 37.4932 44.6465 37.8838C44.4277 38.2692 44.3158 38.6989 44.3105 39.1729V41.1338C44.3105 41.7275 44.4199 42.2406 44.6387 42.6729C44.8626 43.1051 45.1777 43.4385 45.584 43.6729C45.9902 43.9072 46.472 44.0244 47.0293 44.0244C47.3991 44.0244 47.7376 43.9723 48.0449 43.8682C48.3522 43.764 48.6152 43.6077 48.834 43.3994C49.0527 43.1911 49.2194 42.9359 49.334 42.6338L52.4121 42.8369C52.2559 43.5765 51.9355 44.2223 51.4512 44.7744C50.972 45.3213 50.3522 45.7484 49.5918 46.0557C48.8366 46.3577 47.9642 46.5088 46.9746 46.5088ZM60.0762 46.5088C58.8626 46.5088 57.8132 46.251 56.9277 45.7354C56.0475 45.2145 55.3678 44.4906 54.8887 43.5635C54.4095 42.6312 54.1699 41.5505 54.1699 40.3213C54.1699 39.0817 54.4095 37.9984 54.8887 37.0713C55.3678 36.139 56.0475 35.415 56.9277 34.8994C57.8132 34.3786 58.8626 34.1182 60.0762 34.1182C61.2897 34.1182 62.3366 34.3786 63.2168 34.8994C64.1022 35.415 64.7845 36.139 65.2637 37.0713C65.7428 37.9984 65.9824 39.0817 65.9824 40.3213C65.9824 41.5505 65.7428 42.6312 65.2637 43.5635C64.7845 44.4906 64.1022 45.2145 63.2168 45.7354C62.3366 46.251 61.2897 46.5088 60.0762 46.5088ZM60.0918 43.9307C60.6439 43.9307 61.1048 43.7744 61.4746 43.4619C61.8444 43.1442 62.123 42.7119 62.3105 42.165C62.5033 41.6182 62.5996 40.9958 62.5996 40.2979C62.5996 39.5999 62.5033 38.9775 62.3105 38.4307C62.123 37.8838 61.8444 37.4515 61.4746 37.1338C61.1048 36.8161 60.6439 36.6572 60.0918 36.6572C59.5345 36.6572 59.0658 36.8161 58.6855 37.1338C58.3105 37.4515 58.0267 37.8838 57.834 38.4307C57.6465 38.9775 57.5527 39.5999 57.5527 40.2979C57.5527 40.9958 57.6465 41.6182 57.834 42.165C58.0267 42.7119 58.3105 43.1442 58.6855 43.4619C59.0658 43.7744 59.5345 43.9307 60.0918 43.9307ZM87.418 35.876H83.9961C83.9336 35.4333 83.806 35.04 83.6133 34.6963C83.4206 34.3473 83.1732 34.0505 82.8711 33.8057C82.569 33.5609 82.2201 33.3734 81.8242 33.2432C81.4336 33.113 81.0091 33.0479 80.5508 33.0479C79.7227 33.0479 79.0013 33.2536 78.3867 33.665C77.7721 34.0713 77.2956 34.665 76.957 35.4463C76.6185 36.2223 76.4492 37.165 76.4492 38.2744C76.4492 39.415 76.6185 40.3734 76.957 41.1494C77.3008 41.9255 77.7799 42.5114 78.3945 42.9072C79.0091 43.3031 79.7201 43.501 80.5273 43.501C80.9805 43.501 81.3997 43.4411 81.7852 43.3213C82.1758 43.2015 82.5221 43.027 82.8242 42.7979C83.1263 42.5635 83.3763 42.2796 83.5742 41.9463C83.7773 41.613 83.918 41.2327 83.9961 40.8057L87.418 40.8213C87.3294 41.5557 87.1081 42.264 86.7539 42.9463C86.4049 43.6234 85.9336 44.2301 85.3398 44.7666C84.7513 45.2979 84.0482 45.7197 83.2305 46.0322C82.418 46.3395 81.4987 46.4932 80.4727 46.4932C79.0456 46.4932 77.7695 46.1702 76.6445 45.5244C75.5247 44.8786 74.6393 43.9437 73.9883 42.7197C73.3424 41.4958 73.0195 40.014 73.0195 38.2744C73.0195 36.5296 73.3477 35.0452 74.0039 33.8213C74.6602 32.5973 75.5508 31.665 76.6758 31.0244C77.8008 30.3786 79.0664 30.0557 80.4727 30.0557C81.3997 30.0557 82.2591 30.1859 83.0508 30.4463C83.8477 30.7067 84.5534 31.0869 85.168 31.5869C85.7826 32.0817 86.2826 32.6885 86.668 33.4072C87.0586 34.126 87.3086 34.9489 87.418 35.876ZM89.7813 46.2744V34.2744H93.0078V36.3682H93.1328C93.3516 35.6234 93.7188 35.0609 94.2344 34.6807C94.75 34.2952 95.3438 34.1025 96.0156 34.1025C96.1823 34.1025 96.362 34.113 96.5547 34.1338C96.7474 34.1546 96.9167 34.1833 97.0625 34.2197V37.1729C96.9063 37.126 96.6901 37.0843 96.4141 37.0479C96.138 37.0114 95.8854 36.9932 95.6563 36.9932C95.1667 36.9932 94.7292 37.0999 94.3438 37.3135C93.9635 37.5218 93.6615 37.8135 93.4375 38.1885C93.2188 38.5635 93.1094 38.9958 93.1094 39.4854V46.2744H89.7813ZM103.693 46.5088C102.459 46.5088 101.396 46.2588 100.506 45.7588C99.6204 45.2536 98.9382 44.54 98.459 43.6182C97.9798 42.6911 97.7402 41.5947 97.7402 40.3291C97.7402 39.0947 97.9798 38.0114 98.459 37.0791C98.9382 36.1468 99.6126 35.4202 100.482 34.8994C101.357 34.3786 102.383 34.1182 103.561 34.1182C104.352 34.1182 105.089 34.2458 105.771 34.501C106.459 34.751 107.058 35.1286 107.568 35.6338C108.084 36.139 108.485 36.7744 108.771 37.54C109.058 38.3005 109.201 39.1911 109.201 40.2119V41.126H99.0684V39.0635H106.068C106.068 38.5843 105.964 38.1598 105.756 37.79C105.548 37.4202 105.258 37.1312 104.889 36.9229C104.524 36.7093 104.1 36.6025 103.615 36.6025C103.11 36.6025 102.662 36.7197 102.271 36.9541C101.886 37.1833 101.584 37.4932 101.365 37.8838C101.146 38.2692 101.035 38.6989 101.029 39.1729V41.1338C101.029 41.7275 101.139 42.2406 101.357 42.6729C101.581 43.1051 101.896 43.4385 102.303 43.6729C102.709 43.9072 103.191 44.0244 103.748 44.0244C104.118 44.0244 104.456 43.9723 104.764 43.8682C105.071 43.764 105.334 43.6077 105.553 43.3994C105.771 43.1911 105.938 42.9359 106.053 42.6338L109.131 42.8369C108.975 43.5765 108.654 44.2223 108.17 44.7744C107.691 45.3213 107.071 45.7484 106.311 46.0557C105.555 46.3577 104.683 46.5088 103.693 46.5088ZM115.795 46.4697C114.883 46.4697 114.058 46.2354 113.318 45.7666C112.584 45.2926 112.001 44.5973 111.568 43.6807C111.141 42.7588 110.928 41.6286 110.928 40.29C110.928 38.915 111.149 37.7718 111.592 36.8604C112.035 35.9437 112.623 35.2588 113.357 34.8057C114.097 34.3473 114.907 34.1182 115.787 34.1182C116.459 34.1182 117.019 34.2327 117.467 34.4619C117.92 34.6859 118.285 34.9671 118.561 35.3057C118.842 35.639 119.055 35.9671 119.201 36.29H119.303V30.2744H122.623V46.2744H119.342V44.3525H119.201C119.045 44.6859 118.824 45.0166 118.537 45.3447C118.256 45.6676 117.889 45.9359 117.436 46.1494C116.988 46.363 116.441 46.4697 115.795 46.4697ZM116.85 43.8213C117.386 43.8213 117.839 43.6755 118.209 43.3838C118.584 43.0869 118.87 42.6729 119.068 42.1416C119.271 41.6104 119.373 40.988 119.373 40.2744C119.373 39.5609 119.274 38.9411 119.076 38.415C118.878 37.889 118.592 37.4827 118.217 37.1963C117.842 36.9098 117.386 36.7666 116.85 36.7666C116.303 36.7666 115.842 36.915 115.467 37.2119C115.092 37.5088 114.808 37.9202 114.615 38.4463C114.423 38.9723 114.326 39.5817 114.326 40.2744C114.326 40.9723 114.423 41.5895 114.615 42.126C114.813 42.6572 115.097 43.0739 115.467 43.376C115.842 43.6729 116.303 43.8213 116.85 43.8213ZM125.359 46.2744V34.2744H128.688V46.2744H125.359ZM127.031 32.7275C126.536 32.7275 126.112 32.5635 125.758 32.2354C125.409 31.902 125.234 31.5036 125.234 31.04C125.234 30.5817 125.409 30.1885 125.758 29.8604C126.112 29.527 126.536 29.3604 127.031 29.3604C127.526 29.3604 127.948 29.527 128.297 29.8604C128.651 30.1885 128.828 30.5817 128.828 31.04C128.828 31.5036 128.651 31.902 128.297 32.2354C127.948 32.5635 127.526 32.7275 127.031 32.7275ZM137.736 34.2744V36.7744H130.51V34.2744H137.736ZM132.15 31.3994H135.479V42.5869C135.479 42.8942 135.525 43.1338 135.619 43.3057C135.713 43.4723 135.843 43.5895 136.01 43.6572C136.182 43.7249 136.38 43.7588 136.604 43.7588C136.76 43.7588 136.916 43.7458 137.072 43.7197C137.229 43.6885 137.348 43.665 137.432 43.6494L137.955 46.126C137.788 46.1781 137.554 46.238 137.252 46.3057C136.95 46.3786 136.583 46.4229 136.15 46.4385C135.348 46.4697 134.645 46.363 134.041 46.1182C133.442 45.8734 132.976 45.4932 132.643 44.9775C132.309 44.4619 132.145 43.8109 132.15 43.0244V31.3994ZM150.73 46.2744H145.059V30.2744H150.777C152.387 30.2744 153.772 30.5947 154.934 31.2354C156.095 31.8708 156.988 32.7848 157.613 33.9775C158.243 35.1702 158.559 36.5973 158.559 38.2588C158.559 39.9255 158.243 41.3577 157.613 42.5557C156.988 43.7536 156.09 44.6729 154.918 45.3135C153.751 45.9541 152.355 46.2744 150.73 46.2744ZM148.441 43.376H150.59C151.59 43.376 152.431 43.1989 153.113 42.8447C153.801 42.4854 154.316 41.9307 154.66 41.1807C155.009 40.4255 155.184 39.4515 155.184 38.2588C155.184 37.0765 155.009 36.1104 154.66 35.3604C154.316 34.6104 153.803 34.0583 153.121 33.7041C152.439 33.3499 151.598 33.1729 150.598 33.1729H148.441V43.376ZM166.471 46.5088C165.236 46.5088 164.174 46.2588 163.283 45.7588C162.398 45.2536 161.715 44.54 161.236 43.6182C160.757 42.6911 160.518 41.5947 160.518 40.3291C160.518 39.0947 160.757 38.0114 161.236 37.0791C161.715 36.1468 162.39 35.4202 163.26 34.8994C164.135 34.3786 165.161 34.1182 166.338 34.1182C167.13 34.1182 167.867 34.2458 168.549 34.501C169.236 34.751 169.835 35.1286 170.346 35.6338C170.861 36.139 171.262 36.7744 171.549 37.54C171.835 38.3005 171.979 39.1911 171.979 40.2119V41.126H161.846V39.0635H168.846C168.846 38.5843 168.742 38.1598 168.533 37.79C168.325 37.4202 168.036 37.1312 167.666 36.9229C167.301 36.7093 166.877 36.6025 166.393 36.6025C165.887 36.6025 165.439 36.7197 165.049 36.9541C164.663 37.1833 164.361 37.4932 164.143 37.8838C163.924 38.2692 163.812 38.6989 163.807 39.1729V41.1338C163.807 41.7275 163.916 42.2406 164.135 42.6729C164.359 43.1051 164.674 43.4385 165.08 43.6729C165.486 43.9072 165.968 44.0244 166.525 44.0244C166.895 44.0244 167.234 43.9723 167.541 43.8682C167.848 43.764 168.111 43.6077 168.33 43.3994C168.549 43.1911 168.715 42.9359 168.83 42.6338L171.908 42.8369C171.752 43.5765 171.432 44.2223 170.947 44.7744C170.468 45.3213 169.848 45.7484 169.088 46.0557C168.333 46.3577 167.46 46.5088 166.471 46.5088ZM174.213 46.2744V30.2744H184.807V33.0635H177.596V36.876H184.104V39.665H177.596V46.2744H174.213ZM187.02 46.2744V34.2744H190.348V46.2744H187.02ZM188.691 32.7275C188.197 32.7275 187.772 32.5635 187.418 32.2354C187.069 31.902 186.895 31.5036 186.895 31.04C186.895 30.5817 187.069 30.1885 187.418 29.8604C187.772 29.527 188.197 29.3604 188.691 29.3604C189.186 29.3604 189.608 29.527 189.957 29.8604C190.311 30.1885 190.488 30.5817 190.488 31.04C190.488 31.5036 190.311 31.902 189.957 32.2354C189.608 32.5635 189.186 32.7275 188.691 32.7275Z"
              fill="white"/>
        <path fill-rule="evenodd" clip-rule="evenodd"
              d="M50.9122 129.482L73.3261 151.922L70.2061 155.046L64.1575 148.99V159.385C64.1575 163.326 59.4039 165.293 56.6224 162.509L37.5346 143.399V158.243L49.1315 169.854L46.0115 172.977L24.4438 151.392L27.5638 148.268L33.1121 153.823V143.399C33.1121 139.457 37.8657 137.49 40.6472 140.275L59.735 159.385V144.57L47.7923 132.606L50.9122 129.482Z"
              fill="white"/>
        <path fill-rule="evenodd" clip-rule="evenodd"
              d="M53.6498 128.488C55.7396 130.028 56.5196 131.973 56.3798 134.662C56.2326 137.446 56.1664 142.323 56.1222 145.926C56.0854 148.526 56.0634 150.471 56.0192 150.486C55.1951 149.477 54.3709 148.467 53.5468 147.451C49.4334 142.397 45.32 137.343 41.1993 132.282C41.6481 131.81 42.0381 131.398 42.384 131.022C43.5245 129.799 44.2457 129.033 45.3862 128.053C47.6158 126.138 51.0522 126.285 53.3554 128.215C53.3996 128.252 53.4364 128.289 53.4805 128.326C53.532 128.377 53.5909 128.429 53.6498 128.473V128.488ZM28.8297 158.869C28.8223 158.943 28.815 159.017 28.8003 159.098C23.4212 155.179 22.1482 150.125 28.8665 144.909C28.8665 146.478 28.8665 148.018 28.8665 149.543C28.8665 152.549 28.8665 155.495 28.8665 158.442C28.8665 158.582 28.8518 158.715 28.8297 158.862V158.869ZM44.9153 175.74C42.8255 174.2 42.0455 172.255 42.1853 169.566C42.3325 166.782 42.3987 161.905 42.4428 158.302C42.4796 155.702 42.5017 153.757 42.5459 153.742L45.0036 156.762L45.0257 156.792C49.1317 161.838 53.2377 166.885 57.3585 171.938C56.9096 172.41 56.5196 172.823 56.1737 173.198C55.0332 174.421 54.312 175.187 53.1715 176.167C50.9419 178.083 47.5055 177.935 45.2023 176.005C45.1581 175.968 45.1213 175.931 45.0772 175.895C45.0257 175.843 44.9668 175.791 44.9079 175.747L44.9153 175.74ZM69.7722 145.233V159.275C76.8805 153.654 74.592 148.563 69.7722 145.233Z"
              fill="url(#paint3_linear_256_1716)"/>
        <g style="mix-blend-mode:hard-light">
            <path d="M342.511 133.775L320.609 121.117L298.709 133.624V133.626L320.609 146.282L320.611 146.284L342.511 133.775Z"
                  fill="url(#paint4_linear_256_1716)"/>
            <path d="M298.715 158.802L298.709 158.807L276.824 171.311L298.709 183.959L298.713 183.961H298.715L320.609 171.458V171.456L298.715 158.802Z"
                  fill="url(#paint5_linear_256_1716)"/>
            <path d="M276.805 171.307L254.902 158.649L233.007 171.156L254.902 183.81L254.909 183.814L276.805 171.307Z"
                  fill="#DBDCDD"/>
            <path d="M254.905 108.307H254.907L255.092 108.204L276.8 95.7981L254.902 83.1421L233.002 95.6491L254.902 108.307H254.905Z"
                  fill="url(#paint6_linear_256_1716)"/>
            <path d="M276.809 146.132L276.818 146.128L298.707 133.625L276.818 120.974L276.807 120.967H276.804L254.907 133.474L276.809 146.132Z"
                  fill="url(#paint7_linear_256_1716)"/>
            <path d="M298.708 133.838V159.001L298.721 159.008L320.608 171.657V146.501V146.494L298.708 133.838Z"
                  fill="#BBBDBF"/>
            <path d="M276.82 171.525L276.818 171.523L276.815 171.525V196.684L276.822 196.688L298.707 209.338V209.335V209.338V184.188V184.175L276.82 171.525Z"
                  fill="#BBBDBF"/>
            <path d="M254.902 209.194V184.048V184.026L233 171.368V196.535L233.026 196.551L254.902 209.194Z"
                  fill="#BBBDBF"/>
            <path d="M254.902 133.683V108.52L233 95.8618V121.025L233.011 121.029L254.902 133.683Z" fill="#BBBDBF"/>
            <path d="M254.903 133.687V158.85L254.907 158.852L276.805 171.508V146.345L254.903 133.687Z" fill="#BBBDBF"/>
            <path d="M276.818 171.506L298.707 159.006V159.004V158.999V133.838L276.815 146.339V146.348V171.506H276.818Z"
                  fill="url(#paint8_linear_256_1716)"/>
            <path d="M276.805 96.0107L255.09 108.414L254.905 108.518L254.903 108.52V133.683L254.907 133.685H254.909L276.805 121.178H276.807V121.176V96.0107L276.805 96.0129V96.0107Z"
                  fill="url(#paint9_linear_256_1716)"/>
            <path d="M320.609 171.677L298.724 184.177L298.709 184.186V209.338L298.711 209.34H298.713L320.609 196.833V196.825V171.677Z"
                  fill="url(#paint10_linear_256_1716)"/>
            <path d="M276.805 171.532L254.927 184.034L254.903 184.047V209.193V209.191V209.193V209.191L276.805 196.682V196.677V171.532Z"
                  fill="url(#paint11_linear_256_1716)"/>
        </g>
        <g style="mix-blend-mode:hard-light">
            <path d="M342.511 133.769L320.609 121.111L298.709 133.618V133.62L320.609 146.276L320.611 146.279L342.511 133.769Z"
                  fill="#23C3C4"/>
            <path d="M298.715 158.797L298.709 158.801L276.824 171.306L298.709 183.953L298.713 183.956H298.715L320.609 171.453V171.451L298.715 158.797Z"
                  fill="#23C3C4"/>
            <path d="M276.805 171.302L254.902 158.644L233.007 171.151L254.902 183.804L254.909 183.809L276.805 171.302Z"
                  fill="#23C3C4"/>
            <path d="M254.905 108.302H254.907L255.092 108.198L276.8 95.7927L254.902 83.1367L233.002 95.6437L254.902 108.302H254.905Z"
                  fill="#23C3C4"/>
            <path d="M276.809 146.127L276.818 146.123L298.707 133.62L276.818 120.968L276.807 120.962H276.804L254.907 133.469L276.809 146.127Z"
                  fill="#5A0095"/>
            <path d="M298.708 133.833V158.996L298.721 159.002L320.608 171.652V146.495V146.489L298.708 133.833Z"
                  fill="#177F80"/>
            <path d="M276.82 171.52L276.818 171.518L276.815 171.52V196.678L276.822 196.683L298.707 209.332V209.33V209.332V184.182V184.169L276.82 171.52Z"
                  fill="#177F80"/>
            <path d="M254.902 209.188V184.043V184.021L233 171.363V196.53L233.026 196.545L254.902 209.188Z"
                  fill="#177F80"/>
            <path d="M254.902 133.678V108.515L233 95.8564V121.019L233.011 121.024L254.902 133.678Z" fill="#177F80"/>
            <path d="M254.903 133.682V158.845L254.907 158.847L276.805 171.503V146.34L254.903 133.682Z" fill="#177F80"/>
            <path d="M276.818 171.501L298.707 159V158.998V158.994V133.833L276.815 146.333V146.342V171.501H276.818Z"
                  fill="#3B1A51"/>
            <path d="M276.805 96.0054L255.09 108.409L254.905 108.512L254.903 108.514V133.677L254.907 133.68H254.909L276.805 121.173H276.807V121.171V96.0054L276.805 96.0075V96.0054Z"
                  fill="#3B1A51"/>
            <path d="M320.609 171.671L298.724 184.172L298.709 184.181V209.333L298.711 209.335H298.713L320.609 196.828V196.819V171.671Z"
                  fill="#3B1A51"/>
            <path d="M276.805 171.526L254.927 184.029L254.903 184.042V209.188V209.185V209.188V209.185L276.805 196.676V196.672V171.526Z"
                  fill="#3B1A51"/>
        </g>
    </g>
    <defs>
        <radialGradient id="paint0_radial_256_1716" cx="0" cy="0" r="1" gradientUnits="userSpaceOnUse"
                        gradientTransform="translate(123 74.2744) rotate(90) scale(257)">
            <stop stop-color="#951BEA"/>
            <stop offset="1" stop-color="#20089D" stop-opacity="0"/>
        </radialGradient>
        <radialGradient id="paint1_radial_256_1716" cx="0" cy="0" r="1" gradientUnits="userSpaceOnUse"
                        gradientTransform="translate(192 209.562) rotate(90) scale(209.288)">
            <stop stop-color="#23C3C4" stop-opacity="0.76"/>
            <stop offset="1" stop-color="#23C3C4" stop-opacity="0"/>
        </radialGradient>
        <radialGradient id="paint2_radial_256_1716" cx="0" cy="0" r="1" gradientUnits="userSpaceOnUse"
                        gradientTransform="translate(359 108.274) rotate(90) scale(148)">
            <stop stop-color="#20089D"/>
            <stop offset="1" stop-color="#20089D" stop-opacity="0"/>
        </radialGradient>
        <linearGradient id="paint3_linear_256_1716" x1="32.993" y1="155.446" x2="74.2856" y2="143.264"
                        gradientUnits="userSpaceOnUse">
            <stop stop-color="#23C3C4"/>
            <stop offset="1" stop-color="#A801F1"/>
        </linearGradient>
        <linearGradient id="paint4_linear_256_1716" x1="308.76" y1="126.975" x2="329.727" y2="139.04"
                        gradientUnits="userSpaceOnUse">
            <stop stop-color="#DBDCDD"/>
            <stop offset="0.12" stop-color="#E1E1E2"/>
            <stop offset="0.66" stop-color="#F7F7F7"/>
            <stop offset="1" stop-color="white"/>
        </linearGradient>
        <linearGradient id="paint5_linear_256_1716" x1="287.836" y1="163.84" x2="307.658" y2="177.773"
                        gradientUnits="userSpaceOnUse">
            <stop stop-color="#DBDCDD"/>
            <stop offset="0.12" stop-color="#E1E1E2"/>
            <stop offset="0.66" stop-color="#F7F7F7"/>
            <stop offset="1" stop-color="white"/>
        </linearGradient>
        <linearGradient id="paint6_linear_256_1716" x1="244.03" y1="88.5251" x2="264.232" y2="102.087"
                        gradientUnits="userSpaceOnUse">
            <stop stop-color="#DBDCDD"/>
            <stop offset="0.12" stop-color="#E1E1E2"/>
            <stop offset="0.66" stop-color="#F7F7F7"/>
            <stop offset="1" stop-color="white"/>
        </linearGradient>
        <linearGradient id="paint7_linear_256_1716" x1="264.49" y1="125.823" x2="285.82" y2="139.389"
                        gradientUnits="userSpaceOnUse">
            <stop stop-color="#DBDCDD"/>
            <stop offset="0.12" stop-color="#E1E1E2"/>
            <stop offset="0.66" stop-color="#F7F7F7"/>
            <stop offset="1" stop-color="white"/>
        </linearGradient>
        <linearGradient id="paint8_linear_256_1716" x1="287.762" y1="162.166" x2="287.762" y2="137.524"
                        gradientUnits="userSpaceOnUse">
            <stop stop-color="#D0D2D3"/>
            <stop offset="0.18" stop-color="#E2E3E4"/>
            <stop offset="0.4" stop-color="#F2F3F3"/>
            <stop offset="0.66" stop-color="#FCFCFC"/>
            <stop offset="1" stop-color="white"/>
        </linearGradient>
        <linearGradient id="paint9_linear_256_1716" x1="265.854" y1="127.822" x2="265.854" y2="101.895"
                        gradientUnits="userSpaceOnUse">
            <stop stop-color="#D0D2D3"/>
            <stop offset="0.18" stop-color="#E2E3E4"/>
            <stop offset="0.4" stop-color="#F2F3F3"/>
            <stop offset="0.66" stop-color="#FCFCFC"/>
            <stop offset="1" stop-color="white"/>
        </linearGradient>
        <linearGradient id="paint10_linear_256_1716" x1="309.66" y1="200.721" x2="309.66" y2="176.753"
                        gradientUnits="userSpaceOnUse">
            <stop stop-color="#D0D2D3"/>
            <stop offset="0.18" stop-color="#E2E3E4"/>
            <stop offset="0.4" stop-color="#F2F3F3"/>
            <stop offset="0.66" stop-color="#FCFCFC"/>
            <stop offset="1" stop-color="white"/>
        </linearGradient>
        <linearGradient id="paint11_linear_256_1716" x1="265.854" y1="200.397" x2="265.854" y2="175.117"
                        gradientUnits="userSpaceOnUse">
            <stop stop-color="#D0D2D3"/>
            <stop offset="0.18" stop-color="#E2E3E4"/>
            <stop offset="0.4" stop-color="#F2F3F3"/>
            <stop offset="0.66" stop-color="#FCFCFC"/>
            <stop offset="1" stop-color="white"/>
        </linearGradient>
        <clipPath id="clip0_256_1716">
            <rect y="0.274414" width="320" height="196" rx="10" fill="white"/>
        </clipPath>
    </defs>
</svg>
