<svg width="320" height="197" viewBox="0 0 320 197" fill="none" xmlns="http://www.w3.org/2000/svg">
<g clip-path="url(#clip0_256_1896)">
<rect y="0.599121" width="320" height="196" rx="10" fill="#13111A"/>
<circle cx="123" cy="74.5991" r="257" fill="url(#paint0_radial_256_1896)"/>
<circle cx="269.153" cy="139.9" r="220.153" fill="url(#paint1_radial_256_1896)"/>
<circle cx="359" cy="108.599" r="148" fill="url(#paint2_radial_256_1896)"/>
<path d="M38.7734 30.5991V46.5991H35.8516L28.8906 36.5288H28.7734V46.5991H25.3906V30.5991H28.3594L35.2656 40.6616H35.4063V30.5991H38.7734ZM46.9746 46.8335C45.7402 46.8335 44.6777 46.5835 43.7871 46.0835C42.9017 45.5783 42.2194 44.8647 41.7402 43.9429C41.2611 43.0158 41.0215 41.9194 41.0215 40.6538C41.0215 39.4194 41.2611 38.3361 41.7402 37.4038C42.2194 36.4715 42.8939 35.745 43.7637 35.2241C44.6387 34.7033 45.6647 34.4429 46.8418 34.4429C47.6335 34.4429 48.3704 34.5705 49.0527 34.8257C49.7402 35.0757 50.3392 35.4533 50.8496 35.9585C51.3652 36.4637 51.7663 37.0991 52.0527 37.8647C52.3392 38.6252 52.4824 39.5158 52.4824 40.5366V41.4507H42.3496V39.3882H49.3496C49.3496 38.909 49.2454 38.4845 49.0371 38.1147C48.8288 37.745 48.5397 37.4559 48.1699 37.2476C47.8053 37.034 47.3809 36.9272 46.8965 36.9272C46.3913 36.9272 45.9434 37.0444 45.5527 37.2788C45.1673 37.508 44.8652 37.8179 44.6465 38.2085C44.4277 38.5939 44.3158 39.0236 44.3105 39.4976V41.4585C44.3105 42.0522 44.4199 42.5653 44.6387 42.9976C44.8626 43.4299 45.1777 43.7632 45.584 43.9976C45.9902 44.2319 46.472 44.3491 47.0293 44.3491C47.3991 44.3491 47.7376 44.297 48.0449 44.1929C48.3522 44.0887 48.6152 43.9325 48.834 43.7241C49.0527 43.5158 49.2194 43.2606 49.334 42.9585L52.4121 43.1616C52.2559 43.9012 51.9355 44.547 51.4512 45.0991C50.972 45.646 50.3522 46.0731 49.5918 46.3804C48.8366 46.6825 47.9642 46.8335 46.9746 46.8335ZM60.0762 46.8335C58.8626 46.8335 57.8132 46.5757 56.9277 46.0601C56.0475 45.5392 55.3678 44.8153 54.8887 43.8882C54.4095 42.9559 54.1699 41.8752 54.1699 40.646C54.1699 39.4064 54.4095 38.3231 54.8887 37.396C55.3678 36.4637 56.0475 35.7397 56.9277 35.2241C57.8132 34.7033 58.8626 34.4429 60.0762 34.4429C61.2897 34.4429 62.3366 34.7033 63.2168 35.2241C64.1022 35.7397 64.7845 36.4637 65.2637 37.396C65.7428 38.3231 65.9824 39.4064 65.9824 40.646C65.9824 41.8752 65.7428 42.9559 65.2637 43.8882C64.7845 44.8153 64.1022 45.5392 63.2168 46.0601C62.3366 46.5757 61.2897 46.8335 60.0762 46.8335ZM60.0918 44.2554C60.6439 44.2554 61.1048 44.0991 61.4746 43.7866C61.8444 43.4689 62.123 43.0366 62.3105 42.4897C62.5033 41.9429 62.5996 41.3205 62.5996 40.6226C62.5996 39.9246 62.5033 39.3022 62.3105 38.7554C62.123 38.2085 61.8444 37.7762 61.4746 37.4585C61.1048 37.1408 60.6439 36.9819 60.0918 36.9819C59.5345 36.9819 59.0658 37.1408 58.6855 37.4585C58.3105 37.7762 58.0267 38.2085 57.834 38.7554C57.6465 39.3022 57.5527 39.9246 57.5527 40.6226C57.5527 41.3205 57.6465 41.9429 57.834 42.4897C58.0267 43.0366 58.3105 43.4689 58.6855 43.7866C59.0658 44.0991 59.5345 44.2554 60.0918 44.2554ZM87.418 36.2007H83.9961C83.9336 35.758 83.806 35.3647 83.6133 35.021C83.4206 34.672 83.1732 34.3752 82.8711 34.1304C82.569 33.8856 82.2201 33.6981 81.8242 33.5679C81.4336 33.4377 81.0091 33.3726 80.5508 33.3726C79.7227 33.3726 79.0013 33.5783 78.3867 33.9897C77.7721 34.396 77.2956 34.9897 76.957 35.771C76.6185 36.547 76.4492 37.4897 76.4492 38.5991C76.4492 39.7397 76.6185 40.6981 76.957 41.4741C77.3008 42.2502 77.7799 42.8361 78.3945 43.2319C79.0091 43.6278 79.7201 43.8257 80.5273 43.8257C80.9805 43.8257 81.3997 43.7658 81.7852 43.646C82.1758 43.5262 82.5221 43.3517 82.8242 43.1226C83.1263 42.8882 83.3763 42.6043 83.5742 42.271C83.7773 41.9377 83.918 41.5575 83.9961 41.1304L87.418 41.146C87.3294 41.8804 87.1081 42.5887 86.7539 43.271C86.4049 43.9481 85.9336 44.5549 85.3398 45.0913C84.7513 45.6226 84.0482 46.0444 83.2305 46.3569C82.418 46.6642 81.4987 46.8179 80.4727 46.8179C79.0456 46.8179 77.7695 46.495 76.6445 45.8491C75.5247 45.2033 74.6393 44.2684 73.9883 43.0444C73.3424 41.8205 73.0195 40.3387 73.0195 38.5991C73.0195 36.8543 73.3477 35.37 74.0039 34.146C74.6602 32.922 75.5508 31.9897 76.6758 31.3491C77.8008 30.7033 79.0664 30.3804 80.4727 30.3804C81.3997 30.3804 82.2591 30.5106 83.0508 30.771C83.8477 31.0314 84.5534 31.4116 85.168 31.9116C85.7826 32.4064 86.2826 33.0132 86.668 33.7319C87.0586 34.4507 87.3086 35.2736 87.418 36.2007ZM89.7813 46.5991V34.5991H93.0078V36.6929H93.1328C93.3516 35.9481 93.7188 35.3856 94.2344 35.0054C94.75 34.62 95.3438 34.4272 96.0156 34.4272C96.1823 34.4272 96.362 34.4377 96.5547 34.4585C96.7474 34.4793 96.9167 34.508 97.0625 34.5444V37.4976C96.9063 37.4507 96.6901 37.409 96.4141 37.3726C96.138 37.3361 95.8854 37.3179 95.6563 37.3179C95.1667 37.3179 94.7292 37.4246 94.3438 37.6382C93.9635 37.8465 93.6615 38.1382 93.4375 38.5132C93.2188 38.8882 93.1094 39.3205 93.1094 39.8101V46.5991H89.7813ZM103.693 46.8335C102.459 46.8335 101.396 46.5835 100.506 46.0835C99.6204 45.5783 98.9382 44.8647 98.459 43.9429C97.9798 43.0158 97.7402 41.9194 97.7402 40.6538C97.7402 39.4194 97.9798 38.3361 98.459 37.4038C98.9382 36.4715 99.6126 35.745 100.482 35.2241C101.357 34.7033 102.383 34.4429 103.561 34.4429C104.352 34.4429 105.089 34.5705 105.771 34.8257C106.459 35.0757 107.058 35.4533 107.568 35.9585C108.084 36.4637 108.485 37.0991 108.771 37.8647C109.058 38.6252 109.201 39.5158 109.201 40.5366V41.4507H99.0684V39.3882H106.068C106.068 38.909 105.964 38.4845 105.756 38.1147C105.548 37.745 105.258 37.4559 104.889 37.2476C104.524 37.034 104.1 36.9272 103.615 36.9272C103.11 36.9272 102.662 37.0444 102.271 37.2788C101.886 37.508 101.584 37.8179 101.365 38.2085C101.146 38.5939 101.035 39.0236 101.029 39.4976V41.4585C101.029 42.0522 101.139 42.5653 101.357 42.9976C101.581 43.4299 101.896 43.7632 102.303 43.9976C102.709 44.2319 103.191 44.3491 103.748 44.3491C104.118 44.3491 104.456 44.297 104.764 44.1929C105.071 44.0887 105.334 43.9325 105.553 43.7241C105.771 43.5158 105.938 43.2606 106.053 42.9585L109.131 43.1616C108.975 43.9012 108.654 44.547 108.17 45.0991C107.691 45.646 107.071 46.0731 106.311 46.3804C105.555 46.6825 104.683 46.8335 103.693 46.8335ZM115.795 46.7944C114.883 46.7944 114.058 46.5601 113.318 46.0913C112.584 45.6174 112.001 44.922 111.568 44.0054C111.141 43.0835 110.928 41.9533 110.928 40.6147C110.928 39.2397 111.149 38.0965 111.592 37.1851C112.035 36.2684 112.623 35.5835 113.357 35.1304C114.097 34.672 114.907 34.4429 115.787 34.4429C116.459 34.4429 117.019 34.5575 117.467 34.7866C117.92 35.0106 118.285 35.2918 118.561 35.6304C118.842 35.9637 119.055 36.2918 119.201 36.6147H119.303V30.5991H122.623V46.5991H119.342V44.6772H119.201C119.045 45.0106 118.824 45.3413 118.537 45.6694C118.256 45.9924 117.889 46.2606 117.436 46.4741C116.988 46.6877 116.441 46.7944 115.795 46.7944ZM116.85 44.146C117.386 44.146 117.839 44.0002 118.209 43.7085C118.584 43.4116 118.87 42.9976 119.068 42.4663C119.271 41.9351 119.373 41.3127 119.373 40.5991C119.373 39.8856 119.274 39.2658 119.076 38.7397C118.878 38.2137 118.592 37.8075 118.217 37.521C117.842 37.2345 117.386 37.0913 116.85 37.0913C116.303 37.0913 115.842 37.2397 115.467 37.5366C115.092 37.8335 114.808 38.245 114.615 38.771C114.423 39.297 114.326 39.9064 114.326 40.5991C114.326 41.297 114.423 41.9142 114.615 42.4507C114.813 42.9819 115.097 43.3986 115.467 43.7007C115.842 43.9976 116.303 44.146 116.85 44.146ZM125.359 46.5991V34.5991H128.688V46.5991H125.359ZM127.031 33.0522C126.536 33.0522 126.112 32.8882 125.758 32.5601C125.409 32.2267 125.234 31.8283 125.234 31.3647C125.234 30.9064 125.409 30.5132 125.758 30.1851C126.112 29.8517 126.536 29.6851 127.031 29.6851C127.526 29.6851 127.948 29.8517 128.297 30.1851C128.651 30.5132 128.828 30.9064 128.828 31.3647C128.828 31.8283 128.651 32.2267 128.297 32.5601C127.948 32.8882 127.526 33.0522 127.031 33.0522ZM137.736 34.5991V37.0991H130.51V34.5991H137.736ZM132.15 31.7241H135.479V42.9116C135.479 43.2189 135.525 43.4585 135.619 43.6304C135.713 43.797 135.843 43.9142 136.01 43.9819C136.182 44.0496 136.38 44.0835 136.604 44.0835C136.76 44.0835 136.916 44.0705 137.072 44.0444C137.229 44.0132 137.348 43.9897 137.432 43.9741L137.955 46.4507C137.788 46.5028 137.554 46.5627 137.252 46.6304C136.95 46.7033 136.583 46.7476 136.15 46.7632C135.348 46.7944 134.645 46.6877 134.041 46.4429C133.442 46.1981 132.976 45.8179 132.643 45.3022C132.309 44.7866 132.145 44.1356 132.15 43.3491V31.7241ZM145.059 30.5991H149.23L153.637 41.3491H153.824L158.23 30.5991H162.402V46.5991H159.121V36.1851H158.988L154.848 46.521H152.613L148.473 36.146H148.34V46.5991H145.059V30.5991ZM165.127 46.5991V34.5991H168.455V46.5991H165.127ZM166.799 33.0522C166.304 33.0522 165.88 32.8882 165.525 32.5601C165.176 32.2267 165.002 31.8283 165.002 31.3647C165.002 30.9064 165.176 30.5132 165.525 30.1851C165.88 29.8517 166.304 29.6851 166.799 29.6851C167.294 29.6851 167.715 29.8517 168.064 30.1851C168.419 30.5132 168.596 30.9064 168.596 31.3647C168.596 31.8283 168.419 32.2267 168.064 32.5601C167.715 32.8882 167.294 33.0522 166.799 33.0522ZM176.527 51.3491C175.449 51.3491 174.525 51.2007 173.754 50.9038C172.988 50.6121 172.379 50.2137 171.926 49.7085C171.473 49.2033 171.178 48.6356 171.043 48.0054L174.121 47.5913C174.215 47.8309 174.363 48.0549 174.566 48.2632C174.77 48.4715 175.038 48.6382 175.371 48.7632C175.71 48.8934 176.121 48.9585 176.605 48.9585C177.329 48.9585 177.926 48.7814 178.395 48.4272C178.868 48.0783 179.105 47.4924 179.105 46.6694V44.4741H178.965C178.819 44.8075 178.6 45.1226 178.309 45.4194C178.017 45.7163 177.642 45.9585 177.184 46.146C176.725 46.3335 176.178 46.4272 175.543 46.4272C174.642 46.4272 173.822 46.2189 173.082 45.8022C172.348 45.3804 171.762 44.7371 171.324 43.8726C170.892 43.0028 170.676 41.9038 170.676 40.5757C170.676 39.2163 170.897 38.0809 171.34 37.1694C171.783 36.258 172.371 35.5757 173.105 35.1226C173.845 34.6694 174.655 34.4429 175.535 34.4429C176.207 34.4429 176.77 34.5575 177.223 34.7866C177.676 35.0106 178.04 35.2918 178.316 35.6304C178.598 35.9637 178.814 36.2918 178.965 36.6147H179.09V34.5991H182.395V46.7163C182.395 47.7371 182.145 48.5913 181.645 49.2788C181.145 49.9663 180.452 50.4819 179.566 50.8257C178.686 51.1746 177.673 51.3491 176.527 51.3491ZM176.598 43.9272C177.134 43.9272 177.587 43.7944 177.957 43.5288C178.332 43.258 178.618 42.8726 178.816 42.3726C179.02 41.8674 179.121 41.2632 179.121 40.5601C179.121 39.8569 179.022 39.2476 178.824 38.7319C178.626 38.2111 178.34 37.8075 177.965 37.521C177.59 37.2345 177.134 37.0913 176.598 37.0913C176.051 37.0913 175.59 37.2397 175.215 37.5366C174.84 37.8283 174.556 38.2345 174.363 38.7554C174.171 39.2762 174.074 39.8778 174.074 40.5601C174.074 41.2528 174.171 41.8517 174.363 42.3569C174.561 42.8569 174.845 43.245 175.215 43.521C175.59 43.7918 176.051 43.9272 176.598 43.9272ZM185.043 46.5991V34.5991H188.27V36.6929H188.395C188.613 35.9481 188.98 35.3856 189.496 35.0054C190.012 34.62 190.605 34.4272 191.277 34.4272C191.444 34.4272 191.624 34.4377 191.816 34.4585C192.009 34.4793 192.178 34.508 192.324 34.5444V37.4976C192.168 37.4507 191.952 37.409 191.676 37.3726C191.4 37.3361 191.147 37.3179 190.918 37.3179C190.428 37.3179 189.991 37.4246 189.605 37.6382C189.225 37.8465 188.923 38.1382 188.699 38.5132C188.48 38.8882 188.371 39.3205 188.371 39.8101V46.5991H185.043ZM197.123 46.8257C196.357 46.8257 195.675 46.6929 195.076 46.4272C194.477 46.1564 194.003 45.758 193.654 45.2319C193.311 44.7007 193.139 44.0392 193.139 43.2476C193.139 42.5809 193.261 42.021 193.506 41.5679C193.751 41.1147 194.084 40.7502 194.506 40.4741C194.928 40.1981 195.407 39.9897 195.943 39.8491C196.485 39.7085 197.053 39.6095 197.646 39.5522C198.344 39.4793 198.907 39.4116 199.334 39.3491C199.761 39.2814 200.071 39.1825 200.264 39.0522C200.456 38.922 200.553 38.7293 200.553 38.4741V38.4272C200.553 37.9325 200.396 37.5496 200.084 37.2788C199.777 37.008 199.339 36.8726 198.771 36.8726C198.173 36.8726 197.696 37.0054 197.342 37.271C196.988 37.5314 196.753 37.8595 196.639 38.2554L193.561 38.0054C193.717 37.2762 194.024 36.646 194.482 36.1147C194.941 35.5783 195.532 35.1668 196.256 34.8804C196.985 34.5887 197.829 34.4429 198.787 34.4429C199.454 34.4429 200.092 34.521 200.701 34.6772C201.316 34.8335 201.86 35.0757 202.334 35.4038C202.813 35.7319 203.191 36.1538 203.467 36.6694C203.743 37.1798 203.881 37.7918 203.881 38.5054V46.5991H200.725V44.9351H200.631C200.438 45.3101 200.18 45.6408 199.857 45.9272C199.535 46.2085 199.146 46.4299 198.693 46.5913C198.24 46.7476 197.717 46.8257 197.123 46.8257ZM198.076 44.5288C198.566 44.5288 198.998 44.4325 199.373 44.2397C199.748 44.0418 200.042 43.7762 200.256 43.4429C200.469 43.1095 200.576 42.7319 200.576 42.3101V41.0366C200.472 41.1043 200.329 41.1668 200.146 41.2241C199.969 41.2762 199.769 41.3257 199.545 41.3726C199.321 41.4142 199.097 41.4533 198.873 41.4897C198.649 41.521 198.446 41.5496 198.264 41.5757C197.873 41.633 197.532 41.7241 197.24 41.8491C196.949 41.9741 196.722 42.1434 196.561 42.3569C196.399 42.5653 196.318 42.8257 196.318 43.1382C196.318 43.5913 196.482 43.9377 196.811 44.1772C197.144 44.4116 197.566 44.5288 198.076 44.5288ZM212.846 34.5991V37.0991H205.619V34.5991H212.846ZM207.26 31.7241H210.588V42.9116C210.588 43.2189 210.635 43.4585 210.729 43.6304C210.822 43.797 210.952 43.9142 211.119 43.9819C211.291 44.0496 211.489 44.0835 211.713 44.0835C211.869 44.0835 212.025 44.0705 212.182 44.0444C212.338 44.0132 212.458 43.9897 212.541 43.9741L213.064 46.4507C212.898 46.5028 212.663 46.5627 212.361 46.6304C212.059 46.7033 211.692 46.7476 211.26 46.7632C210.458 46.7944 209.755 46.6877 209.15 46.4429C208.551 46.1981 208.085 45.8179 207.752 45.3022C207.419 44.7866 207.255 44.1356 207.26 43.3491V31.7241ZM215.014 46.5991V34.5991H218.342V46.5991H215.014ZM216.686 33.0522C216.191 33.0522 215.766 32.8882 215.412 32.5601C215.063 32.2267 214.889 31.8283 214.889 31.3647C214.889 30.9064 215.063 30.5132 215.412 30.1851C215.766 29.8517 216.191 29.6851 216.686 29.6851C217.18 29.6851 217.602 29.8517 217.951 30.1851C218.305 30.5132 218.482 30.9064 218.482 31.3647C218.482 31.8283 218.305 32.2267 217.951 32.5601C217.602 32.8882 217.18 33.0522 216.686 33.0522ZM226.43 46.8335C225.216 46.8335 224.167 46.5757 223.281 46.0601C222.401 45.5392 221.721 44.8153 221.242 43.8882C220.763 42.9559 220.523 41.8752 220.523 40.646C220.523 39.4064 220.763 38.3231 221.242 37.396C221.721 36.4637 222.401 35.7397 223.281 35.2241C224.167 34.7033 225.216 34.4429 226.43 34.4429C227.643 34.4429 228.69 34.7033 229.57 35.2241C230.456 35.7397 231.138 36.4637 231.617 37.396C232.096 38.3231 232.336 39.4064 232.336 40.646C232.336 41.8752 232.096 42.9559 231.617 43.8882C231.138 44.8153 230.456 45.5392 229.57 46.0601C228.69 46.5757 227.643 46.8335 226.43 46.8335ZM226.445 44.2554C226.997 44.2554 227.458 44.0991 227.828 43.7866C228.198 43.4689 228.477 43.0366 228.664 42.4897C228.857 41.9429 228.953 41.3205 228.953 40.6226C228.953 39.9246 228.857 39.3022 228.664 38.7554C228.477 38.2085 228.198 37.7762 227.828 37.4585C227.458 37.1408 226.997 36.9819 226.445 36.9819C225.888 36.9819 225.419 37.1408 225.039 37.4585C224.664 37.7762 224.38 38.2085 224.188 38.7554C224 39.3022 223.906 39.9246 223.906 40.6226C223.906 41.3205 224 41.9429 224.188 42.4897C224.38 43.0366 224.664 43.4689 225.039 43.7866C225.419 44.0991 225.888 44.2554 226.445 44.2554ZM237.828 39.6616V46.5991H234.5V34.5991H237.672V36.7163H237.812C238.078 36.0184 238.523 35.4663 239.148 35.0601C239.773 34.6486 240.531 34.4429 241.422 34.4429C242.255 34.4429 242.982 34.6252 243.602 34.9897C244.221 35.3543 244.703 35.8752 245.047 36.5522C245.391 37.2241 245.563 38.0262 245.563 38.9585V46.5991H242.234V39.5522C242.24 38.8179 242.052 38.245 241.672 37.8335C241.292 37.4168 240.768 37.2085 240.102 37.2085C239.654 37.2085 239.258 37.3049 238.914 37.4976C238.576 37.6903 238.31 37.9715 238.117 38.3413C237.93 38.7059 237.833 39.146 237.828 39.6616Z" fill="white"/>
<path d="M55.3235 169.151L42.4766 153.711V165.324C42.4766 165.442 42.4766 165.56 42.4692 165.679H47.0421C47.67 165.679 48.0099 166.417 47.6036 166.898L43.3262 171.929L36.3597 179.552C36.2932 179.634 36.1898 179.685 36.079 179.685C35.9682 179.685 35.8721 179.641 35.7983 179.552L24.8277 166.654C24.6874 166.484 24.7539 166.314 24.776 166.262C24.7982 166.211 24.8942 166.048 25.1085 166.048H29.7922V161.401L29.0534 165.309H25.1085C24.6726 165.309 24.2885 165.553 24.1038 165.952C23.9191 166.351 23.9856 166.802 24.2663 167.134L35.2294 180.033C35.4437 180.284 35.7465 180.424 36.0716 180.424C36.3966 180.424 36.7069 180.284 36.9138 180.033L43.3336 172.475L44.7076 173.849C44.9958 174.137 45.306 174.389 45.6385 174.61C45.801 174.721 45.9709 174.817 46.1408 174.906C48.2019 175.984 50.7654 175.77 52.6197 174.256C52.7748 174.13 52.9226 173.997 53.0703 173.849L56.572 170.348L56.4686 170.259C56.0475 169.934 55.6634 169.572 55.3162 169.158L55.3235 169.151Z" fill="white"/>
<path d="M73.7337 136.882L62.7706 123.991C62.5563 123.739 62.2535 123.599 61.9284 123.599C61.6034 123.599 61.2931 123.739 61.0862 123.991L54.6591 131.548L53.0707 129.96C52.0513 128.94 50.7437 128.371 49.4065 128.253C48.786 128.202 48.158 128.253 47.5449 128.386C46.5106 128.63 45.5207 129.147 44.7154 129.952L41.3024 133.365C41.8121 133.735 42.2775 134.156 42.6838 134.644L55.5308 150.083V138.33H50.9727C50.6255 138.33 50.3669 138.108 50.2709 137.82C50.197 137.591 50.2265 137.325 50.4112 137.111L54.6886 132.08L61.6477 124.471C61.7142 124.39 61.8176 124.338 61.9284 124.338C62.0392 124.338 62.1353 124.382 62.2091 124.471L73.1723 137.37C73.3126 137.539 73.2461 137.709 73.224 137.761C73.2018 137.813 73.1058 137.975 72.8915 137.975H68.2078V142.622L68.9466 138.714H72.8915C73.3274 138.714 73.7115 138.47 73.8962 138.071C74.0809 137.672 74.0144 137.222 73.7337 136.889V136.882Z" fill="white"/>
<path d="M26.9546 156.082L29.422 158.55V145.252L26.9546 147.719C25.9425 148.732 25.3736 150.017 25.248 151.332C25.2333 151.517 25.2185 151.709 25.2185 151.901C25.2185 152.278 25.2554 152.654 25.3293 153.031C25.5435 154.147 26.0902 155.218 26.9546 156.082Z" fill="white"/>
<path d="M68.5758 145.466V158.335L70.8216 156.082C73.1266 153.777 73.1266 150.032 70.8216 147.727L68.5684 145.474L68.5758 145.466Z" fill="white"/>
<path d="M266.199 63.3606C264.8 71.0259 264.847 78.6158 266.121 85.856L255.234 85.5908C252.962 85.534 251.48 87.9592 252.566 89.9562L274.132 129.491C275.218 131.488 278.065 131.557 279.251 129.617L302.709 91.1742C303.895 89.234 302.53 86.7398 300.258 86.683L287.947 86.3832C287.515 80.9661 287.772 75.4059 288.787 69.7988C294.783 36.9082 324.979 14.5274 357.677 17.6326C352.394 14.9922 346.661 13.0442 340.558 11.9236C305.819 5.58987 272.523 28.6247 266.189 63.3632L266.199 63.3606Z" fill="url(#paint3_linear_256_1896)"/>
<path d="M262.194 62.8528C260.795 70.5182 260.842 78.108 262.117 85.3483L251.229 85.0831C248.957 85.0263 247.475 87.4514 248.561 89.4484L270.127 128.983C271.213 130.98 274.061 131.05 275.246 129.109L298.705 90.6664C299.89 88.7263 298.525 86.232 296.253 86.1752L283.942 85.8754C283.51 80.4584 283.767 74.8981 284.782 69.291C290.788 36.3978 320.981 14.0074 353.682 17.1222C348.399 14.4819 342.666 12.5338 336.563 11.4132C301.824 5.07953 268.528 28.1143 262.194 62.8528Z" fill="url(#paint4_linear_256_1896)"/>
<path d="M263.044 62.8436C261.645 70.5089 261.693 78.0988 262.967 85.339L252.08 85.0738C249.808 85.017 248.325 87.4422 249.412 89.4392L270.977 128.974C272.064 130.971 274.911 131.04 276.097 129.1L299.555 90.6572C300.741 88.717 299.376 86.2228 297.103 86.1659L284.793 85.8662C284.36 80.4491 284.618 74.8889 285.632 69.2818C291.636 36.3789 321.832 13.9981 354.52 17.1059C349.237 14.4655 343.504 12.5175 337.401 11.3969C302.662 5.06317 269.366 28.098 263.032 62.8365L263.044 62.8436Z" fill="url(#paint5_radial_256_1896)"/>
<path d="M245.899 155.334C247.298 147.669 247.251 140.079 245.976 132.838L256.863 133.104C259.135 133.161 260.618 130.735 259.531 128.738L237.966 89.2033C236.879 87.2063 234.032 87.1372 232.846 89.0774L209.388 127.52C208.202 129.461 209.568 131.955 211.84 132.012L224.151 132.311C224.583 137.728 224.325 143.289 223.311 148.896C217.314 181.786 187.118 204.167 154.42 201.062C159.704 203.702 165.436 205.65 171.54 206.771C206.278 213.105 239.575 190.07 245.909 155.331L245.899 155.334Z" fill="url(#paint6_linear_256_1896)"/>
<path d="M242.071 153.78C243.47 146.115 243.423 138.525 242.149 131.285L253.036 131.55C255.308 131.607 256.79 129.182 255.704 127.185L234.138 87.6497C233.052 85.6527 230.205 85.5836 229.019 87.5238L205.561 125.967C204.375 127.907 205.74 130.401 208.012 130.458L220.323 130.758C220.755 136.175 220.498 141.735 219.483 147.342C213.477 180.235 183.284 202.626 150.583 199.511C155.867 202.151 161.599 204.099 167.703 205.22C202.441 211.554 235.738 188.519 242.071 153.78Z" fill="url(#paint7_linear_256_1896)"/>
<path d="M243.162 153.27C244.561 145.604 244.513 138.014 243.239 130.774L254.126 131.039C256.398 131.096 257.88 128.671 256.794 126.674L235.229 87.1389C234.142 85.1419 231.295 85.0729 230.109 87.013L206.651 125.456C205.465 127.396 206.83 129.89 209.102 129.947L221.413 130.247C221.846 135.664 221.588 141.224 220.574 146.831C214.57 179.734 184.374 202.115 151.686 199.007C156.969 201.648 162.702 203.596 168.805 204.716C203.544 211.05 236.84 188.015 243.174 153.277L243.162 153.27Z" fill="url(#paint8_radial_256_1896)"/>
</g>
<defs>
<radialGradient id="paint0_radial_256_1896" cx="0" cy="0" r="1" gradientUnits="userSpaceOnUse" gradientTransform="translate(123 74.5991) rotate(90) scale(257)">
<stop stop-color="#9220EA"/>
<stop offset="1" stop-color="#20089D" stop-opacity="0"/>
</radialGradient>
<radialGradient id="paint1_radial_256_1896" cx="0" cy="0" r="1" gradientUnits="userSpaceOnUse" gradientTransform="translate(269.153 139.9) rotate(90) scale(220.153)">
<stop stop-color="#23C3C4" stop-opacity="0.8"/>
<stop offset="1" stop-color="#23C3C4" stop-opacity="0"/>
</radialGradient>
<radialGradient id="paint2_radial_256_1896" cx="0" cy="0" r="1" gradientUnits="userSpaceOnUse" gradientTransform="translate(359 108.599) rotate(90) scale(148)">
<stop stop-color="#20089D"/>
<stop offset="1" stop-color="#20089D" stop-opacity="0"/>
</radialGradient>
<linearGradient id="paint3_linear_256_1896" x1="351.97" y1="64.2749" x2="250.258" y2="75.2427" gradientUnits="userSpaceOnUse">
<stop stop-color="#5E4091"/>
<stop offset="1" stop-color="#2099AD"/>
</linearGradient>
<linearGradient id="paint4_linear_256_1896" x1="351.964" y1="64.2773" x2="250.253" y2="75.2459" gradientUnits="userSpaceOnUse">
<stop stop-color="#1DE1FF"/>
<stop offset="1" stop-color="#08F5FF"/>
</linearGradient>
<radialGradient id="paint5_radial_256_1896" cx="0" cy="0" r="1" gradientUnits="userSpaceOnUse" gradientTransform="translate(256.575 122.049) rotate(-108.35) scale(130.987 130.987)">
<stop stop-color="#B94EFF"/>
<stop offset="1" stop-color="#00FDFF"/>
</radialGradient>
<linearGradient id="paint6_linear_256_1896" x1="254.196" y1="140.212" x2="152.608" y2="151.012" gradientUnits="userSpaceOnUse">
<stop stop-color="#5E4091"/>
<stop offset="1" stop-color="#2099AD"/>
</linearGradient>
<linearGradient id="paint7_linear_256_1896" x1="254.19" y1="140.214" x2="152.602" y2="151.015" gradientUnits="userSpaceOnUse">
<stop stop-color="#1DE1FF"/>
<stop offset="1" stop-color="#08F5FF"/>
</linearGradient>
<radialGradient id="paint8_radial_256_1896" cx="0" cy="0" r="1" gradientUnits="userSpaceOnUse" gradientTransform="translate(249.631 94.0646) rotate(71.65) scale(130.987)">
<stop stop-color="#B94EFF"/>
<stop offset="1" stop-color="#00FDFF"/>
</radialGradient>
<clipPath id="clip0_256_1896">
<rect y="0.599121" width="320" height="196" rx="10" fill="white"/>
</clipPath>
</defs>
</svg>
