<svg width="320" height="196" viewBox="0 0 320 196" fill="none" xmlns="http://www.w3.org/2000/svg">
<g clip-path="url(#clip0_1106_3002)">
<rect width="320" height="196" rx="10" fill="#090438"/>
<path d="M32.6088 25.8364V28.8151C31.7519 28.203 30.4054 27.8358 29.3037 27.8358C28.2021 27.8358 27.5492 28.2438 27.5492 28.8559C27.5492 29.4679 28.2021 29.7535 29.3854 30.2024C31.1807 30.8552 33.3841 31.7121 33.3841 34.3235C33.3841 36.8125 31.5071 38.5262 28.4061 38.5262C26.7739 38.5262 25.2642 38.0366 24.3257 37.3838V34.2419C25.2642 35.0172 26.6923 35.6292 28.0388 35.6292C29.2629 35.6292 29.9974 35.1396 29.9974 34.4051C29.9974 33.6299 29.0997 33.3034 27.8348 32.8138C26.3251 32.2425 24.2441 31.3449 24.2441 28.9375C24.2441 26.6525 26.0395 24.8979 29.0589 24.8979C30.4462 24.9388 31.6703 25.306 32.6088 25.8364Z" fill="white"/>
<path d="M34.5684 33.4257C34.5684 30.3246 36.6901 28.2437 38.8935 28.2437C40.3624 28.2437 41.3825 28.9781 41.9946 29.8758L42.321 28.4885H45.0956V38.2813H42.321L41.9946 36.8939C41.3825 37.7916 40.3624 38.5261 38.8935 38.5261C36.6901 38.5261 34.5684 36.4451 34.5684 33.4257ZM41.8721 33.3849C41.8721 32.0792 41.0153 31.1407 39.8728 31.1407C38.6895 31.1407 37.8326 32.12 37.8326 33.3849C37.8326 34.6498 38.6895 35.629 39.8728 35.629C41.0153 35.629 41.8721 34.6906 41.8721 33.3849Z" fill="white"/>
<path d="M47.9913 31.1814H46.6855V28.4884H48.0321V27.6723C48.0321 25.8361 49.3786 24 52.0716 24C52.806 24 53.3365 24.0816 54.0301 24.2856V27.0194C53.6629 26.897 53.2141 26.8154 52.6836 26.8154C51.7452 26.8154 51.2147 27.1419 51.2147 27.9171V28.4884H53.7037V31.1814H51.2555V38.2812H47.9913V31.1814ZM55.1726 25.7545C55.1726 24.8161 55.9071 24.0408 56.8864 24.0408C57.8248 24.0408 58.6001 24.8161 58.6001 25.7545C58.6001 26.7338 57.8248 27.4683 56.8864 27.4683C55.9071 27.4683 55.1726 26.7338 55.1726 25.7545ZM55.2542 28.4884H58.5185V38.2812H55.2542V28.4884Z" fill="white"/>
<path d="M60.6406 28.4886H63.252L63.5785 29.9167H63.6193C64.2721 28.7742 65.333 28.3662 66.2307 28.3662C66.5163 28.3662 66.7611 28.3662 66.9651 28.4478V31.4673C66.6795 31.3857 66.3939 31.3449 66.1083 31.3449C64.9658 31.3449 63.9049 31.9569 63.9049 33.7114V38.1998H60.6406V28.4886Z" fill="white"/>
<path d="M30.9366 52.0731C31.5486 52.0731 32.0791 51.9507 32.5279 51.7058V47.7071H35.5473V53.6236C34.2824 54.4805 32.7727 55.0517 30.855 55.0517C27.1827 55.0517 24 52.3995 24 48.1967C24 43.994 27.2235 41.3418 30.8958 41.3418C32.5687 41.3418 33.9152 41.7498 34.9761 42.3619V45.5853C33.8336 44.7285 32.4871 44.402 31.3038 44.402C28.8964 44.402 27.3459 46.075 27.3459 48.2376C27.3459 50.4817 28.8556 52.0731 30.9366 52.0731Z" fill="white"/>
<path d="M37.4238 40.6885H40.6881V54.8064H37.4238V40.6885Z" fill="white"/>
<path d="M42.2793 49.8692C42.2793 46.7682 44.6051 44.728 47.5429 44.728C50.4808 44.728 52.7657 46.809 52.7657 49.8692C52.7657 52.9295 50.4808 55.0513 47.5429 55.0513C44.6051 55.0513 42.2793 52.9295 42.2793 49.8692ZM49.5015 49.8692C49.5015 48.4411 48.5222 47.6251 47.5429 47.6251C46.5636 47.6251 45.5844 48.4411 45.5844 49.8692C45.5844 51.2974 46.5636 52.1134 47.5429 52.1134C48.5222 52.1134 49.5015 51.2974 49.5015 49.8692Z" fill="white"/>
<path d="M57.6217 46.3193C58.1929 45.3809 59.417 44.728 60.6411 44.728C62.8853 44.728 64.8439 46.7274 64.8439 49.91C64.8439 53.0519 62.7221 55.0512 60.4779 55.0512C59.0906 55.0512 58.0297 54.3168 57.4177 53.4191L57.132 54.8064H54.3574V40.6885H57.6217V46.3193ZM57.6217 49.8692C57.6217 51.1749 58.4377 52.1134 59.621 52.1134C60.8043 52.1134 61.6204 51.1341 61.6204 49.8692C61.6204 48.6043 60.7635 47.5842 59.5802 47.5842C58.4378 47.625 57.6217 48.5635 57.6217 49.8692Z" fill="white"/>
<path d="M66.0273 49.91C66.0273 46.809 68.1491 44.728 70.3525 44.728C71.8214 44.728 72.8415 45.4625 73.4535 46.3602L73.78 44.9728H76.5546V54.7656H73.78L73.4535 53.3783C72.8415 54.276 71.8214 55.0105 70.3525 55.0105C68.1491 55.0513 66.0273 52.9295 66.0273 49.91ZM73.3311 49.8692C73.3311 48.5635 72.4743 47.6251 71.3726 47.6251C70.1893 47.6251 69.3324 48.6043 69.3324 49.8692C69.3324 51.1341 70.1893 52.1134 71.3726 52.1134C72.4743 52.1134 73.3311 51.1749 73.3311 49.8692Z" fill="white"/>
<path d="M78.6348 40.6885H81.899V54.8064H78.6348V40.6885Z" fill="white"/>
<path d="M32.6088 58.8047V61.7833C31.7519 61.1713 30.4054 60.804 29.3037 60.804C28.2021 60.804 27.5492 61.2121 27.5492 61.8241C27.5492 62.4362 28.2021 62.7218 29.3854 63.1706C31.1807 63.8235 33.3841 64.6804 33.3841 67.2918C33.3841 69.7808 31.5071 71.4945 28.4061 71.4945C26.7739 71.4945 25.2642 71.0049 24.3257 70.352V67.2102C25.2642 67.9854 26.6923 68.5975 28.0388 68.5975C29.2629 68.5975 29.9974 68.1078 29.9974 67.3734C29.9974 66.5981 29.0997 66.2717 27.8348 65.782C26.3251 65.2108 24.2441 64.3131 24.2441 61.9057C24.2441 59.6208 26.0395 57.8662 29.0589 57.8662C30.4462 57.907 31.6703 58.2742 32.6088 58.8047Z" fill="white"/>
<path d="M34.9355 67.2103V61.457H38.1998V67.1695C38.1998 68.1488 38.6895 68.5976 39.5463 68.5976C40.444 68.5976 40.9336 68.108 40.9336 67.1695V61.457H44.1979V67.2103C44.1979 69.6993 42.4434 71.5354 39.5463 71.5354C36.6493 71.5354 34.9355 69.6993 34.9355 67.2103Z" fill="white"/>
<path d="M60.56 64.8029V71.2499H57.2958V65.4966C57.2958 64.5581 57.0101 64.1501 56.1941 64.1501C55.4188 64.1501 55.0108 64.6805 55.0108 65.3742V71.2907H51.7465V65.5374C51.7465 64.5989 51.4609 64.1909 50.6448 64.1909C49.8288 64.1909 49.4615 64.8029 49.4615 65.5374V71.3315H46.1973V61.5387H48.7271L49.0535 62.8852H49.1351C49.6655 62.0283 50.4816 61.2939 51.8689 61.2939C53.2562 61.2939 54.1131 61.9467 54.6027 62.926C55.2556 61.9059 56.1941 61.2939 57.4182 61.2939C59.5399 61.2122 60.56 62.6404 60.56 64.8029Z" fill="white"/>
<path d="M77.0034 64.8029V71.2499H73.7391V65.4966C73.7391 64.5581 73.4535 64.1501 72.6374 64.1501C71.8622 64.1501 71.4541 64.6805 71.4541 65.3742V71.2907H68.1899V65.5374C68.1899 64.5989 67.9042 64.1909 67.0882 64.1909C66.2721 64.1909 65.9049 64.8029 65.9049 65.5374V71.3315H62.6406V61.5387H65.1704L65.4969 62.8852H65.5785C66.1089 62.0283 66.925 61.2939 68.3123 61.2939C69.6996 61.2939 70.5565 61.9467 71.0461 62.926C71.699 61.9059 72.6374 61.2939 73.8615 61.2939C75.9425 61.2122 77.0034 62.6404 77.0034 64.8029Z" fill="white"/>
<path d="M78.9199 58.7235C78.9199 57.785 79.6544 57.0098 80.6337 57.0098C81.5721 57.0098 82.3474 57.785 82.3474 58.7235C82.3474 59.7028 81.5721 60.4372 80.6337 60.4372C79.6952 60.4372 78.9199 59.7028 78.9199 58.7235ZM79.0423 61.4573H82.3066V71.2501H79.0423V61.4573Z" fill="white"/>
<path d="M88.1837 61.4571H90.7543V64.1501H88.1837V67.1695C88.1837 68.2712 88.9589 68.7201 90.0198 68.7201C90.2646 68.7201 90.5911 68.6793 90.8767 68.6384V71.3723C90.387 71.4947 89.9382 71.5355 89.2038 71.5355C86.4291 71.5355 85.0418 69.9034 85.0418 67.3735V64.1501H83.6953V61.4571H85.0418V59.2129H88.1837V61.4571Z" fill="white"/>
<path d="M31.8335 83.002C31.8335 84.6341 30.6094 85.9398 28.202 85.9398H24.9785V75.127H27.998C30.2421 75.127 31.4254 76.3102 31.4254 77.9016C31.4254 79.2073 30.7318 79.9825 29.7933 80.3498C31.1398 80.7986 31.8335 81.7371 31.8335 83.002ZM25.9578 79.9825H27.998C29.5485 79.9825 30.4054 79.1665 30.4054 77.9832C30.4054 76.7591 29.5077 76.1062 28.1204 76.1062H25.917L25.9578 79.9825ZM30.8134 82.9612C30.8134 81.6555 29.7117 80.921 28.2836 80.921H25.9578V85.0422H28.202C29.8749 85.0013 30.8134 84.1445 30.8134 82.9612Z" fill="white"/>
<path d="M33.9141 83.0426V78.187H34.8933V83.0834C34.8933 84.3891 35.6686 85.2052 36.9335 85.2052C38.1984 85.2052 39.0553 84.3891 39.0553 83.0834V78.187H40.0346V83.0426C40.0346 84.8787 38.8513 86.1437 36.9335 86.1437C35.0566 86.1437 33.9141 84.8787 33.9141 83.0426Z" fill="white"/>
<path d="M42.0742 82.0632C42.0742 79.5742 43.788 77.9828 45.6241 77.9828C46.7258 77.9828 47.8683 78.5541 48.4395 79.5742V74.3105H49.4188V85.9395H48.6027L48.4803 84.4298C47.8683 85.5723 46.7258 86.1027 45.6241 86.1027C43.788 86.1435 42.0742 84.5522 42.0742 82.0632ZM48.4803 82.0632C48.4803 80.227 47.2562 78.9621 45.7873 78.9621C44.2776 78.9621 43.0943 80.1862 43.0943 82.0632C43.0943 83.9401 44.2776 85.1642 45.7873 85.1642C47.297 85.1642 48.4803 83.8993 48.4803 82.0632Z" fill="white"/>
<path d="M51.541 82.0637C51.541 79.5747 53.2548 77.9834 55.0909 77.9834C56.1926 77.9834 57.3351 78.5138 57.9471 79.6563L58.0695 78.1466H58.8856V85.94H58.0695L57.9471 84.4303C57.3351 85.5728 56.1926 86.1032 55.0909 86.1032C53.2548 86.1441 51.541 84.5527 51.541 82.0637ZM57.9471 82.0637C57.9471 80.2276 56.723 78.9627 55.2541 78.9627C53.7444 78.9627 52.5611 80.1868 52.5611 82.0637C52.5611 83.9407 53.7444 85.1648 55.2541 85.1648C56.723 85.1648 57.9471 83.8999 57.9471 82.0637Z" fill="white"/>
<path d="M61.498 78.1466H62.2733L62.3957 79.6563C63.0078 78.5138 64.1503 77.9834 65.2519 77.9834C67.1289 77.9834 68.8426 79.5747 68.8426 82.0229C68.8426 84.5527 67.1289 86.1032 65.2519 86.1032C64.1503 86.1032 63.0078 85.532 62.4773 84.5119V89.0003H61.498V78.1466ZM67.8634 82.0637C67.8634 80.2276 66.6801 78.9627 65.1703 78.9627C63.6606 78.9627 62.4773 80.2276 62.4773 82.0637C62.4773 83.8999 63.6606 85.1648 65.1703 85.1648C66.6801 85.1648 67.8634 83.9407 67.8634 82.0637Z" fill="white"/>
<path d="M77.411 82.4312H71.4537C71.6169 84.1449 72.7186 85.2058 74.3099 85.2058C75.2076 85.2058 76.1461 84.8794 77.0029 84.1041V85.2058C76.1869 85.8178 75.2892 86.1443 74.2691 86.1443C71.9433 86.1443 70.4336 84.5529 70.4336 82.1047C70.4336 79.5749 72.1881 78.0244 74.1467 78.0244C75.942 78.0244 77.411 79.3709 77.411 81.9415C77.4518 82.1047 77.411 82.268 77.411 82.4312ZM76.4725 81.5743C76.4317 79.7382 75.2892 78.9221 74.1467 78.9221C72.841 78.9221 71.6577 79.9422 71.4537 81.5743H76.4725Z" fill="white"/>
<path d="M84.1028 78.6765V79.7782C83.5315 79.2885 82.7155 78.9213 81.777 78.9213C80.7161 78.9213 80.1041 79.411 80.1041 80.1454C80.1041 80.9615 80.8385 81.2063 81.981 81.5735C83.1643 81.9408 84.5108 82.308 84.5108 83.8585C84.5108 85.2458 83.4499 86.1435 81.7362 86.1435C80.7569 86.1435 79.8184 85.8579 79.084 85.2458V84.0625C79.696 84.7154 80.5937 85.2458 81.7362 85.2458C82.8787 85.2458 83.5723 84.6746 83.5723 83.9401C83.5723 83.0833 82.7563 82.7976 81.6138 82.4304C80.3081 82.0224 79.1656 81.6551 79.1656 80.3086C79.1656 79.0437 80.2265 78.1053 81.8586 78.1053C82.6747 77.9828 83.5723 78.2685 84.1028 78.6765Z" fill="white"/>
<path d="M87.8149 78.1462H90.0999V79.0439H87.8149V83.2874C87.8149 84.5931 88.5494 85.1236 89.6103 85.1236C89.8143 85.1236 90.0591 85.0828 90.3039 85.042V85.9396C90.2223 85.9396 89.8959 86.0212 89.4878 86.0212C87.9373 86.0212 86.8356 85.0828 86.8356 83.3282V79.0439H85.6523V78.1462H86.8764V76.3101H87.8557L87.8149 78.1462Z" fill="white"/>
<path d="M172.585 62.5522C172.585 62.5522 171.326 61.6534 171.326 60.9342V51.9454H173.843V60.9342C173.843 61.6534 172.585 62.5522 172.585 62.5522Z" stroke="white" stroke-miterlimit="10" stroke-linecap="round" stroke-linejoin="round"/>
<path d="M223.283 19.4054C223.283 19.4054 223.283 69.9229 223.283 72.7994C223.283 73.5185 221.844 78.5522 221.844 78.5522C221.844 78.5522 220.406 73.3387 220.406 72.7994C220.406 70.4623 220.406 19.4054 220.406 19.4054" stroke="white" stroke-miterlimit="10" stroke-linecap="round" stroke-linejoin="round"/>
<path d="M166.473 48.8887H178.698" stroke="white" stroke-miterlimit="10" stroke-linecap="round" stroke-linejoin="round"/>
<path d="M166.473 23.7207H178.698" stroke="white" stroke-miterlimit="10" stroke-linecap="round" stroke-linejoin="round"/>
<path d="M280.99 23.7207H293.035" stroke="white" stroke-miterlimit="10" stroke-linecap="round" stroke-linejoin="round"/>
<path d="M168.27 66.1479H176.899" stroke="white" stroke-miterlimit="10" stroke-linecap="round" stroke-linejoin="round"/>
<path d="M170.248 69.3841V69.7437" stroke="white" stroke-miterlimit="10" stroke-linecap="round" stroke-linejoin="round"/>
<path d="M170.248 74.0574V74.417" stroke="white" stroke-miterlimit="10" stroke-linecap="round" stroke-linejoin="round"/>
<path d="M170.248 78.7322V79.0918" stroke="white" stroke-miterlimit="10" stroke-linecap="round" stroke-linejoin="round"/>
<path d="M172.584 69.3841V69.7437" stroke="white" stroke-miterlimit="10" stroke-linecap="round" stroke-linejoin="round"/>
<path d="M172.584 74.0574V74.417" stroke="white" stroke-miterlimit="10" stroke-linecap="round" stroke-linejoin="round"/>
<path d="M172.584 78.7322V79.0918" stroke="white" stroke-miterlimit="10" stroke-linecap="round" stroke-linejoin="round"/>
<path d="M172.584 83.4066V83.7661" stroke="white" stroke-miterlimit="10" stroke-linecap="round" stroke-linejoin="round"/>
<path d="M174.922 69.3841V69.7437" stroke="white" stroke-miterlimit="10" stroke-linecap="round" stroke-linejoin="round"/>
<path d="M174.922 74.0574V74.417" stroke="white" stroke-miterlimit="10" stroke-linecap="round" stroke-linejoin="round"/>
<path d="M174.922 78.7322V79.0918" stroke="white" stroke-miterlimit="10" stroke-linecap="round" stroke-linejoin="round"/>
<path d="M172.584 87.9006V88.4399" stroke="white" stroke-miterlimit="10" stroke-linecap="round" stroke-linejoin="round"/>
<path d="M172.584 92.5754V93.1147" stroke="white" stroke-miterlimit="10" stroke-linecap="round" stroke-linejoin="round"/>
<path d="M233.349 50.1471C233.349 48.1696 231.731 46.5516 229.754 46.5516C227.776 46.5516 226.158 48.1696 226.158 50.1471C226.158 52.1247 227.776 53.7427 229.754 53.7427C231.731 53.7427 233.349 52.1247 233.349 50.1471Z" stroke="white" stroke-miterlimit="10" stroke-linecap="round" stroke-linejoin="round"/>
<path d="M225.439 67.2261C225.439 66.6867 224.899 66.1474 224.36 66.1474C223.821 66.1474 223.281 66.6867 223.281 67.2261" stroke="white" stroke-miterlimit="10" stroke-linecap="round" stroke-linejoin="round"/>
<path d="M227.597 67.2261C227.597 66.6867 227.057 66.1474 226.518 66.1474C225.979 66.1474 225.439 66.6867 225.439 67.2261" stroke="white" stroke-miterlimit="10" stroke-linecap="round" stroke-linejoin="round"/>
<path d="M229.753 67.2261C229.753 66.6867 229.214 66.1474 228.674 66.1474C228.135 66.1474 227.596 66.6867 227.596 67.2261" stroke="white" stroke-miterlimit="10" stroke-linecap="round" stroke-linejoin="round"/>
<path d="M225.439 57.1587H229.754" stroke="white" stroke-miterlimit="10" stroke-linecap="round" stroke-linejoin="round"/>
<path d="M225.439 63.2715V59.1366" stroke="white" stroke-miterlimit="10" stroke-linecap="round" stroke-linejoin="round"/>
<path d="M227.596 63.2715V59.1366" stroke="white" stroke-miterlimit="10" stroke-linecap="round" stroke-linejoin="round"/>
<path d="M229.754 63.2715V59.1366" stroke="white" stroke-miterlimit="10" stroke-linecap="round" stroke-linejoin="round"/>
<path d="M231.731 50.147C231.731 50.6863 231.371 51.0458 230.832 51.2256C230.652 51.765 230.292 52.1245 229.753 52.1245C229.214 52.1245 228.854 51.765 228.674 51.2256C228.135 51.0458 227.775 50.6863 227.775 50.147C227.775 49.6076 228.135 49.2481 228.674 49.0683C228.854 48.529 229.214 48.1694 229.753 48.1694C230.292 48.1694 230.652 48.529 230.832 49.0683C231.371 49.0683 231.731 49.6076 231.731 50.147Z" stroke="white" stroke-miterlimit="10" stroke-linecap="round" stroke-linejoin="round"/>
<path d="M236.406 19.4054C236.406 19.4054 236.406 69.9229 236.406 72.7994C236.406 73.5185 237.844 78.5522 237.844 78.5522C237.844 78.5522 239.283 73.3387 239.283 72.7994C239.283 70.4623 239.283 19.4054 239.283 19.4054" stroke="white" stroke-miterlimit="10" stroke-linecap="round" stroke-linejoin="round"/>
<path d="M234.248 67.2261C234.248 66.6867 234.787 66.1474 235.327 66.1474C235.866 66.1474 236.405 66.6867 236.405 67.2261" stroke="white" stroke-miterlimit="10" stroke-linecap="round" stroke-linejoin="round"/>
<path d="M232.09 67.2261C232.09 66.6867 232.629 66.1474 233.169 66.1474C233.708 66.1474 234.247 66.6867 234.247 67.2261" stroke="white" stroke-miterlimit="10" stroke-linecap="round" stroke-linejoin="round"/>
<path d="M229.754 67.2261C229.754 66.6867 230.293 66.1474 230.833 66.1474C231.372 66.1474 231.911 66.6867 231.911 67.2261" stroke="white" stroke-miterlimit="10" stroke-linecap="round" stroke-linejoin="round"/>
<path d="M234.248 57.1587H229.754" stroke="white" stroke-miterlimit="10" stroke-linecap="round" stroke-linejoin="round"/>
<path d="M234.248 63.2715V59.1366" stroke="white" stroke-miterlimit="10" stroke-linecap="round" stroke-linejoin="round"/>
<path d="M232.09 63.2715V59.1366" stroke="white" stroke-miterlimit="10" stroke-linecap="round" stroke-linejoin="round"/>
<path d="M229.754 63.2715V59.1366" stroke="white" stroke-miterlimit="10" stroke-linecap="round" stroke-linejoin="round"/>
<path d="M207.101 2.50631C207.101 2.50631 207.101 69.9229 207.101 72.7994C207.101 73.5185 205.663 78.5522 205.663 78.5522C205.663 78.5522 204.225 73.3387 204.225 72.7994C204.225 70.4623 204.225 20.8436 204.225 20.8436" stroke="white" stroke-miterlimit="10" stroke-linecap="round" stroke-linejoin="round"/>
<path d="M217.349 50.1471C217.349 48.1696 215.731 46.5516 213.754 46.5516C211.776 46.5516 210.158 48.1696 210.158 50.1471C210.158 52.1247 211.776 53.7427 213.754 53.7427C215.731 53.7427 217.349 52.1247 217.349 50.1471Z" stroke="white" stroke-miterlimit="10" stroke-linecap="round" stroke-linejoin="round"/>
<path d="M209.259 67.2261C209.259 66.6867 208.72 66.1474 208.18 66.1474C207.641 66.1474 207.102 66.6867 207.102 67.2261" stroke="white" stroke-miterlimit="10" stroke-linecap="round" stroke-linejoin="round"/>
<path d="M211.597 67.2261C211.597 66.6867 211.057 66.1474 210.518 66.1474C209.979 66.1474 209.439 66.6867 209.439 67.2261" stroke="white" stroke-miterlimit="10" stroke-linecap="round" stroke-linejoin="round"/>
<path d="M213.753 67.2261C213.753 66.6867 213.214 66.1474 212.674 66.1474C212.135 66.1474 211.596 66.6867 211.596 67.2261" stroke="white" stroke-miterlimit="10" stroke-linecap="round" stroke-linejoin="round"/>
<path d="M209.26 57.1587H213.754" stroke="white" stroke-miterlimit="10" stroke-linecap="round" stroke-linejoin="round"/>
<path d="M209.26 63.2715V59.1366" stroke="white" stroke-miterlimit="10" stroke-linecap="round" stroke-linejoin="round"/>
<path d="M211.596 63.2715V59.1366" stroke="white" stroke-miterlimit="10" stroke-linecap="round" stroke-linejoin="round"/>
<path d="M213.754 63.2715V59.1366" stroke="white" stroke-miterlimit="10" stroke-linecap="round" stroke-linejoin="round"/>
<path d="M215.73 50.147C215.73 50.6863 215.371 51.0458 214.832 51.2256C214.832 51.765 214.292 52.1245 213.753 52.1245C213.214 52.1245 212.854 51.765 212.674 51.2256C212.135 51.0458 211.775 50.6863 211.775 50.147C211.775 49.6076 212.135 49.2481 212.674 49.0683C212.674 48.529 213.214 48.1694 213.753 48.1694C214.292 48.1694 214.652 48.529 214.832 49.0683C215.191 49.0683 215.73 49.6076 215.73 50.147Z" stroke="white" stroke-miterlimit="10" stroke-linecap="round" stroke-linejoin="round"/>
<path d="M220.406 7.89963C220.406 7.89963 220.406 69.9229 220.406 72.7994C220.406 73.5185 221.844 78.5522 221.844 78.5522C221.844 78.5522 223.283 73.3387 223.283 72.7994C223.283 70.4623 223.283 4.66363 223.283 4.66363" stroke="white" stroke-miterlimit="10" stroke-linecap="round" stroke-linejoin="round"/>
<path d="M218.068 67.2261C218.068 66.6867 218.608 66.1474 219.147 66.1474C219.686 66.1474 220.226 66.6867 220.226 67.2261" stroke="white" stroke-miterlimit="10" stroke-linecap="round" stroke-linejoin="round"/>
<path d="M215.91 67.2261C215.91 66.6867 216.449 66.1474 216.989 66.1474C217.528 66.1474 218.067 66.6867 218.067 67.2261" stroke="white" stroke-miterlimit="10" stroke-linecap="round" stroke-linejoin="round"/>
<path d="M213.754 67.2261C213.754 66.6867 214.293 66.1474 214.833 66.1474C215.372 66.1474 215.911 66.6867 215.911 67.2261" stroke="white" stroke-miterlimit="10" stroke-linecap="round" stroke-linejoin="round"/>
<path d="M218.069 57.1587H213.754" stroke="white" stroke-miterlimit="10" stroke-linecap="round" stroke-linejoin="round"/>
<path d="M218.068 63.2715V59.1366" stroke="white" stroke-miterlimit="10" stroke-linecap="round" stroke-linejoin="round"/>
<path d="M215.91 63.2715V59.1366" stroke="white" stroke-miterlimit="10" stroke-linecap="round" stroke-linejoin="round"/>
<path d="M213.754 63.2715V59.1366" stroke="white" stroke-miterlimit="10" stroke-linecap="round" stroke-linejoin="round"/>
<path d="M190.922 -3.96588C190.922 -3.96588 190.922 53.563 190.922 67.2261" stroke="white" stroke-miterlimit="10" stroke-linecap="round" stroke-linejoin="round"/>
<path d="M201.17 50.1471C201.17 48.1696 199.552 46.5516 197.574 46.5516C195.597 46.5516 193.979 48.1696 193.979 50.1471C193.979 52.1247 195.597 53.7427 197.574 53.7427C199.552 53.7427 201.17 52.1247 201.17 50.1471Z" stroke="white" stroke-miterlimit="10" stroke-linecap="round" stroke-linejoin="round"/>
<path d="M193.26 57.1587H197.574" stroke="white" stroke-miterlimit="10" stroke-linecap="round" stroke-linejoin="round"/>
<path d="M193.26 63.2715V59.1366" stroke="white" stroke-miterlimit="10" stroke-linecap="round" stroke-linejoin="round"/>
<path d="M195.416 63.2715V59.1366" stroke="white" stroke-miterlimit="10" stroke-linecap="round" stroke-linejoin="round"/>
<path d="M197.574 63.2715V59.1366" stroke="white" stroke-miterlimit="10" stroke-linecap="round" stroke-linejoin="round"/>
<path d="M199.551 50.147C199.551 50.6863 199.191 51.0458 198.652 51.2256C198.652 51.765 198.113 52.1245 197.573 52.1245C197.034 52.1245 196.674 51.765 196.495 51.2256C195.955 51.0458 195.596 50.6863 195.596 50.147C195.596 49.6076 195.955 49.2481 196.495 49.0683C196.495 48.529 197.034 48.1694 197.573 48.1694C198.113 48.1694 198.472 48.529 198.652 49.0683C199.191 49.0683 199.551 49.6076 199.551 50.147Z" stroke="white" stroke-miterlimit="10" stroke-linecap="round" stroke-linejoin="round"/>
<path d="M204.225 1.06808C204.225 1.06808 204.225 70.1027 204.225 72.7994C204.225 73.5185 205.663 78.5522 205.663 78.5522C205.663 78.5522 207.101 73.3387 207.101 72.7994C207.101 70.4623 207.101 19.4054 207.101 19.4054" stroke="white" stroke-miterlimit="10" stroke-linecap="round" stroke-linejoin="round"/>
<path d="M202.068 67.2261C202.068 66.6867 202.608 66.1474 203.147 66.1474C203.686 66.1474 204.226 66.6867 204.226 67.2261" stroke="white" stroke-miterlimit="10" stroke-linecap="round" stroke-linejoin="round"/>
<path d="M200.988 66.1474C201.528 66.1474 202.067 66.6867 202.067 67.2261" stroke="white" stroke-miterlimit="10" stroke-linecap="round" stroke-linejoin="round"/>
<path d="M202.069 57.1587H197.574" stroke="white" stroke-miterlimit="10" stroke-linecap="round" stroke-linejoin="round"/>
<path d="M202.068 63.2715V59.1366" stroke="white" stroke-miterlimit="10" stroke-linecap="round" stroke-linejoin="round"/>
<path d="M199.91 63.2715V59.1366" stroke="white" stroke-miterlimit="10" stroke-linecap="round" stroke-linejoin="round"/>
<path d="M197.574 63.2715V59.1366" stroke="white" stroke-miterlimit="10" stroke-linecap="round" stroke-linejoin="round"/>
<path d="M212.676 66.1473C212.676 76.035 213.035 94.3723 227.058 110.373" stroke="white" stroke-miterlimit="10" stroke-linecap="round" stroke-linejoin="round"/>
<path d="M223.281 72.799C223.281 81.7879 224.18 98.5072 228.495 110.373" stroke="white" stroke-miterlimit="10" stroke-linecap="round" stroke-linejoin="round"/>
<path d="M229.755 98.1479L228.496 94.7322H229.755" stroke="white" stroke-miterlimit="10" stroke-linecap="round" stroke-linejoin="round"/>
<path d="M229.754 98.1479L231.192 94.7322H229.754" stroke="white" stroke-miterlimit="10" stroke-linecap="round" stroke-linejoin="round"/>
<path d="M221.483 98.1479L220.045 94.7322H221.483" stroke="white" stroke-miterlimit="10" stroke-linecap="round" stroke-linejoin="round"/>
<path d="M221.484 98.1479L222.923 94.7322H221.484" stroke="white" stroke-miterlimit="10" stroke-linecap="round" stroke-linejoin="round"/>
<path d="M214.473 98.1479L213.035 94.7322H214.473" stroke="white" stroke-miterlimit="10" stroke-linecap="round" stroke-linejoin="round"/>
<path d="M214.473 98.1479L215.911 94.7322H214.473" stroke="white" stroke-miterlimit="10" stroke-linecap="round" stroke-linejoin="round"/>
<path d="M287.102 62.5522C287.102 62.5522 288.361 61.6534 288.361 60.9342V51.9454H285.844V60.9342C285.844 61.6534 287.102 62.5522 287.102 62.5522Z" stroke="white" stroke-miterlimit="10" stroke-linecap="round" stroke-linejoin="round"/>
<path d="M236.406 19.4054C236.406 19.4054 236.406 69.9229 236.406 72.7994C236.406 73.5185 237.844 78.5522 237.844 78.5522C237.844 78.5522 239.283 73.3387 239.283 72.7994C239.283 70.4623 239.283 19.4054 239.283 19.4054" stroke="white" stroke-miterlimit="10" stroke-linecap="round" stroke-linejoin="round"/>
<path d="M293.035 48.8887H280.99" stroke="white" stroke-miterlimit="10" stroke-linecap="round" stroke-linejoin="round"/>
<path d="M291.418 66.1479H282.789" stroke="white" stroke-miterlimit="10" stroke-linecap="round" stroke-linejoin="round"/>
<path d="M289.26 69.3841V69.7437" stroke="white" stroke-miterlimit="10" stroke-linecap="round" stroke-linejoin="round"/>
<path d="M289.26 74.0574V74.417" stroke="white" stroke-miterlimit="10" stroke-linecap="round" stroke-linejoin="round"/>
<path d="M289.26 78.7322V79.0918" stroke="white" stroke-miterlimit="10" stroke-linecap="round" stroke-linejoin="round"/>
<path d="M287.104 69.3841V69.7437" stroke="white" stroke-miterlimit="10" stroke-linecap="round" stroke-linejoin="round"/>
<path d="M287.104 74.0574V74.417" stroke="white" stroke-miterlimit="10" stroke-linecap="round" stroke-linejoin="round"/>
<path d="M287.104 78.7322V79.0918" stroke="white" stroke-miterlimit="10" stroke-linecap="round" stroke-linejoin="round"/>
<path d="M287.104 83.4066V83.7661" stroke="white" stroke-miterlimit="10" stroke-linecap="round" stroke-linejoin="round"/>
<path d="M284.766 69.3841V69.7437" stroke="white" stroke-miterlimit="10" stroke-linecap="round" stroke-linejoin="round"/>
<path d="M284.766 74.0574V74.417" stroke="white" stroke-miterlimit="10" stroke-linecap="round" stroke-linejoin="round"/>
<path d="M284.766 78.7322V79.0918" stroke="white" stroke-miterlimit="10" stroke-linecap="round" stroke-linejoin="round"/>
<path d="M287.104 87.9006V88.4399" stroke="white" stroke-miterlimit="10" stroke-linecap="round" stroke-linejoin="round"/>
<path d="M287.104 92.5754V93.1147" stroke="white" stroke-miterlimit="10" stroke-linecap="round" stroke-linejoin="round"/>
<path d="M234.248 67.2261C234.248 66.6867 234.787 66.1474 235.327 66.1474C235.866 66.1474 236.405 66.6867 236.405 67.2261" stroke="white" stroke-miterlimit="10" stroke-linecap="round" stroke-linejoin="round"/>
<path d="M232.09 67.2261C232.09 66.6867 232.629 66.1474 233.169 66.1474C233.708 66.1474 234.247 66.6867 234.247 67.2261" stroke="white" stroke-miterlimit="10" stroke-linecap="round" stroke-linejoin="round"/>
<path d="M229.754 67.2261C229.754 66.6867 230.293 66.1474 230.833 66.1474C231.372 66.1474 231.911 66.6867 231.911 67.2261" stroke="white" stroke-miterlimit="10" stroke-linecap="round" stroke-linejoin="round"/>
<path d="M234.248 63.2715V59.1366" stroke="white" stroke-miterlimit="10" stroke-linecap="round" stroke-linejoin="round"/>
<path d="M232.09 63.2715V59.1366" stroke="white" stroke-miterlimit="10" stroke-linecap="round" stroke-linejoin="round"/>
<path d="M229.754 63.2715V59.1366" stroke="white" stroke-miterlimit="10" stroke-linecap="round" stroke-linejoin="round"/>
<path d="M229.754 63.2715V59.1366" stroke="white" stroke-miterlimit="10" stroke-linecap="round" stroke-linejoin="round"/>
<path d="M252.586 16.529C252.586 16.529 252.586 69.9229 252.586 72.7994C252.586 73.5185 254.024 78.5522 254.024 78.5522C254.024 78.5522 255.462 73.3387 255.462 72.7994C255.462 70.4623 255.462 13.8323 255.462 13.8323" stroke="white" stroke-miterlimit="10" stroke-linecap="round" stroke-linejoin="round"/>
<path d="M242.338 50.1471C242.338 48.1696 243.956 46.5516 245.933 46.5516C247.911 46.5516 249.529 48.1696 249.529 50.1471C249.529 52.1247 247.911 53.7427 245.933 53.7427C243.956 53.7427 242.338 52.1247 242.338 50.1471Z" stroke="white" stroke-miterlimit="10" stroke-linecap="round" stroke-linejoin="round"/>
<path d="M250.248 67.2261C250.248 66.6867 250.787 66.1474 251.327 66.1474C251.866 66.1474 252.405 66.6867 252.405 67.2261" stroke="white" stroke-miterlimit="10" stroke-linecap="round" stroke-linejoin="round"/>
<path d="M248.092 67.2261C248.092 66.6867 248.631 66.1474 249.17 66.1474C249.71 66.1474 250.249 66.6867 250.249 67.2261" stroke="white" stroke-miterlimit="10" stroke-linecap="round" stroke-linejoin="round"/>
<path d="M245.934 67.2261C245.934 66.6867 246.473 66.1474 247.012 66.1474C247.552 66.1474 248.091 66.6867 248.091 67.2261" stroke="white" stroke-miterlimit="10" stroke-linecap="round" stroke-linejoin="round"/>
<path d="M250.248 57.1587H245.934" stroke="white" stroke-miterlimit="10" stroke-linecap="round" stroke-linejoin="round"/>
<path d="M250.248 63.2715V59.1366" stroke="white" stroke-miterlimit="10" stroke-linecap="round" stroke-linejoin="round"/>
<path d="M248.092 63.2715V59.1366" stroke="white" stroke-miterlimit="10" stroke-linecap="round" stroke-linejoin="round"/>
<path d="M245.934 63.2715V59.1366" stroke="white" stroke-miterlimit="10" stroke-linecap="round" stroke-linejoin="round"/>
<path d="M243.957 50.147C243.957 50.6863 244.317 51.0458 244.856 51.2256C245.036 51.765 245.395 52.1245 245.935 52.1245C246.474 52.1245 246.833 51.765 247.013 51.2256C247.553 51.0458 247.912 50.6863 247.912 50.147C247.912 49.6076 247.553 49.2481 247.013 49.0683C246.833 48.529 246.474 48.1694 245.935 48.1694C245.395 48.1694 245.036 48.529 244.856 49.0683C244.317 49.0683 243.957 49.6076 243.957 50.147Z" stroke="white" stroke-miterlimit="10" stroke-linecap="round" stroke-linejoin="round"/>
<path d="M239.283 15.0911C239.283 15.0911 239.283 70.1031 239.283 72.9795C239.283 73.6986 237.844 78.7324 237.844 78.7324C237.844 78.7324 236.406 73.5189 236.406 72.9795C236.406 70.6424 236.406 10.0574 236.406 10.0574" stroke="white" stroke-miterlimit="10" stroke-linecap="round" stroke-linejoin="round"/>
<path d="M241.439 67.2261C241.439 66.6867 240.899 66.1474 240.36 66.1474C239.821 66.1474 239.281 66.6867 239.281 67.2261" stroke="white" stroke-miterlimit="10" stroke-linecap="round" stroke-linejoin="round"/>
<path d="M243.776 67.2261C243.776 66.6867 243.237 66.1474 242.698 66.1474C242.158 66.1474 241.619 66.6867 241.619 67.2261" stroke="white" stroke-miterlimit="10" stroke-linecap="round" stroke-linejoin="round"/>
<path d="M245.933 67.2261C245.933 66.6867 245.393 66.1474 244.854 66.1474C244.315 66.1474 243.775 66.6867 243.775 67.2261" stroke="white" stroke-miterlimit="10" stroke-linecap="round" stroke-linejoin="round"/>
<path d="M241.439 57.1587H245.934" stroke="white" stroke-miterlimit="10" stroke-linecap="round" stroke-linejoin="round"/>
<path d="M241.439 63.2715V59.1366" stroke="white" stroke-miterlimit="10" stroke-linecap="round" stroke-linejoin="round"/>
<path d="M243.775 63.2715V59.1366" stroke="white" stroke-miterlimit="10" stroke-linecap="round" stroke-linejoin="round"/>
<path d="M245.934 63.2715V59.1366" stroke="white" stroke-miterlimit="10" stroke-linecap="round" stroke-linejoin="round"/>
<path d="M268.586 -41.0001C268.586 -41.0001 268.586 53.563 268.586 67.2261" stroke="white" stroke-miterlimit="10" stroke-linecap="round" stroke-linejoin="round"/>
<path d="M258.338 50.1471C258.338 48.1696 259.956 46.5516 261.933 46.5516C263.911 46.5516 265.529 48.1696 265.529 50.1471C265.529 52.1247 263.911 53.7427 261.933 53.7427C259.956 53.7427 258.338 52.1247 258.338 50.1471Z" stroke="white" stroke-miterlimit="10" stroke-linecap="round" stroke-linejoin="round"/>
<path d="M266.428 57.1587H261.934" stroke="white" stroke-miterlimit="10" stroke-linecap="round" stroke-linejoin="round"/>
<path d="M266.428 63.2715V59.1366" stroke="white" stroke-miterlimit="10" stroke-linecap="round" stroke-linejoin="round"/>
<path d="M264.271 63.2715V59.1366" stroke="white" stroke-miterlimit="10" stroke-linecap="round" stroke-linejoin="round"/>
<path d="M261.934 63.2715V59.1366" stroke="white" stroke-miterlimit="10" stroke-linecap="round" stroke-linejoin="round"/>
<path d="M260.137 50.147C260.137 50.6863 260.496 51.0458 261.036 51.2256C261.215 51.765 261.575 52.1245 262.114 52.1245C262.654 52.1245 263.013 51.765 263.193 51.2256C263.732 51.0458 264.092 50.6863 264.092 50.147C264.092 49.6076 263.732 49.2481 263.193 49.0683C263.013 48.529 262.654 48.1694 262.114 48.1694C261.575 48.1694 261.215 48.529 261.036 49.0683C260.496 49.0683 260.137 49.6076 260.137 50.147Z" stroke="white" stroke-miterlimit="10" stroke-linecap="round" stroke-linejoin="round"/>
<path d="M255.462 20.8436C255.462 20.8436 255.462 69.9229 255.462 72.7994C255.462 73.5185 254.024 78.5522 254.024 78.5522C254.024 78.5522 252.586 73.3387 252.586 72.7994C252.586 70.4623 252.586 19.4054 252.586 19.4054" stroke="white" stroke-miterlimit="10" stroke-linecap="round" stroke-linejoin="round"/>
<path d="M257.618 67.2261C257.618 66.6867 257.079 66.1474 256.54 66.1474C256 66.1474 255.461 66.6867 255.461 67.2261" stroke="white" stroke-miterlimit="10" stroke-linecap="round" stroke-linejoin="round"/>
<path d="M258.698 66.1474C258.158 66.1474 257.619 66.6867 257.619 67.2261" stroke="white" stroke-miterlimit="10" stroke-linecap="round" stroke-linejoin="round"/>
<path d="M257.619 57.1587H261.934" stroke="white" stroke-miterlimit="10" stroke-linecap="round" stroke-linejoin="round"/>
<path d="M257.619 63.2715V59.1366" stroke="white" stroke-miterlimit="10" stroke-linecap="round" stroke-linejoin="round"/>
<path d="M259.777 63.2715V59.1366" stroke="white" stroke-miterlimit="10" stroke-linecap="round" stroke-linejoin="round"/>
<path d="M261.934 63.2715V59.1366" stroke="white" stroke-miterlimit="10" stroke-linecap="round" stroke-linejoin="round"/>
<path d="M247.013 66.1473C247.013 76.035 246.654 94.3723 232.631 110.373" stroke="white" stroke-miterlimit="10" stroke-linecap="round" stroke-linejoin="round"/>
<path d="M236.405 72.799C236.405 81.7879 235.506 98.5072 231.191 110.373" stroke="white" stroke-miterlimit="10" stroke-linecap="round" stroke-linejoin="round"/>
<path d="M238.203 98.1479L239.641 94.7322H238.203" stroke="white" stroke-miterlimit="10" stroke-linecap="round" stroke-linejoin="round"/>
<path d="M238.204 98.1479L236.766 94.7322H238.204" stroke="white" stroke-miterlimit="10" stroke-linecap="round" stroke-linejoin="round"/>
<path d="M245.215 98.1479L246.653 94.7322H245.215" stroke="white" stroke-miterlimit="10" stroke-linecap="round" stroke-linejoin="round"/>
<path d="M245.214 98.1479L243.775 94.7322H245.214" stroke="white" stroke-miterlimit="10" stroke-linecap="round" stroke-linejoin="round"/>
<path d="M299.687 -12.1281V19.7649L286.923 107.856L274.159 19.7649V-5.07729L271.462 14.5514C271.462 14.5514 271.462 70.4622 271.462 72.7993C271.462 73.5184 270.024 78.5522 270.024 78.5522C270.024 78.5522 268.586 73.3387 268.586 72.7993C268.586 72.26 268.586 70.2824 268.586 67.2262C268.586 66.6869 268.046 66.1476 267.507 66.1476C266.968 66.1476 266.428 66.6869 266.428 67.2262C266.428 66.6869 265.889 66.1476 265.35 66.1476C264.81 66.1476 264.271 66.6869 264.271 67.2262C264.271 66.6869 263.732 66.1476 263.192 66.1476C262.653 66.1476 262.114 66.6869 262.114 67.2262C262.114 66.6869 261.574 66.1476 261.035 66.1476C260.496 66.1476 259.956 66.6869 259.956 67.2262C259.956 66.6869 259.417 66.1476 258.878 66.1476C258.878 86.4624 247.552 101.024 234.428 110.373V113.789L235.686 115.407C235.686 115.407 235.686 118.283 235.686 120.081C235.686 123.317 233.17 124.755 233.17 124.755V131.407L232.091 130.508L229.934 157.475L227.956 130.328L226.698 131.407V124.935C226.698 124.935 224.181 123.497 224.181 120.261C224.181 118.643 224.181 115.586 224.181 115.586L225.439 113.968V110.553C212.495 101.024 200.989 86.4624 200.989 66.1476C200.45 66.1476 199.911 66.6869 199.911 67.2262C199.911 66.6869 199.371 66.1476 198.832 66.1476C198.293 66.1476 197.753 66.6869 197.753 67.2262C197.753 66.6869 197.214 66.1476 196.675 66.1476C196.135 66.1476 195.596 66.6869 195.596 67.2262C195.596 66.6869 195.057 66.1476 194.517 66.1476C193.978 66.1476 193.439 66.6869 193.439 67.2262C193.439 66.6869 192.899 66.1476 192.36 66.1476C191.821 66.1476 191.281 66.6869 191.281 67.2262C191.281 70.2824 191.281 72.26 191.281 72.7993C191.281 73.5184 189.843 78.5522 189.843 78.5522C189.843 78.5522 188.405 73.3387 188.405 72.7993C188.405 70.4622 188.405 14.5514 188.405 14.5514L185.528 -7.56129V19.7649L172.764 107.856L160 19.7649V-17.2693" stroke="white" stroke-miterlimit="10" stroke-linecap="round" stroke-linejoin="round"/>
<path d="M287.102 41.6982C287.102 41.6982 285.484 40.6196 285.484 39.7207V28.934H288.541V39.7207C288.541 40.6196 287.102 41.6982 287.102 41.6982Z" stroke="white" stroke-miterlimit="10" stroke-linecap="round" stroke-linejoin="round"/>
<path d="M284.046 41.6982C284.046 41.6982 282.428 40.6196 282.428 39.7207V28.934H285.484V39.7207C285.484 40.6196 284.046 41.6982 284.046 41.6982Z" stroke="white" stroke-miterlimit="10" stroke-linecap="round" stroke-linejoin="round"/>
<path d="M290.159 41.6982C290.159 41.6982 288.541 40.6196 288.541 39.7207V28.934H291.597V39.7207C291.777 40.6196 290.159 41.6982 290.159 41.6982Z" stroke="white" stroke-miterlimit="10" stroke-linecap="round" stroke-linejoin="round"/>
<path d="M172.585 41.6982C172.585 41.6982 170.967 40.6196 170.967 39.7207V28.934H174.203V39.7207C174.203 40.6196 172.585 41.6982 172.585 41.6982Z" stroke="white" stroke-miterlimit="10" stroke-linecap="round" stroke-linejoin="round"/>
<path d="M169.528 41.6982C169.528 41.6982 167.91 40.6196 167.91 39.7207V28.934H170.966V39.7207C170.966 40.6196 169.528 41.6982 169.528 41.6982Z" stroke="white" stroke-miterlimit="10" stroke-linecap="round" stroke-linejoin="round"/>
<path d="M175.641 41.6982C175.641 41.6982 174.023 40.6196 174.023 39.7207V28.934H177.08V39.7207C177.259 40.6196 175.641 41.6982 175.641 41.6982Z" stroke="white" stroke-miterlimit="10" stroke-linecap="round" stroke-linejoin="round"/>
<path d="M294.654 6.28125H287.104" stroke="white" stroke-miterlimit="10" stroke-linecap="round" stroke-linejoin="round"/>
<path d="M294.652 17.0679V9.69699" stroke="white" stroke-miterlimit="10" stroke-linecap="round" stroke-linejoin="round"/>
<path d="M290.879 17.0679V9.69699" stroke="white" stroke-miterlimit="10" stroke-linecap="round" stroke-linejoin="round"/>
<path d="M287.104 17.0679V9.69699" stroke="white" stroke-miterlimit="10" stroke-linecap="round" stroke-linejoin="round"/>
<path d="M279.373 6.28125H287.103" stroke="white" stroke-miterlimit="10" stroke-linecap="round" stroke-linejoin="round"/>
<path d="M279.373 17.0679V9.69699" stroke="white" stroke-miterlimit="10" stroke-linecap="round" stroke-linejoin="round"/>
<path d="M283.328 17.0679V9.69699" stroke="white" stroke-miterlimit="10" stroke-linecap="round" stroke-linejoin="round"/>
<path d="M287.104 17.0679V9.69699" stroke="white" stroke-miterlimit="10" stroke-linecap="round" stroke-linejoin="round"/>
<path d="M180.314 6.28125H172.584" stroke="white" stroke-miterlimit="10" stroke-linecap="round" stroke-linejoin="round"/>
<path d="M180.314 17.0679V9.69699" stroke="white" stroke-miterlimit="10" stroke-linecap="round" stroke-linejoin="round"/>
<path d="M176.359 17.0679V9.69699" stroke="white" stroke-miterlimit="10" stroke-linecap="round" stroke-linejoin="round"/>
<path d="M172.584 17.0679V9.69699" stroke="white" stroke-miterlimit="10" stroke-linecap="round" stroke-linejoin="round"/>
<path d="M164.854 6.28125H172.584" stroke="white" stroke-miterlimit="10" stroke-linecap="round" stroke-linejoin="round"/>
<path d="M164.854 17.0679V9.69699" stroke="white" stroke-miterlimit="10" stroke-linecap="round" stroke-linejoin="round"/>
<path d="M168.809 17.0679V9.69699" stroke="white" stroke-miterlimit="10" stroke-linecap="round" stroke-linejoin="round"/>
<path d="M172.584 17.0679V9.69699" stroke="white" stroke-miterlimit="10" stroke-linecap="round" stroke-linejoin="round"/>
<path d="M39.1727 128.065C37.7787 128.065 36.4481 127.81 35.1175 127.237L24.5995 122.65C24.2827 122.459 24.0293 122.14 24.0293 121.694C24.0293 121.312 24.2827 120.93 24.6629 120.802L59.8918 107.169C60.3354 106.978 60.7789 107.169 61.0323 107.551C61.2858 107.934 61.2224 108.443 60.969 108.762L46.8394 124.688C44.8118 126.854 42.0239 128.065 39.1727 128.065ZM27.5775 121.822L35.9412 125.453C39.236 126.854 43.0377 126.026 45.3821 123.35L56.8505 110.482L27.5775 121.822Z" fill="white"/>
<path d="M41.6432 172.404C41.3264 172.404 41.0096 172.276 40.8195 171.958C40.5661 171.576 40.6295 171.066 40.8829 170.747L55.456 154.311C58.1172 151.317 62.3624 150.362 66.0374 151.954L77.2523 156.923C77.6325 157.051 77.8226 157.433 77.8226 157.815C77.8226 158.197 77.5692 158.58 77.189 158.707L41.9601 172.34C41.8967 172.404 41.77 172.404 41.6432 172.404ZM62.4258 153.228C60.3982 153.228 58.434 154.057 56.9767 155.713L45.0648 169.091L74.3377 157.752L65.3404 153.865C64.39 153.42 63.3762 153.228 62.4258 153.228Z" fill="white"/>
<path d="M36.2561 126.791C34.8621 126.791 33.5316 126.536 32.201 125.963L24.5976 122.65C24.2808 122.459 24.0273 122.14 24.0273 121.694C24.0273 121.312 24.2808 120.93 24.661 120.802L47.0275 112.138C47.4077 112.011 47.7879 112.075 48.0413 112.33C48.2948 112.584 48.4215 113.03 48.2948 113.349L45.9504 119.974C45 122.65 43.0358 124.752 40.3746 125.899C39.044 126.536 37.65 126.791 36.2561 126.791ZM27.5756 121.822L33.0247 124.179C35.1156 125.071 37.46 125.071 39.6142 124.179C41.7052 123.287 43.3526 121.567 44.1129 119.337L45.7603 114.75L27.5756 121.822Z" fill="white"/>
<path d="M54.504 167.436C54.2506 167.436 53.9972 167.372 53.8071 167.181C53.5536 166.926 53.4269 166.48 53.5536 166.162L56.8484 157.052C57.6087 155.013 59.0661 153.421 61.0303 152.529C62.9945 151.637 65.2121 151.637 67.1763 152.529L77.2508 156.924C77.6309 157.052 77.821 157.434 77.821 157.816C77.821 158.199 77.5676 158.581 77.1874 158.708L54.8208 167.372C54.7575 167.436 54.6308 167.436 54.504 167.436ZM64.135 153.867C63.3746 153.867 62.6143 153.994 61.854 154.376C60.3967 155.013 59.2561 156.224 58.6859 157.753L56.1514 164.824L74.2728 157.816L66.416 154.376C65.719 153.994 64.8953 153.867 64.135 153.867Z" fill="white"/>
<path d="M42.2129 161.32C41.8327 161.32 41.4525 161.065 41.3258 160.747L24.0915 122.141C23.9014 121.759 24.0282 121.313 24.2816 121.058C24.5984 120.803 24.9786 120.676 25.3587 120.867L36.7004 126.282C40.1853 127.938 42.403 131.378 42.5297 135.264L43.1633 160.301C43.1633 160.747 42.8465 161.193 42.403 161.256C42.403 161.256 42.2762 161.32 42.2129 161.32ZM27.0061 123.734L41.1357 155.459L40.6288 135.328C40.5655 132.207 38.728 129.403 35.8767 128.002L27.0061 123.734Z" fill="white"/>
<path d="M77.084 158.529C76.9573 158.529 76.8306 158.465 76.6405 158.465L63.9682 152.413C61.307 151.139 59.6596 148.527 59.5329 145.596L58.8359 119.031C58.8359 118.585 59.1527 118.139 59.5963 118.075C60.0398 118.012 60.4833 118.203 60.6734 118.649L77.9077 157.254C78.0978 157.637 77.9711 158.083 77.7176 158.337C77.5909 158.465 77.3375 158.529 77.084 158.529ZM64.7919 150.629L75.1198 155.534L60.9269 123.809L61.4971 145.533C61.5605 147.762 62.8277 149.673 64.7919 150.629Z" fill="white"/>
<path d="M42.2135 161.255C41.8334 161.255 41.4532 161.001 41.3265 160.682L28.9076 132.906C28.7176 132.46 28.8443 132.015 29.2244 131.696C29.6046 131.441 30.1115 131.441 30.4283 131.76L39.6791 139.85C41.6433 141.57 42.7838 143.991 42.8471 146.603L43.164 160.364C43.164 160.81 42.8471 161.255 42.4036 161.319C42.4036 161.255 42.2769 161.255 42.2135 161.255ZM32.5192 136.155L41.1364 155.458L40.8829 146.603C40.8196 144.565 39.9325 142.653 38.4118 141.316L32.5192 136.155Z" fill="white"/>
<path d="M72.2696 147.763C72.0162 147.763 71.8261 147.699 71.636 147.508L63.1456 140.118C60.7379 138.016 59.2806 134.958 59.2172 131.709L58.9004 119.032C58.9004 118.586 59.2172 118.14 59.6607 118.076C60.1043 117.949 60.5478 118.204 60.7379 118.65L73.1567 146.489C73.3468 146.935 73.2201 147.381 72.8399 147.699C72.7132 147.699 72.4597 147.763 72.2696 147.763ZM60.928 123.81L61.118 131.646C61.1814 134.321 62.3853 136.869 64.4128 138.653L69.5451 143.176L60.928 123.81Z" fill="white"/>
<path d="M42.213 161.319C42.1496 161.319 42.0863 161.319 42.0229 161.319C41.5794 161.255 41.1992 160.809 41.1992 160.363V132.842C41.1992 130.422 42.0863 128.065 43.607 126.217L59.5107 107.488C59.8275 107.105 60.3344 107.042 60.7145 107.296C61.0947 107.551 61.2848 107.997 61.1581 108.443L43.1634 160.682C43.0367 161 42.6565 161.319 42.213 161.319ZM57.6098 112.711L45.191 127.427C43.9238 128.956 43.2268 130.868 43.2268 132.779V154.502L57.6098 112.711Z" fill="white"/>
<path d="M41.6419 172.404C41.4518 172.404 41.3251 172.34 41.135 172.276C40.7548 172.021 40.5647 171.575 40.6914 171.13L58.6861 118.891C58.8128 118.445 59.3197 118.19 59.7632 118.254C60.2067 118.318 60.5869 118.763 60.5869 119.209V147.686C60.5869 149.533 59.9533 151.317 58.7494 152.719L42.4022 172.085C42.2121 172.276 41.8953 172.404 41.6419 172.404ZM58.6861 125.07L44.303 166.861L57.3555 151.444C58.2425 150.425 58.7494 149.087 58.7494 147.686L58.6861 125.07Z" fill="white"/>
</g>
<defs>
<clipPath id="clip0_1106_3002">
<rect width="320" height="196" rx="10" fill="white"/>
</clipPath>
</defs>
</svg>
