<svg width="320" height="196" viewBox="0 0 320 196" fill="none" xmlns="http://www.w3.org/2000/svg">
<g clip-path="url(#clip0_281_198)">
<rect width="320" height="196" rx="10" fill="url(#paint0_linear_281_198)"/>
<g opacity="0.1">
<mask id="mask0_281_198" style="mask-type:luminance" maskUnits="userSpaceOnUse" x="-1" y="0" width="321" height="196">
<path d="M319.999 0H-0.000976562V196H319.999V0Z" fill="white"/>
</mask>
<g mask="url(#mask0_281_198)">
<path d="M491.099 -3.7998H-3.10059V527.9H491.099V-3.7998Z" fill="#1571AF"/>
<path d="M266.199 113.6L420.699 88.2002L294.799 166.7L266.199 113.6Z" fill="url(#paint1_linear_281_198)"/>
<path d="M294.8 166.7L420.7 88.2002L444 154.4L294.8 166.7Z" fill="url(#paint2_linear_281_198)"/>
<path d="M197.999 -3.7998L266.199 113.6L346.299 -3.7998H197.999Z" fill="url(#paint3_linear_281_198)"/>
<path d="M346.299 -3.7998L266.199 113.6L420.699 88.2002L369.399 -3.7998H346.299Z" fill="url(#paint4_linear_281_198)"/>
<path d="M24.6992 -3.7998L47.9992 18.5002L80.6992 -3.7998H24.6992Z" fill="url(#paint5_linear_281_198)"/>
<path d="M266.199 113.6L294.799 166.7L271.899 206L266.199 113.6Z" fill="url(#paint6_linear_281_198)"/>
<path d="M-3.10059 163.4V210L29.3994 199.1L-3.10059 163.4Z" fill="url(#paint7_linear_281_198)"/>
<path d="M266.2 113.6L271.9 206L243.3 220.2L266.2 113.6Z" fill="url(#paint8_linear_281_198)"/>
<path d="M83.8994 -3.7998L206.999 89.7002L193.699 -3.7998H83.8994Z" fill="url(#paint9_linear_281_198)"/>
<path d="M193.699 -3.7998L206.999 89.7002L266.199 113.6L197.999 -3.7998H193.699Z" fill="url(#paint10_linear_281_198)"/>
<path d="M243.299 220.2L266.199 113.6L206.999 89.7002L243.299 220.2Z" fill="url(#paint11_linear_281_198)"/>
<path d="M271.899 206L294.799 166.7L291.099 208.9L271.899 206Z" fill="url(#paint12_linear_281_198)"/>
<path d="M294.8 166.7L444 154.4L291.1 208.9L294.8 166.7Z" fill="url(#paint13_linear_281_198)"/>
<path d="M444 154.4L459.2 207.8L291.1 208.9L444 154.4Z" fill="url(#paint14_linear_281_198)"/>
<path d="M29.3994 199.1L243.299 220.2L41.0994 126.7L29.3994 199.1Z" fill="url(#paint15_linear_281_198)"/>
<path d="M80.6996 -3.7998L47.9996 18.5002L41.0996 126.7L82.0996 -3.7998H80.6996Z" fill="url(#paint16_linear_281_198)"/>
<path d="M82.0996 -3.7998L41.0996 126.7L207 89.7002L83.8996 -3.7998H82.0996Z" fill="url(#paint17_linear_281_198)"/>
<path d="M207 89.7002L243.3 220.2L41.0996 126.7L207 89.7002Z" fill="url(#paint18_linear_281_198)"/>
<path d="M-3.10059 136.3V163L41.0994 126.7L-3.10059 136.3Z" fill="url(#paint19_linear_281_198)"/>
<path d="M-3.10059 163V163.4L29.3994 199.1L41.0994 126.7L-3.10059 163Z" fill="url(#paint20_linear_281_198)"/>
<path d="M-3.10059 32.3V91.6L41.0994 126.7L47.9994 18.5L-3.10059 32.3Z" fill="url(#paint21_linear_281_198)"/>
<path d="M-3.10059 91.6001V136.3L41.0994 126.7L-3.10059 91.6001Z" fill="url(#paint22_linear_281_198)"/>
<path d="M-3.10059 -3.7998V32.3002L47.9994 18.5002L24.6994 -3.7998H-3.10059Z" fill="url(#paint23_linear_281_198)"/>
</g>
</g>
<path d="M30.1949 40.0826C27.8747 40.0826 26.1578 39.3296 25.0209 37.8237C24.348 36.9296 24 35.9179 24 34.7884C24 33.259 24.5568 31.9884 25.7169 30.9767C26.8538 29.9414 28.3387 29.4473 30.1949 29.4473H41.9582L40.8445 33.1649H30.2413C29.3596 33.1649 28.7564 33.4943 28.478 34.1531C28.3852 34.3649 28.3387 34.5767 28.3387 34.7649C28.3387 35.4002 28.6404 35.8708 29.2436 36.1531C29.522 36.2943 29.8701 36.3414 30.2181 36.3414H36.181C38.4084 36.3414 40.0789 37.0708 41.239 38.5061C41.9582 39.4237 42.3295 40.4826 42.3295 41.659C42.3295 43.1884 41.7726 44.459 40.6357 45.4473C39.4988 46.4355 38.0371 46.9531 36.2042 46.9531H24L25.1137 43.212H36.1578C37.0626 43.212 37.6427 42.8826 37.9211 42.2473C38.0139 42.059 38.0603 41.8473 38.0603 41.659C38.0603 41.0237 37.7819 40.5531 37.1787 40.2708C36.877 40.1296 36.529 40.059 36.1578 40.059C36.1578 40.0826 30.1949 40.0826 30.1949 40.0826Z" fill="white"/>
<path d="M51.0303 44.6471L52.5384 41.0706H57.3644L54.0001 33.7765L47.9677 46.9765H43.6289L51.8424 30.1294L55.9723 29L64.4874 46.9765H60.1254L59.0349 44.6471H51.0303Z" fill="white"/>
<path d="M71.5403 40.1061V47.0002H67.4336V29.4473H83.9533L82.8164 33.1649H71.5403V36.3649H82.0508V40.0826H71.5403V40.1061Z" fill="white"/>
<path d="M87.0166 29.4473H91.1233V47.0002H87.0166V29.4473Z" fill="white"/>
<path d="M95.7637 35.7531L99.8704 34.6237V37.7061H107.249C108.061 37.7061 108.618 37.2826 108.942 36.459C109.082 36.1296 109.128 35.7767 109.128 35.4002C109.128 34.5061 108.826 33.8473 108.246 33.4473C107.945 33.259 107.597 33.1649 107.249 33.1649H95.7637L96.8774 29.4473H107.295C109.43 29.4473 111.077 30.2237 112.26 31.8002C113.095 32.9296 113.49 34.2002 113.49 35.612C113.49 37.3061 112.933 38.7179 111.796 39.8237C111.193 40.3884 110.497 40.812 109.708 41.0943L114 46.9767H109.151L105.392 41.4473H99.8704V46.9767H95.7637V35.7531Z" fill="white"/>
<g filter="url(#filter0_i_281_198)">
<path fill-rule="evenodd" clip-rule="evenodd" d="M247.055 235.3L257.29 173.217H195L208.934 91.0824H270.831L281.066 29H363.582L353.347 91.0824H415.637L401.703 173.217H339.806L329.571 235.3H247.055ZM327.826 159.1H389.779L398.923 105.199H336.712L346.947 43.1169H293.046L282.811 105.199H220.857L211.713 159.1H273.925L263.689 221.183H317.59L327.826 159.1Z" fill="white"/>
</g>
<path fill-rule="evenodd" clip-rule="evenodd" d="M36.6221 170.662L69.6408 158.018L53.4675 150.99L36.6221 170.662Z" fill="#33AAD3"/>
<path fill-rule="evenodd" clip-rule="evenodd" d="M48.6836 166.068L69.6416 158.018L53.6265 150.99L48.6836 166.068Z" fill="#008CC5"/>
<mask id="mask1_281_198" style="mask-type:luminance" maskUnits="userSpaceOnUse" x="36" y="122" width="34" height="49">
<path d="M53.5852 151.147L69.6398 158.019L54.2179 150.794L53.4666 122.327V150.99L36.6211 170.662L53.5852 151.147Z" fill="white"/>
</mask>
<g mask="url(#mask1_281_198)">
<path d="M69.6398 122.327H36.6211V170.701H69.6398V122.327Z" fill="url(#paint24_linear_281_198)"/>
</g>
<mask id="mask2_281_198" style="mask-type:luminance" maskUnits="userSpaceOnUse" x="53" y="122" width="17" height="37">
<path d="M54.223 150.793L69.6449 158.018L53.4717 122.326L54.223 150.793Z" fill="white"/>
</mask>
<g mask="url(#mask2_281_198)">
<path d="M69.6449 122.326H53.4717V158.057H69.6449V122.326Z" fill="url(#paint25_linear_281_198)"/>
</g>
<path fill-rule="evenodd" clip-rule="evenodd" d="M53.9027 138.386L53.4678 122.327L65.1331 148.085L53.9027 138.386Z" fill="#33AAD3"/>
<path fill-rule="evenodd" clip-rule="evenodd" d="M53.4675 150.99V122.327L36.6221 170.662L53.4675 150.99Z" fill="#006FA7"/>
<path fill-rule="evenodd" clip-rule="evenodd" d="M69.6408 158.019L54.2584 149.93L53.5071 122.366L53.4675 122.327V122.366L52.5976 150.126L36.6221 170.662L53.5071 151.344L69.6012 158.058L69.6408 158.019Z" fill="white"/>
<path fill-rule="evenodd" clip-rule="evenodd" d="M54.0226 112L21.0039 124.643L37.1771 131.672L54.0226 112Z" fill="#33AAD3"/>
<path fill-rule="evenodd" clip-rule="evenodd" d="M41.9619 116.633L21.0039 124.643L37.019 131.671L41.9619 116.633Z" fill="#008CC5"/>
<mask id="mask3_281_198" style="mask-type:luminance" maskUnits="userSpaceOnUse" x="21" y="112" width="34" height="49">
<path d="M37.0546 131.554L21 124.643L36.4219 131.907L37.1732 160.375V131.672L54.0187 112L37.0546 131.554Z" fill="white"/>
</mask>
<g mask="url(#mask3_281_198)">
<path d="M54.0187 112H21V160.375H54.0187V112Z" fill="url(#paint26_linear_281_198)"/>
</g>
<mask id="mask4_281_198" style="mask-type:luminance" maskUnits="userSpaceOnUse" x="21" y="124" width="17" height="37">
<path d="M36.4219 131.908L21 124.644L37.1732 160.375L36.4219 131.908Z" fill="white"/>
</mask>
<g mask="url(#mask4_281_198)">
<path d="M37.1732 124.644H21V160.375H37.1732V124.644Z" fill="url(#paint27_linear_281_198)"/>
</g>
<path fill-rule="evenodd" clip-rule="evenodd" d="M36.7391 144.275L37.1741 160.374L25.5088 134.616L36.7391 144.275Z" fill="#33AAD3"/>
<path fill-rule="evenodd" clip-rule="evenodd" d="M37.1787 131.672V160.375L54.0242 112L37.1787 131.672Z" fill="#006FA7"/>
<path fill-rule="evenodd" clip-rule="evenodd" d="M21.0039 124.643L36.4258 132.771L37.1376 160.335L37.1771 160.375V160.335L38.0471 132.536L54.0226 112.039V112H53.9831L37.1376 131.318L21.0039 124.643Z" fill="white"/>
<path d="M54.5993 134.614L57.768 115.394H63.5858L60.4172 134.614H54.5993ZM48.9893 127.913L49.9762 122.095H69.1959L68.2089 127.913H48.9893Z" fill="url(#paint28_linear_281_198)"/>
<path fill-rule="evenodd" clip-rule="evenodd" d="M52.8041 136.138L53.9088 129.437H47.1855L48.6895 120.572H55.3704L56.4752 113.871H65.3816L64.2769 120.572H71.0002L69.4962 129.437H62.8153L61.7105 136.138H52.8041ZM61.5222 127.913H68.2092L69.1962 122.095H62.4814L63.5861 115.394H57.7683L56.6635 122.095H49.9765L48.9895 127.913H55.7043L54.5996 134.614H60.4175L61.5222 127.913Z" fill="white"/>
<path d="M122.631 46.054V33.9858H125.682V46.054H122.631ZM118.122 41.5455V38.4943H130.19V41.5455H118.122Z" fill="white"/>
</g>
<defs>
<filter id="filter0_i_281_198" x="195" y="29" width="220.637" height="210.3" filterUnits="userSpaceOnUse" color-interpolation-filters="sRGB">
<feFlood flood-opacity="0" result="BackgroundImageFix"/>
<feBlend mode="normal" in="SourceGraphic" in2="BackgroundImageFix" result="shape"/>
<feColorMatrix in="SourceAlpha" type="matrix" values="0 0 0 0 0 0 0 0 0 0 0 0 0 0 0 0 0 0 127 0" result="hardAlpha"/>
<feOffset dy="4"/>
<feGaussianBlur stdDeviation="2"/>
<feComposite in2="hardAlpha" operator="arithmetic" k2="-1" k3="1"/>
<feColorMatrix type="matrix" values="0 0 0 0 0 0 0 0 0 0 0 0 0 0 0 0 0 0 0.25 0"/>
<feBlend mode="normal" in2="shape" result="effect1_innerShadow_281_198"/>
</filter>
<linearGradient id="paint0_linear_281_198" x1="226.08" y1="76.5019" x2="30.8064" y2="155.687" gradientUnits="userSpaceOnUse">
<stop stop-color="#00ADF7"/>
<stop offset="1" stop-color="#013F6C"/>
</linearGradient>
<linearGradient id="paint1_linear_281_198" x1="273.049" y1="84.8878" x2="335.868" y2="209.826" gradientUnits="userSpaceOnUse">
<stop stop-color="white"/>
<stop offset="1"/>
</linearGradient>
<linearGradient id="paint2_linear_281_198" x1="287.946" y1="91.1703" x2="352.094" y2="214.463" gradientUnits="userSpaceOnUse">
<stop stop-color="white"/>
<stop offset="1"/>
</linearGradient>
<linearGradient id="paint3_linear_281_198" x1="200.823" y1="-30.2053" x2="333.278" y2="134.054" gradientUnits="userSpaceOnUse">
<stop stop-color="white"/>
<stop offset="1"/>
</linearGradient>
<linearGradient id="paint4_linear_281_198" x1="323.271" y1="-43.498" x2="343.128" y2="98.554" gradientUnits="userSpaceOnUse">
<stop stop-color="white"/>
<stop offset="1"/>
</linearGradient>
<linearGradient id="paint5_linear_281_198" x1="-46.0766" y1="-70.1931" x2="36.4935" y2="47.4358" gradientUnits="userSpaceOnUse">
<stop stop-color="white"/>
<stop offset="1"/>
</linearGradient>
<linearGradient id="paint6_linear_281_198" x1="263.439" y1="122.632" x2="315.644" y2="138.923" gradientUnits="userSpaceOnUse">
<stop stop-color="white"/>
<stop offset="1"/>
</linearGradient>
<linearGradient id="paint7_linear_281_198" x1="-31.3202" y1="161.469" x2="25.0657" y2="224.553" gradientUnits="userSpaceOnUse">
<stop stop-color="white"/>
<stop offset="1"/>
</linearGradient>
<linearGradient id="paint8_linear_281_198" x1="241.761" y1="118.768" x2="295.39" y2="133.275" gradientUnits="userSpaceOnUse">
<stop stop-color="white"/>
<stop offset="1"/>
</linearGradient>
<linearGradient id="paint9_linear_281_198" x1="104.977" y1="-31.5466" x2="205.844" y2="91.2843" gradientUnits="userSpaceOnUse">
<stop stop-color="white"/>
<stop offset="1"/>
</linearGradient>
<linearGradient id="paint10_linear_281_198" x1="180.817" y1="6.08459" x2="291.147" y2="70.9178" gradientUnits="userSpaceOnUse">
<stop stop-color="white"/>
<stop offset="1"/>
</linearGradient>
<linearGradient id="paint11_linear_281_198" x1="213.164" y1="76.2275" x2="311.752" y2="121.475" gradientUnits="userSpaceOnUse">
<stop stop-color="white"/>
<stop offset="1"/>
</linearGradient>
<linearGradient id="paint12_linear_281_198" x1="272.287" y1="166.265" x2="307.532" y2="185.622" gradientUnits="userSpaceOnUse">
<stop stop-color="white"/>
<stop offset="1"/>
</linearGradient>
<linearGradient id="paint13_linear_281_198" x1="290.749" y1="154.595" x2="324.828" y2="251.356" gradientUnits="userSpaceOnUse">
<stop stop-color="white"/>
<stop offset="1"/>
</linearGradient>
<linearGradient id="paint14_linear_281_198" x1="230.916" y1="137.837" x2="262.539" y2="236.516" gradientUnits="userSpaceOnUse">
<stop stop-color="white"/>
<stop offset="1"/>
</linearGradient>
<linearGradient id="paint15_linear_281_198" x1="-9.54499" y1="143.46" x2="58.317" y2="300.272" gradientUnits="userSpaceOnUse">
<stop stop-color="white"/>
<stop offset="1"/>
</linearGradient>
<linearGradient id="paint16_linear_281_198" x1="40.7774" y1="-4.1338" x2="116.888" y2="20.0144" gradientUnits="userSpaceOnUse">
<stop stop-color="white"/>
<stop offset="1"/>
</linearGradient>
<linearGradient id="paint17_linear_281_198" x1="11.2774" y1="19.7054" x2="138.346" y2="181.602" gradientUnits="userSpaceOnUse">
<stop stop-color="white"/>
<stop offset="1"/>
</linearGradient>
<linearGradient id="paint18_linear_281_198" x1="167.14" y1="45.0705" x2="136.703" y2="201.82" gradientUnits="userSpaceOnUse">
<stop stop-color="white"/>
<stop offset="1"/>
</linearGradient>
<linearGradient id="paint19_linear_281_198" x1="-43.9758" y1="121.643" x2="-20.2283" y2="186.031" gradientUnits="userSpaceOnUse">
<stop stop-color="white"/>
<stop offset="1"/>
</linearGradient>
<linearGradient id="paint20_linear_281_198" x1="2.51851" y1="118.428" x2="66.9118" y2="158.309" gradientUnits="userSpaceOnUse">
<stop stop-color="white"/>
<stop offset="1"/>
</linearGradient>
<linearGradient id="paint21_linear_281_198" x1="-37.1873" y1="-4.7265" x2="70.6235" y2="102.866" gradientUnits="userSpaceOnUse">
<stop stop-color="white"/>
<stop offset="1"/>
</linearGradient>
<linearGradient id="paint22_linear_281_198" x1="-61.9128" y1="50.7896" x2="38.3546" y2="151.228" gradientUnits="userSpaceOnUse">
<stop stop-color="white"/>
<stop offset="1"/>
</linearGradient>
<linearGradient id="paint23_linear_281_198" x1="-59.5655" y1="-68.1419" x2="58.4985" y2="35.4524" gradientUnits="userSpaceOnUse">
<stop stop-color="white"/>
<stop offset="1"/>
</linearGradient>
<linearGradient id="paint24_linear_281_198" x1="53.1259" y1="121.934" x2="53.1259" y2="162.079" gradientUnits="userSpaceOnUse">
<stop stop-color="#33AAD3"/>
<stop offset="1" stop-color="white"/>
</linearGradient>
<linearGradient id="paint25_linear_281_198" x1="53.28" y1="140.181" x2="61.583" y2="140.181" gradientUnits="userSpaceOnUse">
<stop stop-color="#006FA7"/>
<stop offset="1" stop-color="#33AAD3"/>
</linearGradient>
<linearGradient id="paint26_linear_281_198" x1="37.515" y1="160.755" x2="37.515" y2="120.597" gradientUnits="userSpaceOnUse">
<stop stop-color="#33AAD3"/>
<stop offset="1" stop-color="white"/>
</linearGradient>
<linearGradient id="paint27_linear_281_198" x1="37.3673" y1="142.504" x2="29.0587" y2="142.504" gradientUnits="userSpaceOnUse">
<stop stop-color="#006FA7"/>
<stop offset="1" stop-color="#33AAD3"/>
</linearGradient>
<linearGradient id="paint28_linear_281_198" x1="48.9972" y1="128.815" x2="69.2405" y2="129.138" gradientUnits="userSpaceOnUse">
<stop stop-color="#1689BA"/>
<stop offset="1" stop-color="#006FA7"/>
</linearGradient>
<clipPath id="clip0_281_198">
<rect width="320" height="196" rx="10" fill="white"/>
</clipPath>
</defs>
</svg>
