<svg width="320" height="196" viewBox="0 0 320 196" fill="none" xmlns="http://www.w3.org/2000/svg">
<g clip-path="url(#clip0_59_1374)">
<rect width="320" height="196" rx="10" fill="#F1DC4C"/>
<path d="M32.6094 25.8364V28.8151C31.7526 28.203 30.406 27.8358 29.3044 27.8358C28.2027 27.8358 27.5498 28.2438 27.5498 28.8559C27.5498 29.4679 28.2027 29.7535 29.386 30.2024C31.1813 30.8552 33.3847 31.7121 33.3847 34.3235C33.3847 36.8125 31.5077 38.5262 28.4067 38.5262C26.7746 38.5262 25.2648 38.0366 24.3264 37.3838V34.2419C25.2648 35.0172 26.6929 35.6292 28.0395 35.6292C29.2636 35.6292 29.998 35.1396 29.998 34.4051C29.998 33.6299 29.1003 33.3034 27.8354 32.8138C26.3257 32.2425 24.2448 31.3449 24.2448 28.9375C24.2448 26.6525 26.0401 24.8979 29.0595 24.8979C30.4469 24.9388 31.6709 25.306 32.6094 25.8364Z" fill="black"/>
<path d="M34.568 33.4257C34.568 30.3246 36.6898 28.2437 38.8931 28.2437C40.3621 28.2437 41.3821 28.9781 41.9942 29.8758L42.3206 28.4885H45.0952V38.2813H42.3206L41.9942 36.8939C41.3821 37.7916 40.3621 38.5261 38.8931 38.5261C36.6898 38.5261 34.568 36.4451 34.568 33.4257ZM41.8718 33.3849C41.8718 32.0792 41.0149 31.1407 39.8724 31.1407C38.6891 31.1407 37.8323 32.12 37.8323 33.3849C37.8323 34.6498 38.6891 35.629 39.8724 35.629C41.0149 35.629 41.8718 34.6906 41.8718 33.3849Z" fill="black"/>
<path d="M47.9922 31.1814H46.6865V28.4884H48.033V27.6723C48.033 25.8361 49.3795 24 52.0726 24C52.807 24 53.3375 24.0816 54.0311 24.2856V27.0194C53.6639 26.897 53.215 26.8154 52.6846 26.8154C51.7461 26.8154 51.2157 27.1419 51.2157 27.9171V28.4884H53.7047V31.1814H51.2565V38.2812H47.9922V31.1814ZM55.1736 25.7545C55.1736 24.8161 55.9081 24.0408 56.8873 24.0408C57.8258 24.0408 58.6011 24.8161 58.6011 25.7545C58.6011 26.7338 57.8258 27.4683 56.8873 27.4683C55.9081 27.4683 55.1736 26.7338 55.1736 25.7545ZM55.2552 28.4884H58.5195V38.2812H55.2552V28.4884Z" fill="black"/>
<path d="M60.6414 28.4886H63.2528L63.5792 29.9167H63.62C64.2729 28.7742 65.3337 28.3662 66.2314 28.3662C66.517 28.3662 66.7618 28.3662 66.9659 28.4478V31.4673C66.6802 31.3857 66.3946 31.3449 66.109 31.3449C64.9665 31.3449 63.9056 31.9569 63.9056 33.7114V38.1998H60.6414V28.4886Z" fill="black"/>
<path d="M30.9366 52.0731C31.5486 52.0731 32.0791 51.9507 32.5279 51.7058V47.7071H35.5473V53.6236C34.2824 54.4805 32.7727 55.0517 30.855 55.0517C27.1827 55.0517 24 52.3995 24 48.1967C24 43.994 27.2235 41.3418 30.8958 41.3418C32.5687 41.3418 33.9152 41.7498 34.9761 42.3619V45.5853C33.8336 44.7285 32.4871 44.402 31.3038 44.402C28.8964 44.402 27.3459 46.075 27.3459 48.2376C27.3459 50.4817 28.8556 52.0731 30.9366 52.0731Z" fill="black"/>
<path d="M37.4243 40.6885H40.6886V54.8064H37.4243V40.6885Z" fill="black"/>
<path d="M42.2799 49.8692C42.2799 46.7682 44.6057 44.728 47.5435 44.728C50.4814 44.728 52.7663 46.809 52.7663 49.8692C52.7663 52.9295 50.4814 55.0513 47.5435 55.0513C44.6057 55.0513 42.2799 52.9295 42.2799 49.8692ZM49.5021 49.8692C49.5021 48.4411 48.5228 47.6251 47.5435 47.6251C46.5643 47.6251 45.585 48.4411 45.585 49.8692C45.585 51.2974 46.5643 52.1134 47.5435 52.1134C48.5228 52.1134 49.5021 51.2974 49.5021 49.8692Z" fill="black"/>
<path d="M57.6219 46.3193C58.1932 45.3809 59.4173 44.728 60.6414 44.728C62.8855 44.728 64.8441 46.7274 64.8441 49.91C64.8441 53.0519 62.7223 55.0512 60.4782 55.0512C59.0908 55.0512 58.03 54.3168 57.4179 53.4191L57.1323 54.8064H54.3577V40.6885H57.6219V46.3193ZM57.6219 49.8692C57.6219 51.1749 58.438 52.1134 59.6213 52.1134C60.8046 52.1134 61.6207 51.1341 61.6207 49.8692C61.6207 48.6043 60.7638 47.5842 59.5805 47.5842C58.438 47.625 57.6219 48.5635 57.6219 49.8692Z" fill="black"/>
<path d="M66.0275 49.91C66.0275 46.809 68.1492 44.728 70.3526 44.728C71.8215 44.728 72.8416 45.4625 73.4537 46.3602L73.7801 44.9728H76.5547V54.7656H73.7801L73.4537 53.3783C72.8416 54.276 71.8215 55.0105 70.3526 55.0105C68.1492 55.0513 66.0275 52.9295 66.0275 49.91ZM73.3313 49.8692C73.3313 48.5635 72.4744 47.6251 71.3727 47.6251C70.1894 47.6251 69.3325 48.6043 69.3325 49.8692C69.3325 51.1341 70.1894 52.1134 71.3727 52.1134C72.4744 52.1134 73.3313 51.1749 73.3313 49.8692Z" fill="black"/>
<path d="M78.6357 40.6885H81.9V54.8064H78.6357V40.6885Z" fill="black"/>
<path d="M32.6095 58.8047V61.7833C31.7527 61.1713 30.4062 60.804 29.3045 60.804C28.2028 60.804 27.5499 61.2121 27.5499 61.8241C27.5499 62.4362 28.2028 62.7218 29.3861 63.1706C31.1814 63.8235 33.3848 64.6804 33.3848 67.2918C33.3848 69.7808 31.5079 71.4945 28.4068 71.4945C26.7747 71.4945 25.265 71.0049 24.3265 70.352V67.2102C25.265 67.9854 26.6931 68.5975 28.0396 68.5975C29.2637 68.5975 29.9981 68.1078 29.9981 67.3734C29.9981 66.5981 29.1005 66.2717 27.8356 65.782C26.3258 65.2108 24.2449 64.3131 24.2449 61.9057C24.2449 59.6208 26.0402 57.8662 29.0597 57.8662C30.447 57.907 31.6711 58.2742 32.6095 58.8047Z" fill="black"/>
<path d="M34.9354 67.2103V61.457H38.1997V67.1695C38.1997 68.1488 38.6893 68.5976 39.5462 68.5976C40.4439 68.5976 40.9335 68.108 40.9335 67.1695V61.457H44.1978V67.2103C44.1978 69.6993 42.4432 71.5354 39.5462 71.5354C36.6492 71.5354 34.9354 69.6993 34.9354 67.2103Z" fill="black"/>
<path d="M60.5599 64.8029V71.2499H57.2956V65.4966C57.2956 64.5581 57.01 64.1501 56.1939 64.1501C55.4187 64.1501 55.0106 64.6805 55.0106 65.3742V71.2907H51.7464V65.5374C51.7464 64.5989 51.4608 64.1909 50.6447 64.1909C49.8286 64.1909 49.4614 64.8029 49.4614 65.5374V71.3315H46.1971V61.5387H48.7269L49.0534 62.8852H49.135C49.6654 62.0283 50.4815 61.2939 51.8688 61.2939C53.2561 61.2939 54.113 61.9467 54.6026 62.926C55.2555 61.9059 56.1939 61.2939 57.418 61.2939C59.5398 61.2122 60.5599 62.6404 60.5599 64.8029Z" fill="black"/>
<path d="M77.0036 64.8029V71.2499H73.7394V65.4966C73.7394 64.5581 73.4537 64.1501 72.6377 64.1501C71.8624 64.1501 71.4544 64.6805 71.4544 65.3742V71.2907H68.1901V65.5374C68.1901 64.5989 67.9045 64.1909 67.0884 64.1909C66.2724 64.1909 65.9051 64.8029 65.9051 65.5374V71.3315H62.6409V61.5387H65.1707L65.4971 62.8852H65.5787C66.1091 62.0283 66.9252 61.2939 68.3125 61.2939C69.6998 61.2939 70.5567 61.9467 71.0463 62.926C71.6992 61.9059 72.6377 61.2939 73.8618 61.2939C75.9427 61.2122 77.0036 62.6404 77.0036 64.8029Z" fill="black"/>
<path d="M78.9213 58.7235C78.9213 57.785 79.6557 57.0098 80.635 57.0098C81.5735 57.0098 82.3487 57.785 82.3487 58.7235C82.3487 59.7028 81.5735 60.4372 80.635 60.4372C79.6965 60.4372 78.9213 59.7028 78.9213 58.7235ZM79.0437 61.4573H82.3079V71.2501H79.0437V61.4573Z" fill="black"/>
<path d="M88.1837 61.4571H90.7543V64.1501H88.1837V67.1695C88.1837 68.2712 88.9589 68.7201 90.0198 68.7201C90.2646 68.7201 90.5911 68.6793 90.8767 68.6384V71.3723C90.387 71.4947 89.9382 71.5355 89.2038 71.5355C86.4291 71.5355 85.0418 69.9034 85.0418 67.3735V64.1501H83.6953V61.4571H85.0418V59.2129H88.1837V61.4571Z" fill="black"/>
<path d="M31.8343 83.002C31.8343 84.6341 30.6102 85.9398 28.2028 85.9398H24.9794V75.127H27.9988C30.243 75.127 31.4263 76.3102 31.4263 77.9016C31.4263 79.2073 30.7326 79.9825 29.7942 80.3498C31.1407 80.7986 31.8343 81.7371 31.8343 83.002ZM25.9586 79.9825H27.9988C29.5493 79.9825 30.4062 79.1665 30.4062 77.9832C30.4062 76.7591 29.5085 76.1062 28.1212 76.1062H25.9178L25.9586 79.9825ZM30.8142 82.9612C30.8142 81.6555 29.7126 80.921 28.2844 80.921H25.9586V85.0422H28.2028C29.8758 85.0013 30.8142 84.1445 30.8142 82.9612Z" fill="black"/>
<path d="M33.9153 83.0426V78.187H34.8946V83.0834C34.8946 84.3891 35.6698 85.2052 36.9347 85.2052C38.1996 85.2052 39.0565 84.3891 39.0565 83.0834V78.187H40.0358V83.0426C40.0358 84.8787 38.8525 86.1437 36.9347 86.1437C35.0578 86.1437 33.9153 84.8787 33.9153 83.0426Z" fill="black"/>
<path d="M42.076 82.0632C42.076 79.5742 43.7898 77.9828 45.6259 77.9828C46.7276 77.9828 47.8701 78.5541 48.4414 79.5742V74.3105H49.4206V85.9395H48.6046L48.4822 84.4298C47.8701 85.5723 46.7276 86.1027 45.6259 86.1027C43.7898 86.1435 42.076 84.5522 42.076 82.0632ZM48.4822 82.0632C48.4822 80.227 47.2581 78.9621 45.7892 78.9621C44.2794 78.9621 43.0961 80.1862 43.0961 82.0632C43.0961 83.9401 44.2794 85.1642 45.7892 85.1642C47.2989 85.1642 48.4822 83.8993 48.4822 82.0632Z" fill="black"/>
<path d="M51.5424 82.0637C51.5424 79.5747 53.2561 77.9834 55.0922 77.9834C56.1939 77.9834 57.3364 78.5138 57.9485 79.6563L58.0709 78.1466H58.8869V85.94H58.0709L57.9485 84.4303C57.3364 85.5728 56.1939 86.1032 55.0922 86.1032C53.2561 86.1441 51.5424 84.5527 51.5424 82.0637ZM57.9485 82.0637C57.9485 80.2276 56.7244 78.9627 55.2555 78.9627C53.7457 78.9627 52.5624 80.1868 52.5624 82.0637C52.5624 83.9407 53.7457 85.1648 55.2555 85.1648C56.7244 85.1648 57.9485 83.8999 57.9485 82.0637Z" fill="black"/>
<path d="M61.4983 78.1466H62.2736L62.396 79.6563C63.008 78.5138 64.1505 77.9834 65.2522 77.9834C67.1291 77.9834 68.8429 79.5747 68.8429 82.0229C68.8429 84.5527 67.1291 86.1032 65.2522 86.1032C64.1505 86.1032 63.008 85.532 62.4776 84.5119V89.0003H61.4983V78.1466ZM67.8636 82.0637C67.8636 80.2276 66.6803 78.9627 65.1706 78.9627C63.6609 78.9627 62.4776 80.2276 62.4776 82.0637C62.4776 83.8999 63.6609 85.1648 65.1706 85.1648C66.6803 85.1648 67.8636 83.9407 67.8636 82.0637Z" fill="black"/>
<path d="M77.4117 82.4312H71.4544C71.6176 84.1449 72.7193 85.2058 74.3106 85.2058C75.2083 85.2058 76.1468 84.8794 77.0037 84.1041V85.2058C76.1876 85.8178 75.2899 86.1443 74.2698 86.1443C71.9441 86.1443 70.4343 84.5529 70.4343 82.1047C70.4343 79.5749 72.1889 78.0244 74.1474 78.0244C75.9428 78.0244 77.4117 79.3709 77.4117 81.9415C77.4525 82.1047 77.4117 82.268 77.4117 82.4312ZM76.4732 81.5743C76.4324 79.7382 75.2899 78.9221 74.1474 78.9221C72.8417 78.9221 71.6584 79.9422 71.4544 81.5743H76.4732Z" fill="black"/>
<path d="M84.1033 78.6765V79.7782C83.532 79.2885 82.716 78.9213 81.7775 78.9213C80.7166 78.9213 80.1046 79.411 80.1046 80.1454C80.1046 80.9615 80.839 81.2063 81.9815 81.5735C83.1648 81.9408 84.5113 82.308 84.5113 83.8585C84.5113 85.2458 83.4504 86.1435 81.7367 86.1435C80.7574 86.1435 79.8189 85.8579 79.0845 85.2458V84.0625C79.6965 84.7154 80.5942 85.2458 81.7367 85.2458C82.8792 85.2458 83.5728 84.6746 83.5728 83.9401C83.5728 83.0833 82.7568 82.7976 81.6143 82.4304C80.3086 82.0224 79.1661 81.6551 79.1661 80.3086C79.1661 79.0437 80.227 78.1053 81.8591 78.1053C82.6752 77.9828 83.5728 78.2685 84.1033 78.6765Z" fill="black"/>
<path d="M87.8164 78.1462H90.1014V79.0439H87.8164V83.2874C87.8164 84.5931 88.5508 85.1236 89.6117 85.1236C89.8157 85.1236 90.0606 85.0828 90.3054 85.042V85.9396C90.2238 85.9396 89.8973 86.0212 89.4893 86.0212C87.9388 86.0212 86.8371 85.0828 86.8371 83.3282V79.0439H85.6538V78.1462H86.8779V76.3101H87.8572L87.8164 78.1462Z" fill="black"/>
<path d="M172.584 62.5522C172.584 62.5522 171.326 61.6534 171.326 60.9342V51.9454H173.843V60.9342C173.843 61.6534 172.584 62.5522 172.584 62.5522Z" stroke="#090438" stroke-miterlimit="10" stroke-linecap="round" stroke-linejoin="round"/>
<path d="M223.282 19.4054C223.282 19.4054 223.282 69.9229 223.282 72.7994C223.282 73.5185 221.843 78.5522 221.843 78.5522C221.843 78.5522 220.405 73.3387 220.405 72.7994C220.405 70.4623 220.405 19.4054 220.405 19.4054" stroke="#090438" stroke-miterlimit="10" stroke-linecap="round" stroke-linejoin="round"/>
<path d="M166.472 48.8887H178.697" stroke="#090438" stroke-miterlimit="10" stroke-linecap="round" stroke-linejoin="round"/>
<path d="M166.472 23.7207H178.697" stroke="#090438" stroke-miterlimit="10" stroke-linecap="round" stroke-linejoin="round"/>
<path d="M280.99 23.7207H293.035" stroke="#090438" stroke-miterlimit="10" stroke-linecap="round" stroke-linejoin="round"/>
<path d="M168.27 66.1479H176.899" stroke="#090438" stroke-miterlimit="10" stroke-linecap="round" stroke-linejoin="round"/>
<path d="M170.247 69.3841V69.7437" stroke="#090438" stroke-miterlimit="10" stroke-linecap="round" stroke-linejoin="round"/>
<path d="M170.247 74.0574V74.417" stroke="#090438" stroke-miterlimit="10" stroke-linecap="round" stroke-linejoin="round"/>
<path d="M170.247 78.7322V79.0918" stroke="#090438" stroke-miterlimit="10" stroke-linecap="round" stroke-linejoin="round"/>
<path d="M172.584 69.3841V69.7437" stroke="#090438" stroke-miterlimit="10" stroke-linecap="round" stroke-linejoin="round"/>
<path d="M172.584 74.0574V74.417" stroke="#090438" stroke-miterlimit="10" stroke-linecap="round" stroke-linejoin="round"/>
<path d="M172.584 78.7322V79.0918" stroke="#090438" stroke-miterlimit="10" stroke-linecap="round" stroke-linejoin="round"/>
<path d="M172.584 83.4066V83.7661" stroke="#090438" stroke-miterlimit="10" stroke-linecap="round" stroke-linejoin="round"/>
<path d="M174.922 69.3841V69.7437" stroke="#090438" stroke-miterlimit="10" stroke-linecap="round" stroke-linejoin="round"/>
<path d="M174.922 74.0574V74.417" stroke="#090438" stroke-miterlimit="10" stroke-linecap="round" stroke-linejoin="round"/>
<path d="M174.922 78.7322V79.0918" stroke="#090438" stroke-miterlimit="10" stroke-linecap="round" stroke-linejoin="round"/>
<path d="M172.584 87.9006V88.4399" stroke="#090438" stroke-miterlimit="10" stroke-linecap="round" stroke-linejoin="round"/>
<path d="M172.584 92.5754V93.1147" stroke="#090438" stroke-miterlimit="10" stroke-linecap="round" stroke-linejoin="round"/>
<path d="M233.349 50.1471C233.349 48.1696 231.731 46.5516 229.754 46.5516C227.776 46.5516 226.158 48.1696 226.158 50.1471C226.158 52.1247 227.776 53.7427 229.754 53.7427C231.731 53.7427 233.349 52.1247 233.349 50.1471Z" stroke="#090438" stroke-miterlimit="10" stroke-linecap="round" stroke-linejoin="round"/>
<path d="M225.439 67.2261C225.439 66.6867 224.9 66.1474 224.36 66.1474C223.821 66.1474 223.282 66.6867 223.282 67.2261" stroke="#090438" stroke-miterlimit="10" stroke-linecap="round" stroke-linejoin="round"/>
<path d="M227.596 67.2261C227.596 66.6867 227.057 66.1474 226.518 66.1474C225.978 66.1474 225.439 66.6867 225.439 67.2261" stroke="#090438" stroke-miterlimit="10" stroke-linecap="round" stroke-linejoin="round"/>
<path d="M229.754 67.2261C229.754 66.6867 229.214 66.1474 228.675 66.1474C228.136 66.1474 227.596 66.6867 227.596 67.2261" stroke="#090438" stroke-miterlimit="10" stroke-linecap="round" stroke-linejoin="round"/>
<path d="M225.439 57.1587H229.754" stroke="#090438" stroke-miterlimit="10" stroke-linecap="round" stroke-linejoin="round"/>
<path d="M225.439 63.2715V59.1366" stroke="#090438" stroke-miterlimit="10" stroke-linecap="round" stroke-linejoin="round"/>
<path d="M227.596 63.2715V59.1366" stroke="#090438" stroke-miterlimit="10" stroke-linecap="round" stroke-linejoin="round"/>
<path d="M229.754 63.2715V59.1366" stroke="#090438" stroke-miterlimit="10" stroke-linecap="round" stroke-linejoin="round"/>
<path d="M231.731 50.147C231.731 50.6863 231.372 51.0458 230.832 51.2256C230.653 51.765 230.293 52.1245 229.754 52.1245C229.214 52.1245 228.855 51.765 228.675 51.2256C228.136 51.0458 227.776 50.6863 227.776 50.147C227.776 49.6076 228.136 49.2481 228.675 49.0683C228.855 48.529 229.214 48.1694 229.754 48.1694C230.293 48.1694 230.653 48.529 230.832 49.0683C231.372 49.0683 231.731 49.6076 231.731 50.147Z" stroke="#090438" stroke-miterlimit="10" stroke-linecap="round" stroke-linejoin="round"/>
<path d="M236.405 19.4054C236.405 19.4054 236.405 69.9229 236.405 72.7994C236.405 73.5185 237.844 78.5522 237.844 78.5522C237.844 78.5522 239.282 73.3387 239.282 72.7994C239.282 70.4623 239.282 19.4054 239.282 19.4054" stroke="#090438" stroke-miterlimit="10" stroke-linecap="round" stroke-linejoin="round"/>
<path d="M234.248 67.2261C234.248 66.6867 234.787 66.1474 235.327 66.1474C235.866 66.1474 236.405 66.6867 236.405 67.2261" stroke="#090438" stroke-miterlimit="10" stroke-linecap="round" stroke-linejoin="round"/>
<path d="M232.091 67.2261C232.091 66.6867 232.63 66.1474 233.169 66.1474C233.709 66.1474 234.248 66.6867 234.248 67.2261" stroke="#090438" stroke-miterlimit="10" stroke-linecap="round" stroke-linejoin="round"/>
<path d="M229.754 67.2261C229.754 66.6867 230.293 66.1474 230.832 66.1474C231.372 66.1474 231.911 66.6867 231.911 67.2261" stroke="#090438" stroke-miterlimit="10" stroke-linecap="round" stroke-linejoin="round"/>
<path d="M234.248 57.1587H229.754" stroke="#090438" stroke-miterlimit="10" stroke-linecap="round" stroke-linejoin="round"/>
<path d="M234.248 63.2715V59.1366" stroke="#090438" stroke-miterlimit="10" stroke-linecap="round" stroke-linejoin="round"/>
<path d="M232.091 63.2715V59.1366" stroke="#090438" stroke-miterlimit="10" stroke-linecap="round" stroke-linejoin="round"/>
<path d="M229.754 63.2715V59.1366" stroke="#090438" stroke-miterlimit="10" stroke-linecap="round" stroke-linejoin="round"/>
<path d="M207.102 2.50631C207.102 2.50631 207.102 69.9229 207.102 72.7994C207.102 73.5185 205.664 78.5522 205.664 78.5522C205.664 78.5522 204.225 73.3387 204.225 72.7994C204.225 70.4623 204.225 20.8436 204.225 20.8436" stroke="#090438" stroke-miterlimit="10" stroke-linecap="round" stroke-linejoin="round"/>
<path d="M217.349 50.1471C217.349 48.1696 215.731 46.5516 213.754 46.5516C211.776 46.5516 210.158 48.1696 210.158 50.1471C210.158 52.1247 211.776 53.7427 213.754 53.7427C215.731 53.7427 217.349 52.1247 217.349 50.1471Z" stroke="#090438" stroke-miterlimit="10" stroke-linecap="round" stroke-linejoin="round"/>
<path d="M209.259 67.2261C209.259 66.6867 208.72 66.1474 208.18 66.1474C207.641 66.1474 207.102 66.6867 207.102 67.2261" stroke="#090438" stroke-miterlimit="10" stroke-linecap="round" stroke-linejoin="round"/>
<path d="M211.596 67.2261C211.596 66.6867 211.057 66.1474 210.518 66.1474C209.978 66.1474 209.439 66.6867 209.439 67.2261" stroke="#090438" stroke-miterlimit="10" stroke-linecap="round" stroke-linejoin="round"/>
<path d="M213.753 67.2261C213.753 66.6867 213.214 66.1474 212.675 66.1474C212.135 66.1474 211.596 66.6867 211.596 67.2261" stroke="#090438" stroke-miterlimit="10" stroke-linecap="round" stroke-linejoin="round"/>
<path d="M209.259 57.1587H213.753" stroke="#090438" stroke-miterlimit="10" stroke-linecap="round" stroke-linejoin="round"/>
<path d="M209.259 63.2715V59.1366" stroke="#090438" stroke-miterlimit="10" stroke-linecap="round" stroke-linejoin="round"/>
<path d="M211.596 63.2715V59.1366" stroke="#090438" stroke-miterlimit="10" stroke-linecap="round" stroke-linejoin="round"/>
<path d="M213.753 63.2715V59.1366" stroke="#090438" stroke-miterlimit="10" stroke-linecap="round" stroke-linejoin="round"/>
<path d="M215.731 50.147C215.731 50.6863 215.372 51.0458 214.832 51.2256C214.832 51.765 214.293 52.1245 213.754 52.1245C213.214 52.1245 212.855 51.765 212.675 51.2256C212.136 51.0458 211.776 50.6863 211.776 50.147C211.776 49.6076 212.136 49.2481 212.675 49.0683C212.675 48.529 213.214 48.1694 213.754 48.1694C214.293 48.1694 214.652 48.529 214.832 49.0683C215.192 49.0683 215.731 49.6076 215.731 50.147Z" stroke="#090438" stroke-miterlimit="10" stroke-linecap="round" stroke-linejoin="round"/>
<path d="M220.405 7.89963C220.405 7.89963 220.405 69.9229 220.405 72.7994C220.405 73.5185 221.843 78.5522 221.843 78.5522C221.843 78.5522 223.282 73.3387 223.282 72.7994C223.282 70.4623 223.282 4.66363 223.282 4.66363" stroke="#090438" stroke-miterlimit="10" stroke-linecap="round" stroke-linejoin="round"/>
<path d="M218.068 67.2261C218.068 66.6867 218.607 66.1474 219.147 66.1474C219.686 66.1474 220.225 66.6867 220.225 67.2261" stroke="#090438" stroke-miterlimit="10" stroke-linecap="round" stroke-linejoin="round"/>
<path d="M215.911 67.2261C215.911 66.6867 216.45 66.1474 216.989 66.1474C217.529 66.1474 218.068 66.6867 218.068 67.2261" stroke="#090438" stroke-miterlimit="10" stroke-linecap="round" stroke-linejoin="round"/>
<path d="M213.753 67.2261C213.753 66.6867 214.293 66.1474 214.832 66.1474C215.371 66.1474 215.911 66.6867 215.911 67.2261" stroke="#090438" stroke-miterlimit="10" stroke-linecap="round" stroke-linejoin="round"/>
<path d="M218.068 57.1587H213.753" stroke="#090438" stroke-miterlimit="10" stroke-linecap="round" stroke-linejoin="round"/>
<path d="M218.068 63.2715V59.1366" stroke="#090438" stroke-miterlimit="10" stroke-linecap="round" stroke-linejoin="round"/>
<path d="M215.911 63.2715V59.1366" stroke="#090438" stroke-miterlimit="10" stroke-linecap="round" stroke-linejoin="round"/>
<path d="M213.753 63.2715V59.1366" stroke="#090438" stroke-miterlimit="10" stroke-linecap="round" stroke-linejoin="round"/>
<path d="M190.922 -3.96588C190.922 -3.96588 190.922 53.563 190.922 67.2261" stroke="#090438" stroke-miterlimit="10" stroke-linecap="round" stroke-linejoin="round"/>
<path d="M201.169 50.1471C201.169 48.1696 199.551 46.5516 197.573 46.5516C195.596 46.5516 193.978 48.1696 193.978 50.1471C193.978 52.1247 195.596 53.7427 197.573 53.7427C199.551 53.7427 201.169 52.1247 201.169 50.1471Z" stroke="#090438" stroke-miterlimit="10" stroke-linecap="round" stroke-linejoin="round"/>
<path d="M193.259 57.1587H197.574" stroke="#090438" stroke-miterlimit="10" stroke-linecap="round" stroke-linejoin="round"/>
<path d="M193.259 63.2715V59.1366" stroke="#090438" stroke-miterlimit="10" stroke-linecap="round" stroke-linejoin="round"/>
<path d="M195.416 63.2715V59.1366" stroke="#090438" stroke-miterlimit="10" stroke-linecap="round" stroke-linejoin="round"/>
<path d="M197.573 63.2715V59.1366" stroke="#090438" stroke-miterlimit="10" stroke-linecap="round" stroke-linejoin="round"/>
<path d="M199.551 50.147C199.551 50.6863 199.192 51.0458 198.652 51.2256C198.652 51.765 198.113 52.1245 197.574 52.1245C197.034 52.1245 196.675 51.765 196.495 51.2256C195.956 51.0458 195.596 50.6863 195.596 50.147C195.596 49.6076 195.956 49.2481 196.495 49.0683C196.495 48.529 197.034 48.1694 197.574 48.1694C198.113 48.1694 198.472 48.529 198.652 49.0683C199.192 49.0683 199.551 49.6076 199.551 50.147Z" stroke="#090438" stroke-miterlimit="10" stroke-linecap="round" stroke-linejoin="round"/>
<path d="M204.225 1.06808C204.225 1.06808 204.225 70.1027 204.225 72.7994C204.225 73.5185 205.664 78.5522 205.664 78.5522C205.664 78.5522 207.102 73.3387 207.102 72.7994C207.102 70.4623 207.102 19.4054 207.102 19.4054" stroke="#090438" stroke-miterlimit="10" stroke-linecap="round" stroke-linejoin="round"/>
<path d="M202.068 67.2261C202.068 66.6867 202.607 66.1474 203.147 66.1474C203.686 66.1474 204.225 66.6867 204.225 67.2261" stroke="#090438" stroke-miterlimit="10" stroke-linecap="round" stroke-linejoin="round"/>
<path d="M200.989 66.1474C201.529 66.1474 202.068 66.6867 202.068 67.2261" stroke="#090438" stroke-miterlimit="10" stroke-linecap="round" stroke-linejoin="round"/>
<path d="M202.068 57.1587H197.573" stroke="#090438" stroke-miterlimit="10" stroke-linecap="round" stroke-linejoin="round"/>
<path d="M202.068 63.2715V59.1366" stroke="#090438" stroke-miterlimit="10" stroke-linecap="round" stroke-linejoin="round"/>
<path d="M199.911 63.2715V59.1366" stroke="#090438" stroke-miterlimit="10" stroke-linecap="round" stroke-linejoin="round"/>
<path d="M197.573 63.2715V59.1366" stroke="#090438" stroke-miterlimit="10" stroke-linecap="round" stroke-linejoin="round"/>
<path d="M212.675 66.1473C212.675 76.035 213.034 94.3723 227.057 110.373" stroke="#090438" stroke-miterlimit="10" stroke-linecap="round" stroke-linejoin="round"/>
<path d="M223.282 72.799C223.282 81.7879 224.181 98.5072 228.495 110.373" stroke="#090438" stroke-miterlimit="10" stroke-linecap="round" stroke-linejoin="round"/>
<path d="M229.754 98.1479L228.495 94.7322H229.754" stroke="#090438" stroke-miterlimit="10" stroke-linecap="round" stroke-linejoin="round"/>
<path d="M229.754 98.1479L231.192 94.7322H229.754" stroke="#090438" stroke-miterlimit="10" stroke-linecap="round" stroke-linejoin="round"/>
<path d="M221.484 98.1479L220.046 94.7322H221.484" stroke="#090438" stroke-miterlimit="10" stroke-linecap="round" stroke-linejoin="round"/>
<path d="M221.484 98.1479L222.922 94.7322H221.484" stroke="#090438" stroke-miterlimit="10" stroke-linecap="round" stroke-linejoin="round"/>
<path d="M214.473 98.1479L213.034 94.7322H214.473" stroke="#090438" stroke-miterlimit="10" stroke-linecap="round" stroke-linejoin="round"/>
<path d="M214.473 98.1479L215.911 94.7322H214.473" stroke="#090438" stroke-miterlimit="10" stroke-linecap="round" stroke-linejoin="round"/>
<path d="M287.103 62.5522C287.103 62.5522 288.361 61.6534 288.361 60.9342V51.9454H285.844V60.9342C285.844 61.6534 287.103 62.5522 287.103 62.5522Z" stroke="#090438" stroke-miterlimit="10" stroke-linecap="round" stroke-linejoin="round"/>
<path d="M236.405 19.4054C236.405 19.4054 236.405 69.9229 236.405 72.7994C236.405 73.5185 237.844 78.5522 237.844 78.5522C237.844 78.5522 239.282 73.3387 239.282 72.7994C239.282 70.4623 239.282 19.4054 239.282 19.4054" stroke="#090438" stroke-miterlimit="10" stroke-linecap="round" stroke-linejoin="round"/>
<path d="M293.035 48.8887H280.99" stroke="#090438" stroke-miterlimit="10" stroke-linecap="round" stroke-linejoin="round"/>
<path d="M291.418 66.1479H282.788" stroke="#090438" stroke-miterlimit="10" stroke-linecap="round" stroke-linejoin="round"/>
<path d="M289.26 69.3841V69.7437" stroke="#090438" stroke-miterlimit="10" stroke-linecap="round" stroke-linejoin="round"/>
<path d="M289.26 74.0574V74.417" stroke="#090438" stroke-miterlimit="10" stroke-linecap="round" stroke-linejoin="round"/>
<path d="M289.26 78.7322V79.0918" stroke="#090438" stroke-miterlimit="10" stroke-linecap="round" stroke-linejoin="round"/>
<path d="M287.103 69.3841V69.7437" stroke="#090438" stroke-miterlimit="10" stroke-linecap="round" stroke-linejoin="round"/>
<path d="M287.103 74.0574V74.417" stroke="#090438" stroke-miterlimit="10" stroke-linecap="round" stroke-linejoin="round"/>
<path d="M287.103 78.7322V79.0918" stroke="#090438" stroke-miterlimit="10" stroke-linecap="round" stroke-linejoin="round"/>
<path d="M287.103 83.4066V83.7661" stroke="#090438" stroke-miterlimit="10" stroke-linecap="round" stroke-linejoin="round"/>
<path d="M284.766 69.3841V69.7437" stroke="#090438" stroke-miterlimit="10" stroke-linecap="round" stroke-linejoin="round"/>
<path d="M284.766 74.0574V74.417" stroke="#090438" stroke-miterlimit="10" stroke-linecap="round" stroke-linejoin="round"/>
<path d="M284.766 78.7322V79.0918" stroke="#090438" stroke-miterlimit="10" stroke-linecap="round" stroke-linejoin="round"/>
<path d="M287.103 87.9006V88.4399" stroke="#090438" stroke-miterlimit="10" stroke-linecap="round" stroke-linejoin="round"/>
<path d="M287.103 92.5754V93.1147" stroke="#090438" stroke-miterlimit="10" stroke-linecap="round" stroke-linejoin="round"/>
<path d="M234.248 67.2261C234.248 66.6867 234.787 66.1474 235.327 66.1474C235.866 66.1474 236.405 66.6867 236.405 67.2261" stroke="#090438" stroke-miterlimit="10" stroke-linecap="round" stroke-linejoin="round"/>
<path d="M232.091 67.2261C232.091 66.6867 232.63 66.1474 233.169 66.1474C233.709 66.1474 234.248 66.6867 234.248 67.2261" stroke="#090438" stroke-miterlimit="10" stroke-linecap="round" stroke-linejoin="round"/>
<path d="M229.754 67.2261C229.754 66.6867 230.293 66.1474 230.832 66.1474C231.372 66.1474 231.911 66.6867 231.911 67.2261" stroke="#090438" stroke-miterlimit="10" stroke-linecap="round" stroke-linejoin="round"/>
<path d="M234.248 63.2715V59.1366" stroke="#090438" stroke-miterlimit="10" stroke-linecap="round" stroke-linejoin="round"/>
<path d="M232.091 63.2715V59.1366" stroke="#090438" stroke-miterlimit="10" stroke-linecap="round" stroke-linejoin="round"/>
<path d="M229.754 63.2715V59.1366" stroke="#090438" stroke-miterlimit="10" stroke-linecap="round" stroke-linejoin="round"/>
<path d="M229.754 63.2715V59.1366" stroke="#090438" stroke-miterlimit="10" stroke-linecap="round" stroke-linejoin="round"/>
<path d="M252.585 16.529C252.585 16.529 252.585 69.9229 252.585 72.7994C252.585 73.5185 254.024 78.5522 254.024 78.5522C254.024 78.5522 255.462 73.3387 255.462 72.7994C255.462 70.4623 255.462 13.8323 255.462 13.8323" stroke="#090438" stroke-miterlimit="10" stroke-linecap="round" stroke-linejoin="round"/>
<path d="M242.338 50.1471C242.338 48.1696 243.956 46.5516 245.934 46.5516C247.911 46.5516 249.529 48.1696 249.529 50.1471C249.529 52.1247 247.911 53.7427 245.934 53.7427C243.956 53.7427 242.338 52.1247 242.338 50.1471Z" stroke="#090438" stroke-miterlimit="10" stroke-linecap="round" stroke-linejoin="round"/>
<path d="M250.248 67.2261C250.248 66.6867 250.788 66.1474 251.327 66.1474C251.866 66.1474 252.406 66.6867 252.406 67.2261" stroke="#090438" stroke-miterlimit="10" stroke-linecap="round" stroke-linejoin="round"/>
<path d="M248.091 67.2261C248.091 66.6867 248.63 66.1474 249.17 66.1474C249.709 66.1474 250.248 66.6867 250.248 67.2261" stroke="#090438" stroke-miterlimit="10" stroke-linecap="round" stroke-linejoin="round"/>
<path d="M245.934 67.2261C245.934 66.6867 246.473 66.1474 247.012 66.1474C247.552 66.1474 248.091 66.6867 248.091 67.2261" stroke="#090438" stroke-miterlimit="10" stroke-linecap="round" stroke-linejoin="round"/>
<path d="M250.248 57.1587H245.934" stroke="#090438" stroke-miterlimit="10" stroke-linecap="round" stroke-linejoin="round"/>
<path d="M250.248 63.2715V59.1366" stroke="#090438" stroke-miterlimit="10" stroke-linecap="round" stroke-linejoin="round"/>
<path d="M248.091 63.2715V59.1366" stroke="#090438" stroke-miterlimit="10" stroke-linecap="round" stroke-linejoin="round"/>
<path d="M245.934 63.2715V59.1366" stroke="#090438" stroke-miterlimit="10" stroke-linecap="round" stroke-linejoin="round"/>
<path d="M243.956 50.147C243.956 50.6863 244.316 51.0458 244.855 51.2256C245.035 51.765 245.394 52.1245 245.934 52.1245C246.473 52.1245 246.833 51.765 247.012 51.2256C247.552 51.0458 247.911 50.6863 247.911 50.147C247.911 49.6076 247.552 49.2481 247.012 49.0683C246.833 48.529 246.473 48.1694 245.934 48.1694C245.394 48.1694 245.035 48.529 244.855 49.0683C244.316 49.0683 243.956 49.6076 243.956 50.147Z" stroke="#090438" stroke-miterlimit="10" stroke-linecap="round" stroke-linejoin="round"/>
<path d="M239.282 15.0911C239.282 15.0911 239.282 70.1031 239.282 72.9795C239.282 73.6986 237.844 78.7324 237.844 78.7324C237.844 78.7324 236.405 73.5189 236.405 72.9795C236.405 70.6424 236.405 10.0574 236.405 10.0574" stroke="#090438" stroke-miterlimit="10" stroke-linecap="round" stroke-linejoin="round"/>
<path d="M241.439 67.2261C241.439 66.6867 240.9 66.1474 240.361 66.1474C239.821 66.1474 239.282 66.6867 239.282 67.2261" stroke="#090438" stroke-miterlimit="10" stroke-linecap="round" stroke-linejoin="round"/>
<path d="M243.776 67.2261C243.776 66.6867 243.237 66.1474 242.698 66.1474C242.158 66.1474 241.619 66.6867 241.619 67.2261" stroke="#090438" stroke-miterlimit="10" stroke-linecap="round" stroke-linejoin="round"/>
<path d="M245.934 67.2261C245.934 66.6867 245.394 66.1474 244.855 66.1474C244.316 66.1474 243.776 66.6867 243.776 67.2261" stroke="#090438" stroke-miterlimit="10" stroke-linecap="round" stroke-linejoin="round"/>
<path d="M241.439 57.1587H245.934" stroke="#090438" stroke-miterlimit="10" stroke-linecap="round" stroke-linejoin="round"/>
<path d="M241.439 63.2715V59.1366" stroke="#090438" stroke-miterlimit="10" stroke-linecap="round" stroke-linejoin="round"/>
<path d="M243.776 63.2715V59.1366" stroke="#090438" stroke-miterlimit="10" stroke-linecap="round" stroke-linejoin="round"/>
<path d="M245.934 63.2715V59.1366" stroke="#090438" stroke-miterlimit="10" stroke-linecap="round" stroke-linejoin="round"/>
<path d="M268.586 -41.0001C268.586 -41.0001 268.586 53.563 268.586 67.2261" stroke="#090438" stroke-miterlimit="10" stroke-linecap="round" stroke-linejoin="round"/>
<path d="M258.338 50.1471C258.338 48.1696 259.956 46.5516 261.934 46.5516C263.911 46.5516 265.529 48.1696 265.529 50.1471C265.529 52.1247 263.911 53.7427 261.934 53.7427C259.956 53.7427 258.338 52.1247 258.338 50.1471Z" stroke="#090438" stroke-miterlimit="10" stroke-linecap="round" stroke-linejoin="round"/>
<path d="M266.428 57.1587H261.934" stroke="#090438" stroke-miterlimit="10" stroke-linecap="round" stroke-linejoin="round"/>
<path d="M266.428 63.2715V59.1366" stroke="#090438" stroke-miterlimit="10" stroke-linecap="round" stroke-linejoin="round"/>
<path d="M264.271 63.2715V59.1366" stroke="#090438" stroke-miterlimit="10" stroke-linecap="round" stroke-linejoin="round"/>
<path d="M261.934 63.2715V59.1366" stroke="#090438" stroke-miterlimit="10" stroke-linecap="round" stroke-linejoin="round"/>
<path d="M260.136 50.147C260.136 50.6863 260.496 51.0458 261.035 51.2256C261.215 51.765 261.574 52.1245 262.114 52.1245C262.653 52.1245 263.013 51.765 263.192 51.2256C263.732 51.0458 264.091 50.6863 264.091 50.147C264.091 49.6076 263.732 49.2481 263.192 49.0683C263.013 48.529 262.653 48.1694 262.114 48.1694C261.574 48.1694 261.215 48.529 261.035 49.0683C260.496 49.0683 260.136 49.6076 260.136 50.147Z" stroke="#090438" stroke-miterlimit="10" stroke-linecap="round" stroke-linejoin="round"/>
<path d="M255.462 20.8436C255.462 20.8436 255.462 69.9229 255.462 72.7994C255.462 73.5185 254.024 78.5522 254.024 78.5522C254.024 78.5522 252.585 73.3387 252.585 72.7994C252.585 70.4623 252.585 19.4054 252.585 19.4054" stroke="#090438" stroke-miterlimit="10" stroke-linecap="round" stroke-linejoin="round"/>
<path d="M257.619 67.2261C257.619 66.6867 257.08 66.1474 256.541 66.1474C256.001 66.1474 255.462 66.6867 255.462 67.2261" stroke="#090438" stroke-miterlimit="10" stroke-linecap="round" stroke-linejoin="round"/>
<path d="M258.698 66.1474C258.159 66.1474 257.619 66.6867 257.619 67.2261" stroke="#090438" stroke-miterlimit="10" stroke-linecap="round" stroke-linejoin="round"/>
<path d="M257.619 57.1587H261.934" stroke="#090438" stroke-miterlimit="10" stroke-linecap="round" stroke-linejoin="round"/>
<path d="M257.619 63.2715V59.1366" stroke="#090438" stroke-miterlimit="10" stroke-linecap="round" stroke-linejoin="round"/>
<path d="M259.777 63.2715V59.1366" stroke="#090438" stroke-miterlimit="10" stroke-linecap="round" stroke-linejoin="round"/>
<path d="M261.934 63.2715V59.1366" stroke="#090438" stroke-miterlimit="10" stroke-linecap="round" stroke-linejoin="round"/>
<path d="M247.012 66.1473C247.012 76.035 246.653 94.3723 232.63 110.373" stroke="#090438" stroke-miterlimit="10" stroke-linecap="round" stroke-linejoin="round"/>
<path d="M236.405 72.799C236.405 81.7879 235.507 98.5072 231.192 110.373" stroke="#090438" stroke-miterlimit="10" stroke-linecap="round" stroke-linejoin="round"/>
<path d="M238.203 98.1479L239.641 94.7322H238.203" stroke="#090438" stroke-miterlimit="10" stroke-linecap="round" stroke-linejoin="round"/>
<path d="M238.203 98.1479L236.765 94.7322H238.203" stroke="#090438" stroke-miterlimit="10" stroke-linecap="round" stroke-linejoin="round"/>
<path d="M245.214 98.1479L246.653 94.7322H245.214" stroke="#090438" stroke-miterlimit="10" stroke-linecap="round" stroke-linejoin="round"/>
<path d="M245.214 98.1479L243.776 94.7322H245.214" stroke="#090438" stroke-miterlimit="10" stroke-linecap="round" stroke-linejoin="round"/>
<path d="M299.687 -12.1281V19.7649L286.923 107.856L274.159 19.7649V-5.07729L271.462 14.5514C271.462 14.5514 271.462 70.4622 271.462 72.7993C271.462 73.5184 270.024 78.5522 270.024 78.5522C270.024 78.5522 268.586 73.3387 268.586 72.7993C268.586 72.26 268.586 70.2824 268.586 67.2262C268.586 66.6869 268.046 66.1476 267.507 66.1476C266.968 66.1476 266.428 66.6869 266.428 67.2262C266.428 66.6869 265.889 66.1476 265.35 66.1476C264.81 66.1476 264.271 66.6869 264.271 67.2262C264.271 66.6869 263.732 66.1476 263.192 66.1476C262.653 66.1476 262.114 66.6869 262.114 67.2262C262.114 66.6869 261.574 66.1476 261.035 66.1476C260.496 66.1476 259.956 66.6869 259.956 67.2262C259.956 66.6869 259.417 66.1476 258.878 66.1476C258.878 86.4624 247.552 101.024 234.428 110.373V113.789L235.686 115.407C235.686 115.407 235.686 118.283 235.686 120.081C235.686 123.317 233.17 124.755 233.17 124.755V131.407L232.091 130.508L229.934 157.475L227.956 130.328L226.698 131.407V124.935C226.698 124.935 224.181 123.497 224.181 120.261C224.181 118.643 224.181 115.586 224.181 115.586L225.439 113.968V110.553C212.495 101.024 200.989 86.4624 200.989 66.1476C200.45 66.1476 199.911 66.6869 199.911 67.2262C199.911 66.6869 199.371 66.1476 198.832 66.1476C198.293 66.1476 197.753 66.6869 197.753 67.2262C197.753 66.6869 197.214 66.1476 196.675 66.1476C196.135 66.1476 195.596 66.6869 195.596 67.2262C195.596 66.6869 195.057 66.1476 194.517 66.1476C193.978 66.1476 193.439 66.6869 193.439 67.2262C193.439 66.6869 192.899 66.1476 192.36 66.1476C191.821 66.1476 191.281 66.6869 191.281 67.2262C191.281 70.2824 191.281 72.26 191.281 72.7993C191.281 73.5184 189.843 78.5522 189.843 78.5522C189.843 78.5522 188.405 73.3387 188.405 72.7993C188.405 70.4622 188.405 14.5514 188.405 14.5514L185.528 -7.56129V19.7649L172.764 107.856L160 19.7649V-17.2693" stroke="#090438" stroke-miterlimit="10" stroke-linecap="round" stroke-linejoin="round"/>
<path d="M287.103 41.6982C287.103 41.6982 285.485 40.6196 285.485 39.7207V28.934H288.541V39.7207C288.541 40.6196 287.103 41.6982 287.103 41.6982Z" stroke="#090438" stroke-miterlimit="10" stroke-linecap="round" stroke-linejoin="round"/>
<path d="M284.046 41.6982C284.046 41.6982 282.428 40.6196 282.428 39.7207V28.934H285.485V39.7207C285.485 40.6196 284.046 41.6982 284.046 41.6982Z" stroke="#090438" stroke-miterlimit="10" stroke-linecap="round" stroke-linejoin="round"/>
<path d="M290.159 41.6982C290.159 41.6982 288.541 40.6196 288.541 39.7207V28.934H291.597V39.7207C291.777 40.6196 290.159 41.6982 290.159 41.6982Z" stroke="#090438" stroke-miterlimit="10" stroke-linecap="round" stroke-linejoin="round"/>
<path d="M172.584 41.6982C172.584 41.6982 170.966 40.6196 170.966 39.7207V28.934H174.202V39.7207C174.202 40.6196 172.584 41.6982 172.584 41.6982Z" stroke="#090438" stroke-miterlimit="10" stroke-linecap="round" stroke-linejoin="round"/>
<path d="M169.528 41.6982C169.528 41.6982 167.91 40.6196 167.91 39.7207V28.934H170.966V39.7207C170.966 40.6196 169.528 41.6982 169.528 41.6982Z" stroke="#090438" stroke-miterlimit="10" stroke-linecap="round" stroke-linejoin="round"/>
<path d="M175.641 41.6982C175.641 41.6982 174.023 40.6196 174.023 39.7207V28.934H177.079V39.7207C177.259 40.6196 175.641 41.6982 175.641 41.6982Z" stroke="#090438" stroke-miterlimit="10" stroke-linecap="round" stroke-linejoin="round"/>
<path d="M294.653 6.28125H287.103" stroke="#090438" stroke-miterlimit="10" stroke-linecap="round" stroke-linejoin="round"/>
<path d="M294.653 17.0679V9.69699" stroke="#090438" stroke-miterlimit="10" stroke-linecap="round" stroke-linejoin="round"/>
<path d="M290.878 17.0679V9.69699" stroke="#090438" stroke-miterlimit="10" stroke-linecap="round" stroke-linejoin="round"/>
<path d="M287.103 17.0679V9.69699" stroke="#090438" stroke-miterlimit="10" stroke-linecap="round" stroke-linejoin="round"/>
<path d="M279.372 6.28125H287.103" stroke="#090438" stroke-miterlimit="10" stroke-linecap="round" stroke-linejoin="round"/>
<path d="M279.372 17.0679V9.69699" stroke="#090438" stroke-miterlimit="10" stroke-linecap="round" stroke-linejoin="round"/>
<path d="M283.328 17.0679V9.69699" stroke="#090438" stroke-miterlimit="10" stroke-linecap="round" stroke-linejoin="round"/>
<path d="M287.103 17.0679V9.69699" stroke="#090438" stroke-miterlimit="10" stroke-linecap="round" stroke-linejoin="round"/>
<path d="M180.315 6.28125H172.584" stroke="#090438" stroke-miterlimit="10" stroke-linecap="round" stroke-linejoin="round"/>
<path d="M180.315 17.0679V9.69699" stroke="#090438" stroke-miterlimit="10" stroke-linecap="round" stroke-linejoin="round"/>
<path d="M176.36 17.0679V9.69699" stroke="#090438" stroke-miterlimit="10" stroke-linecap="round" stroke-linejoin="round"/>
<path d="M172.584 17.0679V9.69699" stroke="#090438" stroke-miterlimit="10" stroke-linecap="round" stroke-linejoin="round"/>
<path d="M164.854 6.28125H172.584" stroke="#090438" stroke-miterlimit="10" stroke-linecap="round" stroke-linejoin="round"/>
<path d="M164.854 17.0679V9.69699" stroke="#090438" stroke-miterlimit="10" stroke-linecap="round" stroke-linejoin="round"/>
<path d="M168.809 17.0679V9.69699" stroke="#090438" stroke-miterlimit="10" stroke-linecap="round" stroke-linejoin="round"/>
<path d="M172.584 17.0679V9.69699" stroke="#090438" stroke-miterlimit="10" stroke-linecap="round" stroke-linejoin="round"/>
<path d="M39.1721 128.065C37.7781 128.065 36.4475 127.81 35.1169 127.237L24.5989 122.65C24.2821 122.459 24.0287 122.14 24.0287 121.694C24.0287 121.312 24.2821 120.93 24.6623 120.802L59.8912 107.169C60.3348 106.978 60.7783 107.169 61.0317 107.551C61.2852 107.934 61.2218 108.443 60.9684 108.762L46.8388 124.688C44.8112 126.854 42.0233 128.065 39.1721 128.065ZM27.5769 121.822L35.9406 125.453C39.2354 126.854 43.0371 126.026 45.3815 123.35L56.8499 110.482L27.5769 121.822Z" fill="#090438"/>
<path d="M41.6426 172.404C41.3258 172.404 41.009 172.276 40.8189 171.958C40.5655 171.576 40.6289 171.066 40.8823 170.747L55.4554 154.311C58.1166 151.317 62.3618 150.362 66.0368 151.954L77.2517 156.923C77.6319 157.051 77.822 157.433 77.822 157.815C77.822 158.197 77.5685 158.58 77.1884 158.707L41.9594 172.34C41.8961 172.404 41.7694 172.404 41.6426 172.404ZM62.4252 153.228C60.3976 153.228 58.4334 154.057 56.9761 155.713L45.0641 169.091L74.3371 157.752L65.3398 153.865C64.3894 153.42 63.3756 153.228 62.4252 153.228Z" fill="#090438"/>
<path d="M36.2571 126.791C34.8631 126.791 33.5325 126.536 32.2019 125.963L24.5986 122.65C24.2818 122.459 24.0283 122.14 24.0283 121.694C24.0283 121.312 24.2818 120.93 24.6619 120.802L47.0285 112.138C47.4087 112.011 47.7888 112.075 48.0423 112.33C48.2957 112.584 48.4225 113.03 48.2957 113.349L45.9514 119.974C45.0009 122.65 43.0367 124.752 40.3756 125.899C39.045 126.536 37.651 126.791 36.2571 126.791ZM27.5766 121.822L33.0256 124.179C35.1166 125.071 37.4609 125.071 39.6152 124.179C41.7061 123.287 43.3535 121.567 44.1139 119.337L45.7613 114.75L27.5766 121.822Z" fill="#090438"/>
<path d="M54.505 167.436C54.2516 167.436 53.9981 167.372 53.808 167.181C53.5546 166.926 53.4279 166.48 53.5546 166.162L56.8494 157.052C57.6097 155.013 59.067 153.421 61.0312 152.529C62.9954 151.637 65.2131 151.637 67.1773 152.529L77.2518 156.924C77.6319 157.052 77.822 157.434 77.822 157.816C77.822 158.199 77.5686 158.581 77.1884 158.708L54.8218 167.372C54.7585 167.436 54.6317 167.436 54.505 167.436ZM64.1359 153.867C63.3756 153.867 62.6153 153.994 61.8549 154.376C60.3976 155.013 59.2571 156.224 58.6869 157.753L56.1524 164.824L74.2738 157.816L66.417 154.376C65.72 153.994 64.8963 153.867 64.1359 153.867Z" fill="#090438"/>
<path d="M42.2129 161.32C41.8327 161.32 41.4525 161.065 41.3258 160.747L24.0915 122.141C23.9014 121.759 24.0282 121.313 24.2816 121.058C24.5984 120.803 24.9786 120.676 25.3587 120.867L36.7004 126.282C40.1853 127.938 42.403 131.378 42.5297 135.264L43.1633 160.301C43.1633 160.747 42.8465 161.193 42.403 161.256C42.403 161.256 42.2762 161.32 42.2129 161.32ZM27.0061 123.734L41.1357 155.459L40.6288 135.328C40.5655 132.207 38.728 129.403 35.8767 128.002L27.0061 123.734Z" fill="#090438"/>
<path d="M77.0849 158.529C76.9582 158.529 76.8314 158.465 76.6413 158.465L63.9691 152.413C61.3079 151.139 59.6605 148.527 59.5338 145.596L58.8368 119.031C58.8368 118.585 59.1536 118.139 59.5971 118.075C60.0407 118.012 60.4842 118.203 60.6743 118.649L77.9086 157.254C78.0987 157.637 77.9719 158.083 77.7185 158.337C77.5918 158.465 77.3383 158.529 77.0849 158.529ZM64.7928 150.629L75.1207 155.534L60.9277 123.809L61.498 145.533C61.5613 147.762 62.8286 149.673 64.7928 150.629Z" fill="#090438"/>
<path d="M42.2129 161.255C41.8328 161.255 41.4526 161.001 41.3259 160.682L28.907 132.906C28.7169 132.46 28.8437 132.015 29.2238 131.696C29.604 131.441 30.1109 131.441 30.4277 131.76L39.6785 139.85C41.6427 141.57 42.7832 143.991 42.8465 146.603L43.1633 160.364C43.1633 160.81 42.8465 161.255 42.403 161.319C42.403 161.255 42.2763 161.255 42.2129 161.255ZM32.5186 136.155L41.1358 155.458L40.8823 146.603C40.819 144.565 39.9319 142.653 38.4112 141.316L32.5186 136.155Z" fill="#090438"/>
<path d="M72.2695 147.763C72.0161 147.763 71.826 147.699 71.6359 147.508L63.1455 140.118C60.7377 138.016 59.2804 134.958 59.2171 131.709L58.9003 119.032C58.9003 118.586 59.2171 118.14 59.6606 118.076C60.1041 117.949 60.5477 118.204 60.7377 118.65L73.1566 146.489C73.3467 146.935 73.2199 147.381 72.8398 147.699C72.7131 147.699 72.4596 147.763 72.2695 147.763ZM60.9278 123.81L61.1179 131.646C61.1813 134.321 62.3851 136.869 64.4127 138.653L69.545 143.176L60.9278 123.81Z" fill="#090438"/>
<path d="M42.2129 161.319C42.1495 161.319 42.0862 161.319 42.0228 161.319C41.5793 161.255 41.1991 160.809 41.1991 160.363V132.842C41.1991 130.422 42.0862 128.065 43.6068 126.217L59.5105 107.488C59.8273 107.105 60.3342 107.042 60.7144 107.296C61.0946 107.551 61.2847 107.997 61.1579 108.443L43.1633 160.682C43.0366 161 42.6564 161.319 42.2129 161.319ZM57.6097 112.711L45.1909 127.427C43.9236 128.956 43.2267 130.868 43.2267 132.779V154.502L57.6097 112.711Z" fill="#090438"/>
<path d="M41.6426 172.404C41.4525 172.404 41.3258 172.34 41.1357 172.276C40.7555 172.021 40.5655 171.575 40.6922 171.13L58.6868 118.891C58.8135 118.445 59.3204 118.19 59.7639 118.254C60.2075 118.318 60.5876 118.763 60.5876 119.209V147.686C60.5876 149.533 59.954 151.317 58.7502 152.719L42.4029 172.085C42.2128 172.276 41.896 172.404 41.6426 172.404ZM58.6868 125.07L44.3038 166.861L57.3562 151.444C58.2433 150.425 58.7502 149.087 58.7502 147.686L58.6868 125.07Z" fill="#090438"/>
</g>
<defs>
<clipPath id="clip0_59_1374">
<rect width="320" height="196" rx="10" fill="white"/>
</clipPath>
</defs>
</svg>
