<svg width="320" height="196" viewBox="0 0 320 196" fill="none" xmlns="http://www.w3.org/2000/svg">
<g clip-path="url(#clip0_58_588)">
<rect width="320" height="196" rx="10" fill="#FFD987"/>
<path d="M432.167 76.7982C432.159 65.8097 423.213 56.8632 412.224 56.8556L122.948 56.6563L-230 409.604L88.9828 728.587L432.412 386.133L432.167 76.7982Z" fill="black"/>
<path d="M138.663 276.136L322.573 276.042L322.669 184.07L414.608 184.007L414.449 367.917L322.51 367.981L138.632 368.107L138.663 276.136Z" fill="white"/>
<path d="M228.792 259.103L136.853 259.166L136.979 75.288L228.918 75.2247L412.829 75.0654L412.766 167.069L228.855 167.164L228.792 259.103Z" fill="#FFD987"/>
<path d="M105.607 96.8157C105.605 94.2346 103.504 92.1332 100.922 92.1314L32.974 92.0846L-49.9303 174.989L24.9959 249.915L105.665 169.476L105.607 96.8157Z" fill="black"/>
<path d="M36.6652 143.638L79.8641 143.616L79.8867 122.013L101.482 121.998L101.445 165.197L79.8493 165.212L36.6579 165.242L36.6652 143.638Z" fill="white"/>
<path d="M57.8358 139.637L36.2401 139.652L36.2699 96.4611L57.8656 96.4462L101.065 96.4088L101.05 118.02L57.8507 118.042L57.8358 139.637Z" fill="#FFD987"/>
<path d="M34.9858 34.5653C34.9176 33.8778 34.625 33.3437 34.108 32.9631C33.5909 32.5824 32.8892 32.392 32.0028 32.392C31.4006 32.392 30.892 32.4773 30.4773 32.6477C30.0625 32.8125 29.7443 33.0426 29.5227 33.3381C29.3068 33.6335 29.1989 33.9688 29.1989 34.3438C29.1875 34.6562 29.2528 34.929 29.3949 35.1619C29.5426 35.3949 29.7443 35.5966 30 35.767C30.2557 35.9318 30.5511 36.0767 30.8864 36.2017C31.2216 36.321 31.5795 36.4233 31.9602 36.5085L33.5284 36.8835C34.2898 37.054 34.9886 37.2812 35.625 37.5653C36.2614 37.8494 36.8125 38.1989 37.2784 38.6136C37.7443 39.0284 38.1051 39.517 38.3608 40.0795C38.6222 40.642 38.7557 41.2869 38.7614 42.0142C38.7557 43.0824 38.483 44.0085 37.9432 44.7926C37.4091 45.571 36.6364 46.1761 35.625 46.608C34.6193 47.0341 33.4063 47.2472 31.9858 47.2472C30.5767 47.2472 29.3494 47.0312 28.304 46.5994C27.2642 46.1676 26.4517 45.5284 25.8665 44.6818C25.2869 43.8295 24.983 42.7756 24.9545 41.5199H28.5256C28.5653 42.1051 28.733 42.5937 29.0284 42.9858C29.3295 43.3722 29.7301 43.6648 30.2301 43.8636C30.7358 44.0568 31.3068 44.1534 31.9432 44.1534C32.5682 44.1534 33.1108 44.0625 33.571 43.8807C34.0369 43.6989 34.3977 43.446 34.6534 43.1222C34.9091 42.7983 35.0369 42.4261 35.0369 42.0057C35.0369 41.6136 34.9205 41.2841 34.6875 41.017C34.4602 40.75 34.125 40.5227 33.6818 40.3352C33.2443 40.1477 32.7074 39.9773 32.071 39.8239L30.1705 39.3466C28.6989 38.9886 27.5369 38.429 26.6847 37.6676C25.8324 36.9062 25.4091 35.8807 25.4148 34.5909C25.4091 33.5341 25.6903 32.6108 26.2585 31.821C26.8324 31.0312 27.6193 30.4148 28.6193 29.9716C29.6193 29.5284 30.7557 29.3068 32.0284 29.3068C33.3239 29.3068 34.4545 29.5284 35.4205 29.9716C36.392 30.4148 37.1477 31.0312 37.6875 31.821C38.2273 32.6108 38.5057 33.5256 38.5227 34.5653H34.9858ZM45.1726 47L40.1783 29.5455H44.2095L47.0987 41.6733H47.2436L50.4311 29.5455H53.8828L57.0618 41.6989H57.2152L60.1044 29.5455H64.1357L59.1413 47H55.5447L52.2209 35.5881H52.0845L48.7692 47H45.1726ZM67.3615 47H63.407L69.4325 29.5455H74.1882L80.2053 47H76.2507L71.8786 33.5341H71.7422L67.3615 47ZM67.1143 40.1392H76.4553V43.0199H67.1143V40.1392ZM82.3061 47V29.5455H89.1925C90.5163 29.5455 91.6442 29.7983 92.576 30.304C93.5078 30.804 94.218 31.5 94.7067 32.392C95.201 33.2784 95.4482 34.3011 95.4482 35.4602C95.4482 36.6193 95.1982 37.642 94.6982 38.5284C94.1982 39.4148 93.4737 40.1051 92.5249 40.5994C91.5817 41.0937 90.4396 41.3409 89.0987 41.3409H84.7095V38.3835H88.5021C89.2124 38.3835 89.7976 38.2614 90.2578 38.017C90.7237 37.767 91.0703 37.4233 91.2976 36.9858C91.5305 36.5426 91.647 36.0341 91.647 35.4602C91.647 34.8807 91.5305 34.375 91.2976 33.9432C91.0703 33.5057 90.7237 33.1676 90.2578 32.929C89.7919 32.6847 89.201 32.5625 88.4851 32.5625H85.9964V47H82.3061Z" fill="black"/>
<path d="M193.297 159.982C195.233 161.914 197.859 163 200.597 163C203.335 163 205.961 161.914 207.897 159.982C209.833 158.049 210.921 155.428 210.921 152.695C210.921 149.962 209.833 147.341 207.897 145.409L184.231 121.799H365.682C368.419 121.799 371.043 120.714 372.978 118.782C374.913 116.851 376 114.231 376 111.5C376 108.769 374.913 106.149 372.978 104.218C371.043 102.286 368.419 101.201 365.682 101.201H184.231L207.897 77.591C209.833 75.6585 210.921 73.0375 210.921 70.3046C210.921 67.5716 209.833 64.9506 207.897 63.0181C205.961 61.0857 203.335 60 200.597 60C197.859 60 195.233 61.0857 193.297 63.0181L152.026 104.214C151.067 105.17 150.306 106.306 149.786 107.556C149.267 108.806 149 110.147 149 111.5C149 112.853 149.267 114.194 149.786 115.444C150.306 116.694 151.067 117.83 152.026 118.786L193.297 159.982Z" fill="black"/>
<path d="M183.733 216.982C181.798 218.914 179.174 220 176.438 220C173.702 220 171.078 218.914 169.143 216.982C167.208 215.049 166.121 212.428 166.121 209.695C166.121 206.962 167.208 204.341 169.143 202.409L192.793 178.799H129.311C126.576 178.799 123.954 177.714 122.02 175.782C120.086 173.851 119 171.231 119 168.5C119 165.769 120.086 163.149 122.02 161.218C123.954 159.286 126.576 158.201 129.311 158.201H192.793L169.143 134.591C167.208 132.659 166.121 130.038 166.121 127.305C166.121 124.572 167.208 121.951 169.143 120.018C171.078 118.086 173.702 117 176.438 117C179.174 117 181.798 118.086 183.733 120.018L224.976 161.214C225.935 162.17 226.695 163.306 227.214 164.556C227.733 165.806 228 167.147 228 168.5C228 169.853 227.733 171.194 227.214 172.444C226.695 173.694 225.935 174.83 224.976 175.786L183.733 216.982Z" fill="black"/>
</g>
<defs>
<clipPath id="clip0_58_588">
<rect width="320" height="196" rx="10" fill="white"/>
</clipPath>
</defs>
</svg>
