<svg width="320" height="196" viewBox="0 0 320 196" fill="none" xmlns="http://www.w3.org/2000/svg">
<g clip-path="url(#clip0_86_4538)">
<rect width="320" height="196" rx="10" fill="url(#paint0_linear_86_4538)"/>
<path d="M24.8523 32.5881V29.5455H39.1875V32.5881H33.8438V47H30.196V32.5881H24.8523ZM44.7017 29.5455L48.9205 42.8068H49.0824L53.3097 29.5455H57.4006L51.3835 47H46.6278L40.6023 29.5455H44.7017ZM74.5568 38.2727C74.5568 40.1761 74.196 41.7955 73.4744 43.1307C72.7585 44.4659 71.7813 45.4858 70.5426 46.1903C69.3097 46.8892 67.9233 47.2386 66.3835 47.2386C64.8324 47.2386 63.4403 46.8864 62.2074 46.1818C60.9744 45.4773 60 44.4574 59.2841 43.1222C58.5682 41.7869 58.2102 40.1705 58.2102 38.2727C58.2102 36.3693 58.5682 34.75 59.2841 33.4148C60 32.0795 60.9744 31.0625 62.2074 30.3636C63.4403 29.6591 64.8324 29.3068 66.3835 29.3068C67.9233 29.3068 69.3097 29.6591 70.5426 30.3636C71.7813 31.0625 72.7585 32.0795 73.4744 33.4148C74.196 34.75 74.5568 36.3693 74.5568 38.2727ZM70.8153 38.2727C70.8153 37.0398 70.6307 36 70.2614 35.1534C69.8977 34.3068 69.3835 33.6648 68.7188 33.2273C68.054 32.7898 67.2756 32.571 66.3835 32.571C65.4915 32.571 64.7131 32.7898 64.0483 33.2273C63.3835 33.6648 62.8665 34.3068 62.4972 35.1534C62.1335 36 61.9517 37.0398 61.9517 38.2727C61.9517 39.5057 62.1335 40.5455 62.4972 41.392C62.8665 42.2386 63.3835 42.8807 64.0483 43.3182C64.7131 43.7557 65.4915 43.9744 66.3835 43.9744C67.2756 43.9744 68.054 43.7557 68.7188 43.3182C69.3835 42.8807 69.8977 42.2386 70.2614 41.392C70.6307 40.5455 70.8153 39.5057 70.8153 38.2727ZM75.8288 32.5881V29.5455H90.1641V32.5881H84.8203V47H81.1726V32.5881H75.8288ZM92.5249 47V29.5455H104.286V32.5881H96.2152V36.7472H103.681V39.7898H96.2152V43.9574H104.32V47H92.5249Z" fill="white"/>
<path d="M277.141 46.5041C270.79 33.5943 261.571 22.2213 250.507 13C250.507 13.3074 250.507 13.6148 250.507 13.9221C250.712 14.332 250.917 14.7418 251.02 14.8443C259.01 29.5984 263.62 46.6066 263.62 64.6393C263.62 79.7008 260.444 93.9426 254.707 106.852C248.459 120.992 240.98 129.189 236.678 145.275C234.527 153.369 233.298 161.975 233.298 170.889C233.298 173.451 233.502 177.242 233.605 179.086C229.61 178.369 227.356 177.652 225.922 176.832C225.82 174.783 225.717 172.939 225.717 170.889C225.717 156.443 228.688 142.611 233.912 130.111C238.522 119.148 245.283 110.643 249.585 99.4754C253.785 88.7172 256.039 76.9344 256.039 64.7418C256.039 52.0369 253.58 39.9467 249.176 28.7787C249.176 28.7787 249.073 28.4713 248.868 28.1639C247.946 32.877 246.717 37.5902 245.18 41.9959C187.61 42.4057 141 89.332 141 147.016C141 163.205 144.688 178.471 151.141 192.201C152.268 194.557 153.498 196.914 154.829 199.168C155.956 201.115 157.185 203.061 158.415 204.906C160.566 208.184 163.024 211.361 165.585 214.434C168.556 218.02 171.834 221.402 175.215 224.475C180.849 229.598 187.098 234.107 193.654 238H212.707C203.693 234.721 195.395 230.111 187.815 224.475C183.717 221.402 179.927 218.02 176.444 214.434C173.576 211.463 170.81 208.287 168.249 204.906C166.815 203.061 165.585 201.115 164.254 199.168C162.82 196.914 161.488 194.557 160.156 192.201C153.088 178.676 148.99 163.307 148.99 147.016C148.99 94.8648 190.273 52.2418 241.902 50.1926C237.19 60.9508 234.424 63.2049 226.741 71.709C222.746 76.1148 218.956 81.4426 215.473 87.1803C204.717 105.008 196.522 127.959 203.18 148.656C207.073 160.643 215.166 170.684 225.82 177.037C226.229 182.16 226.946 187.18 227.971 192.098C228.483 194.455 229.098 196.811 229.712 199.066C230.224 201.012 230.941 202.959 231.556 204.803C232.683 208.082 233.912 211.258 235.346 214.332C236.883 217.816 238.727 221.197 240.571 224.373C243.337 229.189 246.512 233.697 249.995 237.898H258.907C255.117 233.697 251.634 229.189 248.459 224.373C246.307 221.094 244.463 217.816 242.722 214.332C241.185 211.258 239.751 208.082 238.624 204.803C237.907 202.857 237.293 201.012 236.78 199.066C236.063 196.811 235.551 194.455 235.039 192.098C234.22 187.898 233.605 183.594 233.502 179.291C258.702 174.988 274.376 152.754 282.571 129.906C286.566 118.84 288.717 106.852 288.717 94.25C288.717 81.1352 286.361 68.5328 281.854 56.9549C317.502 71.2992 342.702 106.135 342.702 146.914C342.702 163.205 338.707 178.574 331.537 192.098C330.307 194.455 328.873 196.811 327.439 199.066C326.21 201.012 324.776 202.959 323.444 204.803C320.985 208.184 318.22 211.361 315.351 214.332C311.766 218.02 307.976 221.402 303.98 224.373C296.502 230.008 288.102 234.619 279.19 237.898H298.244C304.902 234.107 311.049 229.496 316.683 224.373C320.166 221.197 323.341 217.816 326.312 214.332C328.873 211.258 331.229 208.082 333.483 204.803C334.712 202.959 335.941 201.012 337.068 199.066C338.4 196.811 339.629 194.455 340.756 192.098C347.312 178.369 351 163.102 351 146.914C351 99.6803 319.756 59.6189 277.141 46.5041Z" fill="#385F2D"/>
<path d="M60.761 129.576C59.8934 127.813 58.634 126.259 57.1227 125C57.1227 125.042 57.1227 125.084 57.1227 125.126C57.1507 125.182 57.1786 125.238 57.1926 125.252C58.2841 127.267 58.9138 129.59 58.9138 132.053C58.9138 134.11 58.48 136.055 57.6964 137.818C56.8428 139.749 55.8213 140.869 55.2335 143.066C54.9397 144.171 54.7718 145.347 54.7718 146.564C54.7718 146.914 54.7997 147.432 54.8137 147.684C54.268 147.586 53.9601 147.488 53.7642 147.376C53.7502 147.096 53.7362 146.844 53.7362 146.564C53.7362 144.591 54.142 142.702 54.8557 140.995C55.4854 139.497 56.409 138.336 56.9967 136.811C57.5705 135.341 57.8783 133.732 57.8783 132.067C57.8783 130.332 57.5425 128.68 56.9408 127.155C56.9408 127.155 56.9268 127.113 56.8988 127.071C56.7728 127.715 56.6049 128.358 56.395 128.96C48.5306 129.016 42.1636 135.425 42.1636 143.304C42.1636 145.515 42.6673 147.6 43.5489 149.475C43.7029 149.797 43.8708 150.118 44.0527 150.426C44.2066 150.692 44.3746 150.958 44.5425 151.21C44.8363 151.658 45.1722 152.091 45.522 152.511C45.9278 153.001 46.3756 153.463 46.8374 153.883C47.6071 154.582 48.4607 155.198 49.3563 155.73H51.9591C50.7276 155.282 49.5941 154.652 48.5586 153.883C47.9989 153.463 47.4811 153.001 47.0053 152.511C46.6135 152.105 46.2357 151.672 45.8859 151.21C45.6899 150.958 45.522 150.692 45.3401 150.426C45.1442 150.118 44.9623 149.797 44.7804 149.475C43.8148 147.628 43.2551 145.529 43.2551 143.304C43.2551 136.181 48.8945 130.36 55.9472 130.08C55.3035 131.549 54.9257 131.857 53.8762 133.018C53.3304 133.62 52.8127 134.348 52.3369 135.131C50.8676 137.566 49.7481 140.701 50.6577 143.527C51.1894 145.165 52.2949 146.536 53.7502 147.404C53.8062 148.103 53.9042 148.789 54.0441 149.461C54.1141 149.783 54.198 150.104 54.282 150.412C54.3519 150.678 54.4499 150.944 54.5339 151.196C54.6878 151.644 54.8557 152.078 55.0516 152.497C55.2615 152.973 55.5134 153.435 55.7653 153.869C56.1431 154.526 56.5769 155.142 57.0527 155.716H58.2701C57.7524 155.142 57.2766 154.526 56.8428 153.869C56.5489 153.421 56.2971 152.973 56.0592 152.497C55.8493 152.078 55.6533 151.644 55.4994 151.196C55.4015 150.93 55.3175 150.678 55.2475 150.412C55.1496 150.104 55.0796 149.783 55.0096 149.461C54.8977 148.887 54.8137 148.299 54.7997 147.712C58.2422 147.124 60.3832 144.087 61.5026 140.967C62.0484 139.455 62.3423 137.818 62.3423 136.097C62.3423 134.306 62.0204 132.584 61.4047 131.003C66.2744 132.962 69.7169 137.72 69.7169 143.29C69.7169 145.515 69.1711 147.614 68.1916 149.461C68.0236 149.783 67.8277 150.104 67.6318 150.412C67.4639 150.678 67.268 150.944 67.0861 151.196C66.7502 151.658 66.3724 152.091 65.9806 152.497C65.4908 153.001 64.973 153.463 64.4273 153.869C63.4058 154.638 62.2583 155.268 61.0409 155.716H63.6437C64.5532 155.198 65.3929 154.568 66.1625 153.869C66.6383 153.435 67.0721 152.973 67.4779 152.497C67.8277 152.078 68.1496 151.644 68.4574 151.196C68.6254 150.944 68.7933 150.678 68.9472 150.412C69.1291 150.104 69.297 149.783 69.451 149.461C70.3466 147.586 70.8503 145.501 70.8503 143.29C70.8503 136.839 66.5823 131.367 60.761 129.576Z" fill="#385F2D"/>
<path d="M54.7998 147.711C54.8285 147.697 54.8142 147.711 54.7998 147.711Z" fill="#385F2D"/>
<path d="M69.8848 153.883H66.1766C65.4069 154.582 64.5673 155.198 63.6577 155.73H72.0538L69.8848 153.883Z" fill="#385F2D"/>
<path d="M40.9602 155.73H49.3563C48.4467 155.212 47.5931 154.582 46.8375 153.883H43.1292L40.9602 155.73Z" fill="#385F2D"/>
<path d="M88.4543 158.556L75.3003 150.58C75.1184 150.468 74.9085 150.412 74.6986 150.412H70.2487L69.8288 151.196H74.4887C74.6986 151.196 74.9085 151.252 75.0904 151.364L87.2788 158.794H25.6233L35.9085 151.42C36.1044 151.28 36.3423 151.196 36.5802 151.196H43.1712L42.7513 150.412H36.3563C36.1184 150.412 35.8805 150.482 35.6846 150.622L24.4758 158.556C24.1679 158.766 24 159.116 24 159.494V164.686C24 165.203 24.4198 165.609 24.9236 165.609H26.6308H86.3692H88.0764C88.5942 165.609 89 165.189 89 164.686V159.536C89 159.13 88.7901 158.752 88.4543 158.556Z" fill="#385F2D"/>
<path d="M26.6307 179.953H26.6167V180.723H86.3691V180.303V179.953V166.449H26.6307V179.953Z" fill="#385F2D"/>
</g>
<defs>
<linearGradient id="paint0_linear_86_4538" x1="4.87065e-07" y1="113" x2="412" y2="113" gradientUnits="userSpaceOnUse">
<stop stop-color="#95C688"/>
<stop offset="1" stop-color="#558249"/>
</linearGradient>
<clipPath id="clip0_86_4538">
<rect width="320" height="196" rx="10" fill="white"/>
</clipPath>
</defs>
</svg>
