<svg width="320" height="196" viewBox="0 0 320 196" fill="none" xmlns="http://www.w3.org/2000/svg">
<g clip-path="url(#clip0_66_2444)">
<rect width="320" height="196" rx="10" fill="#1D2140"/>
<g style="mix-blend-mode:screen" opacity="0.2">
<path d="M237.163 180.578L233.301 180.535L248.764 195.998L269.738 195.998L254.318 180.578L237.163 180.578Z" fill="#324463"/>
<path d="M270.288 180.578L266.426 180.535L281.903 195.998L302.877 195.998L287.458 180.578L270.288 180.578Z" fill="#324463"/>
<path d="M303.41 180.578L299.563 180.535L315.026 195.998L336 195.998L320.58 180.578L303.41 180.578Z" fill="#47494D"/>
<path d="M204.04 157.884L200.178 157.841L215.641 173.304L236.615 173.304L221.196 157.884L204.04 157.884Z" fill="#324463"/>
<path d="M237.163 157.884L233.301 157.841L248.764 173.304L269.738 173.304L254.318 157.884L237.163 157.884Z" fill="#324463"/>
<path d="M270.288 157.884L266.426 157.841L281.903 173.304L302.877 173.304L287.458 157.884L270.288 157.884Z" fill="#324463"/>
<path d="M303.41 157.884L299.563 157.841L315.026 173.304L336 173.304L320.58 157.884L303.41 157.884Z" fill="#324463"/>
<path d="M170.914 135.19L167.038 135.147L182.515 150.61L203.49 150.61L188.07 135.19L170.914 135.19Z" fill="#47494D"/>
<path d="M204.04 135.19L200.178 135.147L215.641 150.61L236.615 150.61L221.196 135.19L204.04 135.19Z" fill="#87FF4F"/>
<path d="M237.163 135.19L233.301 135.147L248.764 150.61L269.738 150.61L254.318 135.19L237.163 135.19Z" fill="#324463"/>
<path d="M270.288 135.19L266.426 135.147L281.903 150.61L302.877 150.61L287.458 135.19L270.288 135.19Z" fill="#324463"/>
<path d="M303.41 135.19L299.563 135.147L315.026 150.61L336 150.61L320.58 135.19L303.41 135.19Z" fill="#324463"/>
<path d="M170.914 112.496L167.038 112.453L182.515 127.916L203.49 127.916L188.07 112.496L170.914 112.496Z" fill="#47494D"/>
<path d="M204.04 112.496L200.178 112.453L215.641 127.916L236.615 127.916L221.196 112.496L204.04 112.496Z" fill="#47494D"/>
<path d="M237.163 112.496L233.301 112.453L248.764 127.916L269.738 127.916L254.318 112.496L237.163 112.496Z" fill="#47494D"/>
<path d="M270.288 112.496L266.426 112.453L281.903 127.916L302.877 127.916L287.458 112.496L270.288 112.496Z" fill="#47494D"/>
<path d="M303.41 112.496L299.563 112.453L315.026 127.916L336 127.916L320.58 112.496L303.41 112.496Z" fill="#47494D"/>
<path d="M170.914 89.8027L167.038 89.7593L182.515 105.222L203.49 105.222L188.07 89.8027L170.914 89.8027Z" fill="#47494D"/>
<path d="M204.04 89.8027L200.178 89.7593L215.641 105.222L236.615 105.222L221.196 89.8027L204.04 89.8027Z" fill="#47494D"/>
<path d="M237.163 89.8027L233.301 89.7593L248.764 105.222L269.738 105.222L254.318 89.8027L237.163 89.8027Z" fill="#47494D"/>
<path d="M270.288 89.8027L266.426 89.7593L281.903 105.222L302.877 105.222L287.458 89.8027L270.288 89.8027Z" fill="#47494D"/>
<path d="M303.41 89.8027L299.563 89.7593L315.026 105.222L336 105.222L320.58 89.8027L303.41 89.8027Z" fill="#47494D"/>
<path d="M71.5226 67.1088L67.6605 67.0654L83.1235 82.5284L104.098 82.5284L88.678 67.1088L71.5226 67.1088Z" fill="#47494D"/>
<path d="M170.914 67.1088L167.038 67.0654L182.515 82.5284L203.49 82.5284L188.07 67.1088L170.914 67.1088Z" fill="#324463"/>
<path d="M204.04 67.1088L200.178 67.0654L215.641 82.5284L236.615 82.5284L221.196 67.1088L204.04 67.1088Z" fill="#324463"/>
<path d="M237.163 67.1088L233.301 67.0654L248.764 82.5284L269.738 82.5284L254.318 67.1088L237.163 67.1088Z" fill="#324463"/>
<path d="M270.288 67.1088L266.426 67.0654L281.903 82.5284L302.877 82.5284L287.458 67.1088L270.288 67.1088Z" fill="#324463"/>
<path d="M303.41 67.1088L299.563 67.0654L315.026 82.5284L336 82.5284L320.58 67.1088L303.41 67.1088Z" fill="#324463"/>
<path d="M204.04 44.4145L200.178 44.3711L215.641 59.8341L236.615 59.8341L221.196 44.4145L204.04 44.4145Z" fill="#324463"/>
<path d="M237.163 44.4145L233.301 44.3711L248.764 59.8341L269.738 59.8341L254.318 44.4145L237.163 44.4145Z" fill="#87FF4F"/>
<path d="M270.288 44.4145L266.426 44.3711L281.903 59.8341L302.877 59.8341L287.458 44.4145L270.288 44.4145Z" fill="#47494D"/>
<path d="M303.41 44.4145L299.563 44.3711L315.026 59.8341L336 59.8341L320.58 44.4145L303.41 44.4145Z" fill="#47494D"/>
<path d="M204.04 21.7206L200.178 21.6772L215.641 37.1403L236.615 37.1403L221.196 21.7206L204.04 21.7206Z" fill="#47494D"/>
<path d="M237.163 21.7206L233.301 21.6772L248.764 37.1403L269.738 37.1403L254.318 21.7206L237.163 21.7206Z" fill="#47494D"/>
<path d="M270.288 21.7206L266.426 21.6772L281.903 37.1403L302.877 37.1403L287.458 21.7206L270.288 21.7206Z" fill="#47494D"/>
<path d="M303.41 21.7206L299.563 21.6772L315.026 37.1403L336 37.1403L320.58 21.7206L303.41 21.7206Z" fill="#47494D"/>
<path d="M-27.863 -0.972167L-31.9999 5.27669L-16.2476 14.4475L4.72656 14.4475L-10.6931 -0.972167L-27.863 -0.972167Z" fill="#324463"/>
<path d="M5.26304 -0.973694L1.41531 -1.01709L16.8784 14.4459L37.8525 14.4459L22.4329 -0.973694L5.26304 -0.973694Z" fill="#324463"/>
<path d="M38.4003 -0.973694L34.5382 -1.01709L50.0012 14.4459L70.9753 14.4459L55.5557 -0.973694L38.4003 -0.973694Z" fill="#324463"/>
<path d="M71.5226 -0.973694L67.6605 -1.01709L83.1235 14.4459L104.098 14.4459L88.678 -0.973694L71.5226 -0.973694Z" fill="#324463"/>
<path d="M104.648 -0.973694L100.786 -1.01709L116.263 14.4459L137.237 14.4459L121.818 -0.973694L104.648 -0.973694Z" fill="#87FF4F"/>
<path d="M137.777 -0.973694L133.929 -1.01709L149.392 14.4459L170.366 14.4459L154.947 -0.973694L137.777 -0.973694Z" fill="#47494D"/>
<path d="M170.914 -0.973694L167.038 -1.01709L182.515 14.4459L203.49 14.4459L188.07 -0.973694L170.914 -0.973694Z" fill="#47494D"/>
<path d="M204.04 -0.973694L200.178 -1.01709L215.641 14.4459L236.615 14.4459L221.196 -0.973694L204.04 -0.973694Z" fill="#47494D"/>
<path d="M237.163 -0.973694L233.301 -1.01709L248.764 14.4459L269.738 14.4459L254.318 -0.973694L237.163 -0.973694Z" fill="#47494D"/>
<path d="M270.288 -0.973694L266.426 -1.01709L281.903 14.4459L302.877 14.4459L287.458 -0.973694L270.288 -0.973694Z" fill="#47494D"/>
<path d="M303.41 -0.973694L299.563 -1.01709L315.026 14.4459L336 14.4459L320.58 -0.973694L303.41 -0.973694Z" fill="#47494D"/>
<path d="M137.776 112.496L133.928 112.453L149.391 127.916L170.365 127.916L154.946 112.496L137.776 112.496Z" fill="#47494D"/>
<path d="M170.915 112.496L167.039 112.453L182.516 127.916L203.49 127.916L188.071 112.496L170.915 112.496Z" fill="#47494D"/>
<path d="M104.647 89.8027L100.785 89.7593L116.262 105.222L137.236 105.222L121.817 89.8027L104.647 89.8027Z" fill="#47494D"/>
<path d="M137.776 89.8027L133.928 89.7593L149.391 105.222L170.365 105.222L154.946 89.8027L137.776 89.8027Z" fill="#47494D"/>
<path d="M170.915 89.8027L167.039 89.7593L182.516 105.222L203.49 105.222L188.071 89.8027L170.915 89.8027Z" fill="#47494D"/>
<path d="M104.647 67.1088L100.785 67.0654L116.262 82.5284L137.236 82.5284L121.817 67.1088L104.647 67.1088Z" fill="#47494D"/>
<path d="M137.776 67.1088L133.928 67.0654L149.391 82.5284L170.365 82.5284L154.946 67.1088L137.776 67.1088Z" fill="#87FF4F"/>
<path d="M170.915 67.1088L167.039 67.0654L182.516 82.5284L203.49 82.5284L188.071 67.1088L170.915 67.1088Z" fill="#324463"/>
</g>
<path d="M25.3295 47V44.8097L34.0398 32.5881H25.3125V29.5455H38.6761V31.7358L29.9574 43.9574H38.6932V47H25.3295ZM41.5249 47V29.5455H53.2862V32.5881H45.2152V36.7472H52.6811V39.7898H45.2152V43.9574H53.3203V47H41.5249ZM70.8196 29.5455V47H67.6321L60.0384 36.0142H59.9105V47H56.2202V29.5455H59.4588L66.9929 40.5227H67.1463V29.5455H70.8196ZM89.2692 35.6562H85.5362C85.468 35.1733 85.3288 34.7443 85.1186 34.3693C84.9084 33.9886 84.6385 33.6648 84.3089 33.3977C83.9794 33.1307 83.5987 32.9261 83.1669 32.7841C82.7408 32.642 82.2777 32.571 81.7777 32.571C80.8743 32.571 80.0874 32.7955 79.4169 33.2443C78.7464 33.6875 78.2266 34.3352 77.8572 35.1875C77.4879 36.0341 77.3033 37.0625 77.3033 38.2727C77.3033 39.517 77.4879 40.5625 77.8572 41.4091C78.2322 42.2557 78.755 42.8949 79.4254 43.3267C80.0959 43.7585 80.8714 43.9744 81.7521 43.9744C82.2464 43.9744 82.7038 43.9091 83.1243 43.7784C83.5504 43.6477 83.9283 43.4574 84.2578 43.2074C84.5874 42.9517 84.8601 42.642 85.076 42.2784C85.2976 41.9148 85.451 41.5 85.5362 41.0341L89.2692 41.0511C89.1726 41.8523 88.9311 42.625 88.5447 43.3693C88.1641 44.108 87.6499 44.7699 87.0021 45.3551C86.3601 45.9347 85.593 46.3949 84.701 46.7358C83.8146 47.071 82.8118 47.2386 81.6925 47.2386C80.1357 47.2386 78.7436 46.8864 77.5163 46.1818C76.2947 45.4773 75.3288 44.4574 74.6186 43.1222C73.9141 41.7869 73.5618 40.1705 73.5618 38.2727C73.5618 36.3693 73.9197 34.75 74.6357 33.4148C75.3516 32.0795 76.3232 31.0625 77.5504 30.3636C78.7777 29.6591 80.1584 29.3068 81.6925 29.3068C82.7038 29.3068 83.6413 29.4489 84.505 29.733C85.3743 30.017 86.1442 30.4318 86.8146 30.9773C87.4851 31.517 88.0305 32.179 88.451 32.9631C88.8771 33.7472 89.1499 34.6449 89.2692 35.6562ZM107.955 38.2727C107.955 40.1761 107.594 41.7955 106.873 43.1307C106.157 44.4659 105.18 45.4858 103.941 46.1903C102.708 46.8892 101.322 47.2386 99.782 47.2386C98.2308 47.2386 96.8388 46.8864 95.6058 46.1818C94.3729 45.4773 93.3984 44.4574 92.6825 43.1222C91.9666 41.7869 91.6087 40.1705 91.6087 38.2727C91.6087 36.3693 91.9666 34.75 92.6825 33.4148C93.3984 32.0795 94.3729 31.0625 95.6058 30.3636C96.8388 29.6591 98.2308 29.3068 99.782 29.3068C101.322 29.3068 102.708 29.6591 103.941 30.3636C105.18 31.0625 106.157 32.0795 106.873 33.4148C107.594 34.75 107.955 36.3693 107.955 38.2727ZM104.214 38.2727C104.214 37.0398 104.029 36 103.66 35.1534C103.296 34.3068 102.782 33.6648 102.117 33.2273C101.452 32.7898 100.674 32.571 99.782 32.571C98.8899 32.571 98.1115 32.7898 97.4467 33.2273C96.782 33.6648 96.2649 34.3068 95.8956 35.1534C95.532 36 95.3501 37.0398 95.3501 38.2727C95.3501 39.5057 95.532 40.5455 95.8956 41.392C96.2649 42.2386 96.782 42.8807 97.4467 43.3182C98.1115 43.7557 98.8899 43.9744 99.782 43.9744C100.674 43.9744 101.452 43.7557 102.117 43.3182C102.782 42.8807 103.296 42.2386 103.66 41.392C104.029 40.5455 104.214 39.5057 104.214 38.2727ZM125.288 29.5455V47H122.101L114.507 36.0142H114.379V47H110.689V29.5455H113.928L121.462 40.5227H121.615V29.5455H125.288ZM149.293 35.6562H145.56C145.491 35.1733 145.352 34.7443 145.142 34.3693C144.932 33.9886 144.662 33.6648 144.332 33.3977C144.003 33.1307 143.622 32.9261 143.19 32.7841C142.764 32.642 142.301 32.571 141.801 32.571C140.898 32.571 140.111 32.7955 139.44 33.2443C138.77 33.6875 138.25 34.3352 137.881 35.1875C137.511 36.0341 137.327 37.0625 137.327 38.2727C137.327 39.517 137.511 40.5625 137.881 41.4091C138.256 42.2557 138.778 42.8949 139.449 43.3267C140.119 43.7585 140.895 43.9744 141.776 43.9744C142.27 43.9744 142.727 43.9091 143.148 43.7784C143.574 43.6477 143.952 43.4574 144.281 43.2074C144.611 42.9517 144.884 42.642 145.099 42.2784C145.321 41.9148 145.474 41.5 145.56 41.0341L149.293 41.0511C149.196 41.8523 148.955 42.625 148.568 43.3693C148.188 44.108 147.673 44.7699 147.026 45.3551C146.384 45.9347 145.616 46.3949 144.724 46.7358C143.838 47.071 142.835 47.2386 141.716 47.2386C140.159 47.2386 138.767 46.8864 137.54 46.1818C136.318 45.4773 135.352 44.4574 134.642 43.1222C133.938 41.7869 133.585 40.1705 133.585 38.2727C133.585 36.3693 133.943 34.75 134.659 33.4148C135.375 32.0795 136.347 31.0625 137.574 30.3636C138.801 29.6591 140.182 29.3068 141.716 29.3068C142.727 29.3068 143.665 29.4489 144.528 29.733C145.398 30.017 146.168 30.4318 146.838 30.9773C147.509 31.517 148.054 32.179 148.474 32.9631C148.901 33.7472 149.173 34.6449 149.293 35.6562ZM155.604 47.2472C154.768 47.2472 154.024 47.1023 153.371 46.8125C152.717 46.517 152.2 46.0824 151.82 45.5085C151.445 44.929 151.257 44.2074 151.257 43.3438C151.257 42.6165 151.391 42.0057 151.658 41.5114C151.925 41.017 152.288 40.6193 152.749 40.3182C153.209 40.017 153.732 39.7898 154.317 39.6364C154.908 39.483 155.527 39.375 156.175 39.3125C156.936 39.233 157.55 39.1591 158.016 39.0909C158.482 39.017 158.82 38.9091 159.03 38.767C159.24 38.625 159.345 38.4148 159.345 38.1364V38.0852C159.345 37.5455 159.175 37.1278 158.834 36.8324C158.499 36.5369 158.021 36.3892 157.402 36.3892C156.749 36.3892 156.229 36.5341 155.842 36.8239C155.456 37.108 155.2 37.4659 155.075 37.8977L151.717 37.625C151.888 36.8295 152.223 36.142 152.723 35.5625C153.223 34.9773 153.868 34.5284 154.658 34.2159C155.453 33.8977 156.374 33.7386 157.419 33.7386C158.146 33.7386 158.842 33.8239 159.507 33.9943C160.178 34.1648 160.771 34.429 161.288 34.7869C161.811 35.1449 162.223 35.6051 162.524 36.1676C162.825 36.7244 162.976 37.392 162.976 38.1705V47H159.533V45.1847H159.43C159.22 45.5938 158.939 45.9545 158.587 46.267C158.234 46.5739 157.811 46.8153 157.317 46.9915C156.822 47.1619 156.251 47.2472 155.604 47.2472ZM156.643 44.7415C157.178 44.7415 157.649 44.6364 158.058 44.4261C158.467 44.2102 158.788 43.9205 159.021 43.5568C159.254 43.1932 159.371 42.7812 159.371 42.321V40.9318C159.257 41.0057 159.101 41.0739 158.902 41.1364C158.709 41.1932 158.49 41.2472 158.246 41.2983C158.001 41.3437 157.757 41.3864 157.513 41.4261C157.268 41.4602 157.047 41.4915 156.848 41.5199C156.422 41.5824 156.05 41.6818 155.732 41.8182C155.413 41.9545 155.166 42.1392 154.99 42.3722C154.814 42.5994 154.726 42.8835 154.726 43.2244C154.726 43.7188 154.905 44.0966 155.263 44.358C155.626 44.6136 156.087 44.7415 156.643 44.7415ZM165.793 47V33.9091H169.312V36.1932H169.449C169.688 35.3807 170.088 34.767 170.651 34.3523C171.213 33.9318 171.861 33.7216 172.594 33.7216C172.776 33.7216 172.972 33.733 173.182 33.7557C173.392 33.7784 173.577 33.8097 173.736 33.8494V37.071C173.565 37.0199 173.33 36.9744 173.028 36.9347C172.727 36.8949 172.452 36.875 172.202 36.875C171.668 36.875 171.19 36.9915 170.77 37.2244C170.355 37.4517 170.026 37.7699 169.781 38.179C169.543 38.5881 169.423 39.0597 169.423 39.5938V47H165.793ZM179.827 47.2131C178.833 47.2131 177.933 46.9574 177.126 46.446C176.325 45.929 175.688 45.1705 175.217 44.1705C174.751 43.1648 174.518 41.9318 174.518 40.4716C174.518 38.9716 174.759 37.7244 175.242 36.7301C175.725 35.7301 176.367 34.983 177.168 34.4886C177.975 33.9886 178.859 33.7386 179.819 33.7386C180.552 33.7386 181.163 33.8636 181.651 34.1136C182.146 34.358 182.543 34.6648 182.844 35.0341C183.151 35.3977 183.384 35.7557 183.543 36.108H183.654V29.5455H187.276V47H183.697V44.9034H183.543C183.373 45.267 183.131 45.6278 182.819 45.9858C182.512 46.3381 182.112 46.6307 181.617 46.8636C181.129 47.0966 180.532 47.2131 179.827 47.2131ZM180.978 44.3239C181.563 44.3239 182.058 44.1648 182.461 43.8466C182.87 43.5227 183.183 43.071 183.398 42.4915C183.62 41.9119 183.731 41.233 183.731 40.4545C183.731 39.6761 183.623 39 183.407 38.4261C183.191 37.8523 182.879 37.4091 182.469 37.0966C182.06 36.7841 181.563 36.6278 180.978 36.6278C180.381 36.6278 179.879 36.7898 179.469 37.1136C179.06 37.4375 178.751 37.8864 178.54 38.4602C178.33 39.0341 178.225 39.6989 178.225 40.4545C178.225 41.2159 178.33 41.8892 178.54 42.4744C178.756 43.054 179.066 43.5085 179.469 43.8381C179.879 44.1619 180.381 44.3239 180.978 44.3239Z" fill="white"/>
<path d="M63.2521 132.684C63.3139 132.684 63.3757 132.684 63.4375 132.705H72.7715V127H50.0444V132.931C50.1681 132.787 50.3535 132.705 50.5596 132.705H63.2521V132.684Z" fill="#87FF4F"/>
<path d="M81.1369 135.176L91.2333 147.574H100.567V134.517H93.7676V139.192L89.9352 134.517H88.1425C87.751 134.517 87.442 134.208 87.442 133.817V133.384C87.442 132.993 87.751 132.684 88.1425 132.684H88.4516L83.8361 127H74.2961V147.574H81.1369V135.176ZM85.1961 133.405C85.1961 133.014 85.5051 132.705 85.8966 132.705C86.2881 132.705 86.5972 133.014 86.5972 133.405V133.838C86.5972 134.229 86.2881 134.538 85.8966 134.538C85.5051 134.538 85.1961 134.229 85.1961 133.838V133.405ZM81.2399 133.405C81.2399 133.014 81.549 132.705 81.9405 132.705H83.218C83.6095 132.705 83.9186 133.014 83.9186 133.405V133.838C83.9186 134.229 83.6095 134.538 83.218 134.538H81.9405C81.549 134.538 81.2399 134.229 81.2399 133.838V133.405Z" fill="#87FF4F"/>
<path d="M100.547 127H93.7471V132.684H100.547V127Z" fill="#87FF4F"/>
<path d="M75.6149 158.84C75.2646 158.84 74.9761 158.531 74.9761 158.14V157.707C74.9761 157.46 75.0997 157.254 75.2646 157.11C74.8731 155.977 74.3374 155.009 73.6574 154.247C72.9568 153.465 72.0502 152.826 70.9376 152.332C69.8249 151.838 68.6298 151.488 67.3317 151.282C66.0336 151.076 64.5295 150.973 62.8399 150.973C58.6365 150.973 55.5046 151.796 53.4441 153.444C51.3837 155.092 50.374 157.645 50.374 161.085C50.374 164.792 51.3837 167.531 53.3823 169.302C55.381 171.073 58.5953 171.959 63.0253 171.959C64.7974 171.959 66.3633 171.856 67.7026 171.629C69.0419 171.403 70.237 171.053 71.3085 170.558C72.3593 170.064 73.2247 169.405 73.8841 168.602C74.5434 167.799 75.0379 166.79 75.3882 165.636C75.7385 164.462 75.9033 163.082 75.9033 161.476C75.9033 160.508 75.8209 159.643 75.6973 158.819H75.6149V158.84ZM67.4966 165.307C66.4663 166.151 65.0034 166.563 63.1078 166.563C61.2121 166.563 59.7286 166.089 58.7602 165.163C57.7711 164.236 57.2972 163 57.2972 161.455C57.2972 160.652 57.4209 159.931 57.6475 159.314C57.8742 158.696 58.2244 158.14 58.6983 157.707C59.1723 157.254 59.7698 156.925 60.5116 156.698C61.2327 156.472 62.0981 156.369 63.046 156.369C64.8798 156.369 66.3427 156.801 67.4348 157.666C68.5268 158.531 69.0625 159.808 69.0625 161.455C69.0419 163.144 68.5268 164.483 67.4966 165.307ZM71.7618 158.14C71.7618 158.531 71.4733 158.84 71.123 158.84H69.9692C69.6189 158.84 69.3304 158.531 69.3304 158.14V157.707C69.3304 157.316 69.6189 157.007 69.9692 157.007H71.123C71.4733 157.007 71.7618 157.316 71.7618 157.707V158.14ZM74.2137 158.14C74.2137 158.531 73.9253 158.84 73.575 158.84C73.2247 158.84 72.9362 158.531 72.9362 158.14V157.707C72.9362 157.316 73.2247 157.007 73.575 157.007C73.9253 157.007 74.2137 157.316 74.2137 157.707V158.14Z" fill="#87FF4F"/>
<path d="M72.7714 141.869H56.8851V140.016H71.7824V134.538H56.8851H50.5801C50.374 134.538 50.1886 134.455 50.0649 134.311V147.595H72.792V141.869H72.7714Z" fill="#87FF4F"/>
<path d="M94.7981 151.302V163.494L91.3365 158.819H79.8802C79.5299 158.819 79.2415 158.51 79.2415 158.119V157.686C79.2415 157.295 79.5299 156.986 79.8802 156.986H89.9766L85.7526 151.302H77.0574V156.986H77.4283C77.7785 156.986 78.067 157.295 78.067 157.686V158.119C78.067 158.51 77.7785 158.819 77.4283 158.819H77.0574V171.897H83.28V159.499L92.4903 171.897H101V151.302H94.7981Z" fill="#87FF4F"/>
<path d="M48.1902 147.574V141.89H34.8795L46.7479 134.517H45.9031C45.5116 134.517 45.2025 134.208 45.2025 133.817V133.384C45.2025 132.993 45.5116 132.684 45.9031 132.684H47.8811C47.9842 132.684 48.1078 132.705 48.1902 132.767V127H24.8862V132.725H38.4236L24.8862 141.005V147.574H25.2777H48.1902ZM42.9566 133.405C42.9566 133.014 43.2657 132.705 43.6572 132.705C44.0487 132.705 44.3577 133.014 44.3577 133.405V133.838C44.3577 134.229 44.0487 134.538 43.6572 134.538C43.2657 134.538 42.9566 134.229 42.9566 133.838V133.405ZM39.0005 133.405C39.0005 133.014 39.3096 132.705 39.7011 132.705H40.9785C41.37 132.705 41.6791 133.014 41.6791 133.405V133.838C41.6791 134.229 41.37 134.538 40.9785 134.538H39.7011C39.3096 134.538 39.0005 134.229 39.0005 133.838V133.405Z" fill="#87FF4F"/>
<path d="M31.1086 158.984C31.3765 158.572 31.7268 158.222 32.1595 157.934C32.5922 157.666 33.1897 157.439 33.9521 157.254C34.7145 157.069 35.6005 156.986 36.6101 156.986C37.7434 156.986 38.753 157.11 39.6184 157.357C40.4838 157.604 41.1226 157.872 41.5553 158.181C41.988 158.49 42.3382 158.819 42.6061 159.21C42.874 159.602 43.0388 159.869 43.08 160.014C43.1212 160.178 43.1624 160.302 43.183 160.405H49.5705C49.5705 158.963 49.3439 157.686 48.9112 156.595C48.4579 155.503 47.7573 154.535 46.7683 153.712C45.7792 152.888 44.4605 152.249 42.7503 151.796C41.0607 151.364 39.0415 151.137 36.6719 151.137C34.5702 151.137 32.757 151.323 31.2117 151.693C29.6869 152.064 28.3682 152.661 27.2762 153.506C26.1841 154.329 25.3805 155.442 24.8242 156.821C24.2885 158.201 24 159.849 24 161.785C24 163.577 24.206 165.101 24.6387 166.336C25.0714 167.572 25.772 168.622 26.761 169.487C27.7501 170.352 29.0688 170.991 30.6965 171.403C32.3449 171.794 34.3642 172 36.7956 172C38.7736 172 40.5044 171.856 42.0086 171.547C43.5127 171.238 44.7284 170.847 45.6556 170.332C46.5828 169.817 47.3452 169.178 47.9427 168.416C48.5403 167.654 48.9318 166.872 49.179 166.048C49.4263 165.224 49.5293 164.339 49.5293 163.329H43.1418L43.08 163.618C43.0388 163.824 42.9152 164.05 42.6679 164.339C42.4207 164.627 42.1116 164.895 41.6995 165.183C41.2874 165.451 40.628 165.698 39.742 165.883C38.856 166.089 37.8052 166.172 36.5895 166.172C35.3738 166.172 34.4054 166.048 33.6018 165.821C32.7776 165.595 32.1595 165.245 31.7062 164.812C31.2529 164.38 30.9438 163.885 30.7378 163.371C30.5317 162.835 30.4493 162.238 30.4493 161.558C30.4493 161.064 30.4905 160.631 30.5729 160.22C30.6759 159.808 30.8408 159.396 31.1086 158.984Z" fill="#87FF4F"/>
<rect x="24.0273" y="70" width="30" height="20" fill="#87682A"/>
<path d="M54.0273 79.9588V79.482H43.0694V76.4233L46.0776 73.8637H54.0273V73.3857H45.8467L42.6731 76.0861H39.0784V70H38.5181V76.0861H34.9234L31.7498 73.3857H24.0039V73.8624H31.5242L34.5324 76.422V79.4808H24.0273V79.9575H34.5271V83.0162L31.2369 85.8158H24.0001V86.2925H31.4693L34.9234 83.3534H38.5181V89.8228H39.0784V83.3598H42.6731L46.1272 86.2989H53.9845V85.8222H46.3596L43.0694 83.0175V79.9588H54.0273ZM35.0874 82.878V76.5628H42.5092V82.8773L35.0874 82.878Z" fill="#FFD987"/>
<path d="M274.571 45.5712V55.8569H293.428V45.5712H274.571Z" fill="#FF5A00"/>
<path d="M283.994 55.3566C282.178 55.356 280.386 54.9381 278.752 54.1342C277.118 53.3303 275.683 52.1612 274.557 50.7144C273.377 52.2433 272.574 54.0365 272.214 55.9446C271.854 57.8528 271.949 59.8206 272.49 61.6841C273.03 63.5476 274.001 65.2529 275.322 66.6578C276.643 68.0627 278.275 69.1266 280.083 69.7608C281.89 70.395 283.821 70.5812 285.713 70.3038C287.606 70.0264 289.406 69.2935 290.963 68.1662C292.521 67.0389 293.79 65.5497 294.666 63.8228C295.543 62.0959 296 60.1813 296 58.2386C296.002 55.5084 295.097 52.8574 293.432 50.7144C292.308 52.1644 290.874 53.3358 289.239 54.14C287.604 54.9443 285.811 55.3603 283.994 55.3566" fill="#EB001B"/>
<path d="M284 30.9996C286.251 30.9974 288.457 31.6392 290.366 32.8516C292.275 34.0639 293.809 35.7978 294.793 37.8548C295.777 39.9117 296.172 42.2087 295.931 44.4828C295.691 46.757 294.825 48.9163 293.433 50.7139C292.307 49.2671 290.874 48.0981 289.24 47.2944C287.607 46.4906 285.815 46.0731 284 46.0731C282.185 46.0731 280.393 46.4906 278.76 47.2944C277.126 48.0981 275.693 49.2671 274.567 50.7139C273.175 48.9163 272.309 46.757 272.069 44.4828C271.828 42.2087 272.223 39.9117 273.207 37.8548C274.191 35.7978 275.725 34.0639 277.634 32.8516C279.543 31.6392 281.749 30.9974 284 30.9996" fill="#F79E1B"/>
</g>
<defs>
<clipPath id="clip0_66_2444">
<rect width="320" height="196" rx="10" fill="white"/>
</clipPath>
</defs>
</svg>
