<svg width="320" height="196" viewBox="0 0 320 196" fill="none" xmlns="http://www.w3.org/2000/svg">
<g clip-path="url(#clip0_89_47)">
<rect width="320" height="196" rx="10" fill="url(#paint0_linear_89_47)"/>
<g opacity="0.2">
<path d="M-2.0155 180.595L-5.87761 180.552L9.58541 196.015L30.5596 196.015L15.1399 180.595L-2.0155 180.595Z" fill="#324463"/>
<path d="M31.11 180.595L27.2478 180.552L42.7253 196.015L63.6995 196.015L48.2798 180.595L31.11 180.595Z" fill="#324463"/>
<path d="M64.2325 180.595L60.3848 180.552L75.8479 196.015L96.822 196.015L81.4024 180.595L64.2325 180.595Z" fill="#47494D"/>
<path d="M-2.0155 157.901L-5.87761 157.858L9.58541 173.321L30.5596 173.321L15.1399 157.901L-2.0155 157.901Z" fill="#324463"/>
<path d="M31.11 157.901L27.2478 157.858L42.7253 173.321L63.6995 173.321L48.2798 157.901L31.11 157.901Z" fill="#324463"/>
<path d="M64.2325 157.901L60.3848 157.858L75.8479 173.321L96.822 173.321L81.4024 157.901L64.2325 157.901Z" fill="#324463"/>
<path d="M-2.0155 135.207L-5.87761 135.164L9.58541 150.627L30.5596 150.627L15.1399 135.207L-2.0155 135.207Z" fill="#324463"/>
<path d="M31.11 135.207L27.2478 135.164L42.7253 150.627L63.6995 150.627L48.2798 135.207L31.11 135.207Z" fill="#324463"/>
<path d="M64.2325 135.207L60.3848 135.164L75.8479 150.627L96.822 150.627L81.4024 135.207L64.2325 135.207Z" fill="#324463"/>
<path d="M-2.0155 112.513L-5.87761 112.47L9.58541 127.933L30.5596 127.933L15.1399 112.513L-2.0155 112.513Z" fill="#47494D"/>
<path d="M31.11 112.513L27.2478 112.47L42.7253 127.933L63.6995 127.933L48.2798 112.513L31.11 112.513Z" fill="#47494D"/>
<path d="M64.2325 112.513L60.3848 112.47L75.8479 127.933L96.822 127.933L81.4024 112.513L64.2325 112.513Z" fill="#47494D"/>
<path d="M-2.0155 89.8198L-5.87761 89.7764L9.58541 105.239L30.5596 105.239L15.1399 89.8198L-2.0155 89.8198Z" fill="#47494D"/>
<path d="M31.11 89.8198L27.2478 89.7764L42.7253 105.239L63.6995 105.239L48.2798 89.8198L31.11 89.8198Z" fill="#47494D"/>
<path d="M64.2325 89.8198L60.3848 89.7764L75.8479 105.239L96.822 105.239L81.4024 89.8198L64.2325 89.8198Z" fill="#47494D"/>
<path d="M-2.0155 67.1259L-5.87761 67.0825L9.58541 82.5455L30.5596 82.5455L15.1399 67.1259L-2.0155 67.1259Z" fill="#324463"/>
<path d="M31.11 67.1259L27.2478 67.0825L42.7253 82.5455L63.6995 82.5455L48.2798 67.1259L31.11 67.1259Z" fill="#324463"/>
<path d="M64.2325 67.1259L60.3848 67.0825L75.8479 82.5455L96.822 82.5455L81.4024 67.1259L64.2325 67.1259Z" fill="#324463"/>
<path d="M-2.0155 44.4316L-5.87761 44.3882L9.58541 59.8512L30.5596 59.8512L15.1399 44.4316L-2.0155 44.4316Z" fill="#87FF4F"/>
<path d="M31.11 44.4316L27.2478 44.3882L42.7253 59.8512L63.6995 59.8512L48.2798 44.4316L31.11 44.4316Z" fill="#47494D"/>
<path d="M64.2325 44.4316L60.3848 44.3882L75.8479 59.8512L96.822 59.8512L81.4024 44.4316L64.2325 44.4316Z" fill="#47494D"/>
<path d="M-2.0155 21.7377L-5.87761 21.6943L9.58541 37.1574L30.5596 37.1574L15.1399 21.7377L-2.0155 21.7377Z" fill="#47494D"/>
<path d="M31.11 21.7377L27.2478 21.6943L42.7253 37.1574L63.6995 37.1574L48.2798 21.7377L31.11 21.7377Z" fill="#47494D"/>
<path d="M64.2325 21.7377L60.3848 21.6943L75.8479 37.1574L96.822 37.1574L81.4024 21.7377L64.2325 21.7377Z" fill="#47494D"/>
<path d="M-2.0155 -0.956604L-5.87761 -0.999998L9.58541 14.463L30.5596 14.463L15.1399 -0.956605L-2.0155 -0.956604Z" fill="#47494D"/>
<path d="M31.11 -0.956604L27.2478 -0.999998L42.7253 14.463L63.6995 14.463L48.2798 -0.956605L31.11 -0.956604Z" fill="#47494D"/>
<path d="M64.2325 -0.956604L60.3848 -0.999998L75.8479 14.463L96.822 14.463L81.4024 -0.956605L64.2325 -0.956604Z" fill="#47494D"/>
<path d="M95.8622 180.595L92.0001 180.552L107.463 196.015L128.437 196.015L113.018 180.595L95.8622 180.595Z" fill="#324463"/>
<path d="M128.985 180.595L125.123 180.552L140.586 196.015L161.56 196.015L146.14 180.595L128.985 180.595Z" fill="#324463"/>
<path d="M162.11 180.595L158.248 180.552L173.725 196.015L194.699 196.015L179.28 180.595L162.11 180.595Z" fill="#324463"/>
<path d="M195.233 180.595L191.385 180.552L206.848 196.015L227.822 196.015L212.402 180.595L195.233 180.595Z" fill="#47494D"/>
<path d="M95.8622 157.901L92.0001 157.858L107.463 173.321L128.437 173.321L113.018 157.901L95.8622 157.901Z" fill="#324463"/>
<path d="M128.985 157.901L125.123 157.858L140.586 173.321L161.56 173.321L146.14 157.901L128.985 157.901Z" fill="#324463"/>
<path d="M162.11 157.901L158.248 157.858L173.725 173.321L194.699 173.321L179.28 157.901L162.11 157.901Z" fill="#324463"/>
<path d="M195.233 157.901L191.385 157.858L206.848 173.321L227.822 173.321L212.402 157.901L195.233 157.901Z" fill="#324463"/>
<path d="M95.8622 135.207L92.0001 135.164L107.463 150.627L128.437 150.627L113.018 135.207L95.8622 135.207Z" fill="#87FF4F"/>
<path d="M128.985 135.207L125.123 135.164L140.586 150.627L161.56 150.627L146.14 135.207L128.985 135.207Z" fill="#324463"/>
<path d="M162.11 135.207L158.248 135.164L173.725 150.627L194.699 150.627L179.28 135.207L162.11 135.207Z" fill="#324463"/>
<path d="M195.233 135.207L191.385 135.164L206.848 150.627L227.822 150.627L212.402 135.207L195.233 135.207Z" fill="#324463"/>
<path d="M95.8622 112.513L92.0001 112.47L107.463 127.933L128.437 127.933L113.018 112.513L95.8622 112.513Z" fill="#47494D"/>
<path d="M128.985 112.513L125.123 112.47L140.586 127.933L161.56 127.933L146.14 112.513L128.985 112.513Z" fill="#47494D"/>
<path d="M162.11 112.513L158.248 112.47L173.725 127.933L194.699 127.933L179.28 112.513L162.11 112.513Z" fill="#47494D"/>
<path d="M195.233 112.513L191.385 112.47L206.848 127.933L227.822 127.933L212.402 112.513L195.233 112.513Z" fill="#47494D"/>
<path d="M95.8622 89.8198L92.0001 89.7764L107.463 105.239L128.437 105.239L113.018 89.8198L95.8622 89.8198Z" fill="#47494D"/>
<path d="M128.985 89.8198L125.123 89.7764L140.586 105.239L161.56 105.239L146.14 89.8198L128.985 89.8198Z" fill="#47494D"/>
<path d="M162.11 89.8198L158.248 89.7764L173.725 105.239L194.699 105.239L179.28 89.8198L162.11 89.8198Z" fill="#47494D"/>
<path d="M195.233 89.8198L191.385 89.7764L206.848 105.239L227.822 105.239L212.402 89.8198L195.233 89.8198Z" fill="#47494D"/>
<path d="M95.8622 67.1259L92.0001 67.0825L107.463 82.5455L128.437 82.5455L113.018 67.1259L95.8622 67.1259Z" fill="#324463"/>
<path d="M128.985 67.1259L125.123 67.0825L140.586 82.5455L161.56 82.5455L146.14 67.1259L128.985 67.1259Z" fill="#324463"/>
<path d="M162.11 67.1259L158.248 67.0825L173.725 82.5455L194.699 82.5455L179.28 67.1259L162.11 67.1259Z" fill="#324463"/>
<path d="M195.233 67.1259L191.385 67.0825L206.848 82.5455L227.822 82.5455L212.402 67.1259L195.233 67.1259Z" fill="#324463"/>
<path d="M95.8622 44.4316L92.0001 44.3882L107.463 59.8512L128.437 59.8512L113.018 44.4316L95.8622 44.4316Z" fill="#324463"/>
<path d="M128.985 44.4316L125.123 44.3882L140.586 59.8512L161.56 59.8512L146.14 44.4316L128.985 44.4316Z" fill="#87FF4F"/>
<path d="M162.11 44.4316L158.248 44.3882L173.725 59.8512L194.699 59.8512L179.28 44.4316L162.11 44.4316Z" fill="#47494D"/>
<path d="M195.233 44.4316L191.385 44.3882L206.848 59.8512L227.822 59.8512L212.402 44.4316L195.233 44.4316Z" fill="#47494D"/>
<path d="M95.8622 21.7377L92.0001 21.6943L107.463 37.1574L128.437 37.1574L113.018 21.7377L95.8622 21.7377Z" fill="#47494D"/>
<path d="M128.985 21.7377L125.123 21.6943L140.586 37.1574L161.56 37.1574L146.14 21.7377L128.985 21.7377Z" fill="#47494D"/>
<path d="M162.11 21.7377L158.248 21.6943L173.725 37.1574L194.699 37.1574L179.28 21.7377L162.11 21.7377Z" fill="#47494D"/>
<path d="M195.233 21.7377L191.385 21.6943L206.848 37.1574L227.822 37.1574L212.402 21.7377L195.233 21.7377Z" fill="#47494D"/>
<path d="M95.8622 -0.956604L92.0001 -0.999998L107.463 14.463L128.437 14.463L113.018 -0.956605L95.8622 -0.956604Z" fill="#47494D"/>
<path d="M128.985 -0.956604L125.123 -0.999998L140.586 14.463L161.56 14.463L146.14 -0.956605L128.985 -0.956604Z" fill="#47494D"/>
<path d="M162.11 -0.956604L158.248 -0.999998L173.725 14.463L194.699 14.463L179.28 -0.956605L162.11 -0.956604Z" fill="#47494D"/>
<path d="M195.233 -0.956604L191.385 -0.999998L206.848 14.463L227.822 14.463L212.402 -0.956605L195.233 -0.956604Z" fill="#47494D"/>
<path d="M226.862 180.595L223 180.552L238.463 196.015L259.437 196.015L244.018 180.595L226.862 180.595Z" fill="#324463"/>
<path d="M259.985 180.595L256.123 180.552L271.586 196.015L292.56 196.015L277.14 180.595L259.985 180.595Z" fill="#324463"/>
<path d="M293.11 180.595L289.248 180.552L304.725 196.015L325.699 196.015L310.28 180.595L293.11 180.595Z" fill="#324463"/>
<path d="M226.862 157.901L223 157.858L238.463 173.321L259.437 173.321L244.018 157.901L226.862 157.901Z" fill="#324463"/>
<path d="M259.985 157.901L256.123 157.858L271.586 173.321L292.56 173.321L277.14 157.901L259.985 157.901Z" fill="#324463"/>
<path d="M293.11 157.901L289.248 157.858L304.725 173.321L325.699 173.321L310.28 157.901L293.11 157.901Z" fill="#324463"/>
<path d="M226.862 135.207L223 135.164L238.463 150.627L259.437 150.627L244.018 135.207L226.862 135.207Z" fill="#87FF4F"/>
<path d="M259.985 135.207L256.123 135.164L271.586 150.627L292.56 150.627L277.14 135.207L259.985 135.207Z" fill="#324463"/>
<path d="M293.11 135.207L289.248 135.164L304.725 150.627L325.699 150.627L310.28 135.207L293.11 135.207Z" fill="#324463"/>
<path d="M226.862 112.513L223 112.47L238.463 127.933L259.437 127.933L244.018 112.513L226.862 112.513Z" fill="#47494D"/>
<path d="M259.985 112.513L256.123 112.47L271.586 127.933L292.56 127.933L277.14 112.513L259.985 112.513Z" fill="#47494D"/>
<path d="M293.11 112.513L289.248 112.47L304.725 127.933L325.699 127.933L310.28 112.513L293.11 112.513Z" fill="#47494D"/>
<path d="M226.862 89.8198L223 89.7764L238.463 105.239L259.437 105.239L244.018 89.8198L226.862 89.8198Z" fill="#47494D"/>
<path d="M259.985 89.8198L256.123 89.7764L271.586 105.239L292.56 105.239L277.14 89.8198L259.985 89.8198Z" fill="#47494D"/>
<path d="M293.11 89.8198L289.248 89.7764L304.725 105.239L325.699 105.239L310.28 89.8198L293.11 89.8198Z" fill="#47494D"/>
<path d="M226.862 67.1259L223 67.0825L238.463 82.5455L259.437 82.5455L244.018 67.1259L226.862 67.1259Z" fill="#324463"/>
<path d="M259.985 67.1259L256.123 67.0825L271.586 82.5455L292.56 82.5455L277.14 67.1259L259.985 67.1259Z" fill="#324463"/>
<path d="M293.11 67.1259L289.248 67.0825L304.725 82.5455L325.699 82.5455L310.28 67.1259L293.11 67.1259Z" fill="#324463"/>
<path d="M226.862 44.4316L223 44.3882L238.463 59.8512L259.437 59.8512L244.018 44.4316L226.862 44.4316Z" fill="#324463"/>
<path d="M259.985 44.4316L256.123 44.3882L271.586 59.8512L292.56 59.8512L277.14 44.4316L259.985 44.4316Z" fill="#87FF4F"/>
<path d="M293.11 44.4316L289.248 44.3882L304.725 59.8512L325.699 59.8512L310.28 44.4316L293.11 44.4316Z" fill="#47494D"/>
<path d="M226.862 21.7377L223 21.6943L238.463 37.1574L259.437 37.1574L244.018 21.7377L226.862 21.7377Z" fill="#47494D"/>
<path d="M259.985 21.7377L256.123 21.6943L271.586 37.1574L292.56 37.1574L277.14 21.7377L259.985 21.7377Z" fill="#47494D"/>
<path d="M293.11 21.7377L289.248 21.6943L304.725 37.1574L325.699 37.1574L310.28 21.7377L293.11 21.7377Z" fill="#47494D"/>
<path d="M226.862 -0.956604L223 -0.999998L238.463 14.463L259.437 14.463L244.018 -0.956605L226.862 -0.956604Z" fill="#47494D"/>
<path d="M259.985 -0.956604L256.123 -0.999998L271.586 14.463L292.56 14.463L277.14 -0.956605L259.985 -0.956604Z" fill="#47494D"/>
<path d="M293.11 -0.956604L289.248 -0.999998L304.725 14.463L325.699 14.463L310.28 -0.956605L293.11 -0.956604Z" fill="#47494D"/>
</g>
<path d="M58.6644 29.0198C58.719 29.0198 58.7736 29.0198 58.8282 29.038H67.0711V24H47.0005V29.2381C47.1097 29.1108 47.2734 29.038 47.4554 29.038H58.6644V29.0198Z" fill="#87FF4F"/>
<path d="M74.4587 31.2205L83.3749 42.1696H91.6179V30.6385H85.6131V34.7672L82.2286 30.6385H80.6455C80.2997 30.6385 80.0268 30.3657 80.0268 30.0201V29.6382C80.0268 29.2926 80.2997 29.0198 80.6455 29.0198H80.9184L76.8424 24H68.4175V42.1696H74.4587V31.2205ZM78.0434 29.6564C78.0434 29.3108 78.3163 29.038 78.6621 29.038C79.0078 29.038 79.2807 29.3108 79.2807 29.6564V30.0383C79.2807 30.3839 79.0078 30.6567 78.6621 30.6567C78.3163 30.6567 78.0434 30.3839 78.0434 30.0383V29.6564ZM74.5497 29.6564C74.5497 29.3108 74.8226 29.038 75.1684 29.038H76.2965C76.6423 29.038 76.9152 29.3108 76.9152 29.6564V30.0383C76.9152 30.3839 76.6423 30.6567 76.2965 30.6567H75.1684C74.8226 30.6567 74.5497 30.3839 74.5497 30.0383V29.6564Z" fill="#87FF4F"/>
<path d="M91.5995 24H85.5947V29.0198H91.5995V24Z" fill="#87FF4F"/>
<path d="M69.5821 52.1186C69.2728 52.1186 69.018 51.8458 69.018 51.5002V51.1183C69.018 50.9 69.1272 50.7182 69.2728 50.5909C68.927 49.5905 68.4539 48.7357 67.8535 48.0628C67.2348 47.3716 66.4341 46.8078 65.4515 46.3713C64.4689 45.9348 63.4135 45.6256 62.2672 45.4437C61.1208 45.2618 59.7924 45.1709 58.3003 45.1709C54.5883 45.1709 51.8224 45.8984 50.0028 47.3534C48.1831 48.8084 47.2915 51.0637 47.2915 54.1011C47.2915 57.3749 48.1831 59.7939 49.9482 61.358C51.7132 62.9222 54.5519 63.7042 58.4641 63.7042C60.029 63.7042 61.4119 63.6133 62.5947 63.4132C63.7775 63.2132 64.8328 62.904 65.7791 62.4675C66.7071 62.031 67.4713 61.4489 68.0536 60.7396C68.6359 60.0303 69.0726 59.1391 69.3819 58.1206C69.6913 57.0839 69.8369 55.8653 69.8369 54.4467C69.8369 53.5918 69.7641 52.8279 69.6549 52.1004H69.5821V52.1186ZM62.4127 57.8296C61.5029 58.5753 60.211 58.939 58.5369 58.939C56.8628 58.939 55.5527 58.5207 54.6974 57.7023C53.824 56.8838 53.4055 55.7926 53.4055 54.4285C53.4055 53.7191 53.5147 53.0826 53.7148 52.5369C53.915 51.9913 54.2243 51.5002 54.6429 51.1183C55.0614 50.7182 55.5891 50.4272 56.2441 50.2271C56.881 50.027 57.6453 49.9361 58.4823 49.9361C60.1018 49.9361 61.3937 50.318 62.3581 51.0819C63.3225 51.8458 63.7956 52.9734 63.7956 54.4285C63.7775 55.9199 63.3225 57.1021 62.4127 57.8296ZM66.1794 51.5002C66.1794 51.8458 65.9246 52.1186 65.6153 52.1186H64.5963C64.287 52.1186 64.0322 51.8458 64.0322 51.5002V51.1183C64.0322 50.7727 64.287 50.4999 64.5963 50.4999H65.6153C65.9246 50.4999 66.1794 50.7727 66.1794 51.1183V51.5002ZM68.3448 51.5002C68.3448 51.8458 68.09 52.1186 67.7807 52.1186C67.4713 52.1186 67.2166 51.8458 67.2166 51.5002V51.1183C67.2166 50.7727 67.4713 50.4999 67.7807 50.4999C68.09 50.4999 68.3448 50.7727 68.3448 51.1183V51.5002Z" fill="#87FF4F"/>
<path d="M67.071 37.1315H53.0416V35.4946H66.1976V30.6566H53.0416H47.4735C47.2915 30.6566 47.1277 30.5839 47.0186 30.4565V42.1876H67.0892V37.1315H67.071Z" fill="#87FF4F"/>
<path d="M86.5231 45.4614V56.2286L83.4661 52.1H73.3489C73.0395 52.1 72.7848 51.8271 72.7848 51.4816V51.0996C72.7848 50.7541 73.0395 50.4812 73.3489 50.4812H82.2651L78.5348 45.4614H70.856V50.4812H71.1835C71.4928 50.4812 71.7476 50.7541 71.7476 51.0996V51.4816C71.7476 51.8271 71.4928 52.1 71.1835 52.1H70.856V63.6492H76.3513V52.7002L84.4851 63.6492H92.0002V45.4614H86.5231Z" fill="#87FF4F"/>
<path d="M45.3629 42.1696V37.1498H33.608L44.0891 30.6385H43.3431C42.9973 30.6385 42.7244 30.3657 42.7244 30.0201V29.6382C42.7244 29.2926 42.9973 29.0198 43.3431 29.0198H45.0899C45.1809 29.0198 45.2901 29.038 45.3629 29.0926V24H24.7827V29.0562H36.7378L24.7827 36.3677V42.1696H25.1284H45.3629ZM40.741 29.6564C40.741 29.3108 41.0139 29.038 41.3596 29.038C41.7054 29.038 41.9783 29.3108 41.9783 29.6564V30.0383C41.9783 30.3839 41.7054 30.6567 41.3596 30.6567C41.0139 30.6567 40.741 30.3839 40.741 30.0383V29.6564ZM37.2473 29.6564C37.2473 29.3108 37.5202 29.038 37.8659 29.038H38.9941C39.3398 29.038 39.6128 29.3108 39.6128 29.6564V30.0383C39.6128 30.3839 39.3398 30.6567 38.9941 30.6567H37.8659C37.5202 30.6567 37.2473 30.3839 37.2473 30.0383V29.6564Z" fill="#87FF4F"/>
<path d="M30.2778 52.2455C30.5143 51.8817 30.8237 51.5725 31.2058 51.3179C31.5879 51.0814 32.1156 50.8814 32.7889 50.7177C33.4621 50.554 34.2446 50.4812 35.1362 50.4812C36.137 50.4812 37.0286 50.5904 37.7929 50.8086C38.5571 51.0269 39.1212 51.2633 39.5033 51.5361C39.8855 51.8089 40.1948 52.1 40.4314 52.4455C40.6679 52.7911 40.8135 53.0275 40.8499 53.1548C40.8863 53.3003 40.9227 53.4095 40.9409 53.5004H46.5817C46.5817 52.2273 46.3816 51.0996 45.9995 50.1357C45.5991 49.1717 44.9805 48.3169 44.107 47.5894C43.2336 46.8619 42.069 46.2981 40.5587 45.8979C39.0666 45.516 37.2834 45.3159 35.1908 45.3159C33.3348 45.3159 31.7335 45.4796 30.3687 45.807C29.0222 46.1344 27.8576 46.6618 26.8932 47.4075C25.9288 48.135 25.2192 49.1172 24.7279 50.3357C24.2547 51.5543 24 53.0093 24 54.719C24 56.3013 24.182 57.6472 24.5641 58.7385C24.9462 59.8298 25.5649 60.7573 26.4383 61.5212C27.3117 62.2851 28.4763 62.8489 29.9138 63.2127C31.3695 63.5582 33.1528 63.7401 35.3 63.7401C37.0468 63.7401 38.5753 63.6128 39.9037 63.34C41.232 63.0672 42.3056 62.7216 43.1244 62.2669C43.9433 61.8122 44.6165 61.2484 45.1442 60.5755C45.6719 59.9025 46.0177 59.2114 46.236 58.4839C46.4544 57.7563 46.5454 56.9743 46.5454 56.0831H40.9045L40.8499 56.3377C40.8135 56.5196 40.7043 56.7196 40.4859 56.9743C40.2676 57.2289 39.9946 57.4653 39.6307 57.72C39.2668 57.9564 38.6845 58.1747 37.9021 58.3384C37.1196 58.5202 36.1916 58.593 35.118 58.593C34.0444 58.593 33.1892 58.4839 32.4795 58.2838C31.7517 58.0837 31.2058 57.7745 30.8055 57.3926C30.4051 57.0106 30.1322 56.5741 29.9502 56.1194C29.7683 55.6466 29.6955 55.1191 29.6955 54.5189C29.6955 54.0824 29.7319 53.7005 29.8047 53.3367C29.8956 52.973 30.0412 52.6092 30.2778 52.2455Z" fill="#87FF4F"/>
<g clip-path="url(#clip1_89_47)">
<path d="M296 171.65C295.926 171.655 295.869 171.663 295.811 171.663C294.34 171.663 292.868 171.663 291.398 171.663C291.196 171.663 291.196 171.661 291.153 171.461C290.971 170.596 290.789 169.734 290.607 168.87C290.544 168.57 290.545 168.57 290.246 168.57C288.176 168.57 286.104 168.57 284.033 168.57C283.75 168.57 283.752 168.572 283.656 168.846C283.35 169.732 283.042 170.616 282.734 171.5C282.678 171.659 282.674 171.663 282.501 171.663C280.802 171.663 279.103 171.663 277.403 171.663C277.351 171.663 277.299 171.655 277.221 171.648C277.25 171.571 277.27 171.509 277.294 171.451C278.27 169.113 279.249 166.775 280.225 164.437C280.93 162.752 281.633 161.069 282.336 159.384C283.035 157.709 283.732 156.035 284.429 154.363C284.628 153.887 284.824 153.408 285.031 152.936C285.19 152.57 285.403 152.236 285.685 151.951C286.048 151.586 286.489 151.391 286.997 151.343C287.134 151.33 287.273 151.326 287.412 151.326C288.787 151.325 290.162 151.326 291.537 151.326C291.567 151.326 291.596 151.328 291.627 151.326C291.719 151.321 291.769 151.357 291.789 151.453C291.839 151.705 291.899 151.956 291.953 152.209C292.102 152.914 292.252 153.618 292.398 154.323C292.515 154.888 292.627 155.453 292.744 156.017C292.911 156.829 293.083 157.639 293.252 158.449C293.432 159.313 293.611 160.178 293.793 161.042C293.96 161.841 294.128 162.64 294.295 163.439C294.456 164.21 294.614 164.978 294.777 165.749C294.984 166.736 295.193 167.722 295.4 168.709C295.537 169.368 295.672 170.026 295.809 170.685C295.865 170.955 295.924 171.224 295.982 171.495C295.989 171.54 295.991 171.585 296 171.65ZM288.086 156.858C288.066 156.856 288.046 156.854 288.028 156.853C288.003 156.903 287.972 156.952 287.954 157.004C287.637 157.884 287.322 158.767 287.005 159.647C286.534 160.957 286.062 162.267 285.592 163.576C285.505 163.82 285.413 164.06 285.33 164.305C285.28 164.451 285.307 164.486 285.466 164.489C285.597 164.491 285.729 164.489 285.862 164.489C287.08 164.489 288.298 164.489 289.515 164.489C289.717 164.489 289.736 164.462 289.695 164.267C289.542 163.558 289.39 162.848 289.237 162.139C289.055 161.289 288.871 160.439 288.689 159.588C288.506 158.725 288.324 157.863 288.138 157C288.124 156.954 288.102 156.907 288.086 156.858Z" fill="white"/>
<path d="M244.688 165.105C244.715 165.049 244.747 164.995 244.771 164.937C245.414 163.313 246.058 161.688 246.699 160.062C247.357 158.399 248.013 156.734 248.672 155.07C249.143 153.881 249.615 152.692 250.087 151.504C250.157 151.325 250.157 151.323 250.348 151.323C252.035 151.323 253.721 151.323 255.408 151.323C255.466 151.323 255.523 151.33 255.608 151.338C255.577 151.426 255.558 151.493 255.531 151.558C254.849 153.187 254.167 154.814 253.485 156.443C252.637 158.469 251.786 160.497 250.937 162.523C250.047 164.65 249.157 166.777 248.265 168.904C247.906 169.763 247.542 170.62 247.189 171.481C247.132 171.619 247.054 171.665 246.906 171.665C245.207 171.661 243.508 171.663 241.81 171.661C241.612 171.661 241.607 171.654 241.556 171.461C241.192 170.061 240.826 168.661 240.462 167.261C240.125 165.965 239.792 164.668 239.457 163.373C239.109 162.031 238.759 160.688 238.412 159.346C238.067 158.027 237.727 156.708 237.377 155.391C237.267 154.978 237.134 154.572 236.864 154.23C236.667 153.981 236.422 153.791 236.15 153.632C235.707 153.374 235.231 153.194 234.755 153.008C234.089 152.748 233.415 152.516 232.725 152.332C232.204 152.196 231.683 152.079 231.164 151.956C231 151.918 230.982 151.902 231.011 151.742C231.029 151.641 231.052 151.541 231.067 151.44C231.079 151.359 231.123 151.325 231.2 151.325C231.241 151.325 231.285 151.323 231.326 151.323C234.141 151.323 236.957 151.325 239.772 151.321C240.223 151.321 240.657 151.375 241.066 151.576C241.709 151.89 242.126 152.398 242.3 153.088C242.417 153.553 242.49 154.029 242.581 154.5C242.7 155.106 242.821 155.714 242.936 156.321C243.057 156.957 243.173 157.596 243.291 158.233C243.436 158.994 243.583 159.754 243.728 160.515C243.91 161.471 244.088 162.426 244.27 163.382C244.371 163.912 244.472 164.443 244.576 164.973C244.585 165.02 244.618 165.061 244.639 165.105C244.657 165.105 244.672 165.105 244.688 165.105Z" fill="white"/>
<path d="M263.414 166.501C263.477 166.528 263.521 166.543 263.562 166.564C264.409 167.001 265.301 167.318 266.229 167.531C266.845 167.672 267.467 167.759 268.1 167.786C268.581 167.806 269.06 167.806 269.536 167.732C270.186 167.631 270.797 167.425 271.309 166.994C271.664 166.694 271.911 166.328 271.95 165.846C271.983 165.451 271.839 165.117 271.596 164.818C271.275 164.426 270.871 164.134 270.437 163.885C269.775 163.504 269.105 163.142 268.44 162.77C267.716 162.366 267.009 161.933 266.381 161.388C265.636 160.742 265.061 159.979 264.791 159.014C264.679 158.612 264.633 158.2 264.634 157.785C264.638 157.37 264.667 156.959 264.746 156.55C264.917 155.662 265.272 154.856 265.815 154.134C266.471 153.262 267.314 152.617 268.278 152.126C269.183 151.664 270.141 151.366 271.143 151.193C272.327 150.987 273.516 150.955 274.713 151.067C275.877 151.177 277.014 151.404 278.119 151.792C278.387 151.886 278.384 151.886 278.324 152.162C278.153 152.941 277.987 153.723 277.816 154.504C277.708 154.996 277.6 155.489 277.49 155.981C277.479 156.026 277.461 156.068 277.441 156.124C277.369 156.095 277.308 156.071 277.248 156.048C275.843 155.453 274.383 155.13 272.85 155.187C272.232 155.211 271.633 155.325 271.077 155.61C270.768 155.767 270.493 155.967 270.291 156.256C269.965 156.721 269.968 157.239 270.303 157.697C270.559 158.047 270.898 158.309 271.269 158.523C271.882 158.877 272.506 159.214 273.125 159.557C273.767 159.911 274.407 160.266 274.999 160.701C275.549 161.105 276.05 161.558 276.459 162.108C276.924 162.732 277.221 163.429 277.342 164.194C277.418 164.67 277.416 165.148 277.376 165.632C277.319 166.321 277.158 166.981 276.888 167.616C276.634 168.211 276.286 168.749 275.854 169.233C274.974 170.214 273.879 170.858 272.655 171.309C271.833 171.612 270.983 171.791 270.118 171.897C269.588 171.962 269.053 172.002 268.519 172.006C267.986 172.009 267.453 171.96 266.921 171.923C266.262 171.877 265.611 171.764 264.964 171.63C264.169 171.466 263.393 171.239 262.634 170.95C262.467 170.887 262.465 170.883 262.504 170.699C262.706 169.749 262.908 168.796 263.112 167.845C263.198 167.441 263.286 167.035 263.375 166.631C263.382 166.591 263.396 166.559 263.414 166.501Z" fill="white"/>
<path d="M253.608 171.65C253.649 171.437 253.685 171.249 253.725 171.064C253.909 170.189 254.094 169.314 254.28 168.439C254.462 167.587 254.646 166.737 254.826 165.886C255.033 164.912 255.237 163.936 255.444 162.961C255.587 162.292 255.734 161.623 255.877 160.953C256.042 160.172 256.205 159.391 256.37 158.61C256.551 157.758 256.736 156.907 256.918 156.055C257.102 155.193 257.282 154.329 257.466 153.466C257.607 152.808 257.747 152.151 257.889 151.494C257.924 151.332 257.935 151.325 258.109 151.325C259.713 151.325 261.315 151.325 262.919 151.325C262.971 151.325 263.023 151.334 263.097 151.341C263.09 151.422 263.092 151.492 263.077 151.559C262.951 152.171 262.823 152.782 262.694 153.392C262.571 153.968 262.445 154.543 262.322 155.119C262.117 156.088 261.915 157.058 261.712 158.027C261.519 158.944 261.322 159.858 261.128 160.775C260.839 162.131 260.551 163.488 260.263 164.845C260.061 165.796 259.854 166.746 259.654 167.697C259.45 168.661 259.25 169.624 259.046 170.587C258.985 170.881 258.92 171.174 258.855 171.468C258.814 171.654 258.803 171.661 258.616 171.661C257.019 171.661 255.423 171.661 253.824 171.661C253.765 171.661 253.705 171.655 253.608 171.65Z" fill="white"/>
</g>
<path d="M25.1186 169V158.818H28.7479C29.54 158.818 30.1963 158.962 30.7166 159.251C31.237 159.539 31.6264 159.933 31.8849 160.434C32.1435 160.931 32.2727 161.491 32.2727 162.114C32.2727 162.741 32.1418 163.304 31.88 163.805C31.6214 164.302 31.2304 164.696 30.7067 164.988C30.1863 165.276 29.5317 165.42 28.7429 165.42H26.2472V164.118H28.6037C29.1042 164.118 29.5102 164.032 29.8217 163.859C30.1333 163.684 30.362 163.445 30.5078 163.143C30.6536 162.842 30.7266 162.499 30.7266 162.114C30.7266 161.73 30.6536 161.388 30.5078 161.09C30.362 160.792 30.1316 160.558 29.8168 160.389C29.5052 160.22 29.0942 160.136 28.5838 160.136H26.6548V169H25.1186ZM36.8737 169V158.818H40.5029C41.2918 158.818 41.9464 158.954 42.4667 159.226C42.9904 159.498 43.3815 159.874 43.64 160.354C43.8985 160.832 44.0278 161.384 44.0278 162.01C44.0278 162.633 43.8969 163.182 43.6351 163.656C43.3765 164.126 42.9854 164.492 42.4618 164.754C41.9414 165.016 41.2868 165.147 40.498 165.147H37.7487V163.825H40.3588C40.8559 163.825 41.2603 163.753 41.5718 163.611C41.8867 163.468 42.1171 163.261 42.2629 162.989C42.4087 162.718 42.4816 162.391 42.4816 162.01C42.4816 161.625 42.4071 161.292 42.2579 161.011C42.1121 160.729 41.8817 160.513 41.5669 160.364C41.2553 160.212 40.846 160.136 40.3389 160.136H38.4099V169H36.8737ZM41.9 164.406L44.4156 169H42.6656L40.1997 164.406H41.9ZM48.6971 169V158.818H55.0806V160.141H50.2333V163.243H54.7476V164.56H50.2333V167.678H55.1403V169H48.6971ZM59.9327 158.818H61.797L65.0385 166.733H65.1578L68.3993 158.818H70.2636V169H68.802V161.632H68.7075L65.7047 168.985H64.4916L61.4888 161.627H61.3943V169H59.9327V158.818ZM76.8333 158.818V169H75.2971V158.818H76.8333ZM81.8706 169V158.818H88.2541V160.141H83.4068V163.243H87.921V164.56H83.4068V167.678H88.3137V169H81.8706ZM93.1061 169V158.818H96.7354C97.5242 158.818 98.1788 158.954 98.6992 159.226C99.2228 159.498 99.6139 159.874 99.8724 160.354C100.131 160.832 100.26 161.384 100.26 162.01C100.26 162.633 100.129 163.182 99.8675 163.656C99.609 164.126 99.2179 164.492 98.6942 164.754C98.1738 165.016 97.5192 165.147 96.7304 165.147H93.9811V163.825H96.5912C97.0884 163.825 97.4927 163.753 97.8043 163.611C98.1191 163.468 98.3495 163.261 98.4953 162.989C98.6411 162.718 98.7141 162.391 98.7141 162.01C98.7141 161.625 98.6395 161.292 98.4903 161.011C98.3445 160.729 98.1142 160.513 97.7993 160.364C97.4877 160.212 97.0784 160.136 96.5713 160.136H94.6423V169H93.1061ZM98.1324 164.406L100.648 169H98.898L96.4321 164.406H98.1324Z" fill="white"/>
<g clip-path="url(#clip2_89_47)">
<path d="M290.296 131L288.73 129.476C291.974 126.319 293.875 121.964 293.875 117.5C293.875 112.927 292.085 108.681 288.73 105.524L290.296 104C293.987 107.593 296 112.383 296 117.5C296 122.617 293.987 127.407 290.296 131Z" fill="white"/>
<path d="M285.039 125.992L283.474 124.359C285.375 122.508 286.382 120.113 286.382 117.5C286.382 114.887 285.263 112.492 283.474 110.641L285.039 109.117C287.388 111.403 288.618 114.343 288.618 117.5C288.618 120.766 287.276 123.705 285.039 125.992Z" fill="white"/>
<path d="M280.566 121.637L279 120.113C279.671 119.46 280.118 118.48 280.118 117.5C280.118 116.52 279.783 115.649 279 114.887L280.566 113.363C281.684 114.452 282.355 115.976 282.355 117.5C282.355 119.133 281.684 120.548 280.566 121.637Z" fill="white"/>
</g>
<g clip-path="url(#clip3_89_47)">
<mask id="mask0_89_47" style="mask-type:luminance" maskUnits="userSpaceOnUse" x="231" y="102" width="40" height="31">
<path d="M271 102H231V133H271V102Z" fill="white"/>
</mask>
<g mask="url(#mask0_89_47)">
<path d="M266.416 133H235.584C233.067 133 231 130.933 231 128.417V106.583C231 104.067 233.067 102 235.584 102H266.416C268.933 102 271 104.067 271 106.583V128.507C271 131.023 268.933 133 266.416 133Z" fill="#E9CE7F"/>
</g>
<mask id="mask1_89_47" style="mask-type:luminance" maskUnits="userSpaceOnUse" x="231" y="102" width="40" height="31">
<path d="M271 102H231V133H271V102Z" fill="white"/>
</mask>
<g mask="url(#mask1_89_47)">
<path opacity="0.5" d="M266.416 133H235.584C233.067 133 231 130.933 231 128.417V106.583C231 104.067 233.067 102 235.584 102H266.416C268.933 102 271 104.067 271 106.583V128.417C271 131.023 268.933 133 266.416 133Z" fill="url(#paint1_linear_89_47)"/>
</g>
<mask id="mask2_89_47" style="mask-type:luminance" maskUnits="userSpaceOnUse" x="231" y="102" width="40" height="31">
<path d="M271 102H231V133H271V102Z" fill="white"/>
</mask>
<g mask="url(#mask2_89_47)">
<path d="M271 117.904V117.186H256.438V112.603L260.303 108.739H271.09V108.02H259.944L255.899 112.064H251.315V102H250.596V112.064H246.011L241.966 108.02H231V108.739H241.787L245.652 112.603V117.186H231V117.904H245.562V122.487L241.337 126.71H231V127.429H241.697L246.101 123.026H250.685V133.09H251.404V122.936H255.989L260.393 127.339H271.09V126.62H260.573L256.348 122.397V117.814H271V117.904ZM255.719 122.217H246.281V112.783H255.719V122.217Z" fill="#231912"/>
</g>
</g>
</g>
<defs>
<linearGradient id="paint0_linear_89_47" x1="282" y1="53.5" x2="-83.5" y2="200" gradientUnits="userSpaceOnUse">
<stop stop-color="#1D2140"/>
<stop offset="1" stop-color="#010222"/>
</linearGradient>
<linearGradient id="paint1_linear_89_47" x1="231" y1="117.516" x2="271.012" y2="117.516" gradientUnits="userSpaceOnUse">
<stop stop-color="#B56110"/>
<stop offset="0.1507" stop-color="#B56110"/>
<stop offset="0.4638" stop-color="#E5AD5C"/>
<stop offset="0.6129" stop-color="#F9CC7B"/>
<stop offset="0.7204" stop-color="#FFE6A6"/>
<stop offset="0.8387" stop-color="#F9CC7B"/>
<stop offset="1" stop-color="#B56110"/>
</linearGradient>
<clipPath id="clip0_89_47">
<rect width="320" height="196" rx="10" fill="white"/>
</clipPath>
<clipPath id="clip1_89_47">
<rect width="65" height="21" fill="white" transform="translate(231 151)"/>
</clipPath>
<clipPath id="clip2_89_47">
<rect width="17" height="27" fill="white" transform="translate(279 104)"/>
</clipPath>
<clipPath id="clip3_89_47">
<rect width="40" height="31" fill="white" transform="translate(231 102)"/>
</clipPath>
</defs>
</svg>
