<svg width="320" height="196" viewBox="0 0 320 196" fill="none" xmlns="http://www.w3.org/2000/svg">
<g clip-path="url(#clip0_56_810)">
<rect width="320" height="196" rx="10" fill="url(#paint0_linear_56_810)"/>
<g opacity="0.4" clip-path="url(#clip1_56_810)">
<path d="M293.401 57.8919C287.097 46.9716 272.748 43.8809 262.506 51.2431L244.995 63.7733L364.515 270.788C369.269 279.022 367.008 289.528 359.289 295.079L207.908 403.902C182.018 424.51 186.933 436.67 187.955 438.582L188.115 438.859L188.612 439.72C192.768 446.919 202.014 449.318 209.148 445.049L417.952 320.176C430.165 312.865 434.254 297.12 427.138 284.794L293.396 57.8816L293.401 57.8919Z" fill="#4F4F4F"/>
<path d="M79.6561 182.118L244.994 63.7732L226.968 32.5503C222.759 25.2598 213.042 23.4188 206.455 28.6573L54.8949 149.342C41.5296 159.984 37.9698 178.801 46.5065 193.587L70.7432 235.566C54.0191 206.599 62.1228 194.729 79.6561 182.118Z" fill="#FFD987"/>
<path d="M179.655 424.206L187.96 438.592C186.933 436.67 182.017 424.51 207.908 403.902L359.289 295.078C367.008 289.528 369.274 279.032 364.514 270.788L244.994 63.7731L79.6561 182.118C62.1228 194.729 54.0191 206.599 70.7432 235.566L179.655 424.206Z" fill="#CFB06E"/>
</g>
<g clip-path="url(#clip2_56_810)">
<path d="M74.1947 108.978C73.058 107.01 70.4709 106.452 68.6244 107.78L65.4672 110.039L87.0162 147.363C87.8732 148.847 87.4657 150.742 86.074 151.742L58.7807 171.363C54.1127 175.078 54.9989 177.271 55.1831 177.615L55.2119 177.665L55.3016 177.821C56.0509 179.118 57.718 179.551 59.0041 178.781L96.6507 156.267C98.8526 154.949 99.5899 152.11 98.3069 149.888L74.1936 108.977L74.1947 108.978Z" fill="#4F4F4F"/>
<path d="M35.6572 131.376L65.4671 110.039L62.217 104.41C61.4581 103.095 59.7061 102.763 58.5185 103.708L31.1929 125.467C28.7832 127.385 28.1414 130.778 29.6805 133.444L34.0503 141.013C31.035 135.79 32.4961 133.65 35.6572 131.376Z" fill="#FFD987"/>
<path d="M53.6867 175.024L55.1842 177.617C54.9989 177.271 54.1127 175.078 58.7807 171.363L86.074 151.742C87.4658 150.742 87.8744 148.849 87.0162 147.363L65.4672 110.039L35.6574 131.376C32.4962 133.65 31.0351 135.79 34.0504 141.013L53.6867 175.024Z" fill="#CFB06E"/>
</g>
<path d="M25.3295 47V44.8097L34.0398 32.5881H25.3125V29.5455H38.6761V31.7358L29.9574 43.9574H38.6932V47H25.3295ZM41.5249 47V29.5455H53.2862V32.5881H45.2152V36.7472H52.6811V39.7898H45.2152V43.9574H53.3203V47H41.5249ZM70.8196 29.5455V47H67.6321L60.0384 36.0142H59.9105V47H56.2202V29.5455H59.4588L66.9929 40.5227H67.1463V29.5455H70.8196ZM73.8686 47V29.5455H80.755C82.0788 29.5455 83.2067 29.7983 84.1385 30.304C85.0703 30.804 85.7805 31.5 86.2692 32.392C86.7635 33.2784 87.0107 34.3011 87.0107 35.4602C87.0107 36.6193 86.7607 37.642 86.2607 38.5284C85.7607 39.4148 85.0362 40.1051 84.0874 40.5994C83.1442 41.0937 82.0021 41.3409 80.6612 41.3409H76.272V38.3835H80.0646C80.7749 38.3835 81.3601 38.2614 81.8203 38.017C82.2862 37.767 82.6328 37.4233 82.8601 36.9858C83.093 36.5426 83.2095 36.0341 83.2095 35.4602C83.2095 34.8807 83.093 34.375 82.8601 33.9432C82.6328 33.5057 82.2862 33.1676 81.8203 32.929C81.3544 32.6847 80.7635 32.5625 80.0476 32.5625H77.5589V47H73.8686ZM90.4006 47H86.446L92.4716 29.5455H97.2273L103.244 47H99.2898L94.9176 33.5341H94.7812L90.4006 47ZM90.1534 40.1392H99.4943V43.0199H90.1534V40.1392ZM114.415 34.5653C114.347 33.8778 114.055 33.3437 113.538 32.9631C113.021 32.5824 112.319 32.392 111.433 32.392C110.83 32.392 110.322 32.4773 109.907 32.6477C109.492 32.8125 109.174 33.0426 108.952 33.3381C108.737 33.6335 108.629 33.9688 108.629 34.3438C108.617 34.6562 108.683 34.929 108.825 35.1619C108.972 35.3949 109.174 35.5966 109.43 35.767C109.685 35.9318 109.981 36.0767 110.316 36.2017C110.651 36.321 111.009 36.4233 111.39 36.5085L112.958 36.8835C113.719 37.054 114.418 37.2812 115.055 37.5653C115.691 37.8494 116.242 38.1989 116.708 38.6136C117.174 39.0284 117.535 39.517 117.79 40.0795C118.052 40.642 118.185 41.2869 118.191 42.0142C118.185 43.0824 117.913 44.0085 117.373 44.7926C116.839 45.571 116.066 46.1761 115.055 46.608C114.049 47.0341 112.836 47.2472 111.415 47.2472C110.006 47.2472 108.779 47.0312 107.734 46.5994C106.694 46.1676 105.881 45.5284 105.296 44.6818C104.717 43.8295 104.413 42.7756 104.384 41.5199H107.955C107.995 42.1051 108.163 42.5937 108.458 42.9858C108.759 43.3722 109.16 43.6648 109.66 43.8636C110.165 44.0568 110.737 44.1534 111.373 44.1534C111.998 44.1534 112.54 44.0625 113.001 43.8807C113.467 43.6989 113.827 43.446 114.083 43.1222C114.339 42.7983 114.467 42.4261 114.467 42.0057C114.467 41.6136 114.35 41.2841 114.117 41.017C113.89 40.75 113.555 40.5227 113.112 40.3352C112.674 40.1477 112.137 39.9773 111.501 39.8239L109.6 39.3466C108.129 38.9886 106.967 38.429 106.114 37.6676C105.262 36.9062 104.839 35.8807 104.844 34.5909C104.839 33.5341 105.12 32.6108 105.688 31.821C106.262 31.0312 107.049 30.4148 108.049 29.9716C109.049 29.5284 110.185 29.3068 111.458 29.3068C112.754 29.3068 113.884 29.5284 114.85 29.9716C115.822 30.4148 116.577 31.0312 117.117 31.821C117.657 32.6108 117.935 33.5256 117.952 34.5653H114.415ZM130.142 34.5653C130.074 33.8778 129.781 33.3437 129.264 32.9631C128.747 32.5824 128.045 32.392 127.159 32.392C126.557 32.392 126.048 32.4773 125.634 32.6477C125.219 32.8125 124.901 33.0426 124.679 33.3381C124.463 33.6335 124.355 33.9688 124.355 34.3438C124.344 34.6562 124.409 34.929 124.551 35.1619C124.699 35.3949 124.901 35.5966 125.156 35.767C125.412 35.9318 125.707 36.0767 126.043 36.2017C126.378 36.321 126.736 36.4233 127.116 36.5085L128.685 36.8835C129.446 37.054 130.145 37.2812 130.781 37.5653C131.418 37.8494 131.969 38.1989 132.435 38.6136C132.901 39.0284 133.261 39.517 133.517 40.0795C133.778 40.642 133.912 41.2869 133.918 42.0142C133.912 43.0824 133.639 44.0085 133.099 44.7926C132.565 45.571 131.793 46.1761 130.781 46.608C129.776 47.0341 128.563 47.2472 127.142 47.2472C125.733 47.2472 124.506 47.0312 123.46 46.5994C122.42 46.1676 121.608 45.5284 121.023 44.6818C120.443 43.8295 120.139 42.7756 120.111 41.5199H123.682C123.722 42.1051 123.889 42.5937 124.185 42.9858C124.486 43.3722 124.886 43.6648 125.386 43.8636C125.892 44.0568 126.463 44.1534 127.099 44.1534C127.724 44.1534 128.267 44.0625 128.727 43.8807C129.193 43.6989 129.554 43.446 129.81 43.1222C130.065 42.7983 130.193 42.4261 130.193 42.0057C130.193 41.6136 130.077 41.2841 129.844 41.017C129.616 40.75 129.281 40.5227 128.838 40.3352C128.401 40.1477 127.864 39.9773 127.227 39.8239L125.327 39.3466C123.855 38.9886 122.693 38.429 121.841 37.6676C120.989 36.9062 120.565 35.8807 120.571 34.5909C120.565 33.5341 120.847 32.6108 121.415 31.821C121.989 31.0312 122.776 30.4148 123.776 29.9716C124.776 29.5284 125.912 29.3068 127.185 29.3068C128.48 29.3068 129.611 29.5284 130.577 29.9716C131.548 30.4148 132.304 31.0312 132.844 31.821C133.384 32.6108 133.662 33.5256 133.679 34.5653H130.142Z" fill="white"/>
</g>
<defs>
<linearGradient id="paint0_linear_56_810" x1="1.64217e-07" y1="108.5" x2="320" y2="108.5" gradientUnits="userSpaceOnUse">
<stop stop-color="#886623"/>
<stop offset="1" stop-color="#CFB06E"/>
</linearGradient>
<clipPath id="clip0_56_810">
<rect width="320" height="196" rx="10" fill="white"/>
</clipPath>
<clipPath id="clip1_56_810">
<rect width="284.033" height="362.106" fill="white" transform="translate(15 139.016) rotate(-30)"/>
</clipPath>
<clipPath id="clip2_56_810">
<rect width="51.21" height="65.2864" fill="white" transform="translate(24 123.605) rotate(-30)"/>
</clipPath>
</defs>
</svg>
