<svg width="320" height="196" viewBox="0 0 320 196" fill="none" xmlns="http://www.w3.org/2000/svg">
<g clip-path="url(#clip0_371_6552)">
<rect width="320" height="196" rx="10" fill="url(#paint0_linear_371_6552)"/>
<path d="M107.032 208.105L103.819 211.318L104.079 193.182L99.0748 198.174L99.1907 190.037L95.7796 193.448L95.6628 201.576L89.2515 207.975L89.1469 215.253L92.3465 212.053L92.3887 209.115L95.6016 205.903L95.3399 224.04L100.344 219.048L100.226 227.185L103.638 223.774L103.754 215.646L110.166 209.247L110.27 201.969L107.071 205.169L107.028 208.106L107.032 208.105Z" fill="white" fill-opacity="0.05"/>
<path d="M123.509 191.628L120.411 194.726L120.343 176.918L115.517 181.732L115.485 173.743L112.196 177.032L112.227 185.013L106.044 191.183L106.071 198.329L109.157 195.243L109.146 192.359L112.244 189.261L112.311 207.07L117.137 202.256L117.166 210.246L120.455 206.956L120.425 198.976L126.607 192.805L126.58 185.66L123.495 188.745L123.506 191.629L123.509 191.628Z" fill="white" fill-opacity="0.05"/>
<path d="M139.772 207.892L136.673 210.99L136.606 193.182L131.78 197.996L131.748 190.006L128.459 193.295L128.489 201.276L122.307 207.446L122.334 214.592L125.419 211.507L125.408 208.622L128.506 205.524L128.573 223.333L133.399 218.519L133.429 226.509L136.718 223.22L136.688 215.239L142.87 209.068L142.843 201.923L139.758 205.008L139.769 207.893L139.772 207.892Z" fill="white" fill-opacity="0.05"/>
<path d="M139.772 175.365L136.673 178.463L136.606 160.655L131.78 165.469L131.748 157.479L128.459 160.768L128.489 168.749L122.307 174.919L122.334 182.065L125.419 178.98L125.408 176.095L128.506 172.997L128.573 190.806L133.399 185.992L133.429 193.982L136.718 190.693L136.688 182.712L142.87 176.542L142.843 169.396L139.758 172.481L139.769 175.366L139.772 175.365Z" fill="white" fill-opacity="0.05"/>
<path d="M156.035 191.628L152.937 194.726L152.869 176.918L148.043 181.732L148.012 173.743L144.723 177.032L144.753 185.013L138.57 191.183L138.598 198.329L141.683 195.243L141.672 192.359L144.77 189.261L144.837 207.07L149.663 202.256L149.692 210.246L152.982 206.956L152.951 198.976L159.134 192.805L159.107 185.66L156.021 188.745L156.032 191.629L156.035 191.628Z" fill="white" fill-opacity="0.05"/>
<path d="M172.299 207.892L169.201 210.99L169.133 193.182L164.307 197.996L164.275 190.006L160.986 193.295L161.017 201.276L154.834 207.446L154.861 214.592L157.947 211.507L157.936 208.622L161.034 205.524L161.101 223.333L165.927 218.519L165.956 226.509L169.245 223.22L169.215 215.239L175.397 209.068L175.37 201.923L172.285 205.008L172.296 207.893L172.299 207.892Z" fill="white" fill-opacity="0.05"/>
<path d="M156.742 158.394L153.644 161.492L153.576 143.684L148.75 148.498L148.719 140.508L145.43 143.798L145.46 151.778L139.277 157.949L139.305 165.094L142.39 162.009L142.379 159.125L145.477 156.026L145.544 173.836L150.37 169.022L150.399 177.011L153.689 173.722L153.658 165.741L159.841 159.571L159.814 152.425L156.728 155.511L156.739 158.395L156.742 158.394Z" fill="white" fill-opacity="0.05"/>
<path d="M173.006 174.658L169.908 177.756L169.84 159.948L165.014 164.762L164.983 156.772L161.693 160.061L161.724 168.042L155.541 174.212L155.568 181.358L158.654 178.273L158.643 175.388L161.741 172.29L161.808 190.099L166.634 185.285L166.663 193.275L169.952 189.986L169.922 182.005L176.105 175.835L176.077 168.689L172.992 171.774L173.003 174.659L173.006 174.658Z" fill="white" fill-opacity="0.05"/>
<path d="M189.27 190.921L186.172 194.019L186.104 176.211L181.278 181.025L181.246 173.036L177.957 176.325L177.987 184.306L171.805 190.476L171.832 197.622L174.917 194.536L174.906 191.652L178.005 188.554L178.071 206.363L182.897 201.549L182.927 209.539L186.216 206.249L186.186 198.269L192.368 192.098L192.341 184.953L189.256 188.038L189.267 190.922L189.27 190.921Z" fill="white" fill-opacity="0.05"/>
<path d="M204.826 206.477L201.728 209.576L201.66 191.768L196.834 196.581L196.803 188.592L193.514 191.881L193.544 199.862L187.361 206.032L187.389 213.178L190.474 210.092L190.463 207.208L193.561 204.11L193.628 221.919L198.454 217.105L198.483 225.095L201.773 221.806L201.742 213.825L207.925 207.654L207.898 200.509L204.812 203.594L204.823 206.478L204.826 206.477Z" fill="white" fill-opacity="0.05"/>
<path d="M173.006 142.131L169.908 145.229L169.84 127.421L165.014 132.235L164.983 124.245L161.693 127.534L161.724 135.515L155.541 141.685L155.568 148.831L158.654 145.746L158.643 142.861L161.741 139.763L161.808 157.572L166.634 152.758L166.663 160.748L169.952 157.459L169.922 149.478L176.105 143.308L176.077 136.162L172.992 139.247L173.003 142.132L173.006 142.131Z" fill="white" fill-opacity="0.05"/>
<path d="M189.27 158.394L186.172 161.492L186.104 143.684L181.278 148.498L181.246 140.508L177.957 143.798L177.987 151.778L171.805 157.949L171.832 165.094L174.917 162.009L174.906 159.125L178.005 156.026L178.071 173.836L182.897 169.022L182.927 177.011L186.216 173.722L186.186 165.741L192.368 159.571L192.341 152.425L189.256 155.511L189.267 158.395L189.27 158.394Z" fill="white" fill-opacity="0.05"/>
<path d="M205.533 174.658L202.435 177.756L202.367 159.948L197.541 164.762L197.51 156.772L194.221 160.061L194.251 168.042L188.068 174.212L188.096 181.358L191.181 178.273L191.17 175.388L194.268 172.29L194.335 190.099L199.161 185.285L199.19 193.275L202.48 189.986L202.449 182.005L208.632 175.835L208.605 168.689L205.519 171.774L205.53 174.659L205.533 174.658Z" fill="white" fill-opacity="0.05"/>
<path d="M221.089 190.214L217.991 193.312L217.923 175.504L213.097 180.318L213.066 172.328L209.776 175.617L209.807 183.598L203.624 189.768L203.651 196.914L206.737 193.829L206.726 190.944L209.824 187.846L209.891 205.655L214.717 200.841L214.746 208.831L218.035 205.542L218.005 197.561L224.188 191.391L224.16 184.245L221.075 187.33L221.086 190.215L221.089 190.214Z" fill="white" fill-opacity="0.05"/>
<path d="M237.353 206.477L234.255 209.576L234.187 191.768L229.361 196.581L229.329 188.592L226.04 191.881L226.07 199.862L219.888 206.032L219.915 213.178L223 210.092L222.989 207.208L226.088 204.11L226.154 221.919L230.98 217.105L231.01 225.095L234.299 221.806L234.269 213.825L240.451 207.654L240.424 200.509L237.339 203.594L237.35 206.478L237.353 206.477Z" fill="white" fill-opacity="0.05"/>
<path d="M189.977 125.16L186.879 128.258L186.811 110.45L181.985 115.264L181.953 107.274L178.664 110.564L178.694 118.544L172.512 124.715L172.539 131.86L175.624 128.775L175.613 125.891L178.712 122.793L178.778 140.602L183.604 135.788L183.634 143.777L186.923 140.488L186.893 132.507L193.075 126.337L193.048 119.191L189.963 122.277L189.974 125.161L189.977 125.16Z" fill="white" fill-opacity="0.05"/>
<path d="M206.24 141.424L203.142 144.522L203.074 126.714L198.248 131.528L198.217 123.538L194.928 126.827L194.958 134.808L188.776 140.978L188.803 148.124L191.888 145.039L191.877 142.154L194.975 139.056L195.042 156.865L199.868 152.051L199.898 160.041L203.187 156.752L203.156 148.771L209.339 142.601L209.312 135.455L206.226 138.54L206.237 141.425L206.24 141.424Z" fill="white" fill-opacity="0.05"/>
<path d="M222.503 157.687L219.405 160.785L219.337 142.977L214.511 147.791L214.48 139.801L211.19 143.09L211.221 151.071L205.038 157.242L205.065 164.387L208.151 161.302L208.14 158.418L211.238 155.319L211.305 173.128L216.131 168.315L216.16 176.304L219.45 173.015L219.419 165.034L225.602 158.864L225.574 151.718L222.489 154.804L222.5 157.688L222.503 157.687Z" fill="white" fill-opacity="0.05"/>
<path d="M238.06 173.244L234.962 176.342L234.894 158.534L230.068 163.348L230.036 155.358L226.747 158.647L226.777 166.628L220.595 172.798L220.622 179.944L223.707 176.859L223.696 173.974L226.795 170.876L226.861 188.685L231.687 183.871L231.717 191.861L235.006 188.572L234.976 180.591L241.158 174.421L241.131 167.275L238.046 170.36L238.057 173.245L238.06 173.244Z" fill="white" fill-opacity="0.05"/>
<path d="M254.323 189.507L251.225 192.605L251.157 174.797L246.331 179.611L246.3 171.621L243.011 174.91L243.041 182.891L236.859 189.061L236.886 196.207L239.971 193.122L239.96 190.237L243.058 187.139L243.125 204.948L247.951 200.134L247.981 208.124L251.27 204.835L251.239 196.854L257.422 190.684L257.395 183.538L254.309 186.623L254.32 189.508L254.323 189.507Z" fill="white" fill-opacity="0.05"/>
<path d="M270.587 205.77L267.489 208.869L267.421 191.06L262.595 195.874L262.564 187.885L259.274 191.174L259.305 199.155L253.122 205.325L253.149 212.471L256.235 209.385L256.224 206.501L259.322 203.403L259.389 221.212L264.215 216.398L264.244 224.388L267.533 221.099L267.503 213.118L273.686 206.947L273.658 199.802L270.573 202.887L270.584 205.771L270.587 205.77Z" fill="white" fill-opacity="0.05"/>
<path d="M206.24 108.897L203.142 111.995L203.074 94.187L198.248 99.0009L198.217 91.0111L194.928 94.3004L194.958 102.281L188.776 108.452L188.803 115.597L191.888 112.512L191.877 109.628L194.975 106.529L195.042 124.338L199.868 119.525L199.898 127.514L203.187 124.225L203.156 116.244L209.339 110.074L209.312 102.928L206.226 106.014L206.237 108.898L206.24 108.897Z" fill="white" fill-opacity="0.05"/>
<path d="M222.503 125.16L219.405 128.258L219.337 110.45L214.511 115.264L214.48 107.274L211.19 110.564L211.221 118.544L205.038 124.715L205.065 131.86L208.151 128.775L208.14 125.891L211.238 122.793L211.305 140.602L216.131 135.788L216.16 143.777L219.45 140.488L219.419 132.507L225.602 126.337L225.574 119.191L222.489 122.277L222.5 125.161L222.503 125.16Z" fill="white" fill-opacity="0.05"/>
<path d="M238.767 141.424L235.669 144.522L235.601 126.714L230.775 131.528L230.743 123.538L227.454 126.827L227.484 134.808L221.302 140.978L221.329 148.124L224.414 145.039L224.403 142.154L227.502 139.056L227.568 156.865L232.394 152.051L232.424 160.041L235.713 156.752L235.683 148.771L241.865 142.601L241.838 135.455L238.753 138.54L238.764 141.425L238.767 141.424Z" fill="white" fill-opacity="0.05"/>
<path d="M254.323 156.98L251.225 160.078L251.157 142.27L246.331 147.084L246.3 139.094L243.011 142.383L243.041 150.364L236.859 156.535L236.886 163.68L239.971 160.595L239.96 157.711L243.058 154.612L243.125 172.421L247.951 167.608L247.981 175.597L251.27 172.308L251.239 164.327L257.422 158.157L257.395 151.011L254.309 154.097L254.32 156.981L254.323 156.98Z" fill="white" fill-opacity="0.05"/>
<path d="M270.587 173.244L267.489 176.342L267.421 158.534L262.595 163.348L262.564 155.358L259.274 158.647L259.305 166.628L253.122 172.798L253.149 179.944L256.235 176.859L256.224 173.974L259.322 170.876L259.389 188.685L264.215 183.871L264.244 191.861L267.533 188.572L267.503 180.591L273.686 174.421L273.658 167.275L270.573 170.36L270.584 173.245L270.587 173.244Z" fill="white" fill-opacity="0.05"/>
<path d="M286.85 189.507L283.752 192.605L283.684 174.797L278.858 179.611L278.826 171.621L275.537 174.91L275.567 182.891L269.385 189.061L269.412 196.207L272.497 193.122L272.486 190.237L275.585 187.139L275.651 204.948L280.477 200.134L280.507 208.124L283.796 204.835L283.766 196.854L289.948 190.684L289.921 183.538L286.836 186.623L286.847 189.508L286.85 189.507Z" fill="white" fill-opacity="0.05"/>
<path d="M223.211 91.9262L220.113 95.0243L220.045 77.2163L215.219 82.0302L215.188 74.0404L211.898 77.3297L211.929 85.3104L205.746 91.4808L205.773 98.6265L208.859 95.5412L208.848 92.6568L211.946 89.5587L212.013 107.368L216.839 102.554L216.868 110.544L220.158 107.254L220.127 99.2736L226.31 93.1032L226.282 85.9575L223.197 89.0428L223.208 91.9272L223.211 91.9262Z" fill="white" fill-opacity="0.05"/>
<path d="M239.474 108.189L236.376 111.287L236.308 93.4794L231.482 98.2934L231.45 90.3036L228.161 93.5929L228.191 101.574L222.009 107.744L222.036 114.89L225.121 111.804L225.11 108.92L228.209 105.822L228.275 123.631L233.101 118.817L233.131 126.807L236.42 123.517L236.39 115.537L242.572 109.366L242.545 102.221L239.46 105.306L239.471 108.19L239.474 108.189Z" fill="white" fill-opacity="0.05"/>
<path d="M255.737 124.453L252.639 127.551L252.571 109.743L247.745 114.557L247.714 106.567L244.425 109.857L244.455 117.837L238.273 124.008L238.3 131.153L241.385 128.068L241.374 125.184L244.472 122.086L244.539 139.895L249.365 135.081L249.395 143.07L252.684 139.781L252.653 131.8L258.836 125.63L258.809 118.484L255.723 121.57L255.734 124.454L255.737 124.453Z" fill="white" fill-opacity="0.05"/>
<path d="M271.294 140.009L268.196 143.107L268.128 125.299L263.302 130.113L263.271 122.123L259.981 125.413L260.012 133.393L253.829 139.564L253.856 146.71L256.942 143.624L256.931 140.74L260.029 137.642L260.096 155.451L264.922 150.637L264.951 158.627L268.241 155.337L268.21 147.357L274.393 141.186L274.365 134.04L271.28 137.126L271.291 140.01L271.294 140.009Z" fill="white" fill-opacity="0.05"/>
<path d="M287.558 156.273L284.46 159.371L284.392 141.563L279.566 146.377L279.534 138.387L276.245 141.676L276.275 149.657L270.093 155.828L270.12 162.973L273.205 159.888L273.194 157.004L276.293 153.905L276.359 171.714L281.185 166.901L281.215 174.89L284.504 171.601L284.474 163.62L290.656 157.45L290.629 150.304L287.544 153.389L287.555 156.274L287.558 156.273Z" fill="white" fill-opacity="0.05"/>
<path d="M303.82 172.537L300.722 175.635L300.654 157.827L295.828 162.641L295.797 154.651L292.508 157.94L292.538 165.921L286.356 172.091L286.383 179.237L289.468 176.152L289.457 173.267L292.555 170.169L292.622 187.978L297.448 183.164L297.478 191.154L300.767 187.865L300.736 179.884L306.919 173.714L306.892 166.568L303.806 169.653L303.817 172.538L303.82 172.537Z" fill="white" fill-opacity="0.05"/>
<path d="M239.474 75.6625L236.376 78.7606L236.308 60.9526L231.482 65.7665L231.45 57.7768L228.161 61.0661L228.191 69.0468L222.009 75.2172L222.036 82.3629L225.121 79.2775L225.11 76.3932L228.209 73.295L228.275 91.1041L233.101 86.2902L233.131 94.2799L236.42 90.9906L236.39 83.0099L242.572 76.8395L242.545 69.6938L239.46 72.7791L239.471 75.6635L239.474 75.6625Z" fill="white" fill-opacity="0.05"/>
<path d="M255.737 91.9262L252.639 95.0243L252.571 77.2163L247.745 82.0302L247.714 74.0404L244.425 77.3297L244.455 85.3104L238.273 91.4808L238.3 98.6265L241.385 95.5412L241.374 92.6568L244.472 89.5587L244.539 107.368L249.365 102.554L249.395 110.544L252.684 107.254L252.653 99.2736L258.836 93.1032L258.809 85.9575L255.723 89.0428L255.734 91.9272L255.737 91.9262Z" fill="white" fill-opacity="0.05"/>
<path d="M272.001 108.189L268.903 111.287L268.835 93.4794L264.009 98.2934L263.978 90.3036L260.688 93.5929L260.719 101.574L254.536 107.744L254.563 114.89L257.649 111.804L257.638 108.92L260.736 105.822L260.803 123.631L265.629 118.817L265.658 126.807L268.948 123.517L268.917 115.537L275.1 109.366L275.072 102.221L271.987 105.306L271.998 108.19L272.001 108.189Z" fill="white" fill-opacity="0.05"/>
<path d="M287.558 123.746L284.46 126.844L284.392 109.036L279.566 113.85L279.534 105.86L276.245 109.15L276.275 117.13L270.093 123.301L270.12 130.446L273.205 127.361L273.194 124.477L276.293 121.379L276.359 139.188L281.185 134.374L281.215 142.363L284.504 139.074L284.474 131.093L290.656 124.923L290.629 117.777L287.544 120.863L287.555 123.747L287.558 123.746Z" fill="white" fill-opacity="0.05"/>
<path d="M303.82 140.009L300.722 143.107L300.654 125.299L295.828 130.113L295.797 122.123L292.508 125.413L292.538 133.393L286.356 139.564L286.383 146.71L289.468 143.624L289.457 140.74L292.555 137.642L292.622 155.451L297.448 150.637L297.478 158.627L300.767 155.337L300.736 147.357L306.919 141.186L306.892 134.04L303.806 137.126L303.817 140.01L303.82 140.009Z" fill="white" fill-opacity="0.05"/>
<path d="M320.084 156.273L316.986 159.371L316.918 141.563L312.092 146.377L312.061 138.387L308.771 141.676L308.802 149.657L302.619 155.828L302.646 162.973L305.732 159.888L305.721 157.004L308.819 153.905L308.886 171.714L313.712 166.901L313.741 174.89L317.031 171.601L317 163.62L323.183 157.45L323.155 150.304L320.07 153.389L320.081 156.274L320.084 156.273Z" fill="white" fill-opacity="0.05"/>
<path d="M256.231 58.906L253.018 62.1189L253.279 43.9823L248.274 48.9747L248.39 40.8376L244.979 44.2487L244.862 52.3767L238.451 58.7758L238.346 66.0534L241.546 62.8538L241.588 59.9162L244.801 56.7033L244.539 74.8409L249.544 69.8485L249.426 77.9856L252.837 74.5745L252.954 66.4466L259.365 60.0474L259.469 52.7699L256.27 55.9695L256.228 58.9071L256.231 58.906Z" fill="white" fill-opacity="0.05"/>
<path d="M272.494 75.1692L269.282 78.382L269.542 60.2455L264.538 65.2379L264.654 57.1008L261.242 60.5119L261.126 68.6398L254.714 75.039L254.61 82.3165L257.809 79.1169L257.852 76.1794L261.065 72.9665L260.803 91.1041L265.807 86.1117L265.689 94.2488L269.1 90.8377L269.217 82.7097L275.629 76.3106L275.733 69.0331L272.534 72.2327L272.491 75.1702L272.494 75.1692Z" fill="white" fill-opacity="0.05"/>
<path d="M288.758 91.4329L285.545 94.6457L285.806 76.5092L280.801 81.5016L280.917 73.3645L277.506 76.7756L277.389 84.9035L270.978 91.3027L270.873 98.5802L274.073 95.3806L274.115 92.443L277.328 89.2302L277.066 107.368L282.071 102.375L281.953 110.512L285.364 107.101L285.481 98.9734L291.892 92.5742L291.997 85.2967L288.797 88.4963L288.755 91.4339L288.758 91.4329Z" fill="white" fill-opacity="0.05"/>
<path d="M304.314 106.989L301.101 110.202L301.362 92.0653L296.357 97.0577L296.473 88.9206L293.062 92.3317L292.945 100.46L286.534 106.859L286.429 114.136L289.629 110.937L289.671 107.999L292.884 104.786L292.622 122.924L297.627 117.931L297.509 126.069L300.92 122.657L301.037 114.53L307.448 108.13L307.552 100.853L304.353 104.052L304.311 106.99L304.314 106.989Z" fill="white" fill-opacity="0.05"/>
<path d="M320.577 123.253L317.365 126.466L317.625 108.329L312.621 113.321L312.737 105.184L309.325 108.595L309.209 116.723L302.797 123.123L302.693 130.4L305.892 127.2L305.935 124.263L309.148 121.05L308.886 139.188L313.89 134.195L313.772 142.332L317.183 138.921L317.3 130.793L323.712 124.394L323.816 117.117L320.617 120.316L320.574 123.254L320.577 123.253Z" fill="white" fill-opacity="0.05"/>
<path d="M336.841 139.516L333.628 142.729L333.889 124.592L328.884 129.585L329 121.447L325.589 124.859L325.472 132.987L319.061 139.386L318.956 146.663L322.156 143.464L322.198 140.526L325.411 137.313L325.149 155.451L330.154 150.458L330.036 158.595L333.447 155.184L333.564 147.056L339.975 140.657L340.08 133.38L336.88 136.579L336.838 139.517L336.841 139.516Z" fill="white" fill-opacity="0.05"/>
<path d="M272.708 42.4286L269.61 45.5267L269.542 27.7187L264.716 32.5326L264.685 24.5429L261.395 27.8322L261.426 35.8129L255.243 41.9833L255.271 49.129L258.356 46.0436L258.345 43.1593L261.443 40.0612L261.51 57.8702L266.336 53.0563L266.365 61.046L269.655 57.7567L269.624 49.776L275.807 43.6056L275.779 36.4599L272.694 39.5452L272.705 42.4296L272.708 42.4286Z" fill="white" fill-opacity="0.05"/>
<path d="M288.972 58.6923L285.874 61.7904L285.806 43.9824L280.98 48.7963L280.948 40.8066L277.659 44.0958L277.689 52.0765L271.507 58.247L271.534 65.3927L274.62 62.3073L274.609 59.4229L277.707 56.3248L277.774 74.1339L282.6 69.32L282.629 77.3097L285.918 74.0204L285.888 66.0397L292.07 59.8693L292.043 52.7236L288.958 55.8089L288.969 58.6933L288.972 58.6923Z" fill="white" fill-opacity="0.05"/>
<path d="M305.235 74.9555L302.137 78.0536L302.069 60.2456L297.243 65.0595L297.212 57.0697L293.923 60.359L293.953 68.3397L287.771 74.5101L287.798 81.6558L290.883 78.5705L290.872 75.6861L293.97 72.588L294.037 90.3971L298.863 85.5831L298.893 93.5729L302.182 90.2836L302.152 82.3029L308.334 76.1325L308.307 68.9868L305.221 72.0721L305.232 74.9565L305.235 74.9555Z" fill="white" fill-opacity="0.05"/>
<path d="M320.791 90.5121L317.693 93.6102L317.625 75.8022L312.799 80.6161L312.768 72.6264L309.478 75.9157L309.509 83.8964L303.326 90.0668L303.354 97.2125L306.439 94.1271L306.428 91.2428L309.526 88.1447L309.593 105.954L314.419 101.14L314.448 109.13L317.738 105.84L317.707 97.8595L323.89 91.6891L323.862 84.5434L320.777 87.6287L320.788 90.5131L320.791 90.5121Z" fill="white" fill-opacity="0.05"/>
<path d="M337.055 106.775L333.957 109.873L333.889 92.0654L329.063 96.8793L329.031 88.8896L325.742 92.1789L325.772 100.16L319.59 106.33L319.617 113.476L322.703 110.39L322.692 107.506L325.79 104.408L325.857 122.217L330.683 117.403L330.712 125.393L334.001 122.103L333.971 114.123L340.153 107.952L340.126 100.807L337.041 103.892L337.052 106.776L337.055 106.775Z" fill="white" fill-opacity="0.05"/>
<path d="M288.972 26.1654L285.874 29.2636L285.806 11.4555L280.98 16.2694L280.948 8.2797L277.659 11.569L277.689 19.5497L271.507 25.7201L271.534 32.8658L274.62 29.7805L274.609 26.8961L277.707 23.798L277.774 41.607L282.6 36.7931L282.629 44.7828L285.918 41.4935L285.888 33.5128L292.07 27.3424L292.043 20.1967L288.958 23.2821L288.969 26.1664L288.972 26.1654Z" fill="white" fill-opacity="0.05"/>
<path d="M305.235 42.4286L302.137 45.5267L302.069 27.7187L297.243 32.5326L297.212 24.5429L293.923 27.8322L293.953 35.8129L287.771 41.9833L287.798 49.129L290.883 46.0436L290.872 43.1593L293.97 40.0612L294.037 57.8702L298.863 53.0563L298.893 61.046L302.182 57.7567L302.152 49.776L308.334 43.6056L308.307 36.4599L305.221 39.5452L305.232 42.4296L305.235 42.4286Z" fill="white" fill-opacity="0.05"/>
<path d="M321.498 58.6923L318.4 61.7904L318.332 43.9824L313.506 48.7963L313.475 40.8066L310.185 44.0958L310.216 52.0765L304.033 58.247L304.061 65.3927L307.146 62.3073L307.135 59.4229L310.233 56.3248L310.3 74.1339L315.126 69.32L315.155 77.3097L318.445 74.0204L318.414 66.0397L324.597 59.8693L324.569 52.7236L321.484 55.8089L321.495 58.6933L321.498 58.6923Z" fill="white" fill-opacity="0.05"/>
<path d="M337.055 74.2484L333.957 77.3466L333.889 59.5385L329.063 64.3524L329.031 56.3627L325.742 59.652L325.772 67.6327L319.59 73.8031L319.617 80.9488L322.703 77.8635L322.692 74.9791L325.79 71.881L325.857 89.69L330.683 84.8761L330.712 92.8658L334.001 89.5765L333.971 81.5958L340.153 75.4254L340.126 68.2797L337.041 71.3651L337.052 74.2494L337.055 74.2484Z" fill="white" fill-opacity="0.05"/>
<path d="M305.942 9.19474L302.844 12.2929L302.776 -5.51518L297.95 -0.701267L297.919 -8.691L294.63 -5.40171L294.66 2.57899L288.478 8.7494L288.505 15.8951L291.59 12.8098L291.579 9.92539L294.677 6.82727L294.744 24.6363L299.57 19.8224L299.6 27.8121L302.889 24.5228L302.859 16.5421L309.041 10.3717L309.014 3.22602L305.928 6.31136L305.939 9.19573L305.942 9.19474Z" fill="white" fill-opacity="0.05"/>
<path d="M322.205 25.4579L319.107 28.556L319.039 10.748L314.213 15.5619L314.182 7.57218L310.892 10.8615L310.923 18.8422L304.74 25.0126L304.768 32.1583L307.853 29.0729L307.842 26.1886L310.94 23.0905L311.007 40.8995L315.833 36.0856L315.862 44.0753L319.152 40.786L319.121 32.8053L325.304 26.6349L325.277 19.4892L322.191 22.5745L322.202 25.4589L322.205 25.4579Z" fill="white" fill-opacity="0.05"/>
<path d="M338.469 41.7216L335.371 44.8197L335.303 27.0117L330.477 31.8256L330.445 23.8359L327.156 27.1251L327.187 35.1058L321.004 41.2763L321.031 48.422L324.117 45.3366L324.106 42.4522L327.204 39.3541L327.271 57.1632L332.097 52.3493L332.126 60.339L335.415 57.0497L335.385 49.069L341.567 42.8986L341.54 35.7529L338.455 38.8382L338.466 41.7226L338.469 41.7216Z" fill="white" fill-opacity="0.05"/>
<path d="M322.205 -7.06894L319.107 -3.97081L319.039 -21.7789L314.213 -16.9649L314.182 -24.9547L310.892 -21.6654L310.923 -13.6847L304.74 -7.51427L304.768 -0.368574L307.853 -3.45391L307.842 -6.33828L310.94 -9.4364L311.007 8.37264L315.833 3.55872L315.862 11.5485L319.152 8.25916L319.121 0.278462L325.304 -5.89195L325.277 -13.0377L322.191 -9.95232L322.202 -7.06794L322.205 -7.06894Z" fill="white" fill-opacity="0.05"/>
<path d="M338.469 9.19474L335.371 12.2929L335.303 -5.51518L330.477 -0.701267L330.445 -8.691L327.156 -5.40171L327.187 2.57899L321.004 8.7494L321.031 15.8951L324.117 12.8098L324.106 9.92539L327.204 6.82727L327.271 24.6363L332.097 19.8224L332.126 27.8121L335.415 24.5228L335.385 16.5421L341.567 10.3717L341.54 3.22602L338.455 6.31136L338.466 9.19573L338.469 9.19474Z" fill="white" fill-opacity="0.05"/>
<path d="M303.113 205.77L300.015 208.869L299.947 191.06L295.121 195.874L295.09 187.885L291.801 191.174L291.831 199.155L285.649 205.325L285.676 212.471L288.761 209.385L288.75 206.501L291.848 203.403L291.915 221.212L296.741 216.398L296.771 224.388L300.06 221.099L300.029 213.118L306.212 206.947L306.185 199.802L303.099 202.887L303.11 205.771L303.113 205.77Z" fill="white" fill-opacity="0.05"/>
<path d="M320.084 188.8L316.986 191.898L316.918 174.09L312.092 178.904L312.061 170.914L308.771 174.203L308.802 182.184L302.619 188.354L302.646 195.5L305.732 192.415L305.721 189.53L308.819 186.432L308.886 204.241L313.712 199.427L313.741 207.417L317.031 204.128L317 196.147L323.183 189.977L323.155 182.831L320.07 185.916L320.081 188.801L320.084 188.8Z" fill="white" fill-opacity="0.05"/>
<path d="M336.348 205.063L333.25 208.162L333.182 190.353L328.356 195.167L328.324 187.178L325.035 190.467L325.065 198.448L318.883 204.618L318.91 211.764L321.995 208.678L321.985 205.794L325.083 202.696L325.149 220.505L329.975 215.691L330.005 223.681L333.294 220.391L333.264 212.411L339.446 206.24L339.419 199.095L336.334 202.18L336.345 205.064L336.348 205.063Z" fill="white" fill-opacity="0.05"/>
<path d="M336.348 172.537L333.25 175.635L333.182 157.827L328.356 162.641L328.324 154.651L325.035 157.94L325.065 165.921L318.883 172.091L318.91 179.237L321.995 176.152L321.985 173.267L325.083 170.169L325.149 187.978L329.975 183.164L330.005 191.154L333.294 187.865L333.264 179.884L339.446 173.714L339.419 166.568L336.334 169.653L336.345 172.538L336.348 172.537Z" fill="white" fill-opacity="0.05"/>
<path d="M25.5825 47V44.8097L34.2927 32.5881H25.5654V29.5455H38.9291V31.7358L30.2103 43.9574H38.9461V47H25.5825ZM52.559 29.5455H56.2494V40.8807C56.2494 42.1534 55.9454 43.267 55.3374 44.2216C54.7352 45.1761 53.8914 45.9205 52.8062 46.4545C51.721 46.983 50.4568 47.2472 49.0136 47.2472C47.5647 47.2472 46.2977 46.983 45.2124 46.4545C44.1272 45.9205 43.2835 45.1761 42.6812 44.2216C42.0789 43.267 41.7778 42.1534 41.7778 40.8807V29.5455H45.4681V40.5653C45.4681 41.2301 45.613 41.821 45.9028 42.3381C46.1982 42.8551 46.613 43.2614 47.1471 43.5568C47.6812 43.8523 48.3034 44 49.0136 44C49.7295 44 50.3517 43.8523 50.8801 43.5568C51.4142 43.2614 51.8261 42.8551 52.1159 42.3381C52.4113 41.821 52.559 41.2301 52.559 40.5653V29.5455ZM68.7544 34.5653C68.6862 33.8778 68.3936 33.3437 67.8765 32.9631C67.3595 32.5824 66.6578 32.392 65.7714 32.392C65.1691 32.392 64.6606 32.4773 64.2458 32.6477C63.8311 32.8125 63.5129 33.0426 63.2913 33.3381C63.0754 33.6335 62.9674 33.9688 62.9674 34.3438C62.9561 34.6562 63.0214 34.929 63.1634 35.1619C63.3112 35.3949 63.5129 35.5966 63.7686 35.767C64.0242 35.9318 64.3197 36.0767 64.6549 36.2017C64.9901 36.321 65.3481 36.4233 65.7288 36.5085L67.297 36.8835C68.0583 37.054 68.7572 37.2812 69.3936 37.5653C70.0299 37.8494 70.5811 38.1989 71.047 38.6136C71.5129 39.0284 71.8737 39.517 72.1294 40.0795C72.3907 40.642 72.5242 41.2869 72.5299 42.0142C72.5242 43.0824 72.2515 44.0085 71.7117 44.7926C71.1776 45.571 70.4049 46.1761 69.3936 46.608C68.3879 47.0341 67.1748 47.2472 65.7544 47.2472C64.3453 47.2472 63.118 47.0312 62.0725 46.5994C61.0328 46.1676 60.2203 45.5284 59.635 44.6818C59.0555 43.8295 58.7515 42.7756 58.7231 41.5199H62.2941C62.3339 42.1051 62.5015 42.5937 62.797 42.9858C63.0981 43.3722 63.4987 43.6648 63.9987 43.8636C64.5044 44.0568 65.0754 44.1534 65.7117 44.1534C66.3367 44.1534 66.8794 44.0625 67.3396 43.8807C67.8055 43.6989 68.1663 43.446 68.422 43.1222C68.6776 42.7983 68.8055 42.4261 68.8055 42.0057C68.8055 41.6136 68.689 41.2841 68.4561 41.017C68.2288 40.75 67.8936 40.5227 67.4504 40.3352C67.0129 40.1477 66.4759 39.9773 65.8396 39.8239L63.939 39.3466C62.4674 38.9886 61.3055 38.429 60.4532 37.6676C59.6009 36.9062 59.1776 35.8807 59.1833 34.5909C59.1776 33.5341 59.4589 32.6108 60.0271 31.821C60.6009 31.0312 61.3879 30.4148 62.3879 29.9716C63.3879 29.5284 64.5242 29.3068 65.797 29.3068C67.0924 29.3068 68.2231 29.5284 69.189 29.9716C70.1606 30.4148 70.9163 31.0312 71.4561 31.821C71.9958 32.6108 72.2742 33.5256 72.2913 34.5653H68.7544ZM81.1997 47H75.0122V29.5455H81.2508C83.0065 29.5455 84.5178 29.8949 85.7849 30.5938C87.0519 31.2869 88.0264 32.2841 88.7082 33.5852C89.3957 34.8864 89.7394 36.4432 89.7394 38.2557C89.7394 40.0739 89.3957 41.6364 88.7082 42.9432C88.0264 44.25 87.0463 45.2528 85.7678 45.9517C84.4951 46.6506 82.9724 47 81.1997 47ZM78.7025 43.8381H81.0463C82.1372 43.8381 83.0548 43.6449 83.7991 43.2585C84.5491 42.8665 85.1116 42.2614 85.4866 41.4432C85.8673 40.6193 86.0576 39.5568 86.0576 38.2557C86.0576 36.9659 85.8673 35.9119 85.4866 35.0938C85.1116 34.2756 84.5519 33.6733 83.8076 33.2869C83.0633 32.9006 82.1457 32.7074 81.0548 32.7074H78.7025V43.8381ZM107.497 34.5653C107.428 33.8778 107.136 33.3437 106.619 32.9631C106.102 32.5824 105.4 32.392 104.514 32.392C103.911 32.392 103.403 32.4773 102.988 32.6477C102.573 32.8125 102.255 33.0426 102.033 33.3381C101.818 33.6335 101.71 33.9688 101.71 34.3438C101.698 34.6562 101.764 34.929 101.906 35.1619C102.053 35.3949 102.255 35.5966 102.511 35.767C102.766 35.9318 103.062 36.0767 103.397 36.2017C103.732 36.321 104.09 36.4233 104.471 36.5085L106.039 36.8835C106.801 37.054 107.499 37.2812 108.136 37.5653C108.772 37.8494 109.323 38.1989 109.789 38.6136C110.255 39.0284 110.616 39.517 110.872 40.0795C111.133 40.642 111.266 41.2869 111.272 42.0142C111.266 43.0824 110.994 44.0085 110.454 44.7926C109.92 45.571 109.147 46.1761 108.136 46.608C107.13 47.0341 105.917 47.2472 104.497 47.2472C103.087 47.2472 101.86 47.0312 100.815 46.5994C99.7749 46.1676 98.9624 45.5284 98.3772 44.6818C97.7977 43.8295 97.4937 42.7756 97.4653 41.5199H101.036C101.076 42.1051 101.244 42.5937 101.539 42.9858C101.84 43.3722 102.241 43.6648 102.741 43.8636C103.247 44.0568 103.818 44.1534 104.454 44.1534C105.079 44.1534 105.622 44.0625 106.082 43.8807C106.548 43.6989 106.908 43.446 107.164 43.1222C107.42 42.7983 107.548 42.4261 107.548 42.0057C107.548 41.6136 107.431 41.2841 107.198 41.017C106.971 40.75 106.636 40.5227 106.193 40.3352C105.755 40.1477 105.218 39.9773 104.582 39.8239L102.681 39.3466C101.21 38.9886 100.048 38.429 99.1954 37.6676C98.3431 36.9062 97.9198 35.8807 97.9255 34.5909C97.9198 33.5341 98.2011 32.6108 98.7693 31.821C99.3431 31.0312 100.13 30.4148 101.13 29.9716C102.13 29.5284 103.266 29.3068 104.539 29.3068C105.835 29.3068 106.965 29.5284 107.931 29.9716C108.903 30.4148 109.658 31.0312 110.198 31.821C110.738 32.6108 111.016 33.5256 111.033 34.5653H107.497ZM116.269 47L112.706 33.9091H116.379L118.408 42.7045H118.527L120.641 33.9091H124.246L126.394 42.6534H126.504L128.499 33.9091H132.163L128.609 47H124.766L122.516 38.767H122.354L120.104 47H116.269ZM137.833 47.2472C136.998 47.2472 136.254 47.1023 135.6 46.8125C134.947 46.517 134.43 46.0824 134.049 45.5085C133.674 44.929 133.487 44.2074 133.487 43.3438C133.487 42.6165 133.62 42.0057 133.887 41.5114C134.154 41.017 134.518 40.6193 134.978 40.3182C135.438 40.017 135.961 39.7898 136.546 39.6364C137.137 39.483 137.756 39.375 138.404 39.3125C139.166 39.233 139.779 39.1591 140.245 39.0909C140.711 39.017 141.049 38.9091 141.259 38.767C141.47 38.625 141.575 38.4148 141.575 38.1364V38.0852C141.575 37.5455 141.404 37.1278 141.063 36.8324C140.728 36.5369 140.251 36.3892 139.631 36.3892C138.978 36.3892 138.458 36.5341 138.072 36.8239C137.685 37.108 137.43 37.4659 137.305 37.8977L133.947 37.625C134.117 36.8295 134.453 36.142 134.953 35.5625C135.453 34.9773 136.097 34.5284 136.887 34.2159C137.683 33.8977 138.603 33.7386 139.649 33.7386C140.376 33.7386 141.072 33.8239 141.737 33.9943C142.407 34.1648 143.001 34.429 143.518 34.7869C144.041 35.1449 144.453 35.6051 144.754 36.1676C145.055 36.7244 145.205 37.392 145.205 38.1705V47H141.762V45.1847H141.66C141.45 45.5938 141.168 45.9545 140.816 46.267C140.464 46.5739 140.041 46.8153 139.546 46.9915C139.052 47.1619 138.481 47.2472 137.833 47.2472ZM138.873 44.7415C139.407 44.7415 139.879 44.6364 140.288 44.4261C140.697 44.2102 141.018 43.9205 141.251 43.5568C141.484 43.1932 141.6 42.7812 141.6 42.321V40.9318C141.487 41.0057 141.33 41.0739 141.131 41.1364C140.938 41.1932 140.72 41.2472 140.475 41.2983C140.231 41.3437 139.987 41.3864 139.742 41.4261C139.498 41.4602 139.276 41.4915 139.078 41.5199C138.651 41.5824 138.279 41.6818 137.961 41.8182C137.643 41.9545 137.396 42.1392 137.22 42.3722C137.043 42.5994 136.955 42.8835 136.955 43.2244C136.955 43.7188 137.134 44.0966 137.492 44.358C137.856 44.6136 138.316 44.7415 138.873 44.7415ZM148.022 51.9091V33.9091H151.602V36.108H151.764C151.923 35.7557 152.153 35.3977 152.454 35.0341C152.761 34.6648 153.158 34.358 153.647 34.1136C154.141 33.8636 154.755 33.7386 155.488 33.7386C156.443 33.7386 157.323 33.9886 158.13 34.4886C158.937 34.983 159.582 35.7301 160.065 36.7301C160.548 37.7244 160.789 38.9716 160.789 40.4716C160.789 41.9318 160.553 43.1648 160.082 44.1705C159.616 45.1705 158.979 45.929 158.173 46.446C157.372 46.9574 156.474 47.2131 155.479 47.2131C154.775 47.2131 154.176 47.0966 153.681 46.8636C153.193 46.6307 152.792 46.3381 152.479 45.9858C152.167 45.6278 151.928 45.267 151.764 44.9034H151.653V51.9091H148.022ZM151.576 40.4545C151.576 41.233 151.684 41.9119 151.9 42.4915C152.116 43.071 152.428 43.5227 152.837 43.8466C153.247 44.1648 153.744 44.3239 154.329 44.3239C154.92 44.3239 155.42 44.1619 155.829 43.8381C156.238 43.5085 156.548 43.054 156.758 42.4744C156.974 41.8892 157.082 41.2159 157.082 40.4545C157.082 39.6989 156.977 39.0341 156.766 38.4602C156.556 37.8864 156.247 37.4375 155.837 37.1136C155.428 36.7898 154.926 36.6278 154.329 36.6278C153.738 36.6278 153.238 36.7841 152.829 37.0966C152.426 37.4091 152.116 37.8523 151.9 38.4261C151.684 39 151.576 39.6761 151.576 40.4545Z" fill="white"/>
<ellipse cx="51.4479" cy="144.5" rx="27.9586" ry="27.9586" fill="url(#paint1_radial_371_6552)"/>
<path d="M28.1051 144.342C27.9075 141.285 28.3543 138.221 29.4164 135.348C30.4785 132.475 32.1323 129.857 34.2707 127.663C36.4091 125.47 38.9843 123.75 41.8296 122.616C44.675 121.481 47.7269 120.957 50.7878 121.077L50.6593 124.355C48.0576 124.253 45.4634 124.699 43.0449 125.663C40.6264 126.628 38.4374 128.089 36.6198 129.954C34.8021 131.818 33.3964 134.043 32.4936 136.486C31.5908 138.928 31.2111 141.532 31.379 144.131L28.1051 144.342Z" fill="#FFEFC6"/>
<path d="M51.6577 167.894C54.7145 168.092 57.7788 167.645 60.652 166.583C63.5252 165.521 66.1432 163.867 68.3366 161.729C70.5299 159.59 72.2496 157.015 73.3842 154.17C74.5189 151.325 75.0432 148.273 74.9233 145.212L71.645 145.34C71.747 147.942 71.3013 150.536 70.3369 152.955C69.3724 155.373 67.9107 157.562 66.0463 159.38C64.182 161.197 61.9566 162.603 59.5144 163.506C57.0722 164.409 54.4676 164.788 51.8693 164.62L51.6577 167.894Z" fill="#FFEFC6"/>
<path d="M58.3398 150.651H52.7053L68.8371 134.52L60.0712 134.509L67.3079 127.27H61.3258L54.0963 134.5L42.8634 134.489L36.3903 140.962H42.0015L44.6144 138.349H50.2488L34.1152 154.481L42.8812 154.491L35.6426 161.728H41.6247L48.8542 154.499L60.0872 154.51L66.5602 148.037H60.949L58.3362 150.649L58.3398 150.651Z" fill="#333333"/>
</g>
<defs>
<linearGradient id="paint0_linear_371_6552" x1="160" y1="0" x2="160" y2="196" gradientUnits="userSpaceOnUse">
<stop stop-color="#373737"/>
<stop offset="1" stop-color="#0B0B0B"/>
</linearGradient>
<radialGradient id="paint1_radial_371_6552" cx="0" cy="0" r="1" gradientUnits="userSpaceOnUse" gradientTransform="translate(51.4479 144.5) rotate(90) scale(27.9586 27.9586)">
<stop stop-color="#FFD987"/>
<stop offset="1" stop-color="#CFB06E"/>
</radialGradient>
<clipPath id="clip0_371_6552">
<rect width="320" height="196" rx="10" fill="white"/>
</clipPath>
</defs>
</svg>
