<svg width="512" height="512" viewBox="0 0 512 512" fill="none" xmlns="http://www.w3.org/2000/svg">
<rect width="512" height="512" fill="black"/>
<path opacity="0.07" d="M31 311.044L277.707 426.646L467.278 291.147L257.498 172.296L31 311.044Z" fill="black"/>
<path opacity="0.09" d="M36.5039 309.021L277.211 423.224L463.522 290.06L257.36 173.245L36.5039 309.021Z" fill="black"/>
<path opacity="0.11" d="M42.0059 306.986L276.712 419.79L459.763 288.962L257.209 174.193L42.0059 306.986Z" fill="black"/>
<path opacity="0.13" d="M47.5195 304.963L276.214 416.368L456.004 287.864L257.057 175.152L47.5195 304.963Z" fill="black"/>
<path opacity="0.16" d="M53.0215 302.94L275.716 412.946L452.246 286.777L256.906 176.101L53.0215 302.94Z" fill="black"/>
<path opacity="0.18" d="M58.5254 300.905L275.219 409.512L448.489 285.679L256.756 177.048L58.5254 300.905Z" fill="black"/>
<path opacity="0.2" d="M64.0449 298.881L274.727 406.09L444.736 284.58L256.61 177.996L64.0449 298.881Z" fill="black"/>
<path opacity="0.22" d="M69.5488 296.858L274.231 402.668L440.98 283.493L256.461 178.944L69.5488 296.858Z" fill="black"/>
<path opacity="0.24" d="M75.0488 294.835L273.742 399.245L437.219 282.395L256.307 179.904L75.0488 294.835Z" fill="black"/>
<path opacity="0.26" d="M80.5508 292.8L273.243 395.812L433.46 281.297L256.167 180.852L80.5508 292.8Z" fill="black"/>
<path opacity="0.28" d="M86.0684 290.777L272.749 392.39L429.706 280.21L256.02 181.8L86.0684 290.777Z" fill="black"/>
<path opacity="0.3" d="M91.5703 288.754L272.251 388.967L425.947 279.112L255.868 182.748L91.5703 288.754Z" fill="black"/>
<path d="M208.096 190.552C213.634 185.118 226.074 183.499 235.266 187.176C242.653 190.124 245.497 196.541 241.462 201.142C239.173 203.755 235.37 205.582 231.023 206.483C228.965 206.911 228.733 208.541 230.618 209.189L267.892 221.952L290.009 200.263C291.442 198.864 295.107 199.073 295.997 200.622C297.431 203.131 300.506 205.35 304.946 206.691C313.27 209.2 323.687 207.582 328.658 203.015C334.115 197.997 331.259 191.384 322.45 188.367C318.496 187.014 314.021 186.621 309.848 187.06C307.061 187.361 304.957 185.604 306.391 184.193L328.508 162.504L232.757 129.716C228.572 128.283 223.184 129.069 220.733 131.485L164.545 186.563L201.865 199.338C203.726 199.974 206.073 199.084 205.726 197.859C205.033 195.419 205.75 192.841 208.085 190.552H208.096Z" fill="url(#paint0_linear_499_129)"/>
<path d="M309.856 187.061C314.029 186.61 318.503 187.003 322.457 188.367C324.064 188.922 325.463 189.593 326.666 190.344L328.527 188.529V162.516L306.41 184.205C304.977 185.616 307.081 187.373 309.867 187.072L309.856 187.061Z" fill="url(#paint1_linear_499_129)"/>
<path d="M331.306 198.656C331.005 200.159 330.161 201.639 328.67 203.003C323.699 207.57 313.293 209.188 304.958 206.68C300.518 205.338 297.443 203.119 296.009 200.61C295.119 199.061 291.442 198.841 290.02 200.251L267.904 221.941L230.63 209.177C228.734 208.529 228.977 206.899 231.034 206.471C235.393 205.57 239.197 203.743 241.474 201.13C245.509 196.529 242.665 190.124 235.277 187.164C226.086 183.488 213.658 185.118 208.108 190.54C205.773 192.829 205.056 195.407 205.75 197.847C206.097 199.084 203.761 199.974 201.888 199.327L164.568 186.551V212.564L201.888 225.34C203.75 225.975 206.097 225.085 205.75 223.86C205.056 221.42 205.773 218.842 208.108 216.553C212.536 212.206 221.369 210.31 229.427 211.593V233.537C229.185 234.138 229.555 234.82 230.63 235.178L267.904 247.942L290.02 226.253C291.454 224.854 295.119 225.062 296.009 226.611C297.443 229.12 300.518 231.34 304.958 232.681C313.282 235.19 323.699 233.571 328.67 229.004C330.959 226.9 331.768 224.519 331.306 222.23V198.633V198.656Z" fill="url(#paint2_linear_499_129)"/>
<path d="M293.337 225.363V199.35C292.088 199.246 290.747 199.535 290.007 200.263L267.891 221.953V247.966L290.007 226.276C290.747 225.548 292.088 225.259 293.337 225.363Z" fill="url(#paint3_linear_499_129)"/>
<path d="M290.813 225.756C290.813 225.756 290.708 225.791 290.662 225.814C290.708 225.791 290.766 225.779 290.813 225.756Z" fill="url(#paint4_linear_499_129)"/>
<path d="M291.566 225.502C291.566 225.502 291.519 225.502 291.484 225.514C291.508 225.514 291.531 225.514 291.566 225.502Z" fill="url(#paint5_linear_499_129)"/>
<path d="M230.622 209.189C228.726 208.541 228.969 206.911 231.027 206.483C235.385 205.581 239.189 203.755 241.467 201.142C245.501 196.54 242.657 190.135 235.27 187.176C226.078 183.499 213.65 185.129 208.101 190.552C205.765 192.841 205.048 195.419 205.742 197.858C206.089 199.095 203.753 199.974 201.881 199.338L164.561 186.563V212.576L201.881 225.351C203.742 225.987 206.089 225.097 205.742 223.871C205.048 221.432 205.765 218.854 208.101 216.565C212.529 212.229 221.361 210.322 229.42 211.605V233.548C229.177 234.149 229.547 234.832 230.622 235.19L267.896 247.954V221.941L230.622 209.177V209.189Z" fill="url(#paint6_linear_499_129)"/>
<path d="M331.308 222.252V198.655C331.008 200.158 330.164 201.638 328.672 203.002C323.701 207.569 313.296 209.188 304.96 206.679C300.509 205.338 297.445 203.118 296.012 200.609C295.364 199.476 293.225 199.06 291.561 199.476C292.127 199.337 292.751 199.291 293.341 199.349V225.362C294.497 225.454 295.572 225.882 296 226.634C297.434 229.143 300.509 231.362 304.949 232.703C313.273 235.212 323.689 233.594 328.661 229.027C330.95 226.923 331.759 224.541 331.297 222.252H331.308Z" fill="url(#paint7_linear_499_129)"/>
<path d="M199.175 198.413L164.561 186.563L199.175 198.413Z" fill="url(#paint8_linear_499_129)"/>
<path d="M201.883 225.363C202.126 225.444 202.369 225.502 202.611 225.537C202.369 225.502 202.114 225.444 201.883 225.363Z" fill="url(#paint9_linear_499_129)"/>
<path d="M202.746 225.536C202.954 225.559 203.162 225.571 203.37 225.571C203.162 225.571 202.954 225.571 202.746 225.536Z" fill="url(#paint10_linear_499_129)"/>
<path d="M229.373 233.734C229.35 233.85 229.35 233.965 229.373 234.069V233.734Z" fill="url(#paint11_linear_499_129)"/>
<path d="M229.377 208.137C229.181 207.466 229.747 206.738 231.03 206.472C235.389 205.57 239.193 203.743 241.47 201.131C245.505 196.529 242.661 190.124 235.273 187.165C226.082 183.488 213.654 185.118 208.104 190.54C205.769 192.83 205.052 195.408 205.746 197.847C205.919 198.448 205.445 198.957 204.717 199.258V225.259C204.936 225.143 205.954 224.577 205.746 223.86C205.052 221.421 205.769 218.843 208.104 216.553C212.521 212.218 221.33 210.322 229.377 211.594V208.125V208.137Z" fill="url(#paint12_linear_499_129)"/>
<g style="mix-blend-mode:color-dodge">
<path d="M306.312 184.875C306.312 184.875 306.369 184.806 306.404 184.771L328.521 163.082L327.214 162.631L306.404 183.025C305.78 183.638 305.826 184.32 306.312 184.863V184.875Z" fill="url(#paint13_radial_499_129)"/>
<path d="M328.672 201.846C323.701 206.413 313.296 208.032 304.96 205.523C300.509 204.182 297.445 201.962 296.012 199.453C295.121 197.904 291.445 197.684 290.023 199.095L267.906 220.784L230.632 208.02C230.285 207.905 230.031 207.743 229.823 207.569C228.99 208.24 229.21 209.269 230.632 209.754L267.906 222.518L290.023 200.829C291.456 199.43 295.121 199.638 296.012 201.187C297.445 203.696 300.52 205.916 304.96 207.257C313.284 209.766 323.701 208.147 328.672 203.581C330.846 201.58 331.678 199.338 331.366 197.164C331.135 198.771 330.268 200.378 328.672 201.846Z" fill="url(#paint14_radial_499_129)"/>
<path d="M205.553 197.534C204.964 198.274 203.287 198.667 201.888 198.182L165.875 185.857L164.568 187.141L201.888 199.916C203.75 200.552 206.097 199.662 205.75 198.436C205.669 198.136 205.6 197.835 205.565 197.534H205.553Z" fill="url(#paint15_radial_499_129)"/>
<path d="M243.234 196.24C243.766 192.367 240.783 188.228 235.268 186.019C226.077 182.343 213.649 183.973 208.099 189.395C206.041 191.407 205.244 193.65 205.556 195.812C205.775 194.205 206.596 192.598 208.099 191.13C213.637 185.696 226.077 184.077 235.268 187.754C239.974 189.638 242.818 192.922 243.234 196.24Z" fill="url(#paint16_radial_499_129)"/>
</g>
<path style="mix-blend-mode:color-dodge" d="M311.604 227.802C309.373 227.779 307.65 220.368 307.754 211.247C307.859 202.125 309.755 194.76 311.986 194.783C314.217 194.806 315.94 202.217 315.836 211.339C315.732 220.461 313.836 227.826 311.604 227.802Z" fill="url(#paint17_radial_499_129)"/>
<path style="mix-blend-mode:color-dodge" d="M224.606 202.367C222.375 202.344 220.652 194.933 220.756 185.812C220.86 176.69 222.757 169.325 224.988 169.348C227.219 169.371 228.942 176.782 228.838 185.904C228.734 195.026 226.838 202.39 224.606 202.367Z" fill="url(#paint18_radial_499_129)"/>
<path d="M169.527 269.793C161.758 265.307 162.058 257.943 170.452 253.746C177.204 250.37 188.638 250.416 195.378 253.838C199.205 255.781 201.344 258.37 201.806 261.041C202.026 262.301 204.696 262.845 206.246 261.954L236.71 244.37L205.702 226.473C203.702 225.317 204.939 223.316 207.76 223.212C212.327 223.051 216.79 221.894 220.119 219.756C226.351 215.732 226.166 209.501 219.703 205.558C212.616 201.234 200.823 201.13 193.621 205.292C190.384 207.154 188.638 209.559 188.372 212.01C188.198 213.64 184.742 214.368 182.73 213.212L151.722 195.315L73.4638 240.497C70.0417 242.474 70.0648 245.688 73.4985 247.676L152.243 293.147L182.742 275.539C184.268 274.66 183.343 273.123 181.192 273.007C176.938 272.776 172.776 271.712 169.504 269.828L169.527 269.793Z" fill="url(#paint19_linear_499_129)"/>
<path d="M220.131 219.756C216.801 221.895 212.339 223.051 207.772 223.213C204.951 223.317 203.702 225.317 205.714 226.473L224.582 237.364V213.859C224.224 215.998 222.744 218.068 220.131 219.756Z" fill="url(#paint20_linear_499_129)"/>
<path d="M206.258 261.955C204.708 262.845 202.038 262.302 201.818 261.042C201.356 258.371 199.217 255.781 195.39 253.839C188.638 250.405 177.204 250.37 170.464 253.746C162.07 257.943 161.77 265.319 169.539 269.793C172.811 271.678 176.961 272.742 181.227 272.973C182.545 273.042 183.401 273.655 183.517 274.314V274.337C183.517 274.36 183.517 274.383 183.517 274.406V277.262C187.864 277.343 192.164 278.21 195.402 279.852C199.228 281.794 201.367 284.384 201.83 287.055C202.049 288.315 204.72 288.858 206.269 287.968L235.45 271.123L236.733 270.857V244.37L206.269 261.955H206.258Z" fill="url(#paint21_linear_499_129)"/>
<path d="M73.5211 247.665C71.8331 246.694 70.9661 245.422 70.9314 244.139V269.608H70.966C70.7233 271.053 71.5788 272.556 73.5211 273.678L152.265 319.149V293.136L73.5211 247.665Z" fill="url(#paint22_linear_499_129)"/>
<path d="M182.764 275.516L152.266 293.124V319.137L182.764 301.529C183.238 301.251 183.458 300.916 183.493 300.581H183.504V300.43C183.504 300.407 183.504 300.384 183.504 300.361V274.417C183.527 274.811 183.308 275.204 182.764 275.527V275.516Z" fill="url(#paint23_linear_499_129)"/>
<path d="M182.764 275.516L152.266 293.124V319.137L182.764 301.529C183.238 301.251 183.458 300.916 183.493 300.581H183.504V300.43C183.504 300.407 183.504 300.384 183.504 300.361V274.417C183.527 274.811 183.308 275.204 182.764 275.527V275.516Z" fill="url(#paint24_linear_499_129)"/>
<g style="mix-blend-mode:color-dodge">
<path d="M182.591 274.464L152.266 291.968L73.5216 246.497C72.3077 245.792 71.5331 244.948 71.1631 244.046C70.4926 245.699 71.2787 247.514 73.5216 248.809L152.266 294.28L182.765 276.672C183.909 276.013 183.678 274.984 182.58 274.464H182.591Z" fill="url(#paint25_radial_499_129)"/>
<path d="M220.128 218.599C216.798 220.75 212.335 221.894 207.78 222.056C205.121 222.149 203.861 223.929 205.41 225.108C205.942 224.704 206.751 224.403 207.78 224.368C212.347 224.207 216.81 223.05 220.128 220.912C223.654 218.634 225.122 215.651 224.556 212.772C224.174 214.877 222.706 216.935 220.128 218.599Z" fill="url(#paint26_radial_499_129)"/>
<path d="M206.256 260.798C204.707 261.689 202.036 261.145 201.817 259.885C201.354 257.214 199.215 254.625 195.389 252.682C188.637 249.249 177.203 249.214 170.462 252.59C165.56 255.041 163.433 258.579 164.057 261.989C164.543 259.353 166.67 256.798 170.462 254.902C177.214 251.526 188.648 251.572 195.389 254.994C199.215 256.937 201.354 259.527 201.817 262.197C202.036 263.457 204.707 264.001 206.256 263.111L236.72 245.526L234.72 244.37L206.256 260.798Z" fill="url(#paint27_radial_499_129)"/>
</g>
<path style="mix-blend-mode:color-dodge" d="M182.27 271.527C180.478 271.504 179.103 263.989 179.207 254.729C179.311 245.468 180.848 237.988 182.652 238C184.444 238.023 185.82 245.538 185.716 254.798C185.612 264.059 184.074 271.539 182.27 271.527Z" fill="url(#paint28_radial_499_129)"/>
<path style="mix-blend-mode:color-dodge" d="M192.648 272.097C197.869 269.952 198.623 259.748 194.332 249.306C190.041 238.865 182.33 232.139 177.109 234.285C171.889 236.43 171.135 246.634 175.426 257.076C179.717 267.517 187.427 274.243 192.648 272.097Z" fill="url(#paint29_radial_499_129)"/>
<path d="M346.956 215.917C354.726 220.403 354.425 227.767 346.031 231.964C339.28 235.34 327.845 235.294 321.105 231.872C317.278 229.929 315.14 227.339 314.677 224.669C314.457 223.409 311.787 222.865 310.238 223.755L279.773 241.34L310.781 259.237C312.781 260.393 311.544 262.393 308.723 262.497C304.156 262.659 299.694 263.815 296.364 265.954C290.132 269.978 290.317 276.209 296.78 280.152C303.867 284.476 315.66 284.58 322.863 280.418C326.1 278.556 327.845 276.151 328.111 273.7C328.285 272.07 331.742 271.342 333.753 272.498L364.761 290.395L443.019 245.213C446.442 243.236 446.418 240.022 442.985 238.034L364.241 192.563L333.742 210.171C332.216 211.05 333.141 212.587 335.291 212.703C339.546 212.934 343.708 213.998 346.979 215.882L346.956 215.917Z" fill="url(#paint30_linear_499_129)"/>
<path d="M346.956 215.917C354.726 220.403 354.425 227.767 346.031 231.964C339.28 235.34 327.845 235.294 321.105 231.872C317.278 229.929 315.14 227.339 314.677 224.669C314.457 223.409 311.787 222.865 310.238 223.755L279.773 241.34L310.781 259.237C312.781 260.393 311.544 262.393 308.723 262.497C304.156 262.659 299.694 263.815 296.364 265.954C290.132 269.978 290.317 276.209 296.78 280.152C303.867 284.476 315.66 284.58 322.863 280.418C326.1 278.556 327.845 276.151 328.111 273.7C328.285 272.07 331.742 271.342 333.753 272.498L364.761 290.395L443.019 245.213C446.442 243.236 446.418 240.022 442.985 238.034L364.241 192.563L333.742 210.171C332.216 211.05 333.141 212.587 335.291 212.703C339.546 212.934 343.708 213.998 346.979 215.882L346.956 215.917Z" fill="url(#paint31_linear_499_129)"/>
<path d="M346.029 231.964C354.422 227.767 354.723 220.391 346.954 215.917C343.682 214.032 339.531 212.969 335.265 212.737C333.889 212.657 333.022 212.009 332.976 211.315H332.93V234.461C337.681 234.565 342.491 233.744 346.029 231.976V231.964Z" fill="url(#paint32_linear_499_129)"/>
<path d="M445.55 267.538H445.608V241.513H445.55C445.608 242.866 444.764 244.207 443.007 245.224L364.748 290.406V316.419L443.007 271.237C444.764 270.22 445.608 268.879 445.55 267.538Z" fill="url(#paint33_linear_499_129)"/>
<path d="M445.55 267.538H445.608V241.513H445.55C445.608 242.866 444.764 244.207 443.007 245.224L364.748 290.406V316.419L443.007 271.237C444.764 270.22 445.608 268.879 445.55 267.538Z" fill="url(#paint34_linear_499_129)"/>
<path d="M296.364 265.954C299.694 263.816 304.156 262.659 308.723 262.498C311.544 262.394 312.793 260.393 310.781 259.237L279.773 241.34V267.353L291.843 274.325L291.982 274.29C291.323 271.354 292.757 268.29 296.364 265.966V265.954Z" fill="url(#paint35_linear_499_129)"/>
<path d="M333.752 272.51C332.757 271.932 331.416 271.828 330.283 272.059V298.072C331.416 297.841 332.757 297.956 333.752 298.523L364.759 316.42V290.407L333.752 272.51Z" fill="url(#paint36_linear_499_129)"/>
<path d="M328.112 273.712C327.846 276.163 326.1 278.556 322.863 280.429C315.66 284.591 303.867 284.498 296.78 280.163C294.063 278.498 292.468 276.429 291.982 274.29L291.844 274.324V298.407C291.612 301.193 293.254 304.014 296.78 306.164C303.867 310.5 315.66 310.592 322.863 306.43C326.1 304.569 327.846 302.164 328.112 299.713C328.204 298.881 329.129 298.291 330.297 298.06V272.047C329.141 272.278 328.204 272.879 328.112 273.7V273.712Z" fill="url(#paint37_linear_499_129)"/>
<path d="M328.112 273.712C327.846 276.163 326.1 278.556 322.863 280.429C315.66 284.591 303.867 284.498 296.78 280.163C294.063 278.498 292.468 276.429 291.982 274.29L291.844 274.324V298.407C291.612 301.193 293.254 304.014 296.78 306.164C303.867 310.5 315.66 310.592 322.863 306.43C326.1 304.569 327.846 302.164 328.112 299.713C328.204 298.881 329.129 298.291 330.297 298.06V272.047C329.141 272.278 328.204 272.879 328.112 273.7V273.712Z" fill="url(#paint38_linear_499_129)"/>
<g style="mix-blend-mode:color-dodge">
<path d="M311.093 260.613C312.018 259.896 312.053 258.821 310.781 258.092L281.785 241.352L279.785 242.508L310.793 260.405C310.908 260.474 311.012 260.543 311.105 260.613H311.093Z" fill="url(#paint39_radial_499_129)"/>
<path d="M335.276 213.882C339.531 214.113 343.693 215.177 346.965 217.061C350.191 218.923 352.006 221.293 352.445 223.721C353.035 220.53 351.22 217.212 346.965 214.749C343.693 212.865 339.543 211.801 335.276 211.57C334.733 211.535 334.271 211.42 333.901 211.246L333.716 211.35C332.19 212.229 333.115 213.766 335.265 213.882H335.276Z" fill="url(#paint40_radial_499_129)"/>
</g>
<path style="mix-blend-mode:color-dodge" d="M300.328 302.153C297.97 302.13 296.155 293.748 296.282 283.435C296.397 273.123 298.397 264.787 300.756 264.81C303.114 264.833 304.93 273.215 304.802 283.528C304.675 293.841 302.687 302.176 300.328 302.153Z" fill="url(#paint41_radial_499_129)"/>
<path style="mix-blend-mode:color-dodge" d="M333.754 271.353C331.742 270.197 328.285 270.914 328.112 272.556C327.846 275.007 326.1 277.4 322.863 279.273C315.66 283.435 303.868 283.342 296.781 279.007C293.983 277.296 292.364 275.157 291.936 272.949C291.393 275.92 293.012 279.018 296.781 281.319C303.868 285.655 315.66 285.747 322.863 281.585C326.1 279.724 327.846 277.319 328.112 274.868C328.285 273.238 331.742 272.509 333.754 273.665L364.542 291.435V289.123L333.754 271.353Z" fill="url(#paint42_radial_499_129)"/>
<path style="mix-blend-mode:color-dodge" d="M443.012 246.38C445.231 245.097 445.994 243.305 445.324 241.652C444.965 242.542 444.202 243.374 443.012 244.068L364.753 289.25L364.533 289.123V291.435L364.753 291.562L443.012 246.38Z" fill="url(#paint43_radial_499_129)"/>
<path d="M304.905 296.361C298.835 301.598 286.245 302.8 277.435 298.835C270.348 295.644 268.151 289.158 272.637 284.695C275.18 282.163 279.158 280.464 283.597 279.712C285.701 279.354 286.094 277.735 284.268 277.03L248.312 263.064L224.068 283.967C222.495 285.32 218.854 284.984 218.114 283.412C216.934 280.857 214.079 278.545 209.778 277.065C201.708 274.29 191.153 275.562 185.73 279.955C179.788 284.776 181.973 291.482 190.471 294.777C194.286 296.257 198.714 296.8 202.934 296.499C205.743 296.291 207.674 298.118 206.102 299.471L181.857 320.374L274.221 356.271C278.256 357.844 283.713 357.231 286.407 354.907L347.994 301.806L311.992 287.817C310.188 287.123 307.76 287.932 307.992 289.169C308.442 291.632 307.46 294.176 304.905 296.384V296.361Z" fill="url(#paint44_linear_499_129)"/>
<path d="M286.407 354.884C283.713 357.208 278.256 357.821 274.221 356.249L181.857 320.351V346.364L274.221 382.262C278.256 383.834 283.713 383.221 286.407 380.897L347.994 327.796V301.783L286.407 354.884Z" fill="url(#paint45_linear_499_129)"/>
<path d="M202.932 296.477C198.712 296.789 194.284 296.246 190.469 294.754C185.648 292.881 182.862 289.91 182.434 286.812V311.287C182.18 313.472 183.104 315.657 185.105 317.542L206.088 299.448C207.661 298.095 205.742 296.269 202.921 296.477H202.932Z" fill="url(#paint46_linear_499_129)"/>
<path d="M283.612 279.701C279.172 280.464 275.195 282.152 272.652 284.684C268.166 289.146 270.362 295.632 277.449 298.823C279.866 299.91 282.571 300.604 285.346 300.939V278.625C285.149 279.111 284.56 279.539 283.612 279.701Z" fill="url(#paint47_linear_499_129)"/>
<g style="mix-blend-mode:color-dodge">
<path d="M308.06 289.806C308.014 289.91 308.002 290.026 308.002 290.153C308.025 290.037 308.048 289.922 308.06 289.806Z" fill="url(#paint48_radial_499_129)"/>
<path d="M272.638 283.539C270.719 285.447 270.037 287.725 270.418 289.967C270.661 288.522 271.378 287.1 272.638 285.852C275.181 283.32 279.158 281.62 283.598 280.869C285.61 280.522 286.037 279.03 284.465 278.291C284.222 278.406 283.945 278.499 283.598 278.556C279.158 279.319 275.181 281.007 272.638 283.539Z" fill="url(#paint49_radial_499_129)"/>
<path d="M190.481 295.91C194.296 297.39 198.724 297.933 202.944 297.633C204.227 297.54 205.326 297.875 205.996 298.396L206.112 298.303C207.684 296.951 205.765 295.124 202.944 295.332C198.724 295.644 194.296 295.101 190.481 293.609C185.81 291.794 183.058 288.95 182.504 285.967C181.764 289.748 184.619 293.644 190.481 295.922V295.91Z" fill="url(#paint50_radial_499_129)"/>
<path d="M286.406 353.728C283.713 356.052 278.256 356.665 274.221 355.093L183.696 319.923L181.846 321.519L274.209 357.405C278.244 358.977 283.701 358.365 286.395 356.041L347.982 302.939L346.132 302.223L286.395 353.728H286.406Z" fill="url(#paint51_radial_499_129)"/>
</g>
<path style="mix-blend-mode:color-dodge" d="M279.991 385.013C278.523 385.001 277.436 376.446 277.551 365.914C277.667 355.381 278.95 346.861 280.419 346.872C281.887 346.884 282.974 355.439 282.858 365.971C282.742 376.504 281.459 385.024 279.991 385.013Z" fill="url(#paint52_radial_499_129)"/>
<path style="mix-blend-mode:color-dodge" d="M189.167 310.061C187.698 310.049 186.577 303.945 186.669 296.453C186.75 288.95 188.011 282.88 189.479 282.903C190.947 282.927 192.069 289.019 191.976 296.511C191.895 304.014 190.635 310.084 189.167 310.061Z" fill="url(#paint53_radial_499_129)"/>
<path style="mix-blend-mode:color-dodge" d="M291.552 353.751C295.066 362.306 292.5 371.474 285.817 374.226C279.135 376.978 270.857 372.261 267.342 363.705C263.827 355.15 266.394 345.982 273.077 343.23C279.759 340.478 288.037 345.195 291.552 353.751Z" fill="url(#paint54_radial_499_129)"/>
<g style="mix-blend-mode:screen" opacity="0.5">
<path d="M279.369 406.043C278.444 406.043 277.507 405.869 276.605 405.523L181.641 368.492L182.057 367.416L277.022 404.447C279.23 405.314 281.727 404.887 283.531 403.361L347.615 348.941L348.367 349.82L284.282 404.239C282.883 405.43 281.137 406.043 279.369 406.043Z" fill="url(#paint55_radial_499_129)" style="mix-blend-mode:color-dodge"/>
</g>
<path style="mix-blend-mode:screen" d="M289.613 419.433C297.275 414.012 299.092 403.406 293.671 395.743C288.25 388.081 277.644 386.264 269.981 391.686C262.319 397.107 260.502 407.713 265.923 415.375C271.345 423.038 281.951 424.854 289.613 419.433Z" fill="url(#paint56_radial_499_129)"/>
<g style="mix-blend-mode:screen" opacity="0.5">
<path d="M151.976 341.033L51.5195 283.03L52.0976 282.024L152.554 340.028L151.976 341.033Z" fill="url(#paint57_radial_499_129)" style="mix-blend-mode:color-dodge"/>
</g>
<g style="mix-blend-mode:screen" opacity="0.5">
<path d="M480.415 270.847L364.457 338.798L365.042 339.795L480.999 271.845L480.415 270.847Z" fill="url(#paint58_radial_499_129)" style="mix-blend-mode:color-dodge"/>
</g>
<path style="mix-blend-mode:screen" d="M435.243 311.052C437.055 301.843 431.058 292.908 421.848 291.096C412.639 289.284 403.704 295.281 401.892 304.491C400.08 313.701 406.077 322.635 415.287 324.447C424.496 326.259 433.431 320.262 435.243 311.052Z" fill="url(#paint59_radial_499_129)"/>
<path style="mix-blend-mode:screen" d="M123.637 317.931C125.734 308.783 120.018 299.666 110.869 297.569C101.72 295.472 92.6031 301.188 90.506 310.337C88.409 319.486 94.1256 328.603 103.275 330.7C112.423 332.797 121.54 327.08 123.637 317.931Z" fill="url(#paint60_radial_499_129)"/>
<defs>
<linearGradient id="paint0_linear_499_129" x1="347.989" y1="2.22933" x2="242.041" y2="204.136" gradientUnits="userSpaceOnUse">
<stop offset="0.04" stop-color="#6B24D6"/>
<stop offset="0.29" stop-color="#7733DC"/>
<stop offset="0.79" stop-color="#965BEC"/>
<stop offset="1" stop-color="#A56EF4"/>
</linearGradient>
<linearGradient id="paint1_linear_499_129" x1="274.952" y1="204.9" x2="453.771" y2="108.166" gradientUnits="userSpaceOnUse">
<stop offset="0.04" stop-color="#6B24D6"/>
<stop offset="0.29" stop-color="#7733DC"/>
<stop offset="0.79" stop-color="#965BEC"/>
<stop offset="1" stop-color="#A56EF4"/>
</linearGradient>
<linearGradient id="paint2_linear_499_129" x1="263.487" y1="224.761" x2="338.15" y2="316.651" gradientUnits="userSpaceOnUse">
<stop offset="0.04" stop-color="#6B24D6"/>
<stop offset="0.29" stop-color="#7733DC"/>
<stop offset="0.79" stop-color="#965BEC"/>
<stop offset="1" stop-color="#A56EF4"/>
</linearGradient>
<linearGradient id="paint3_linear_499_129" x1="283.88" y1="221.386" x2="462.687" y2="124.664" gradientUnits="userSpaceOnUse">
<stop offset="0.04" stop-color="#6B24D6"/>
<stop offset="0.29" stop-color="#7733DC"/>
<stop offset="0.79" stop-color="#965BEC"/>
<stop offset="1" stop-color="#A56EF4"/>
</linearGradient>
<linearGradient id="paint4_linear_499_129" x1="290.743" y1="225.791" x2="290.778" y2="225.825" gradientUnits="userSpaceOnUse">
<stop offset="0.04" stop-color="#6B24D6"/>
<stop offset="0.29" stop-color="#7733DC"/>
<stop offset="0.79" stop-color="#965BEC"/>
<stop offset="1" stop-color="#A56EF4"/>
</linearGradient>
<linearGradient id="paint5_linear_499_129" x1="291.531" y1="225.514" x2="291.554" y2="225.537" gradientUnits="userSpaceOnUse">
<stop offset="0.04" stop-color="#6B24D6"/>
<stop offset="0.29" stop-color="#7733DC"/>
<stop offset="0.79" stop-color="#965BEC"/>
<stop offset="1" stop-color="#A56EF4"/>
</linearGradient>
<linearGradient id="paint6_linear_499_129" x1="61.815" y1="251.873" x2="377.497" y2="181.118" gradientUnits="userSpaceOnUse">
<stop offset="0.04" stop-color="#6B24D6"/>
<stop offset="0.29" stop-color="#7733DC"/>
<stop offset="0.79" stop-color="#965BEC"/>
<stop offset="1" stop-color="#A56EF4"/>
</linearGradient>
<linearGradient id="paint7_linear_499_129" x1="293.052" y1="216.263" x2="331.597" y2="216.263" gradientUnits="userSpaceOnUse">
<stop stop-color="#6B24D6"/>
<stop offset="0.07" stop-color="#712CD9"/>
<stop offset="0.16" stop-color="#7734DC"/>
<stop offset="0.32" stop-color="#8C4EE7"/>
<stop offset="0.48" stop-color="#A56EF4"/>
<stop offset="0.87" stop-color="#6B24D6"/>
</linearGradient>
<linearGradient id="paint8_linear_499_129" x1="133.125" y1="203.419" x2="232.772" y2="181.083" gradientUnits="userSpaceOnUse">
<stop offset="0.04" stop-color="#6B24D6"/>
<stop offset="0.29" stop-color="#7733DC"/>
<stop offset="0.79" stop-color="#965BEC"/>
<stop offset="1" stop-color="#A56EF4"/>
</linearGradient>
<linearGradient id="paint9_linear_499_129" x1="196.021" y1="226.069" x2="205.987" y2="223.837" gradientUnits="userSpaceOnUse">
<stop offset="0.04" stop-color="#6B24D6"/>
<stop offset="0.29" stop-color="#7733DC"/>
<stop offset="0.79" stop-color="#965BEC"/>
<stop offset="1" stop-color="#A56EF4"/>
</linearGradient>
<linearGradient id="paint10_linear_499_129" x1="202.122" y1="225.756" x2="204.029" y2="225.328" gradientUnits="userSpaceOnUse">
<stop offset="0.04" stop-color="#6B24D6"/>
<stop offset="0.29" stop-color="#7733DC"/>
<stop offset="0.79" stop-color="#965BEC"/>
<stop offset="1" stop-color="#A56EF4"/>
</linearGradient>
<linearGradient id="paint11_linear_499_129" x1="229.257" y1="233.93" x2="229.5" y2="233.873" gradientUnits="userSpaceOnUse">
<stop offset="0.04" stop-color="#6B24D6"/>
<stop offset="0.29" stop-color="#7733DC"/>
<stop offset="0.79" stop-color="#965BEC"/>
<stop offset="1" stop-color="#A56EF4"/>
</linearGradient>
<linearGradient id="paint12_linear_499_129" x1="207.029" y1="205.235" x2="242.048" y2="205.235" gradientUnits="userSpaceOnUse">
<stop stop-color="#7C3ADF"/>
<stop offset="0.04" stop-color="#7633DC"/>
<stop offset="0.14" stop-color="#6D27D7"/>
<stop offset="0.25" stop-color="#6B24D6"/>
<stop offset="0.56" stop-color="#9A60EE"/>
<stop offset="0.97" stop-color="#7734DC"/>
</linearGradient>
<radialGradient id="paint13_radial_499_129" cx="0" cy="0" r="1" gradientUnits="userSpaceOnUse" gradientTransform="translate(322.821 174.527) scale(11.2029 11.2029)">
<stop stop-color="white"/>
<stop offset="0.07" stop-color="#D8D8D8"/>
<stop offset="0.16" stop-color="#A5A5A5"/>
<stop offset="0.26" stop-color="#797979"/>
<stop offset="0.37" stop-color="#545454"/>
<stop offset="0.47" stop-color="#353535"/>
<stop offset="0.59" stop-color="#1D1D1D"/>
<stop offset="0.7" stop-color="#0D0D0D"/>
<stop offset="0.84" stop-color="#030303"/>
<stop offset="1"/>
</radialGradient>
<radialGradient id="paint14_radial_499_129" cx="0" cy="0" r="1" gradientUnits="userSpaceOnUse" gradientTransform="translate(312.845 216.495) scale(27.5275 27.5275)">
<stop stop-color="white"/>
<stop offset="0.07" stop-color="#D8D8D8"/>
<stop offset="0.16" stop-color="#A5A5A5"/>
<stop offset="0.26" stop-color="#797979"/>
<stop offset="0.37" stop-color="#545454"/>
<stop offset="0.47" stop-color="#353535"/>
<stop offset="0.59" stop-color="#1D1D1D"/>
<stop offset="0.7" stop-color="#0D0D0D"/>
<stop offset="0.84" stop-color="#030303"/>
<stop offset="1"/>
</radialGradient>
<radialGradient id="paint15_radial_499_129" cx="0" cy="0" r="1" gradientUnits="userSpaceOnUse" gradientTransform="translate(185.171 193.002) scale(15.4228 15.4228)">
<stop stop-color="white"/>
<stop offset="0.07" stop-color="#D8D8D8"/>
<stop offset="0.16" stop-color="#A5A5A5"/>
<stop offset="0.26" stop-color="#797979"/>
<stop offset="0.37" stop-color="#545454"/>
<stop offset="0.47" stop-color="#353535"/>
<stop offset="0.59" stop-color="#1D1D1D"/>
<stop offset="0.7" stop-color="#0D0D0D"/>
<stop offset="0.84" stop-color="#030303"/>
<stop offset="1"/>
</radialGradient>
<radialGradient id="paint16_radial_499_129" cx="0" cy="0" r="1" gradientUnits="userSpaceOnUse" gradientTransform="translate(224.401 190.135) scale(14.047 14.047)">
<stop stop-color="white"/>
<stop offset="0.07" stop-color="#D8D8D8"/>
<stop offset="0.16" stop-color="#A5A5A5"/>
<stop offset="0.26" stop-color="#797979"/>
<stop offset="0.37" stop-color="#545454"/>
<stop offset="0.47" stop-color="#353535"/>
<stop offset="0.59" stop-color="#1D1D1D"/>
<stop offset="0.7" stop-color="#0D0D0D"/>
<stop offset="0.84" stop-color="#030303"/>
<stop offset="1"/>
</radialGradient>
<radialGradient id="paint17_radial_499_129" cx="0" cy="0" r="1" gradientUnits="userSpaceOnUse" gradientTransform="translate(421.381 213.939) rotate(90.65) scale(16.4966 3.98821)">
<stop stop-color="#4916A1"/>
<stop offset="0.07" stop-color="#3E128A"/>
<stop offset="0.22" stop-color="#2B0D60"/>
<stop offset="0.37" stop-color="#1B083D"/>
<stop offset="0.52" stop-color="#0F0422"/>
<stop offset="0.68" stop-color="#06020F"/>
<stop offset="0.83" stop-color="#010003"/>
<stop offset="1"/>
</radialGradient>
<radialGradient id="paint18_radial_499_129" cx="0" cy="0" r="1" gradientUnits="userSpaceOnUse" gradientTransform="translate(335.524 188.534) rotate(90.65) scale(0.526041 0.127175)">
<stop stop-color="#4916A1"/>
<stop offset="0.07" stop-color="#3E128A"/>
<stop offset="0.22" stop-color="#2B0D60"/>
<stop offset="0.37" stop-color="#1B083D"/>
<stop offset="0.52" stop-color="#0F0422"/>
<stop offset="0.68" stop-color="#06020F"/>
<stop offset="0.83" stop-color="#010003"/>
<stop offset="1"/>
</radialGradient>
<linearGradient id="paint19_linear_499_129" x1="262.179" y1="37.3178" x2="143.815" y2="262.902" gradientUnits="userSpaceOnUse">
<stop offset="0.04" stop-color="#138BBD"/>
<stop offset="0.23" stop-color="#169AC6"/>
<stop offset="0.59" stop-color="#1EC2DF"/>
<stop offset="1" stop-color="#2AF6FF"/>
</linearGradient>
<linearGradient id="paint20_linear_499_129" x1="211.067" y1="229.652" x2="252.052" y2="217.374" gradientUnits="userSpaceOnUse">
<stop offset="0.04" stop-color="#138BBD"/>
<stop offset="0.23" stop-color="#169AC6"/>
<stop offset="0.59" stop-color="#1EC2DF"/>
<stop offset="1" stop-color="#2AF6FF"/>
</linearGradient>
<linearGradient id="paint21_linear_499_129" x1="-252.854" y1="266.394" x2="-251.698" y2="266.394" gradientUnits="userSpaceOnUse">
<stop stop-color="#1BB0D4"/>
<stop offset="0.11" stop-color="#1EBFDD"/>
<stop offset="0.24" stop-color="#23D8EC"/>
<stop offset="0.37" stop-color="#1EBFDD"/>
<stop offset="0.44" stop-color="#1BB0D4"/>
<stop offset="0.5" stop-color="#1BB0D4"/>
<stop offset="0.51" stop-color="#1BB0D4"/>
<stop offset="0.55" stop-color="#20C6E2"/>
<stop offset="0.56" stop-color="#1AAFD3"/>
<stop offset="0.58" stop-color="#169BC7"/>
<stop offset="0.61" stop-color="#138FBF"/>
<stop offset="0.63" stop-color="#138BBD"/>
</linearGradient>
<linearGradient id="paint22_linear_499_129" x1="-4.726" y1="307.714" x2="233.033" y2="254.417" gradientUnits="userSpaceOnUse">
<stop offset="0.04" stop-color="#138BBD"/>
<stop offset="0.23" stop-color="#169AC6"/>
<stop offset="0.59" stop-color="#1EC2DF"/>
<stop offset="1" stop-color="#2AF6FF"/>
</linearGradient>
<linearGradient id="paint23_linear_499_129" x1="158.74" y1="283.008" x2="197.366" y2="341.115" gradientUnits="userSpaceOnUse">
<stop offset="0.04" stop-color="#138BBD"/>
<stop offset="0.23" stop-color="#169AC6"/>
<stop offset="0.59" stop-color="#1EC2DF"/>
<stop offset="1" stop-color="#2AF6FF"/>
</linearGradient>
<linearGradient id="paint24_linear_499_129" x1="172.729" y1="304.049" x2="188.418" y2="327.646" gradientUnits="userSpaceOnUse">
<stop offset="0.04" stop-color="#138BBD"/>
<stop offset="0.23" stop-color="#169AC6"/>
<stop offset="0.59" stop-color="#1EC2DF"/>
<stop offset="1" stop-color="#2AF6FF"/>
</linearGradient>
<radialGradient id="paint25_radial_499_129" cx="0" cy="0" r="1" gradientUnits="userSpaceOnUse" gradientTransform="translate(111.616 265.122) scale(59.8299 59.8299)">
<stop stop-color="white"/>
<stop offset="0.07" stop-color="#D8D8D8"/>
<stop offset="0.16" stop-color="#A5A5A5"/>
<stop offset="0.26" stop-color="#797979"/>
<stop offset="0.37" stop-color="#545454"/>
<stop offset="0.47" stop-color="#353535"/>
<stop offset="0.59" stop-color="#1D1D1D"/>
<stop offset="0.7" stop-color="#0D0D0D"/>
<stop offset="0.84" stop-color="#030303"/>
<stop offset="1"/>
</radialGradient>
<radialGradient id="paint26_radial_499_129" cx="0" cy="0" r="1" gradientUnits="userSpaceOnUse" gradientTransform="translate(214.706 218.935) scale(8.28948 8.28949)">
<stop stop-color="white"/>
<stop offset="0.07" stop-color="#D8D8D8"/>
<stop offset="0.16" stop-color="#A5A5A5"/>
<stop offset="0.26" stop-color="#797979"/>
<stop offset="0.37" stop-color="#545454"/>
<stop offset="0.47" stop-color="#353535"/>
<stop offset="0.59" stop-color="#1D1D1D"/>
<stop offset="0.7" stop-color="#0D0D0D"/>
<stop offset="0.84" stop-color="#030303"/>
<stop offset="1"/>
</radialGradient>
<radialGradient id="paint27_radial_499_129" cx="0" cy="0" r="1" gradientUnits="userSpaceOnUse" gradientTransform="translate(185.874 248.763) scale(26.6026 26.6026)">
<stop stop-color="white"/>
<stop offset="0.07" stop-color="#D8D8D8"/>
<stop offset="0.16" stop-color="#A5A5A5"/>
<stop offset="0.26" stop-color="#797979"/>
<stop offset="0.37" stop-color="#545454"/>
<stop offset="0.47" stop-color="#353535"/>
<stop offset="0.59" stop-color="#1D1D1D"/>
<stop offset="0.7" stop-color="#0D0D0D"/>
<stop offset="0.84" stop-color="#030303"/>
<stop offset="1"/>
</radialGradient>
<radialGradient id="paint28_radial_499_129" cx="0" cy="0" r="1" gradientUnits="userSpaceOnUse" gradientTransform="translate(165.465 263.791) rotate(90.65) scale(16.6779 3.26307)">
<stop stop-color="#972A74"/>
<stop offset="0.04" stop-color="#8A266A"/>
<stop offset="0.19" stop-color="#601A49"/>
<stop offset="0.35" stop-color="#3D112F"/>
<stop offset="0.51" stop-color="#22091A"/>
<stop offset="0.67" stop-color="#0F040B"/>
<stop offset="0.83" stop-color="#030102"/>
<stop offset="1"/>
</radialGradient>
<radialGradient id="paint29_radial_499_129" cx="0" cy="0" r="1" gradientUnits="userSpaceOnUse" gradientTransform="translate(188.571 260.437) rotate(-22.34) scale(10.2503 20.5006)">
<stop stop-color="#972A74"/>
<stop offset="0.04" stop-color="#8A266A"/>
<stop offset="0.19" stop-color="#601A49"/>
<stop offset="0.35" stop-color="#3D112F"/>
<stop offset="0.51" stop-color="#22091A"/>
<stop offset="0.67" stop-color="#0F040B"/>
<stop offset="0.83" stop-color="#030102"/>
<stop offset="1"/>
</radialGradient>
<linearGradient id="paint30_linear_499_129" x1="279.773" y1="241.491" x2="445.563" y2="241.491" gradientUnits="userSpaceOnUse">
<stop offset="0.04" stop-color="#9F19AB"/>
<stop offset="0.24" stop-color="#AE24B0"/>
<stop offset="0.65" stop-color="#D643BF"/>
<stop offset="1" stop-color="#FF63CE"/>
</linearGradient>
<linearGradient id="paint31_linear_499_129" x1="461.656" y1="53.2258" x2="343.291" y2="278.811" gradientUnits="userSpaceOnUse">
<stop offset="0.04" stop-color="#9F19AB"/>
<stop offset="0.24" stop-color="#AE24B0"/>
<stop offset="0.65" stop-color="#D643BF"/>
<stop offset="1" stop-color="#FF63CE"/>
</linearGradient>
<linearGradient id="paint32_linear_499_129" x1="365.255" y1="222.888" x2="326.201" y2="222.888" gradientUnits="userSpaceOnUse">
<stop stop-color="#9F19AB"/>
<stop offset="0.14" stop-color="#AE24B0"/>
<stop offset="0.4" stop-color="#D643BF"/>
<stop offset="0.63" stop-color="#FF63CE"/>
<stop offset="0.87" stop-color="#DC48C1"/>
</linearGradient>
<linearGradient id="paint33_linear_499_129" x1="394.992" y1="257.815" x2="425.433" y2="321.02" gradientUnits="userSpaceOnUse">
<stop offset="0.04" stop-color="#9F19AB"/>
<stop offset="0.24" stop-color="#AE24B0"/>
<stop offset="0.65" stop-color="#D643BF"/>
<stop offset="1" stop-color="#FF63CE"/>
</linearGradient>
<linearGradient id="paint34_linear_499_129" x1="378.286" y1="287.019" x2="560.192" y2="232.553" gradientUnits="userSpaceOnUse">
<stop offset="0.04" stop-color="#9F19AB"/>
<stop offset="0.24" stop-color="#AE24B0"/>
<stop offset="0.65" stop-color="#D643BF"/>
<stop offset="1" stop-color="#FF63CE"/>
</linearGradient>
<linearGradient id="paint35_linear_499_129" x1="242.847" y1="267.469" x2="347.407" y2="244.023" gradientUnits="userSpaceOnUse">
<stop offset="0.04" stop-color="#9F19AB"/>
<stop offset="0.24" stop-color="#AE24B0"/>
<stop offset="0.65" stop-color="#D643BF"/>
<stop offset="1" stop-color="#FF63CE"/>
</linearGradient>
<linearGradient id="paint36_linear_499_129" x1="319.219" y1="300.581" x2="382.309" y2="286.441" gradientUnits="userSpaceOnUse">
<stop offset="0.04" stop-color="#9F19AB"/>
<stop offset="0.24" stop-color="#AE24B0"/>
<stop offset="0.65" stop-color="#D643BF"/>
<stop offset="1" stop-color="#FF63CE"/>
</linearGradient>
<linearGradient id="paint37_linear_499_129" x1="315.764" y1="295.979" x2="346.205" y2="359.185" gradientUnits="userSpaceOnUse">
<stop offset="0.04" stop-color="#9F19AB"/>
<stop offset="0.24" stop-color="#AE24B0"/>
<stop offset="0.65" stop-color="#D643BF"/>
<stop offset="1" stop-color="#FF63CE"/>
</linearGradient>
<linearGradient id="paint38_linear_499_129" x1="335.06" y1="290.765" x2="290.688" y2="290.765" gradientUnits="userSpaceOnUse">
<stop stop-color="#9F19AB"/>
<stop offset="0.17" stop-color="#AE24B0"/>
<stop offset="0.49" stop-color="#D643BF"/>
<stop offset="0.77" stop-color="#FF63CE"/>
<stop offset="0.92" stop-color="#DC48C1"/>
</linearGradient>
<radialGradient id="paint39_radial_499_129" cx="0" cy="0" r="1" gradientUnits="userSpaceOnUse" gradientTransform="translate(301.937 250.589) scale(17.9432 17.9432)">
<stop stop-color="white"/>
<stop offset="0.07" stop-color="#D8D8D8"/>
<stop offset="0.16" stop-color="#A5A5A5"/>
<stop offset="0.26" stop-color="#797979"/>
<stop offset="0.37" stop-color="#545454"/>
<stop offset="0.47" stop-color="#353535"/>
<stop offset="0.59" stop-color="#1D1D1D"/>
<stop offset="0.7" stop-color="#0D0D0D"/>
<stop offset="0.84" stop-color="#030303"/>
<stop offset="1"/>
</radialGradient>
<radialGradient id="paint40_radial_499_129" cx="0" cy="0" r="1" gradientUnits="userSpaceOnUse" gradientTransform="translate(348.341 213.443) scale(12.9024 12.9024)">
<stop stop-color="white"/>
<stop offset="0.07" stop-color="#D8D8D8"/>
<stop offset="0.16" stop-color="#A5A5A5"/>
<stop offset="0.26" stop-color="#797979"/>
<stop offset="0.37" stop-color="#545454"/>
<stop offset="0.47" stop-color="#353535"/>
<stop offset="0.59" stop-color="#1D1D1D"/>
<stop offset="0.7" stop-color="#0D0D0D"/>
<stop offset="0.84" stop-color="#030303"/>
<stop offset="1"/>
</radialGradient>
<radialGradient id="paint41_radial_499_129" cx="0" cy="0" r="1" gradientUnits="userSpaceOnUse" gradientTransform="translate(125.752 283.151) rotate(90.65) scale(18.672 4.35076)">
<stop stop-color="#AD3185"/>
<stop offset="0.1" stop-color="#8A276A"/>
<stop offset="0.24" stop-color="#601B4A"/>
<stop offset="0.39" stop-color="#3D112F"/>
<stop offset="0.54" stop-color="#22091A"/>
<stop offset="0.69" stop-color="#0F040B"/>
<stop offset="0.84" stop-color="#030102"/>
<stop offset="1"/>
</radialGradient>
<radialGradient id="paint42_radial_499_129" cx="0" cy="0" r="1" gradientUnits="userSpaceOnUse" gradientTransform="translate(304.527 290.117) scale(41.7017 41.7017)">
<stop stop-color="white"/>
<stop offset="0.07" stop-color="#D8D8D8"/>
<stop offset="0.16" stop-color="#A5A5A5"/>
<stop offset="0.26" stop-color="#797979"/>
<stop offset="0.37" stop-color="#545454"/>
<stop offset="0.47" stop-color="#353535"/>
<stop offset="0.59" stop-color="#1D1D1D"/>
<stop offset="0.7" stop-color="#0D0D0D"/>
<stop offset="0.84" stop-color="#030303"/>
<stop offset="1"/>
</radialGradient>
<radialGradient id="paint43_radial_499_129" cx="0" cy="0" r="1" gradientUnits="userSpaceOnUse" gradientTransform="translate(417.75 269.376) scale(44.5111)">
<stop stop-color="white"/>
<stop offset="0.07" stop-color="#D8D8D8"/>
<stop offset="0.16" stop-color="#A5A5A5"/>
<stop offset="0.26" stop-color="#797979"/>
<stop offset="0.37" stop-color="#545454"/>
<stop offset="0.47" stop-color="#353535"/>
<stop offset="0.59" stop-color="#1D1D1D"/>
<stop offset="0.7" stop-color="#0D0D0D"/>
<stop offset="0.84" stop-color="#030303"/>
<stop offset="1"/>
</radialGradient>
<linearGradient id="paint44_linear_499_129" x1="346.872" y1="137.427" x2="245.109" y2="331.368" gradientUnits="userSpaceOnUse">
<stop offset="0.04" stop-color="#FFA98C"/>
<stop offset="0.32" stop-color="#FEB892"/>
<stop offset="0.86" stop-color="#FEE0A3"/>
<stop offset="1" stop-color="#FEECA8"/>
</linearGradient>
<linearGradient id="paint45_linear_499_129" x1="-252.86" y1="342.456" x2="-251.704" y2="342.456" gradientUnits="userSpaceOnUse">
<stop offset="0.07" stop-color="#FCCE9E"/>
<stop offset="0.52" stop-color="#FAC099"/>
<stop offset="0.59" stop-color="#FFE4A7"/>
<stop offset="0.61" stop-color="#FCD4A0"/>
<stop offset="0.64" stop-color="#F9BD97"/>
<stop offset="0.67" stop-color="#F7AE91"/>
<stop offset="0.7" stop-color="#F7AA90"/>
<stop offset="1" stop-color="#F9B695"/>
</linearGradient>
<linearGradient id="paint46_linear_499_129" x1="151.38" y1="309.437" x2="237.107" y2="290.222" gradientUnits="userSpaceOnUse">
<stop offset="0.04" stop-color="#FFA98C"/>
<stop offset="0.32" stop-color="#FEB892"/>
<stop offset="0.86" stop-color="#FEE0A3"/>
<stop offset="1" stop-color="#FEECA8"/>
</linearGradient>
<linearGradient id="paint47_linear_499_129" x1="285.727" y1="289.794" x2="236.788" y2="289.794" gradientUnits="userSpaceOnUse">
<stop offset="0.04" stop-color="#F7AA90"/>
<stop offset="0.23" stop-color="#F9B996"/>
<stop offset="0.61" stop-color="#FEE1A6"/>
<stop offset="0.63" stop-color="#FFE4A7"/>
<stop offset="0.87" stop-color="#F7AA90"/>
</linearGradient>
<radialGradient id="paint48_radial_499_129" cx="0" cy="0" r="1" gradientUnits="userSpaceOnUse" gradientTransform="translate(308.037 289.968) scale(0.127221 0.127176)">
<stop stop-color="white"/>
<stop offset="0.07" stop-color="#D8D8D8"/>
<stop offset="0.16" stop-color="#A5A5A5"/>
<stop offset="0.26" stop-color="#797979"/>
<stop offset="0.37" stop-color="#545454"/>
<stop offset="0.47" stop-color="#353535"/>
<stop offset="0.59" stop-color="#1D1D1D"/>
<stop offset="0.7" stop-color="#0D0D0D"/>
<stop offset="0.84" stop-color="#030303"/>
<stop offset="1"/>
</radialGradient>
<radialGradient id="paint49_radial_499_129" cx="0" cy="0" r="1" gradientUnits="userSpaceOnUse" gradientTransform="translate(277.875 284.117) scale(6.75183 6.75181)">
<stop stop-color="white"/>
<stop offset="0.07" stop-color="#D8D8D8"/>
<stop offset="0.16" stop-color="#A5A5A5"/>
<stop offset="0.26" stop-color="#797979"/>
<stop offset="0.37" stop-color="#545454"/>
<stop offset="0.47" stop-color="#353535"/>
<stop offset="0.59" stop-color="#1D1D1D"/>
<stop offset="0.7" stop-color="#0D0D0D"/>
<stop offset="0.84" stop-color="#030303"/>
<stop offset="1"/>
</radialGradient>
<radialGradient id="paint50_radial_499_129" cx="0" cy="0" r="1" gradientUnits="userSpaceOnUse" gradientTransform="translate(192.793 293.332) scale(9.64214 9.64215)">
<stop stop-color="white"/>
<stop offset="0.07" stop-color="#D8D8D8"/>
<stop offset="0.16" stop-color="#A5A5A5"/>
<stop offset="0.26" stop-color="#797979"/>
<stop offset="0.37" stop-color="#545454"/>
<stop offset="0.47" stop-color="#353535"/>
<stop offset="0.59" stop-color="#1D1D1D"/>
<stop offset="0.7" stop-color="#0D0D0D"/>
<stop offset="0.84" stop-color="#030303"/>
<stop offset="1"/>
</radialGradient>
<radialGradient id="paint51_radial_499_129" cx="0" cy="0" r="1" gradientUnits="userSpaceOnUse" gradientTransform="translate(239.294 332.56) scale(61.9919 61.9919)">
<stop stop-color="white"/>
<stop offset="0.07" stop-color="#D8D8D8"/>
<stop offset="0.16" stop-color="#A5A5A5"/>
<stop offset="0.26" stop-color="#797979"/>
<stop offset="0.37" stop-color="#545454"/>
<stop offset="0.47" stop-color="#353535"/>
<stop offset="0.59" stop-color="#1D1D1D"/>
<stop offset="0.7" stop-color="#0D0D0D"/>
<stop offset="0.84" stop-color="#030303"/>
<stop offset="1"/>
</radialGradient>
<radialGradient id="paint52_radial_499_129" cx="0" cy="0" r="1" gradientUnits="userSpaceOnUse" gradientTransform="translate(263.586 364.14) rotate(90.65) scale(19.0752 2.66165)">
<stop stop-color="#972A74"/>
<stop offset="0.04" stop-color="#8A266A"/>
<stop offset="0.19" stop-color="#601A49"/>
<stop offset="0.35" stop-color="#3D112F"/>
<stop offset="0.51" stop-color="#22091A"/>
<stop offset="0.67" stop-color="#0F040B"/>
<stop offset="0.83" stop-color="#030102"/>
<stop offset="1"/>
</radialGradient>
<radialGradient id="paint53_radial_499_129" cx="0" cy="0" r="1" gradientUnits="userSpaceOnUse" gradientTransform="translate(172.575 292.101) rotate(90.65) scale(13.604 2.66165)">
<stop stop-color="#972A74"/>
<stop offset="0.04" stop-color="#8A266A"/>
<stop offset="0.19" stop-color="#601A49"/>
<stop offset="0.35" stop-color="#3D112F"/>
<stop offset="0.51" stop-color="#22091A"/>
<stop offset="0.67" stop-color="#0F040B"/>
<stop offset="0.83" stop-color="#030102"/>
<stop offset="1"/>
</radialGradient>
<radialGradient id="paint54_radial_499_129" cx="0" cy="0" r="1" gradientUnits="userSpaceOnUse" gradientTransform="translate(282.411 364.63) rotate(-22.35) scale(13.13 16.665)">
<stop stop-color="#972A74"/>
<stop offset="0.04" stop-color="#8A266A"/>
<stop offset="0.19" stop-color="#601A49"/>
<stop offset="0.35" stop-color="#3D112F"/>
<stop offset="0.51" stop-color="#22091A"/>
<stop offset="0.67" stop-color="#0F040B"/>
<stop offset="0.83" stop-color="#030102"/>
<stop offset="1"/>
</radialGradient>
<radialGradient id="paint55_radial_499_129" cx="0" cy="0" r="1" gradientUnits="userSpaceOnUse" gradientTransform="translate(279.265 386.735) scale(62.304 62.304)">
<stop stop-color="#FA45C1"/>
<stop offset="0.21" stop-color="#CB389D"/>
<stop offset="0.67" stop-color="#571843"/>
<stop offset="1"/>
</radialGradient>
<radialGradient id="paint56_radial_499_129" cx="0" cy="0" r="1" gradientUnits="userSpaceOnUse" gradientTransform="translate(279.803 405.54) scale(16.9952 16.9952)">
<stop offset="0.09" stop-color="#B8109B"/>
<stop offset="0.13" stop-color="#5B0663"/>
<stop offset="0.15" stop-color="#500557"/>
<stop offset="0.21" stop-color="#37033C"/>
<stop offset="0.29" stop-color="#230226"/>
<stop offset="0.37" stop-color="#130114"/>
<stop offset="0.48" stop-color="#080008"/>
<stop offset="0.62" stop-color="#010001"/>
<stop offset="1"/>
</radialGradient>
<radialGradient id="paint57_radial_499_129" cx="0" cy="0" r="1" gradientUnits="userSpaceOnUse" gradientTransform="translate(109.002 295.829) scale(51.1242 51.1242)">
<stop stop-color="#FA45C1"/>
<stop offset="0.21" stop-color="#CB389D"/>
<stop offset="0.67" stop-color="#571843"/>
<stop offset="1"/>
</radialGradient>
<radialGradient id="paint58_radial_499_129" cx="0" cy="0" r="1" gradientUnits="userSpaceOnUse" gradientTransform="translate(417.571 296.295) scale(51.9104 51.9104)">
<stop stop-color="#FA45C1"/>
<stop offset="0.21" stop-color="#CB389D"/>
<stop offset="0.67" stop-color="#571843"/>
<stop offset="1"/>
</radialGradient>
<radialGradient id="paint59_radial_499_129" cx="0" cy="0" r="1" gradientUnits="userSpaceOnUse" gradientTransform="translate(418.579 307.741) scale(16.9952 16.9951)">
<stop offset="0.09" stop-color="#B8109B"/>
<stop offset="0.13" stop-color="#5B0663"/>
<stop offset="0.15" stop-color="#500557"/>
<stop offset="0.21" stop-color="#37033C"/>
<stop offset="0.29" stop-color="#230226"/>
<stop offset="0.37" stop-color="#130114"/>
<stop offset="0.48" stop-color="#080008"/>
<stop offset="0.62" stop-color="#010001"/>
<stop offset="1"/>
</radialGradient>
<radialGradient id="paint60_radial_499_129" cx="0" cy="0" r="1" gradientUnits="userSpaceOnUse" gradientTransform="translate(107.085 314.105) scale(16.9952)">
<stop offset="0.09" stop-color="#B8109B"/>
<stop offset="0.13" stop-color="#5B0663"/>
<stop offset="0.15" stop-color="#500557"/>
<stop offset="0.21" stop-color="#37033C"/>
<stop offset="0.29" stop-color="#230226"/>
<stop offset="0.37" stop-color="#130114"/>
<stop offset="0.48" stop-color="#080008"/>
<stop offset="0.62" stop-color="#010001"/>
<stop offset="1"/>
</radialGradient>
</defs>
</svg>
