<svg width="512" height="512" viewBox="0 0 512 512" fill="none" xmlns="http://www.w3.org/2000/svg">
<rect width="512" height="512" fill="white"/>
<path d="M372.166 199.498L337.701 307.301C333.151 321.594 319.861 331.288 304.904 331.288C289.721 331.288 276.296 321.323 271.926 306.76L256.653 256.217L240.435 307.256C235.884 321.549 222.594 331.288 207.592 331.288H207.186C192.184 331.288 178.939 321.594 174.389 307.301L139.879 199.498H106L122.399 350.45C126.634 394.455 163.576 428 207.772 428H304.273C348.424 428 385.366 394.41 389.646 350.45L406.045 199.498H372.166Z" fill="url(#paint0_linear_85_4430)"/>
<path d="M207.141 331.288H207.547C222.549 331.288 235.839 321.549 240.389 307.256L256.608 256.217L271.881 306.76C276.296 321.323 289.676 331.288 304.859 331.288C319.861 331.288 333.106 321.594 337.656 307.301L375.725 199.498H327.204L304.138 271.682L282.288 199.498H233.316L210.25 270.645L188.445 199.498H139.879L174.344 307.301C178.894 321.594 192.184 331.288 207.141 331.288Z" fill="#FFC700"/>
<path d="M257.374 130.793C295.758 130.793 327.024 162.489 327.024 200.948L375.68 200.498C375.68 169.117 362.57 139.63 340.405 117.402C318.239 95.1736 288.73 83 257.374 83C226.018 83 196.554 95.2187 174.344 117.402C152.133 139.585 139.969 169.117 139.969 200.498L188.625 200.948C188.625 162.489 218.945 130.793 257.374 130.793Z" fill="#F2664D"/>
<defs>
<linearGradient id="paint0_linear_85_4430" x1="256.023" y1="194.5" x2="256.023" y2="428" gradientUnits="userSpaceOnUse">
<stop stop-color="#F79E1B"/>
<stop offset="1" stop-color="#EC228C"/>
</linearGradient>
</defs>
</svg>
