<svg width="320" height="196" viewBox="0 0 320 196" fill="none" xmlns="http://www.w3.org/2000/svg">
<rect width="320" height="196" rx="10" fill="url(#paint0_linear_152_9)"/>
<mask id="mask0_152_9" style="mask-type:alpha" maskUnits="userSpaceOnUse" x="189" y="0" width="131" height="196">
<rect x="189" width="131" height="196" rx="10" fill="#D9D9D9"/>
</mask>
<g mask="url(#mask0_152_9)">
<path d="M210.668 8.82065C217.753 8.82065 223.523 14.6706 223.523 21.7687L232.503 21.6855C232.503 15.8938 230.084 10.4516 225.993 6.34921C221.902 2.24677 216.456 0 210.668 0C204.881 0 199.443 2.25509 195.344 6.34921C191.245 10.4433 189 15.8938 189 21.6855L197.98 21.7687C197.98 14.6706 203.576 8.82065 210.668 8.82065Z" fill="#B3915F"/>
<path d="M254.171 12.9479C261.256 12.9479 267.026 7.09798 267.026 -0.000148773L276.006 0.083065C276.006 5.87474 273.586 11.3169 269.496 15.4193C265.405 19.5218 259.958 21.7686 254.171 21.7686C248.384 21.7686 242.946 19.5135 238.847 15.4193C234.748 11.3252 232.503 5.87474 232.503 0.083065L241.483 -0.000148773C241.483 7.09798 247.079 12.9479 254.171 12.9479Z" fill="#CFB06E"/>
<path d="M297.675 8.82065C304.759 8.82065 310.529 14.6706 310.529 21.7687L319.509 21.6855C319.509 15.8938 317.09 10.4516 312.999 6.34921C308.908 2.24677 303.462 0 297.675 0C291.888 0 286.45 2.25509 282.351 6.34921C278.251 10.4433 276.006 15.8938 276.006 21.6855L284.986 21.7687C284.986 14.6706 290.582 8.82065 297.675 8.82065Z" fill="#B3915F"/>
<path d="M210.668 30.5892C217.753 30.5892 223.523 36.4391 223.523 43.5373L232.503 43.454C232.503 37.6624 230.084 32.2202 225.993 28.1178C221.902 24.0153 216.456 21.7686 210.668 21.7686C204.881 21.7686 199.443 24.0236 195.344 28.1178C191.245 32.2119 189 37.6624 189 43.454L197.98 43.5373C197.98 36.4391 203.576 30.5892 210.668 30.5892Z" fill="#B3915F"/>
<path d="M254.171 34.7169C261.256 34.7169 267.026 28.867 267.026 21.7689L276.006 21.8521C276.006 27.6438 273.586 33.086 269.496 37.1884C265.405 41.2908 259.958 43.5376 254.171 43.5376C248.384 43.5376 242.946 41.2825 238.847 37.1884C234.748 33.0943 232.503 27.6438 232.503 21.8521L241.483 21.7689C241.483 28.867 247.079 34.7169 254.171 34.7169Z" fill="#CFB06E"/>
<path d="M297.675 30.5892C304.759 30.5892 310.529 36.4391 310.529 43.5373L319.509 43.454C319.509 37.6624 317.09 32.2202 312.999 28.1178C308.908 24.0153 303.462 21.7686 297.675 21.7686C291.888 21.7686 286.45 24.0236 282.351 28.1178C278.251 32.2119 276.006 37.6624 276.006 43.454L284.986 43.5373C284.986 36.4391 290.582 30.5892 297.675 30.5892Z" fill="#B3915F"/>
<path d="M210.668 56.4855C217.753 56.4855 223.523 50.6356 223.523 43.5374L232.503 43.6207C232.503 49.4123 230.084 54.8545 225.993 58.9569C221.902 63.0594 216.456 65.3062 210.668 65.3062C204.881 65.3062 199.443 63.0511 195.344 58.9569C191.245 54.8628 189 49.4123 189 43.6207L197.98 43.5374C197.98 50.6356 203.576 56.4855 210.668 56.4855Z" fill="#CFB06E"/>
<path d="M254.171 52.3582C261.256 52.3582 267.026 58.2082 267.026 65.3063L276.006 65.2231C276.006 59.4314 273.586 53.9892 269.496 49.8868C265.405 45.7844 259.958 43.5376 254.171 43.5376C248.384 43.5376 242.946 45.7927 238.847 49.8868C234.748 53.9809 232.503 59.4314 232.503 65.2231L241.483 65.3063C241.483 58.2082 247.079 52.3582 254.171 52.3582Z" fill="#B3915F"/>
<path d="M297.675 56.4855C304.759 56.4855 310.529 50.6356 310.529 43.5374L319.509 43.6207C319.509 49.4123 317.09 54.8545 312.999 58.9569C308.908 63.0594 303.462 65.3062 297.675 65.3062C291.888 65.3062 286.45 63.0511 282.351 58.9569C278.251 54.8628 276.006 49.4123 276.006 43.6207L284.986 43.5374C284.986 50.6356 290.582 56.4855 297.675 56.4855Z" fill="#CFB06E"/>
<path d="M210.668 78.2541C217.753 78.2541 223.523 72.4041 223.523 65.306L232.503 65.3892C232.503 71.1809 230.084 76.6231 225.993 80.7255C221.902 84.8279 216.456 87.0747 210.668 87.0747C204.881 87.0747 199.443 84.8196 195.344 80.7255C191.245 76.6314 189 71.1809 189 65.3892L197.98 65.306C197.98 72.4041 203.576 78.2541 210.668 78.2541Z" fill="#CFB06E"/>
<path d="M254.171 74.1268C261.256 74.1268 267.026 79.9767 267.026 87.0749L276.006 86.9916C276.006 81.2 273.586 75.7578 269.496 71.6554C265.405 67.5529 259.958 65.3062 254.171 65.3062C248.384 65.3062 242.946 67.5612 238.847 71.6554C234.748 75.7495 232.503 81.2 232.503 86.9916L241.483 87.0749C241.483 79.9767 247.079 74.1268 254.171 74.1268Z" fill="#B3915F"/>
<path d="M297.675 78.2541C304.759 78.2541 310.529 72.4041 310.529 65.306L319.509 65.3892C319.509 71.1809 317.09 76.6231 312.999 80.7255C308.908 84.8279 303.462 87.0747 297.675 87.0747C291.888 87.0747 286.45 84.8196 282.351 80.7255C278.251 76.6314 276.006 71.1809 276.006 65.3892L284.986 65.306C284.986 72.4041 290.582 78.2541 297.675 78.2541Z" fill="#CFB06E"/>
<path d="M210.668 95.8954C217.753 95.8954 223.523 101.745 223.523 108.843L232.503 108.76C232.503 102.969 230.084 97.5263 225.993 93.4239C221.902 89.3215 216.456 87.0747 210.668 87.0747C204.881 87.0747 199.443 89.3298 195.344 93.4239C191.245 97.518 189 102.969 189 108.76L197.98 108.843C197.98 101.745 203.576 95.8954 210.668 95.8954Z" fill="#B3915F"/>
<path d="M254.171 100.023C261.256 100.023 267.026 94.1732 267.026 87.075L276.006 87.1583C276.006 92.9499 273.586 98.3921 269.496 102.495C265.405 106.597 259.958 108.844 254.171 108.844C248.384 108.844 242.946 106.589 238.847 102.495C234.748 98.4004 232.503 92.9499 232.503 87.1583L241.483 87.075C241.483 94.1732 247.079 100.023 254.171 100.023Z" fill="#CFB06E"/>
<path d="M297.675 95.8954C304.759 95.8954 310.529 101.745 310.529 108.843L319.509 108.76C319.509 102.969 317.09 97.5263 312.999 93.4239C308.908 89.3215 303.462 87.0747 297.675 87.0747C291.888 87.0747 286.45 89.3298 282.351 93.4239C278.251 97.518 276.006 102.969 276.006 108.76L284.986 108.843C284.986 101.745 290.582 95.8954 297.675 95.8954Z" fill="#B3915F"/>
<path d="M210.668 117.664C217.753 117.664 223.523 123.514 223.523 130.612L232.503 130.529C232.503 124.738 230.084 119.295 225.993 115.193C221.902 111.091 216.456 108.844 210.668 108.844C204.881 108.844 199.443 111.099 195.344 115.193C191.245 119.287 189 124.738 189 130.529L197.98 130.612C197.98 123.514 203.576 117.664 210.668 117.664Z" fill="#B3915F"/>
<path d="M254.171 121.792C261.256 121.792 267.026 115.942 267.026 108.844L276.006 108.927C276.006 114.718 273.586 120.161 269.496 124.263C265.405 128.366 259.958 130.612 254.171 130.612C248.384 130.612 242.946 128.357 238.847 124.263C234.748 120.169 232.503 114.718 232.503 108.927L241.483 108.844C241.483 115.942 247.079 121.792 254.171 121.792Z" fill="#CFB06E"/>
<path d="M297.675 117.664C304.759 117.664 310.529 123.514 310.529 130.612L319.509 130.529C319.509 124.738 317.09 119.295 312.999 115.193C308.908 111.091 303.462 108.844 297.675 108.844C291.888 108.844 286.45 111.099 282.351 115.193C278.251 119.287 276.006 124.738 276.006 130.529L284.986 130.612C284.986 123.514 290.582 117.664 297.675 117.664Z" fill="#B3915F"/>
<path d="M210.668 143.56C217.753 143.56 223.523 137.71 223.523 130.612L232.503 130.695C232.503 136.487 230.084 141.929 225.993 146.032C221.902 150.134 216.456 152.381 210.668 152.381C204.881 152.381 199.443 150.126 195.344 146.032C191.245 141.938 189 136.487 189 130.695L197.98 130.612C197.98 137.71 203.576 143.56 210.668 143.56Z" fill="#CFB06E"/>
<path d="M254.171 139.433C261.256 139.433 267.026 145.283 267.026 152.381L276.006 152.298C276.006 146.506 273.586 141.064 269.496 136.962C265.405 132.859 259.958 130.612 254.171 130.612C248.384 130.612 242.946 132.867 238.847 136.962C234.748 141.056 232.503 146.506 232.503 152.298L241.483 152.381C241.483 145.283 247.079 139.433 254.171 139.433Z" fill="#B3915F"/>
<path d="M297.675 143.56C304.759 143.56 310.529 137.71 310.529 130.612L319.509 130.695C319.509 136.487 317.09 141.929 312.999 146.032C308.908 150.134 303.462 152.381 297.675 152.381C291.888 152.381 286.45 150.126 282.351 146.032C278.251 141.938 276.006 136.487 276.006 130.695L284.986 130.612C284.986 137.71 290.582 143.56 297.675 143.56Z" fill="#CFB06E"/>
<path d="M210.668 165.329C217.753 165.329 223.523 159.479 223.523 152.381L232.503 152.464C232.503 158.256 230.084 163.698 225.993 167.8C221.902 171.903 216.456 174.149 210.668 174.149C204.881 174.149 199.443 171.894 195.344 167.8C191.245 163.706 189 158.256 189 152.464L197.98 152.381C197.98 159.479 203.576 165.329 210.668 165.329Z" fill="#CFB06E"/>
<path d="M254.171 161.202C261.256 161.202 267.026 167.051 267.026 174.15L276.006 174.066C276.006 168.275 273.586 162.832 269.496 158.73C265.405 154.628 259.958 152.381 254.171 152.381C248.384 152.381 242.946 154.636 238.847 158.73C234.748 162.824 232.503 168.275 232.503 174.066L241.483 174.15C241.483 167.051 247.079 161.202 254.171 161.202Z" fill="#B3915F"/>
<path d="M297.675 165.329C304.759 165.329 310.529 159.479 310.529 152.381L319.509 152.464C319.509 158.256 317.09 163.698 312.999 167.8C308.908 171.903 303.462 174.149 297.675 174.149C291.888 174.149 286.45 171.894 282.351 167.8C278.251 163.706 276.006 158.256 276.006 152.464L284.986 152.381C284.986 159.479 290.582 165.329 297.675 165.329Z" fill="#CFB06E"/>
<path d="M210.668 182.97C217.753 182.97 223.523 188.82 223.523 195.918L232.503 195.835C232.503 190.043 230.084 184.601 225.993 180.499C221.902 176.396 216.456 174.149 210.668 174.149C204.881 174.149 199.443 176.405 195.344 180.499C191.245 184.593 189 190.043 189 195.835L197.98 195.918C197.98 188.82 203.576 182.97 210.668 182.97Z" fill="#B3915F"/>
<path d="M254.171 187.098C261.256 187.098 267.026 181.248 267.026 174.15L276.006 174.233C276.006 180.025 273.586 185.467 269.496 189.569C265.405 193.672 259.958 195.918 254.171 195.918C248.384 195.918 242.946 193.663 238.847 189.569C234.748 185.475 232.503 180.025 232.503 174.233L241.483 174.15C241.483 181.248 247.079 187.098 254.171 187.098Z" fill="#CFB06E"/>
<path d="M297.675 182.97C304.759 182.97 310.529 188.82 310.529 195.918L319.509 195.835C319.509 190.043 317.09 184.601 312.999 180.499C308.908 176.396 303.462 174.149 297.675 174.149C291.888 174.149 286.45 176.405 282.351 180.499C278.251 184.593 276.006 190.043 276.006 195.835L284.986 195.918C284.986 188.82 290.582 182.97 297.675 182.97Z" fill="#B3915F"/>
</g>
<path d="M71.1906 131.167L65.0969 150.228C64.2924 152.756 61.9425 154.47 59.2979 154.47C56.6134 154.47 54.2397 152.708 53.467 150.133L50.7666 141.196L47.899 150.22C47.0945 152.748 44.7446 154.47 42.092 154.47H42.0203C39.3677 154.47 37.0258 152.756 36.2213 150.228L30.1196 131.167H24.1294L27.0289 157.858C27.7777 165.638 34.3095 171.569 42.1239 171.569H59.1864C66.9927 171.569 73.5246 165.63 74.2813 157.858L77.1808 131.167H71.1906Z" fill="#FFD987"/>
<path d="M42.0124 154.47H42.0841C44.7367 154.47 47.0865 152.748 47.8911 150.22L50.7587 141.196L53.4591 150.133C54.2397 152.708 56.6055 154.47 59.29 154.47C61.9425 154.47 64.2844 152.756 65.089 150.228L71.82 131.167H63.2409L59.1625 143.931L55.2991 131.167H46.6405L42.562 143.747L38.7066 131.167H30.1196L36.2134 150.228C37.0179 152.756 39.3678 154.47 42.0124 154.47Z" fill="#4F4F4F"/>
<path d="M50.8938 119.02C57.6806 119.02 63.2088 124.624 63.2088 131.424L71.8117 131.344C71.8117 125.796 69.4937 120.582 65.5746 116.652C61.6555 112.722 56.4379 110.569 50.8938 110.569C45.3497 110.569 40.1402 112.73 36.2131 116.652C32.286 120.574 30.1353 125.796 30.1353 131.344L38.7382 131.424C38.7382 124.624 44.0991 119.02 50.8938 119.02Z" fill="#CFB06E"/>
<path d="M31.0625 46H25.3906V30H31.1094C32.7188 30 34.1042 30.3203 35.2656 30.9609C36.4271 31.5964 37.3203 32.5104 37.9453 33.7031C38.5755 34.8958 38.8906 36.3229 38.8906 37.9844C38.8906 39.651 38.5755 41.0833 37.9453 42.2812C37.3203 43.4792 36.4219 44.3984 35.25 45.0391C34.0833 45.6797 32.6875 46 31.0625 46ZM28.7734 43.1016H30.9219C31.9219 43.1016 32.763 42.9245 33.4453 42.5703C34.1328 42.2109 34.6484 41.6562 34.9922 40.9062C35.3411 40.151 35.5156 39.1771 35.5156 37.9844C35.5156 36.8021 35.3411 35.8359 34.9922 35.0859C34.6484 34.3359 34.1354 33.7839 33.4531 33.4297C32.7708 33.0755 31.9297 32.8984 30.9297 32.8984H28.7734V43.1016ZM41.334 46V34H44.6621V46H41.334ZM43.0059 32.4531C42.5111 32.4531 42.0866 32.2891 41.7324 31.9609C41.3835 31.6276 41.209 31.2292 41.209 30.7656C41.209 30.3073 41.3835 29.9141 41.7324 29.5859C42.0866 29.2526 42.5111 29.0859 43.0059 29.0859C43.5007 29.0859 43.9225 29.2526 44.2715 29.5859C44.6257 29.9141 44.8027 30.3073 44.8027 30.7656C44.8027 31.2292 44.6257 31.6276 44.2715 31.9609C43.9225 32.2891 43.5007 32.4531 43.0059 32.4531ZM57.3125 37.4219L54.2656 37.6094C54.2135 37.349 54.1016 37.1146 53.9297 36.9062C53.7578 36.6927 53.5313 36.5234 53.25 36.3984C52.974 36.2682 52.6432 36.2031 52.2578 36.2031C51.7422 36.2031 51.3073 36.3125 50.9531 36.5312C50.599 36.7448 50.4219 37.0312 50.4219 37.3906C50.4219 37.6771 50.5365 37.9193 50.7656 38.1172C50.9948 38.3151 51.388 38.474 51.9453 38.5937L54.1172 39.0312C55.2839 39.2708 56.1536 39.6562 56.7266 40.1875C57.2995 40.7187 57.5859 41.4167 57.5859 42.2812C57.5859 43.0677 57.3542 43.7578 56.8906 44.3516C56.4323 44.9453 55.8021 45.4089 55 45.7422C54.2031 46.0703 53.2839 46.2344 52.2422 46.2344C50.6536 46.2344 49.388 45.9036 48.4453 45.2422C47.5078 44.5755 46.9583 43.6693 46.7969 42.5234L50.0703 42.3516C50.1693 42.8359 50.4089 43.2057 50.7891 43.4609C51.1693 43.7109 51.6563 43.8359 52.25 43.8359C52.8333 43.8359 53.3021 43.724 53.6563 43.5C54.0156 43.2708 54.1979 42.9766 54.2031 42.6172C54.1979 42.3151 54.0703 42.0677 53.8203 41.875C53.5703 41.6771 53.1849 41.526 52.6641 41.4219L50.5859 41.0078C49.4141 40.7734 48.5417 40.3672 47.9688 39.7891C47.401 39.2109 47.1172 38.474 47.1172 37.5781C47.1172 36.8073 47.3255 36.1432 47.7422 35.5859C48.1641 35.0286 48.7552 34.599 49.5156 34.2969C50.2813 33.9948 51.1771 33.8438 52.2031 33.8438C53.7188 33.8438 54.9115 34.1641 55.7813 34.8047C56.6563 35.4453 57.1667 36.3177 57.3125 37.4219ZM65.1035 46.2344C63.8743 46.2344 62.8171 45.974 61.9316 45.4531C61.0514 44.9271 60.3743 44.1979 59.9004 43.2656C59.4316 42.3333 59.1973 41.2604 59.1973 40.0469C59.1973 38.8177 59.4342 37.7396 59.9082 36.8125C60.3874 35.8802 61.0671 35.1536 61.9473 34.6328C62.8275 34.1068 63.8743 33.8438 65.0879 33.8438C66.1348 33.8438 67.0514 34.0339 67.8379 34.4141C68.6243 34.7943 69.2467 35.3281 69.7051 36.0156C70.1634 36.7031 70.416 37.5104 70.4629 38.4375H67.3223C67.2337 37.8385 66.9993 37.3568 66.6191 36.9922C66.2441 36.6224 65.752 36.4375 65.1426 36.4375C64.627 36.4375 64.1764 36.5781 63.791 36.8594C63.4108 37.1354 63.1139 37.5391 62.9004 38.0703C62.6868 38.6016 62.5801 39.2448 62.5801 40C62.5801 40.7656 62.6842 41.4167 62.8926 41.9531C63.1061 42.4896 63.4056 42.8984 63.791 43.1797C64.1764 43.4609 64.627 43.6016 65.1426 43.6016C65.5228 43.6016 65.8639 43.5234 66.166 43.3672C66.4733 43.2109 66.7259 42.9844 66.9238 42.6875C67.127 42.3854 67.2598 42.0234 67.3223 41.6016H70.4629C70.4108 42.5182 70.1608 43.3255 69.7129 44.0234C69.2702 44.7161 68.6582 45.2578 67.877 45.6484C67.0957 46.0391 66.1712 46.2344 65.1035 46.2344ZM78.0156 46.2344C76.8021 46.2344 75.7526 45.9766 74.8672 45.4609C73.987 44.9401 73.3073 44.2161 72.8281 43.2891C72.349 42.3568 72.1094 41.276 72.1094 40.0469C72.1094 38.8073 72.349 37.724 72.8281 36.7969C73.3073 35.8646 73.987 35.1406 74.8672 34.625C75.7526 34.1042 76.8021 33.8438 78.0156 33.8438C79.2292 33.8438 80.276 34.1042 81.1563 34.625C82.0417 35.1406 82.724 35.8646 83.2031 36.7969C83.6823 37.724 83.9219 38.8073 83.9219 40.0469C83.9219 41.276 83.6823 42.3568 83.2031 43.2891C82.724 44.2161 82.0417 44.9401 81.1563 45.4609C80.276 45.9766 79.2292 46.2344 78.0156 46.2344ZM78.0312 43.6562C78.5833 43.6562 79.0443 43.5 79.4141 43.1875C79.7839 42.8698 80.0625 42.4375 80.25 41.8906C80.4427 41.3437 80.5391 40.7214 80.5391 40.0234C80.5391 39.3255 80.4427 38.7031 80.25 38.1562C80.0625 37.6094 79.7839 37.1771 79.4141 36.8594C79.0443 36.5417 78.5833 36.3828 78.0312 36.3828C77.474 36.3828 77.0052 36.5417 76.625 36.8594C76.25 37.1771 75.9661 37.6094 75.7734 38.1562C75.5859 38.7031 75.4922 39.3255 75.4922 40.0234C75.4922 40.7214 75.5859 41.3437 75.7734 41.8906C75.9661 42.4375 76.25 42.8698 76.625 43.1875C77.0052 43.5 77.474 43.6562 78.0312 43.6562ZM96.8867 34L92.6914 46H88.9414L84.7461 34H88.2617L90.7539 42.5859H90.8789L93.3633 34H96.8867ZM103.672 46.2344C102.438 46.2344 101.375 45.9844 100.484 45.4844C99.599 44.9792 98.9167 44.2656 98.4375 43.3437C97.9583 42.4167 97.7188 41.3203 97.7188 40.0547C97.7188 38.8203 97.9583 37.737 98.4375 36.8047C98.9167 35.8724 99.5911 35.1458 100.461 34.625C101.336 34.1042 102.362 33.8438 103.539 33.8438C104.331 33.8438 105.068 33.9714 105.75 34.2266C106.438 34.4766 107.036 34.8542 107.547 35.3594C108.063 35.8646 108.464 36.5 108.75 37.2656C109.036 38.026 109.18 38.9167 109.18 39.9375V40.8516H99.0469V38.7891H106.047C106.047 38.3099 105.943 37.8854 105.734 37.5156C105.526 37.1458 105.237 36.8568 104.867 36.6484C104.503 36.4349 104.078 36.3281 103.594 36.3281C103.089 36.3281 102.641 36.4453 102.25 36.6797C101.865 36.9089 101.563 37.2187 101.344 37.6094C101.125 37.9948 101.013 38.4245 101.008 38.8984V40.8594C101.008 41.4531 101.117 41.9661 101.336 42.3984C101.56 42.8307 101.875 43.1641 102.281 43.3984C102.688 43.6328 103.169 43.75 103.727 43.75C104.096 43.75 104.435 43.6979 104.742 43.5938C105.049 43.4896 105.313 43.3333 105.531 43.125C105.75 42.9167 105.917 42.6615 106.031 42.3594L109.109 42.5625C108.953 43.3021 108.633 43.9479 108.148 44.5C107.669 45.0469 107.049 45.474 106.289 45.7813C105.534 46.0833 104.661 46.2344 103.672 46.2344ZM111.352 46V34H114.578V36.0937H114.703C114.922 35.349 115.289 34.7865 115.805 34.4063C116.32 34.0208 116.914 33.8281 117.586 33.8281C117.753 33.8281 117.932 33.8385 118.125 33.8594C118.318 33.8802 118.487 33.9089 118.633 33.9453V36.8984C118.477 36.8516 118.26 36.8099 117.984 36.7734C117.708 36.737 117.456 36.7188 117.227 36.7188C116.737 36.7188 116.299 36.8255 115.914 37.0391C115.534 37.2474 115.232 37.5391 115.008 37.9141C114.789 38.2891 114.68 38.7214 114.68 39.2109V46H111.352ZM28.9922 73L24.4141 57H28.1094L30.7578 68.1172H30.8906L33.8125 57H36.9766L39.8906 68.1406H40.0313L42.6797 57H46.375L41.7969 73H38.5L35.4531 62.5391H35.3281L32.2891 73H28.9922ZM52.3027 73.2344C51.0684 73.2344 50.0059 72.9844 49.1152 72.4844C48.2298 71.9792 47.5475 71.2656 47.0684 70.3437C46.5892 69.4167 46.3496 68.3203 46.3496 67.0547C46.3496 65.8203 46.5892 64.737 47.0684 63.8047C47.5475 62.8724 48.222 62.1458 49.0918 61.625C49.9668 61.1042 50.9928 60.8438 52.1699 60.8438C52.9616 60.8438 53.6986 60.9714 54.3809 61.2266C55.0684 61.4766 55.6673 61.8542 56.1777 62.3594C56.6934 62.8646 57.0944 63.5 57.3809 64.2656C57.6673 65.026 57.8105 65.9167 57.8105 66.9375V67.8516H47.6777V65.7891H54.6777C54.6777 65.3099 54.5736 64.8854 54.3652 64.5156C54.1569 64.1458 53.8678 63.8568 53.498 63.6484C53.1335 63.4349 52.709 63.3281 52.2246 63.3281C51.7194 63.3281 51.2715 63.4453 50.8809 63.6797C50.4954 63.9089 50.1934 64.2187 49.9746 64.6094C49.7559 64.9948 49.6439 65.4245 49.6387 65.8984V67.8594C49.6387 68.4531 49.748 68.9661 49.9668 69.3984C50.1908 69.8307 50.5059 70.1641 50.9121 70.3984C51.3184 70.6328 51.8001 70.75 52.3574 70.75C52.7272 70.75 53.0658 70.6979 53.373 70.5938C53.6803 70.4896 53.9434 70.3333 54.1621 70.125C54.3809 69.9167 54.5475 69.6615 54.6621 69.3594L57.7402 69.5625C57.584 70.3021 57.2637 70.9479 56.7793 71.5C56.3001 72.0469 55.6803 72.474 54.9199 72.7813C54.1647 73.0833 53.2923 73.2344 52.3027 73.2344ZM60.0449 73V57H63.373V63.0156H63.4746C63.6204 62.6927 63.8314 62.3646 64.1074 62.0312C64.3887 61.6927 64.7533 61.4115 65.2012 61.1875C65.6543 60.9583 66.2168 60.8438 66.8887 60.8438C67.7637 60.8438 68.571 61.0729 69.3105 61.5313C70.0501 61.9844 70.6413 62.6693 71.084 63.5859C71.5267 64.4974 71.748 65.6406 71.748 67.0156C71.748 68.3542 71.5319 69.4844 71.0996 70.4062C70.6725 71.3229 70.0892 72.0182 69.3496 72.4922C68.6152 72.9609 67.7923 73.1953 66.8809 73.1953C66.235 73.1953 65.6855 73.0885 65.2324 72.875C64.7845 72.6615 64.4173 72.3932 64.1309 72.0703C63.8444 71.7422 63.6257 71.4115 63.4746 71.0781H63.3262V73H60.0449ZM63.3027 67C63.3027 67.7135 63.4017 68.3359 63.5996 68.8672C63.7975 69.3984 64.084 69.8125 64.459 70.1094C64.834 70.401 65.2897 70.5469 65.8262 70.5469C66.3678 70.5469 66.8262 70.3984 67.2012 70.1016C67.5762 69.7995 67.86 69.3828 68.0527 68.8516C68.2507 68.3151 68.3496 67.6979 68.3496 67C68.3496 66.3073 68.2533 65.6979 68.0605 65.1719C67.8678 64.6458 67.584 64.2344 67.209 63.9375C66.834 63.6406 66.373 63.4922 65.8262 63.4922C65.2845 63.4922 64.8262 63.6354 64.4512 63.9219C64.0814 64.2083 63.7975 64.6146 63.5996 65.1406C63.4017 65.6667 63.3027 66.2865 63.3027 67ZM88.7344 65C88.7344 66.7448 88.4036 68.2292 87.7422 69.4531C87.0859 70.6771 86.1901 71.612 85.0547 72.2578C83.9245 72.8984 82.6536 73.2187 81.2422 73.2187C79.8203 73.2187 78.5443 72.8958 77.4141 72.25C76.2839 71.6042 75.3906 70.6693 74.7344 69.4453C74.0781 68.2214 73.75 66.7396 73.75 65C73.75 63.2552 74.0781 61.7708 74.7344 60.5469C75.3906 59.3229 76.2839 58.3906 77.4141 57.75C78.5443 57.1042 79.8203 56.7812 81.2422 56.7812C82.6536 56.7812 83.9245 57.1042 85.0547 57.75C86.1901 58.3906 87.0859 59.3229 87.7422 60.5469C88.4036 61.7708 88.7344 63.2552 88.7344 65ZM85.3047 65C85.3047 63.8698 85.1354 62.9167 84.7969 62.1406C84.4635 61.3646 83.9922 60.776 83.3828 60.375C82.7734 59.974 82.0599 59.7734 81.2422 59.7734C80.4245 59.7734 79.7109 59.974 79.1016 60.375C78.4922 60.776 78.0182 61.3646 77.6797 62.1406C77.3464 62.9167 77.1797 63.8698 77.1797 65C77.1797 66.1302 77.3464 67.0833 77.6797 67.8594C78.0182 68.6354 78.4922 69.224 79.1016 69.625C79.7109 70.026 80.4245 70.2266 81.2422 70.2266C82.0599 70.2266 82.7734 70.026 83.3828 69.625C83.9922 69.224 84.4635 68.6354 84.7969 67.8594C85.1354 67.0833 85.3047 66.1302 85.3047 65ZM94.5059 66.0625V73H91.1777V61H94.3496V63.1172H94.4902C94.7559 62.4193 95.2012 61.8672 95.8262 61.4609C96.4512 61.0495 97.209 60.8438 98.0996 60.8438C98.9329 60.8438 99.6595 61.026 100.279 61.3906C100.899 61.7552 101.381 62.276 101.725 62.9531C102.068 63.625 102.24 64.4271 102.24 65.3594V73H98.9121V65.9531C98.9173 65.2187 98.7298 64.6458 98.3496 64.2344C97.9694 63.8177 97.446 63.6094 96.7793 63.6094C96.3314 63.6094 95.9355 63.7057 95.5918 63.8984C95.2533 64.0911 94.9876 64.3724 94.7949 64.7422C94.6074 65.1068 94.5111 65.5469 94.5059 66.0625ZM114.848 64.4219L111.801 64.6094C111.749 64.349 111.637 64.1146 111.465 63.9062C111.293 63.6927 111.066 63.5234 110.785 63.3984C110.509 63.2682 110.178 63.2031 109.793 63.2031C109.277 63.2031 108.842 63.3125 108.488 63.5312C108.134 63.7448 107.957 64.0312 107.957 64.3906C107.957 64.6771 108.072 64.9193 108.301 65.1172C108.53 65.3151 108.923 65.474 109.48 65.5937L111.652 66.0312C112.819 66.2708 113.689 66.6562 114.262 67.1875C114.835 67.7187 115.121 68.4167 115.121 69.2812C115.121 70.0677 114.889 70.7578 114.426 71.3516C113.967 71.9453 113.337 72.4089 112.535 72.7422C111.738 73.0703 110.819 73.2344 109.777 73.2344C108.189 73.2344 106.923 72.9036 105.98 72.2422C105.043 71.5755 104.493 70.6693 104.332 69.5234L107.605 69.3516C107.704 69.8359 107.944 70.2057 108.324 70.4609C108.704 70.7109 109.191 70.8359 109.785 70.8359C110.368 70.8359 110.837 70.724 111.191 70.5C111.551 70.2708 111.733 69.9766 111.738 69.6172C111.733 69.3151 111.605 69.0677 111.355 68.875C111.105 68.6771 110.72 68.526 110.199 68.4219L108.121 68.0078C106.949 67.7734 106.077 67.3672 105.504 66.7891C104.936 66.2109 104.652 65.474 104.652 64.5781C104.652 63.8073 104.861 63.1432 105.277 62.5859C105.699 62.0286 106.29 61.599 107.051 61.2969C107.816 60.9948 108.712 60.8438 109.738 60.8438C111.254 60.8438 112.447 61.1641 113.316 61.8047C114.191 62.4453 114.702 63.3177 114.848 64.4219Z" fill="white"/>
<defs>
<linearGradient id="paint0_linear_152_9" x1="0" y1="108.5" x2="320" y2="108.5" gradientUnits="userSpaceOnUse">
<stop stop-color="#997851"/>
<stop offset="1" stop-color="#FFD988"/>
</linearGradient>
</defs>
</svg>
